<svg width="431" height="74" viewBox="0 0 431 74" fill="none" xmlns="http://www.w3.org/2000/svg">
<path d="M93.7 36.4C92.4333 36.6 91.2 36.8 90 37C88.8 37.2 87.6 37.4 86.4 37.6C85.6 37.7333 85.0667 38.1333 84.8 38.8C84.1333 40 83.3333 41.0667 82.4 42C80 44.6 77.7667 47.3667 75.7 50.3C73.7 53.2333 71.6667 56.1667 69.6 59.1C68.3333 60.9 67.0667 62.9333 65.8 65.2C64.5333 67.4667 63.3667 69.4 62.3 71C61.7 71.8667 61.1333 72.5667 60.6 73.1C60.1333 73.6333 59.7 73.9 59.3 73.9C58.5667 73.9 58.1 73.7 57.9 73.3C57.7667 72.9 57.7667 72.4667 57.9 72C58.1 71.4667 58.3333 70.9333 58.6 70.4C58.9333 69.8667 59.2 69.4333 59.4 69.1C60.9333 66.2333 62.6667 63.5 64.6 60.9C66.5333 58.3 68.2667 55.5667 69.8 52.7C68.6667 53.4333 67.5 54.1333 66.3 54.8C65.1 55.4 63.9333 56.0667 62.8 56.8C58.2667 59.3333 53.7333 61.6 49.2 63.6C44.7333 65.5333 40.1 67.0667 35.3 68.2C33.6333 68.6 31.9667 68.9 30.3 69.1C28.6333 69.3 27 69.2667 25.4 69C23.3333 68.6 21.9 67.6 21.1 66C20.3667 64.4 20.4667 62.3667 21.4 59.9C22 58.5 22.6333 57.2333 23.3 56.1C24.0333 54.9 24.8667 53.6667 25.8 52.4C27.4667 50.2667 29.2 48.2667 31 46.4C32.8667 44.5333 34.8333 42.6667 36.9 40.8C38.8333 39.2 40.7667 37.5667 42.7 35.9C44.7 34.2333 46.6667 32.6333 48.6 31.1C48.8667 30.7667 49.1333 30.5 49.4 30.3C49.6667 30.0333 49.9333 29.7667 50.2 29.5L50 29.1C49.2 29.4333 48.4333 29.7333 47.7 30C46.9667 30.2667 46.2 30.5 45.4 30.7C40.6667 32.2333 35.9667 33.7333 31.3 35.2C26.7 36.6 22.0667 37.8 17.4 38.8C15.1333 39.2667 12.9 39.6333 10.7 39.9C8.5 40.1 6.3 40.3667 4.1 40.7C3.36667 40.8333 2.6 40.8333 1.8 40.7C1.46667 40.6333 1.13333 40.5 0.8 40.3C0.466667 40.0333 0.3 39.5333 0.3 38.8C0.633333 38.7333 0.9 38.6667 1.1 38.6C1.36667 38.4667 1.66667 38.4 2 38.4C6.73333 38.0667 11.4333 37.3667 16.1 36.3C20.7667 35.2333 25.4667 33.9333 30.2 32.4C34.3333 31.1333 38.4667 29.8 42.6 28.4C46.7333 27 50.8333 25.6333 54.9 24.3C56.4333 23.7667 57.9333 23.1333 59.4 22.4C60.8667 21.6667 62.3667 20.8333 63.9 19.9C67.8333 17.3 71.7667 14.7667 75.7 12.3C79.6333 9.83333 83.7 7.56666 87.9 5.49999C89.7667 4.56666 91.6333 3.73333 93.5 3C95.4333 2.19999 97.3667 1.43333 99.3 0.699996C100.167 0.299997 101.133 0.166664 102.2 0.299995C103.133 0.366661 103.733 0.833328 104 1.7C104.267 2.5 104.067 3.36666 103.4 4.3C102.867 4.96666 102.267 5.56666 101.6 6.1C100.933 6.63333 100.267 7.16666 99.6 7.7C97.3333 9.43333 95.0333 10.9333 92.7 12.2C90.4333 13.4 88.1 14.5 85.7 15.5C82.3667 16.9667 79.0667 18.3333 75.8 19.6C72.6 20.8667 69.3333 22.1333 66 23.4C64.6667 23.9333 63.3 24.5333 61.9 25.2C60.5667 25.8667 59.3 26.6667 58.1 27.6C53.4333 30.9333 48.9 34.4333 44.5 38.1C40.1 41.7 35.8667 45.6 31.8 49.8C30.8667 50.9333 29.9333 52.0667 29 53.2C28.1333 54.3333 27.2667 55.4667 26.4 56.6C25.8667 57.2667 25.4333 58 25.1 58.8C24.8333 59.5333 24.5333 60.3333 24.2 61.2C23.7333 62.3333 23.6333 63.2667 23.9 64C24.2333 64.7333 24.8667 65.2 25.8 65.4C27.8667 65.8667 29.8667 65.9 31.8 65.5C35.2 64.9667 38.5667 64.1333 41.9 63C45.3 61.8 48.6667 60.4 52 58.8C55.4 57.2 58.7 55.5 61.9 53.7C65.1667 51.9 68.4 49.9 71.6 47.7C72.8667 46.7667 74.1333 45.7667 75.4 44.7C76.6667 43.5667 77.7667 42.3333 78.7 41C78.9667 40.6667 79.2333 40.3333 79.5 40C79.7667 39.6 80.0667 39.1333 80.4 38.6C78.8 38.8667 77.2667 39.1333 75.8 39.4C74.3333 39.6667 72.8667 39.9 71.4 40.1C69.6667 40.5 67.9333 40.9333 66.2 41.4C64.5333 41.8 62.8333 42.2 61.1 42.6C60.7667 42.6667 60.4667 42.7 60.2 42.7C59.9333 42.7 59.6667 42.7 59.4 42.7C59.2 42.6333 59.0333 42.5333 58.9 42.4C58.7667 42.2 58.7 42.0333 58.7 41.9C58.7 41.7667 58.7333 41.5667 58.8 41.3C58.9333 40.9667 59.0667 40.7667 59.2 40.7C59.6 40.3667 60 40.1333 60.4 40C60.8 39.8667 61.2 39.7333 61.6 39.6C67.1333 38.4667 72.5333 37.4333 77.8 36.5C83.1333 35.5667 88.4333 34.4333 93.7 33.1C95.9 32.5667 97.4667 32.4 98.4 32.6C99.3333 32.7333 99.7333 33.0333 99.6 33.5C99.5333 33.9667 98.9667 34.5 97.9 35.1C96.9 35.7 95.5 36.1333 93.7 36.4ZM99 4.2C98 4.33333 96.3333 4.9 94 5.89999C91.6667 6.9 89.2333 8.06667 86.7 9.4C84.2333 10.7333 81.9 12.0667 79.7 13.4C77.5667 14.6667 76.2 15.6667 75.6 16.4C76.9333 16.1333 78.8 15.5 81.2 14.5C83.6 13.5 86 12.3667 88.4 11.1C90.8667 9.83333 93.1 8.56666 95.1 7.29999C97.1 6.03333 98.4 5 99 4.2ZM127.316 38.6C126.582 39.3333 125.449 40.1 123.916 40.9C122.449 41.7 120.949 42.2667 119.416 42.6C117.949 42.9333 116.649 42.9 115.516 42.5C114.382 42.1 113.816 41.0333 113.816 39.3C113.816 38.7667 113.849 38.2333 113.916 37.7C113.982 37.1 114.082 36.4667 114.216 35.8C112.482 36.8667 110.782 37.9333 109.116 39C107.516 40 105.849 40.9667 104.116 41.9C103.716 42.2333 103.249 42.4333 102.716 42.5C102.249 42.5667 101.782 42.6333 101.316 42.7C99.849 42.9 98.8156 42.4667 98.2156 41.4C97.6156 40.3333 97.7156 39.2333 98.5156 38.1C98.849 37.7 99.149 37.3333 99.4156 37C99.6823 36.6667 100.016 36.3333 100.416 36C102.149 34.4667 104.049 33.3333 106.116 32.6C108.182 31.8667 110.416 31.6 112.816 31.8C113.682 31.9333 114.382 31.6667 114.916 31C115.382 30.5333 115.816 30.0667 116.216 29.6C116.682 29.1333 117.149 28.6667 117.616 28.2C117.749 28 117.916 27.8 118.116 27.6C118.316 27.4 118.516 27.2667 118.716 27.2C118.916 27.1333 119.149 27.1 119.416 27.1C119.749 27.1 120.016 27.1667 120.216 27.3C120.549 27.7667 120.682 28.2667 120.616 28.8C120.549 29.3333 120.282 30 119.816 30.8C119.616 31.2 119.216 32.0333 118.616 33.3C118.016 34.5 117.549 35.7 117.216 36.9C116.949 38.1 116.949 39.1 117.216 39.9C117.482 40.6333 118.382 40.7667 119.916 40.3C120.716 40.1 121.582 39.7667 122.516 39.3C123.449 38.7667 124.382 38.2667 125.316 37.8C125.582 37.6667 125.849 37.5333 126.116 37.4C126.382 37.2 126.682 37.1333 127.016 37.2C127.349 37.3333 127.582 37.5667 127.716 37.9C127.916 38.1667 127.782 38.4 127.316 38.6ZM101.016 39.8C102.949 39.4667 104.982 38.7333 107.116 37.6C109.249 36.4 110.982 35.1333 112.316 33.8C110.316 33.9333 108.216 34.5333 106.016 35.6C103.816 36.6667 102.149 38.0667 101.016 39.8ZM135.783 36.5C136.316 36.7667 136.783 36.8333 137.183 36.7C137.583 36.5 137.983 36.3 138.383 36.1C139.783 35.3 141.149 34.5333 142.483 33.8C143.816 33 145.183 32.2333 146.583 31.5C147.116 31.1667 147.683 30.9 148.283 30.7C148.949 30.4333 149.583 30.2333 150.183 30.1C152.249 29.6333 153.449 30.4333 153.783 32.5C154.049 33.7 154.083 34.9667 153.883 36.3C153.749 37.8333 153.983 38.8 154.583 39.2C155.249 39.6 156.249 39.6 157.583 39.2C158.516 39 159.516 38.6667 160.583 38.2C161.649 37.7333 162.616 37.3333 163.483 37C164.283 36.7333 164.849 36.6333 165.183 36.7C165.583 36.7 165.849 36.8333 165.983 37.1C166.183 37.4333 166.183 37.8333 165.983 38.3C165.849 38.7 165.383 39.0667 164.583 39.4C163.316 40.1333 162.016 40.7667 160.683 41.3C159.416 41.8333 158.049 42.1667 156.583 42.3C153.049 42.7 151.216 41.1 151.083 37.5C151.083 37.1 151.083 36.7333 151.083 36.4C151.149 36.0667 151.183 35.7 151.183 35.3C151.183 33.9 151.116 32.9 150.983 32.3C150.916 31.7 150.216 31.8667 148.883 32.8C147.549 33.5333 146.083 34.4333 144.483 35.5C142.949 36.5667 141.516 37.4667 140.183 38.2C139.316 38.8 138.316 39.2 137.183 39.4C135.183 40 133.816 39.2333 133.083 37.1C132.883 36.5667 132.716 36.1 132.583 35.7C132.516 35.3 132.416 35 132.283 34.8C132.216 34.6 132.049 34.5667 131.783 34.7C131.516 34.7667 131.083 35 130.483 35.4C129.149 36.4 127.816 37.6333 126.483 39.1C125.149 40.5667 123.816 41.8333 122.483 42.9C122.149 43.1667 121.849 43.4333 121.583 43.7C121.316 43.9 121.016 44.1 120.683 44.3C120.083 44.5 119.583 44.4667 119.183 44.2C118.783 43.8667 118.649 43.3667 118.783 42.7C118.849 42.2333 119.083 41.7 119.483 41.1C120.216 39.5667 120.983 38.0667 121.783 36.6C122.516 35.1333 123.316 33.6333 124.183 32.1C124.249 31.9 124.316 31.7 124.383 31.5C124.516 31.2333 124.649 31.0333 124.783 30.9C124.983 30.7667 125.216 30.6333 125.483 30.5C125.749 30.3667 125.983 30.3667 126.183 30.5C126.649 30.6333 126.883 31.0333 126.883 31.7C126.749 32.0333 126.616 32.3667 126.483 32.7C126.416 32.9667 126.316 33.2667 126.183 33.6C126.049 33.8667 125.849 34.2333 125.583 34.7C125.383 35.1667 125.149 35.6667 124.883 36.2C124.616 36.6667 124.383 37.1667 124.183 37.7C123.983 38.1667 123.883 38.5333 123.883 38.8C124.149 38.6 124.483 38.3 124.883 37.9C125.283 37.5 125.683 37.1 126.083 36.7C126.549 36.2333 126.983 35.8 127.383 35.4C127.783 34.9333 128.149 34.6 128.483 34.4C128.883 34.0667 129.283 33.8 129.683 33.6C130.083 33.4 130.483 33.2 130.883 33C133.149 32.0667 134.683 32.8 135.483 35.2C135.549 35.4 135.583 35.6333 135.583 35.9C135.649 36.1 135.716 36.3 135.783 36.5ZM180.154 37.3C180.487 37.1667 180.787 37.0667 181.054 37C181.321 36.8667 181.621 36.7333 181.954 36.6C182.754 36.4667 183.321 36.7 183.654 37.3C183.987 38.1 183.787 38.6667 183.054 39C180.587 40.2667 178.021 41.2333 175.354 41.9C172.687 42.5667 170.021 42.9667 167.354 43.1C166.421 43.1667 165.421 43.1667 164.354 43.1C163.354 43.0333 162.421 42.8 161.554 42.4C160.754 42 160.154 41.4333 159.754 40.7C159.354 39.9 159.321 38.8333 159.654 37.5C160.121 36.1667 160.554 35.2333 160.954 34.7C161.354 34.1667 162.121 33.6 163.254 33C164.454 32.4667 165.687 32.1 166.954 31.9C168.287 31.6333 169.554 31.5 170.754 31.5C171.887 31.6333 172.554 32.2 172.754 33.2C172.954 34.2667 172.587 35.0667 171.654 35.6C170.987 36 170.287 36.3667 169.554 36.7C168.821 36.9667 168.054 37.2333 167.254 37.5C166.654 37.6333 166.021 37.7333 165.354 37.8C164.687 37.8667 164.021 37.9 163.354 37.9C162.354 37.9 161.787 38.1333 161.654 38.6C161.587 39 161.787 39.4333 162.254 39.9C162.921 40.5667 164.087 40.9333 165.754 41C167.421 41 169.187 40.8667 171.054 40.6C172.987 40.2667 174.787 39.8 176.454 39.2C178.187 38.6 179.421 37.9667 180.154 37.3ZM170.054 34.4C170.521 33.8 170.521 33.5 170.054 33.5C169.654 33.4333 169.021 33.5333 168.154 33.8C167.354 34.0667 166.421 34.4667 165.354 35C164.287 35.5333 163.354 36.0667 162.554 36.6C163.554 36.7333 164.854 36.6 166.454 36.2C168.054 35.7333 169.254 35.1333 170.054 34.4ZM208.964 69.6C209.697 69.9333 210.364 70.1 210.964 70.1C211.631 70.0333 212.297 69.9333 212.964 69.8C214.697 69.6 216.464 69.3667 218.264 69.1C220.064 68.7667 221.864 68.4333 223.664 68.1C228.197 67.4333 232.664 66.7667 237.064 66.1C241.464 65.3667 245.931 64.6667 250.464 64C253.797 63.4667 257.131 62.9333 260.464 62.4C263.797 61.8667 267.131 61.3333 270.464 60.8C272.997 60.4667 275.531 60.2 278.064 60C280.664 59.8 283.231 59.8667 285.764 60.2C285.231 60.4667 284.831 60.6 284.564 60.6C280.897 61.8667 277.197 62.8 273.464 63.4C269.731 64 265.964 64.5667 262.164 65.1C257.964 65.8333 253.797 66.5 249.664 67.1C245.531 67.7 241.364 68.3333 237.164 69C233.297 69.6667 229.464 70.3 225.664 70.9C221.864 71.5 218.064 72.0667 214.264 72.6C212.597 72.8667 210.831 72.9 208.964 72.7C207.697 72.6333 206.831 72.2333 206.364 71.5C205.897 70.7667 205.864 69.8333 206.264 68.7C206.997 66.8333 207.864 65.1 208.864 63.5C210.797 60.1 212.731 56.7333 214.664 53.4C216.664 50.0667 218.664 46.7 220.664 43.3C220.864 42.9 221.064 42.5 221.264 42.1C221.531 41.7 221.797 41.1667 222.064 40.5C221.597 40.6333 221.231 40.7 220.964 40.7C220.697 40.6333 220.397 40.6667 220.064 40.8C216.997 41.3333 213.964 41.8667 210.964 42.4C207.964 42.8667 204.931 43.3667 201.864 43.9C201.331 43.9667 200.797 44.1 200.264 44.3C199.731 44.4333 199.197 44.5667 198.664 44.7C198.131 44.8333 197.764 44.9 197.564 44.9C197.364 44.8333 197.164 44.7667 196.964 44.7C196.764 44.5667 196.597 44.4 196.464 44.2C196.397 44.0667 196.431 43.9 196.564 43.7C196.631 43.4333 196.731 43.2667 196.864 43.2C197.597 42.6 198.364 42.2 199.164 42C200.564 41.6 201.964 41.2333 203.364 40.9C204.764 40.5 206.197 40.1667 207.664 39.9C210.197 39.5 212.664 39.1333 215.064 38.8C217.531 38.4 220.031 38.0333 222.564 37.7C223.097 37.6333 223.497 37.5 223.764 37.3C224.031 37.1 224.331 36.8 224.664 36.4C226.397 33.3333 228.164 30.3333 229.964 27.4C231.764 24.4 233.564 21.4 235.364 18.4C236.431 16.5333 237.497 14.7333 238.564 13C239.631 11.2667 240.731 9.53333 241.864 7.79999C242.131 7.33333 242.397 6.86666 242.664 6.39999C242.997 5.93333 243.364 5.36666 243.764 4.7C242.431 4.83333 241.231 4.93333 240.164 4.99999C239.097 5.06666 238.031 5.16666 236.964 5.3C234.631 5.63333 232.297 6 229.964 6.39999C227.697 6.73333 225.397 7.06667 223.064 7.4C222.397 7.46666 221.797 7.46666 221.264 7.4C221.064 7.33333 220.864 7.2 220.664 7C220.531 6.73333 220.397 6.5 220.264 6.3C220.264 6.16666 220.364 6 220.564 5.8C220.764 5.53333 220.931 5.33333 221.064 5.2C221.331 5.13333 221.564 5.06666 221.764 4.99999C222.031 4.86666 222.297 4.76666 222.564 4.7C225.764 4.03333 228.931 3.46666 232.064 3C235.197 2.53333 238.364 2.16667 241.564 1.9C242.097 1.83333 242.631 1.79999 243.164 1.79999C243.697 1.79999 244.231 1.73333 244.764 1.6C245.231 1.46666 245.631 1.3 245.964 1.1C246.364 0.83333 246.797 0.566662 247.264 0.299995C247.597 0.966661 248.031 1.33333 248.564 1.4C249.164 1.46666 249.764 1.46666 250.364 1.4C252.364 1.26666 254.364 1.16666 256.364 1.1C258.431 1.03333 260.497 0.966665 262.564 0.899999C267.564 0.899999 272.564 0.866664 277.564 0.799995C282.564 0.733329 287.564 0.733329 292.564 0.799995C295.231 0.866664 297.897 0.933332 300.564 0.999998C303.297 1.06666 305.964 1.4 308.564 2C309.831 2.26666 311.064 2.63333 312.264 3.09999C313.464 3.56666 314.631 4 315.764 4.4C315.897 4.4 316.031 4.63333 316.164 5.1H312.364C303.631 4.3 294.964 3.9 286.364 3.9C277.831 3.9 269.197 3.9 260.464 3.9C258.464 4.03333 256.431 4.13333 254.364 4.2C252.297 4.26666 250.264 4.33333 248.264 4.4C247.664 4.4 247.197 4.5 246.864 4.7C246.531 4.9 246.197 5.23333 245.864 5.7C243.064 10.5667 240.264 15.3667 237.464 20.1C234.664 24.8333 231.864 29.6333 229.064 34.5C228.797 34.8333 228.564 35.2 228.364 35.6C228.231 35.9333 227.997 36.3667 227.664 36.9H229.164C232.564 36.7 235.931 36.5 239.264 36.3C242.664 36.0333 246.064 35.7667 249.464 35.5C254.264 35.1 259.197 35.3667 264.264 36.3C264.664 36.4333 264.964 36.6333 265.164 36.9C263.364 37.1 261.531 37.3333 259.664 37.6C257.797 37.8 255.964 38 254.164 38.2C251.164 38.4 248.164 38.6 245.164 38.8C242.231 39 239.297 39.1667 236.364 39.3C234.831 39.4333 233.297 39.5667 231.764 39.7C230.297 39.8333 228.797 39.9333 227.264 40C226.264 40.0667 225.497 40.5333 224.964 41.4C222.497 45.8 219.997 50.1333 217.464 54.4C214.997 58.6 212.531 62.8667 210.064 67.2C209.864 67.5333 209.664 67.9 209.464 68.3C209.331 68.7 209.164 69.1333 208.964 69.6ZM299.811 34.1C301.944 32.1 304.011 30 306.011 27.8C308.011 25.5333 309.744 22.9 311.211 19.9C310.544 20.1667 309.544 20.9333 308.211 22.2C306.944 23.4667 305.611 24.9667 304.211 26.7C302.811 28.3667 301.444 30.1 300.111 31.9C298.844 33.7 297.911 35.2 297.311 36.4C298.911 36.6667 300.644 36.8333 302.511 36.9C304.444 36.9667 306.344 36.9667 308.211 36.9C310.078 36.8333 311.878 36.7 313.611 36.5C315.344 36.3 316.911 36.1 318.311 35.9C318.711 35.8333 319.044 35.9 319.311 36.1C319.644 36.3 319.844 36.8 319.911 37.6C319.978 38.0667 319.844 38.3667 319.511 38.5C319.178 38.6333 318.844 38.7 318.511 38.7C316.378 38.5667 314.378 38.5333 312.511 38.6C310.644 38.6667 308.844 38.9 307.111 39.3C307.311 41.4333 307.044 43.4 306.311 45.2C305.578 47 304.744 48.5667 303.811 49.9C301.678 52.9667 299.311 55.7667 296.711 58.3C294.178 60.7667 291.411 62.9333 288.411 64.8C287.878 65.0667 287.344 65.3 286.811 65.5C286.211 65.7 285.578 65.9 284.911 66.1C283.711 66.3 282.744 65.9667 282.011 65.1C281.278 64.1667 281.011 62.9667 281.211 61.5C281.344 60.9667 281.511 60.4333 281.711 59.9C281.844 59.3667 282.044 58.8333 282.311 58.3C283.844 55.1 285.411 51.9 287.011 48.7C288.544 45.4333 289.911 42.5333 291.111 40C290.511 40 290.011 39.8 289.611 39.4C289.211 39 288.978 38.5667 288.911 38.1C288.844 37.5667 289.011 37.1 289.411 36.7C289.744 36.3 290.311 36.0667 291.111 36C291.711 35.9333 292.178 35.9333 292.511 36C292.844 36 293.144 36 293.411 36C293.678 35.9333 293.911 35.8 294.111 35.6C294.311 35.4 294.578 35.0333 294.911 34.5C296.844 31.3 298.844 28.4333 300.911 25.9C303.044 23.3667 305.378 20.8333 307.911 18.3C308.244 17.9667 308.578 17.6333 308.911 17.3C309.311 16.9667 309.711 16.6667 310.111 16.4C310.378 16.2 310.611 16.0333 310.811 15.9C311.011 15.7667 311.244 15.6333 311.511 15.5C312.311 15.2333 313.011 15.4333 313.611 16.1C314.278 16.7 314.544 17.5333 314.411 18.6C314.278 19.2667 314.144 19.9 314.011 20.5C313.878 21.1 313.644 21.6667 313.311 22.2C311.844 24.6667 310.244 26.9667 308.511 29.1C306.844 31.1667 304.944 32.9667 302.811 34.5C302.411 34.8333 301.978 35.0667 301.511 35.2C301.044 35.2667 300.478 34.9 299.811 34.1ZM304.511 39.4C303.644 39.6 302.678 39.7 301.611 39.7C300.544 39.6333 299.511 39.6 298.511 39.6C297.511 39.5333 296.611 39.5667 295.811 39.7C295.011 39.7667 294.444 40.0333 294.111 40.5C293.844 40.8333 293.511 41.3667 293.111 42.1C292.711 42.8333 292.311 43.6333 291.911 44.5C291.511 45.3 291.144 46.0667 290.811 46.8C290.478 47.5333 290.211 48.1 290.011 48.5C289.078 50.5667 288.144 52.6333 287.211 54.7C286.278 56.7667 285.311 58.8333 284.311 60.9C284.178 61.1 284.111 61.3667 284.111 61.7C284.111 61.9667 284.078 62.2 284.011 62.4C284.011 62.5333 284.111 62.7 284.311 62.9C284.778 62.7 285.278 62.5333 285.811 62.4C286.278 62.2667 286.744 62.1 287.211 61.9C290.411 59.9 293.311 57.5 295.911 54.7C298.578 51.9 301.011 48.7667 303.211 45.3C303.478 44.7667 303.744 43.9 304.011 42.7C304.344 41.5 304.511 40.4 304.511 39.4ZM323.924 34.1C326.058 32.1 328.124 30 330.124 27.8C332.124 25.5333 333.858 22.9 335.324 19.9C334.658 20.1667 333.658 20.9333 332.324 22.2C331.058 23.4667 329.724 24.9667 328.324 26.7C326.924 28.3667 325.558 30.1 324.224 31.9C322.958 33.7 322.024 35.2 321.424 36.4C323.024 36.6667 324.758 36.8333 326.624 36.9C328.558 36.9667 330.458 36.9667 332.324 36.9C334.191 36.8333 335.991 36.7 337.724 36.5C339.458 36.3 341.024 36.1 342.424 35.9C342.824 35.8333 343.158 35.9 343.424 36.1C343.758 36.3 343.958 36.8 344.024 37.6C344.091 38.0667 343.958 38.3667 343.624 38.5C343.291 38.6333 342.958 38.7 342.624 38.7C340.491 38.5667 338.491 38.5333 336.624 38.6C334.758 38.6667 332.958 38.9 331.224 39.3C331.424 41.4333 331.158 43.4 330.424 45.2C329.691 47 328.858 48.5667 327.924 49.9C325.791 52.9667 323.424 55.7667 320.824 58.3C318.291 60.7667 315.524 62.9333 312.524 64.8C311.991 65.0667 311.458 65.3 310.924 65.5C310.324 65.7 309.691 65.9 309.024 66.1C307.824 66.3 306.858 65.9667 306.124 65.1C305.391 64.1667 305.124 62.9667 305.324 61.5C305.458 60.9667 305.624 60.4333 305.824 59.9C305.958 59.3667 306.158 58.8333 306.424 58.3C307.958 55.1 309.524 51.9 311.124 48.7C312.658 45.4333 314.024 42.5333 315.224 40C314.624 40 314.124 39.8 313.724 39.4C313.324 39 313.091 38.5667 313.024 38.1C312.958 37.5667 313.124 37.1 313.524 36.7C313.858 36.3 314.424 36.0667 315.224 36C315.824 35.9333 316.291 35.9333 316.624 36C316.958 36 317.258 36 317.524 36C317.791 35.9333 318.024 35.8 318.224 35.6C318.424 35.4 318.691 35.0333 319.024 34.5C320.958 31.3 322.958 28.4333 325.024 25.9C327.158 23.3667 329.491 20.8333 332.024 18.3C332.358 17.9667 332.691 17.6333 333.024 17.3C333.424 16.9667 333.824 16.6667 334.224 16.4C334.491 16.2 334.724 16.0333 334.924 15.9C335.124 15.7667 335.358 15.6333 335.624 15.5C336.424 15.2333 337.124 15.4333 337.724 16.1C338.391 16.7 338.658 17.5333 338.524 18.6C338.391 19.2667 338.258 19.9 338.124 20.5C337.991 21.1 337.758 21.6667 337.424 22.2C335.958 24.6667 334.358 26.9667 332.624 29.1C330.958 31.1667 329.058 32.9667 326.924 34.5C326.524 34.8333 326.091 35.0667 325.624 35.2C325.158 35.2667 324.591 34.9 323.924 34.1ZM328.624 39.4C327.758 39.6 326.791 39.7 325.724 39.7C324.658 39.6333 323.624 39.6 322.624 39.6C321.624 39.5333 320.724 39.5667 319.924 39.7C319.124 39.7667 318.558 40.0333 318.224 40.5C317.958 40.8333 317.624 41.3667 317.224 42.1C316.824 42.8333 316.424 43.6333 316.024 44.5C315.624 45.3 315.258 46.0667 314.924 46.8C314.591 47.5333 314.324 48.1 314.124 48.5C313.191 50.5667 312.258 52.6333 311.324 54.7C310.391 56.7667 309.424 58.8333 308.424 60.9C308.291 61.1 308.224 61.3667 308.224 61.7C308.224 61.9667 308.191 62.2 308.124 62.4C308.124 62.5333 308.224 62.7 308.424 62.9C308.891 62.7 309.391 62.5333 309.924 62.4C310.391 62.2667 310.858 62.1 311.324 61.9C314.524 59.9 317.424 57.5 320.024 54.7C322.691 51.9 325.124 48.7667 327.324 45.3C327.591 44.7667 327.858 43.9 328.124 42.7C328.458 41.5 328.624 40.4 328.624 39.4ZM358.338 37.3C358.671 37.1667 358.971 37.0667 359.238 37C359.504 36.8667 359.804 36.7333 360.138 36.6C360.938 36.4667 361.504 36.7 361.838 37.3C362.171 38.1 361.971 38.6667 361.238 39C358.771 40.2667 356.204 41.2333 353.538 41.9C350.871 42.5667 348.204 42.9667 345.538 43.1C344.604 43.1667 343.604 43.1667 342.538 43.1C341.538 43.0333 340.604 42.8 339.738 42.4C338.938 42 338.337 41.4333 337.937 40.7C337.537 39.9 337.504 38.8333 337.837 37.5C338.304 36.1667 338.738 35.2333 339.138 34.7C339.538 34.1667 340.304 33.6 341.438 33C342.638 32.4667 343.871 32.1 345.138 31.9C346.471 31.6333 347.738 31.5 348.938 31.5C350.071 31.6333 350.738 32.2 350.938 33.2C351.138 34.2667 350.771 35.0667 349.838 35.6C349.171 36 348.471 36.3667 347.738 36.7C347.004 36.9667 346.238 37.2333 345.438 37.5C344.838 37.6333 344.204 37.7333 343.538 37.8C342.871 37.8667 342.204 37.9 341.538 37.9C340.538 37.9 339.971 38.1333 339.838 38.6C339.771 39 339.971 39.4333 340.438 39.9C341.104 40.5667 342.271 40.9333 343.938 41C345.604 41 347.371 40.8667 349.238 40.6C351.171 40.2667 352.971 39.8 354.638 39.2C356.371 38.6 357.604 37.9667 358.338 37.3ZM348.238 34.4C348.704 33.8 348.704 33.5 348.238 33.5C347.838 33.4333 347.204 33.5333 346.338 33.8C345.538 34.0667 344.604 34.4667 343.538 35C342.471 35.5333 341.538 36.0667 340.738 36.6C341.738 36.7333 343.038 36.6 344.638 36.2C346.238 35.7333 347.438 35.1333 348.238 34.4ZM376.724 39.5C376.458 39.7 375.991 39.9333 375.324 40.2C373.124 41.1333 370.891 41.9667 368.624 42.7C366.424 43.4333 364.124 43.8667 361.724 44C361.191 44.1333 360.591 44.2 359.924 44.2C359.324 44.1333 358.724 44.0333 358.124 43.9C356.591 43.5 355.524 42.7333 354.924 41.6C354.258 40.4 354.291 39 355.024 37.4C355.158 37.2 355.258 37 355.324 36.8C355.391 36.5333 355.491 36.3 355.624 36.1C356.891 34.4333 358.291 33.0667 359.824 32C361.358 30.8667 363.158 30.0667 365.224 29.6C365.824 29.4 366.458 29.3333 367.124 29.4C367.791 29.4 368.424 29.5 369.024 29.7C370.024 30.0333 370.658 30.7333 370.924 31.8C371.258 32.8 371.058 33.7 370.324 34.5C370.191 34.6333 370.024 34.7667 369.824 34.9C369.624 34.9667 369.391 35 369.124 35C368.991 35 368.891 34.9 368.824 34.7C368.758 34.4333 368.658 34.2333 368.524 34.1C368.391 33.0333 368.158 32.3667 367.824 32.1C367.491 31.8333 366.824 31.8333 365.824 32.1C364.224 32.5667 362.791 33.2667 361.524 34.2C360.258 35.1333 359.158 36.2 358.224 37.4C357.958 37.7333 357.724 38.1667 357.524 38.7C357.124 40.0333 357.558 40.8333 358.824 41.1C359.758 41.3667 360.791 41.4 361.924 41.2C363.724 41.0667 365.458 40.7667 367.124 40.3C368.791 39.8333 370.391 39.2333 371.924 38.5C372.591 38.2333 373.224 37.9667 373.824 37.7C374.424 37.4333 375.058 37.2333 375.724 37.1C377.391 36.7 378.324 36.8 378.524 37.4C378.724 37.9333 378.124 38.6333 376.724 39.5ZM373.087 15.5C371.554 15.7 370.621 15.5667 370.287 15.1C369.887 14.6333 369.754 14.3 369.888 14.1C370.087 13.7667 370.454 13.4667 370.987 13.2C371.454 12.8667 372.387 12.7667 373.788 12.9C375.988 13.1 378.254 13.2 380.588 13.2C382.988 13.2 385.354 13.0333 387.688 12.7C387.888 12.5667 388.054 12.4 388.188 12.2C389.121 10.9333 389.821 9.93333 390.288 9.2C390.754 8.46666 391.188 7.8 391.588 7.2C391.988 6.6 392.421 5.96666 392.888 5.3C393.421 4.56666 394.154 3.56667 395.088 2.3C395.288 1.9 395.588 1.56666 395.988 1.29999C396.454 0.966661 396.888 0.966661 397.288 1.29999C397.421 1.43333 397.521 1.66666 397.588 2C397.654 2.33333 397.688 2.63333 397.688 2.9C397.621 3.16666 397.488 3.43333 397.288 3.7C397.088 3.96666 396.921 4.19999 396.788 4.4C396.054 5.4 395.521 6.13333 395.188 6.6C394.921 7.06666 394.654 7.53333 394.388 8C394.121 8.46666 393.788 9.03333 393.388 9.7C392.988 10.3667 392.288 11.4 391.288 12.8C392.688 13.0667 394.488 13.2667 396.688 13.4C398.954 13.4667 401.388 13.5 403.988 13.5C406.588 13.4333 409.254 13.3333 411.988 13.2C414.788 13 417.454 12.7667 419.988 12.5C421.588 12.3667 423.088 12.2333 424.488 12.1C425.888 11.9667 427.054 11.9333 427.988 12C429.654 12.1333 430.421 12.4667 430.288 13C430.154 13.5333 429.388 13.9667 427.988 14.3C426.788 14.5 425.121 14.6667 422.988 14.8C420.921 14.9333 418.654 15.0667 416.188 15.2C413.721 15.2667 411.121 15.3333 408.388 15.4C405.721 15.4 403.154 15.4 400.688 15.4C398.288 15.3333 396.088 15.3 394.088 15.3C392.154 15.3 390.654 15.2667 389.588 15.2C388.454 16.6667 387.254 18.2667 385.988 20C384.788 21.7333 383.588 23.5 382.388 25.3C381.254 27.1 380.188 28.8667 379.188 30.6C378.188 32.2667 377.321 33.8 376.588 35.2C375.988 36.4 375.388 37.7333 374.788 39.2C374.188 40.6 373.788 41.8667 373.588 43C373.454 44.0667 373.654 44.8667 374.188 45.4C374.721 45.8667 375.788 45.7667 377.388 45.1C378.121 44.8333 378.954 44.4333 379.888 43.9C380.821 43.3667 381.788 42.8 382.788 42.2C383.788 41.5333 384.754 40.8667 385.688 40.2C386.621 39.4667 387.488 38.7667 388.288 38.1C388.621 37.9 388.888 37.7 389.088 37.5C389.288 37.2333 389.554 37.0333 389.888 36.9C390.288 36.6333 390.621 36.4667 390.888 36.4C391.221 36.2667 391.554 36.4 391.888 36.8C392.154 37.2 392.188 37.6 391.988 38C391.854 38.3333 391.621 38.6667 391.288 39C390.888 39.4 390.188 39.9667 389.188 40.7C388.188 41.4333 387.021 42.2 385.688 43C384.421 43.8 383.054 44.6 381.588 45.4C380.188 46.1333 378.854 46.7333 377.588 47.2C375.321 48 373.754 48.1 372.887 47.5C371.954 46.8333 371.454 45.8667 371.387 44.6C371.254 43.3333 371.421 41.9333 371.887 40.4C372.354 38.8667 372.821 37.5333 373.288 36.4C374.088 34.5333 375.021 32.6667 376.088 30.8C377.154 28.9333 378.254 27.1 379.388 25.3C380.588 23.5 381.754 21.7667 382.888 20.1C384.088 18.3667 385.154 16.7667 386.088 15.3C383.888 15.3667 381.621 15.4333 379.288 15.5C377.021 15.5 374.954 15.5 373.087 15.5Z" fill="black"/>
</svg>
