<svg width="289" height="382" viewBox="0 0 289 382" fill="none" xmlns="http://www.w3.org/2000/svg">
<path fill-rule="evenodd" clip-rule="evenodd" d="M53.5912 329.008C53.7832 332.352 56.9512 335.581 58.0072 337.196C58.0072 335.235 56.9512 334.197 56.0872 332.929C54.6472 330.622 56.2792 329.93 53.4952 329.008H53.5912ZM53.5912 329.008C54.6472 327.047 53.9752 326.701 55.7032 324.741C56.7592 323.472 57.8152 323.127 58.8712 322.089C57.8152 322.435 58.0072 322.781 56.7592 322.089C56.0872 322.089 54.8392 321.051 54.4552 320.82L47.4472 312.978C46.3912 311.364 45.7192 309.057 44.4712 308.02C44.2792 308.366 44.4712 307.328 44.0872 309.288C43.2232 312.632 47.4472 316.207 50.7112 324.049C51.3832 325.318 52.8232 328.316 53.6872 329.008H53.5912ZM104.759 297.41C105.815 298.102 105.431 297.756 105.623 297.41H104.759ZM239.159 305.944C239.159 304.329 234.935 295.104 234.263 294.066C232.343 293.72 230.615 294.412 228.311 294.066C226.199 294.066 224.471 294.066 222.551 293.72C220.247 293.374 213.239 293.028 211.511 294.988C212.951 296.026 212.375 296.026 213.239 294.642L218.519 298.909C220.823 300.178 222.359 300.87 225.143 301.562C229.175 302.83 234.455 305.829 239.159 305.829V305.944ZM218.519 286.916C217.079 284.61 210.839 282.649 208.343 281.381C206.231 280.112 200.279 276.422 197.975 276.768C197.783 280.112 198.647 284.379 199.031 285.993C199.703 288.3 201.335 291.875 202.391 293.605C203.639 293.259 205.751 293.259 206.807 292.336C210.455 290.03 214.199 291.99 216.119 291.298L222.743 290.606C221.015 289.568 218.711 289.568 217.175 288.646C217.367 287.954 217.175 288.3 217.559 287.608L218.423 286.916H218.519ZM64.3432 275.73C65.5912 275.384 66.4552 275.038 67.3192 274.116C66.6472 274.116 66.0712 274.461 65.3992 274.807C64.1512 275.845 64.7272 274.807 64.3432 275.845V275.73ZM219.863 269.503C220.247 272.501 222.455 275.384 224.087 276.076C223.703 274.461 221.975 270.771 221.111 269.503H219.863ZM143.639 278.382C144.503 273.078 145.367 268.234 145.943 263.275C142.583 266.62 142.967 273.77 143.639 278.382ZM219.863 269.503C219.479 268.811 218.999 267.542 218.807 266.504C218.423 264.89 218.807 264.198 217.559 264.544C217.559 266.504 219.287 268.465 219.863 269.503ZM77.5912 275.038C78.4552 270.771 76.5352 271.694 79.0312 267.196C81.8152 262.929 82.6792 264.198 82.8712 261.892C80.5672 263.506 80.5672 263.506 78.6472 265.812C77.5912 266.85 77.2072 266.85 76.3432 267.427C75.6712 268.119 75.0952 268.695 74.4232 269.387C71.2552 272.04 73.3672 269.733 70.0072 273.308C69.6232 273.654 68.2792 274.923 67.8952 275.269C67.2232 275.961 66.8392 275.961 65.9752 276.883C68.5672 279.882 72.3112 276.883 77.6872 274.923L77.5912 275.038ZM84.7912 259.931C84.7912 259.239 84.4072 259.931 84.4072 260.277C83.7352 261.315 84.5992 259.931 84.7912 259.931ZM99.1912 249.091C97.9432 250.129 98.1352 249.437 97.4632 251.743C100.439 251.743 101.495 250.129 101.879 246.785C100.151 247.477 100.631 247.823 99.0952 249.091H99.1912ZM205.559 236.637C205.367 235.945 205.367 235.368 204.887 234.676C204.023 232.37 204.887 233.638 203.831 233.408C203.639 234.445 203.831 235.022 204.023 235.714C204.695 237.328 204.023 236.982 205.463 236.752L205.559 236.637ZM192.407 272.501C192.791 270.195 193.655 269.849 193.463 267.196C192.599 261.661 190.871 256.702 189.815 251.397C187.223 240.903 183.863 237.559 182.615 232.946C181.943 229.948 181.559 224.067 180.311 222.106L174.551 215.879C170.135 211.612 170.135 215.879 166.487 213.573C162.071 210.92 162.263 212.881 160.151 208.037C159.959 209.998 159.479 210.344 160.151 211.958C161.591 215.533 165.239 216.225 166.487 219.569C161.591 218.301 160.151 212.304 157.367 208.383L156.503 209.998C157.175 211.612 156.695 213.573 157.175 215.302C157.367 217.263 157.559 217.955 158.039 219.569C159.287 223.836 160.631 228.103 162.263 232.024C162.935 233.292 163.127 234.33 163.703 235.945L164.951 238.251C166.391 240.903 168.119 241.595 169.175 245.862C169.847 248.86 170.039 247.477 171.287 248.86C172.727 250.821 181.943 267.888 182.135 269.618C180.887 269.272 181.943 270.31 180.887 268.58C178.103 263.967 175.799 258.663 172.151 253.127C170.039 249.552 167.255 245.862 165.527 241.941C162.935 236.406 163.223 239.635 159.767 230.063C159.095 228.449 158.039 225.45 157.175 224.182C155.447 228.103 156.311 229.141 155.063 233.408C153.623 238.943 151.415 245.286 154.679 252.781L161.687 268.234C162.743 269.503 162.743 270.195 163.799 271.578C166.391 274.923 168.023 278.498 170.807 281.15C171.863 281.842 171.671 281.496 172.247 282.419C172.631 283.456 172.439 283.456 173.303 284.033C175.031 285.302 175.607 283.341 175.415 286.685C172.823 285.993 170.519 282.765 168.791 281.15C167.735 280.112 166.199 279.19 165.815 277.806C164.567 275.153 166.487 275.153 163.511 275.153C162.455 272.847 163.127 273.539 160.919 272.501C161.783 270.887 161.111 270.195 159.479 270.195C159.095 268.234 158.423 268.234 157.559 266.62C156.887 265.351 156.503 263.967 155.831 262.699C155.447 261.43 154.967 260.046 154.391 258.432C152.951 254.511 152.951 256.818 152.279 252.551C151.031 252.897 150.359 254.511 149.111 256.818C147.863 258.778 147.191 259.47 146.807 262.353C146.423 265.351 143.447 279.766 144.503 282.419C146.231 287.031 148.343 291.298 152.183 293.951C153.239 294.642 153.431 294.297 154.295 294.988C155.735 297.295 156.215 296.949 158.327 298.333C159.383 299.371 159.575 299.371 160.631 299.601C161.495 300.293 162.359 300.293 162.551 301.216C161.495 302.254 160.823 301.562 159.767 300.524C158.519 299.255 158.519 299.832 156.983 298.909L151.895 295.334L151.031 296.372C150.167 295.104 150.167 295.104 149.111 294.066C147.671 292.451 148.727 293.028 146.807 292.105C144.887 291.068 145.079 287.839 142.775 287.147C141.527 291.068 139.991 292.682 140.663 295.68C141.527 299.601 142.391 300.639 144.311 302.946C143.927 303.291 144.503 302.946 143.927 303.291C143.255 303.291 144.119 302.946 143.543 303.291L145.463 305.944C143.159 305.598 140.375 299.717 138.839 298.679C137.399 300.293 137.399 304.56 136.247 306.52C135.383 308.135 136.055 306.866 135.383 307.212C133.943 307.904 135.575 312.517 136.055 313.786C140.759 313.786 143.063 314.823 147.287 315.746C148.343 313.786 148.343 315.054 149.399 313.094C162.359 313.094 163.031 320.359 172.151 311.825C175.991 308.481 174.071 309.173 179.159 309.173C181.751 308.827 184.727 307.212 187.415 307.558C188.663 307.558 193.175 309.865 194.807 310.211C197.591 311.249 199.703 312.171 202.487 313.209C205.079 314.247 207.191 315.515 209.495 316.207C209.111 314.939 207.767 312.632 207.191 311.249C204.023 305.713 202.775 301.331 201.047 299.025C200.375 297.987 200.375 297.756 199.799 296.718C197.687 293.374 195.095 293.374 195.095 286.801L194.711 280.227C194.711 277.921 194.039 276.307 193.847 273.654C193.175 272.962 193.175 272.962 192.407 272.616V272.501ZM160.343 206.999C160.535 206.307 160.151 207.345 160.151 207.345C159.767 208.037 160.151 208.037 160.343 206.999ZM227.639 283.341C225.911 279.997 225.527 279.074 222.935 276.768C220.823 275.153 220.151 273.424 218.711 270.541L203.159 237.674C202.295 235.714 203.351 236.06 202.487 234.099C201.431 231.101 200.759 228.795 199.511 225.912L195.671 219.339C188.471 206.538 186.743 206.192 175.319 198.004C172.727 196.044 166.199 190.163 162.359 191.085C160.247 191.777 159.191 195.352 159.191 198.696C159.191 204.923 163.415 209.536 168.119 211.497C169.367 211.843 169.847 211.497 171.479 212.189C172.727 212.881 173.591 213.227 174.647 214.149C182.039 220.722 183.767 224.067 186.071 234.561C186.935 238.482 187.799 239.174 189.239 242.172C193.271 249.783 194.807 258.663 196.631 267.542C197.687 271.809 197.015 275.384 198.743 276.422L205.751 279.42C206.999 280.112 207.479 280.458 208.535 280.458C212.567 280.112 221.111 285.993 226.199 288.3C229.847 290.26 229.367 290.26 233.399 289.338C235.703 290.952 235.991 291.644 237.431 294.642C238.487 296.257 240.023 298.563 240.023 300.87C242.135 302.83 241.943 302.484 243.671 305.829C245.111 308.481 244.727 308.827 247.895 309.749C247.031 305.137 240.215 296.257 237.911 291.298L226.007 269.964C225.143 268.695 224.279 266.966 223.703 265.697L212.279 247.592C212.471 248.63 213.527 251.859 214.007 252.897C215.447 256.818 219.767 262.814 222.071 265.697C223.319 266.966 226.295 272.962 226.967 274.923C227.639 276.537 228.407 277.575 229.271 279.19C230.135 281.15 229.463 280.804 229.943 282.188C230.327 283.456 230.807 282.88 230.807 284.494C229.559 284.84 229.367 284.494 228.887 283.226L227.639 283.918V283.341ZM164.567 183.013C164.951 184.281 164.567 184.051 166.007 184.627L164.567 183.013ZM161.783 179.668L162.167 180.36C162.359 181.052 162.359 180.706 162.839 181.052C162.455 180.014 162.167 180.014 161.783 179.784V179.668ZM136.727 156.374C136.727 156.72 137.399 157.412 137.111 156.374C136.919 155.682 136.727 155.105 136.727 156.374ZM135.671 155.336C134.807 153.375 132.503 151.069 130.583 150.377C130.775 152.338 131.447 151.992 132.887 153.375C133.751 154.067 134.999 154.99 135.671 155.336ZM125.495 146.456C124.439 144.842 123.191 143.458 121.655 142.189C120.599 140.921 118.871 139.191 117.623 138.269C116.375 137.231 116.375 137 115.511 136.308C114.647 135.27 114.455 135.616 113.591 134.694C112.343 133.425 110.807 131.695 108.887 131.119L125.495 146.572V146.456ZM105.527 127.659C105.911 128.928 106.199 128.697 106.775 128.928L105.527 127.659ZM142.679 119.471C141.815 116.473 139.511 112.552 137.591 111.284L130.199 105.056C126.167 101.712 125.111 99.175 122.999 98.4831C124.919 105.748 127.703 109.669 128.279 112.322C128.663 113.59 128.663 114.974 129.143 116.588C129.335 117.626 129.815 118.549 130.199 119.933C132.983 127.774 139.991 148.878 139.799 156.489C141.047 157.758 141.911 158.45 143.447 159.833C143.255 161.102 143.255 160.179 143.255 161.448C145.847 163.754 144.503 163.408 147.671 165.715C150.647 168.021 152.567 171.019 155.063 172.288C154.679 171.25 154.871 171.942 154.199 171.019C151.895 168.713 155.255 171.019 148.439 165.138C147.191 164.1 146.711 164.446 146.519 162.486C147.383 162.832 148.631 163.754 149.303 164.446C150.359 165.715 151.031 166.061 151.895 167.099C152.087 167.444 152.087 167.099 152.567 167.79C155.351 171.135 158.327 172.403 161.879 177.016C163.127 178.285 164.663 181.629 166.583 182.321C166.391 180.014 165.719 180.36 165.335 178.746C165.143 178.054 164.663 172.865 162.551 168.252C160.247 163.293 158.327 156.028 157.655 155.105C156.599 153.837 156.791 155.105 155.735 152.453C155.063 151.415 154.871 150.492 154.487 149.455C151.895 144.15 153.239 144.842 152.375 142.189C151.991 139.883 147.479 134.002 144.983 132.618L142.871 119.817L142.679 119.471ZM153.527 5.30453C153.143 6.34241 152.279 6.57305 151.415 8.30285C152.663 7.61093 153.527 7.03433 153.527 5.30453ZM147.575 9.22541C148.823 7.61093 149.879 7.26497 150.935 5.88113C152.183 4.26665 152.855 3.57473 154.295 2.88281L155.351 3.92069C154.967 5.88113 154.103 8.18753 152.759 9.22541C146.999 13.8382 146.999 16.1446 144.215 23.4098C143.351 25.3702 142.775 27.3307 142.103 28.9451C141.431 30.2137 141.047 30.5596 140.663 31.5975C140.279 32.866 140.279 33.5579 139.799 34.5958L135.767 46.4738C135.095 48.4342 134.039 50.3947 133.655 52.0091C131.351 59.6203 131.927 65.5016 131.927 73.3433C131.927 78.8787 132.983 85.2213 133.175 88.4503C133.175 93.0631 134.615 98.9444 134.423 102.635C132.311 100.674 131.255 78.994 130.775 75.9957C128.663 52.7011 133.559 52.0091 134.999 44.0521L139.703 30.2137C141.815 26.2928 143.351 21.334 144.983 17.0672C147.287 11.5318 148.631 12.4544 150.263 8.87945C148.343 9.57137 149.015 9.22541 147.671 10.4939C146.999 11.5318 146.231 11.5318 145.559 12.4544C145.175 12.8003 144.311 14.7608 143.831 15.4527C140.855 19.7195 137.015 22.7179 132.983 25.9468L125.591 30.9056L121.367 35.5184C120.695 36.5563 120.311 37.1329 119.639 38.1707C114.935 47.0504 112.631 67.808 117.047 76.3417C119.831 81.6464 120.023 83.9528 121.463 89.8341C121.847 92.1405 123.383 94.4469 124.247 96.0614C125.303 97.6759 126.359 99.4057 128.471 100.328C128.471 96.984 127.607 96.984 126.743 94.101L125.495 93.755C125.303 90.4107 124.055 85.5673 123.383 81.877C122.135 76.9183 122.711 74.6119 122.327 69.4225C121.943 61.8113 121.271 62.8492 122.135 57.5445C122.999 53.2777 121.463 47.3963 124.727 47.0504C120.695 62.5033 124.919 73.6893 124.727 84.1834C126.455 85.452 126.167 89.7188 127.031 92.7171C127.223 93.9856 128.087 95.3695 128.471 96.292C128.855 97.5606 129.143 98.9444 129.719 100.213C130.775 103.788 133.751 102.173 139.703 110.13C147.383 120.625 143.927 127.544 148.631 132.848C151.607 136.193 155.639 141.382 156.023 146.687C156.215 150.031 157.751 151.3 158.999 153.952L164.279 169.405C165.143 172.749 165.335 175.286 166.199 178.631C167.639 184.512 166.871 183.589 168.791 186.472C171.767 191.085 172.439 188.779 174.071 190.739C174.743 191.431 174.743 191.777 175.319 192.008C176.183 192.7 175.991 192.354 176.759 193.046C178.007 194.66 177.143 194.66 179.543 195.352C180.599 198.696 182.711 199.273 185.111 201.579C192.791 208.498 200.183 217.378 203.831 228.218C206.999 238.136 206.423 236.06 211.223 244.017C214.391 248.63 216.791 254.165 219.959 258.778C221.687 260.738 223.319 262.699 224.855 265.351C228.023 271.578 232.055 277.229 235.031 284.148L239.063 291.414C239.927 293.028 240.311 293.72 241.175 294.988L245.591 301.908C246.263 303.176 246.839 304.906 247.703 305.829C248.567 307.443 249.143 308.135 248.951 310.095C249.623 310.441 252.311 311.71 253.175 312.402C254.231 313.094 255.767 314.362 256.343 315.4C257.591 317.015 257.591 317.015 259.319 318.744C260.759 320.359 260.759 321.051 261.911 322.665C263.831 325.664 266.999 328.201 269.591 330.853L273.623 335.812C274.679 336.85 275.927 338.464 276.791 339.156C279.383 340.425 283.415 346.767 285.527 349.304C286.583 350.573 286.967 351.611 288.119 352.879C289.847 354.494 290.231 352.879 291.479 355.877C292.343 358.184 292.535 357.838 293.783 359.452L296.759 363.027C294.647 361.759 293.591 359.452 291.863 357.723C290.999 356.685 290.135 356.685 289.079 355.416L285.911 351.841C283.127 349.189 280.823 344.922 278.231 341.924C277.847 341.232 277.559 341.232 277.175 340.655C274.391 338.003 271.895 334.082 269.111 331.43C266.327 328.777 263.543 325.894 261.239 322.55C260.375 321.281 260.855 321.858 259.991 321.281L260.183 324.626C258.455 324.626 257.399 323.357 257.879 321.281L256.439 320.935C255.767 314.362 253.655 317.937 251.735 315.4C250.487 313.786 251.927 314.132 249.143 312.748C241.271 308.827 244.727 311.133 237.911 309.173C230.231 306.866 231.575 307.558 223.895 303.868L217.751 300.293C215.159 299.025 213.335 298.333 210.935 296.949C208.631 295.68 207.287 293.605 204.311 296.603C204.503 297.871 207.479 303.522 208.151 305.137C210.935 305.483 211.319 305.483 213.431 306.751C215.543 308.02 221.303 309.057 224.087 310.095C226.007 310.787 227.255 309.749 228.503 311.364C226.775 312.632 226.199 310.672 225.143 311.364C226.199 313.324 233.015 315.285 234.743 314.708C233.687 314.016 231.959 314.016 230.903 313.094C230.231 312.748 230.711 313.094 230.231 312.056C231.671 312.402 232.535 313.094 234.071 313.324C237.431 314.593 240.887 314.593 244.247 315.977L245.495 317.015C243.767 318.283 240.599 317.015 238.487 317.015C238.295 318.283 214.103 308.827 210.071 308.827C210.455 310.441 212.183 314.132 212.855 315.054C213.911 317.015 216.215 317.706 215.639 320.589C211.799 321.858 201.431 316.323 196.919 314.708C195.863 314.016 195.479 314.362 194.135 313.67C185.015 308.712 187.799 312.056 183.959 312.402C181.847 312.748 180.311 311.71 177.623 312.056C168.887 314.016 171.287 319.898 162.551 317.937C160.439 317.591 158.519 317.591 156.407 316.899C149.591 314.939 148.535 317.591 145.367 316.553C143.255 316.207 141.719 315.515 139.415 315.515C134.135 315.515 135.383 316.207 132.791 311.94C132.407 311.249 131.543 310.672 131.063 309.98C131.255 309.288 131.447 308.942 131.447 308.02C131.447 305.021 132.887 304.099 133.367 300.754C125.111 300.754 116.759 298.794 108.503 298.102C104.087 297.756 100.247 298.102 95.9272 298.102C93.6232 298.102 92.5672 297.41 90.1672 297.41C88.7272 297.756 85.2712 298.102 84.2152 297.41C87.5752 294.758 96.3112 297.756 99.7672 296.718C101.495 295.68 99.5752 296.026 101.879 296.026H110.807L110.999 296.372L112.919 297.064C114.839 295.796 118.487 296.372 120.599 297.41H116.183C118.103 298.679 124.919 299.025 127.895 299.371C128.567 298.679 128.279 298.333 129.335 298.333C132.695 297.641 130.583 299.601 133.751 299.947C134.615 297.295 135.191 296.372 136.343 294.412C138.263 290.837 139.319 287.147 140.759 282.88C141.143 281.611 140.567 277.575 140.375 276.307C136.343 273.308 127.223 271.348 122.135 269.733L107.255 266.735C105.815 266.389 103.607 266.389 102.839 265.121L118.775 268.119C152.951 275.73 134.327 276.307 143.639 261.2L148.919 251.282C146.999 248.976 144.215 248.976 141.527 247.707C138.359 245.747 135.191 246.669 132.791 245.747C130.007 244.478 127.511 243.44 124.727 242.403C120.887 241.134 119.447 242.403 115.799 241.711C109.655 240.673 111.959 240.673 108.599 244.017L105.431 246.669C103.991 248.284 104.567 248.63 103.703 250.59C102.647 254.165 99.8632 254.511 96.5032 254.511C90.7432 254.857 92.4712 256.126 89.6872 258.778C87.7672 260.392 87.3832 262.699 84.4072 265.351C76.1512 272.616 85.0792 274.923 74.6152 278.844C72.5032 279.536 69.9112 281.842 67.2232 280.804C63.1912 279.766 64.2472 278.152 58.6792 280.112C57.2392 280.458 55.8952 280.458 54.4552 281.381C52.7272 282.649 49.7512 284.033 48.3112 285.993C47.2552 287.262 47.0632 288.646 46.0072 289.568C44.9512 290.837 43.8952 291.183 42.8392 292.567C41.7832 293.605 41.9752 294.527 40.7272 295.565C40.7272 298.217 40.0552 297.871 40.5352 300.178C41.3992 304.445 43.1272 305.137 44.5672 306.405L51.5752 314.016C57.1432 320.589 56.8552 317.591 59.2552 317.937C62.2312 318.975 62.0392 321.858 60.3112 324.164C57.7192 327.163 57.1432 323.472 56.9512 330.392C58.3912 331.66 58.1992 332.352 59.2552 334.313C59.9272 335.927 60.5032 336.965 61.3672 338.233C64.1512 342.154 72.5992 345.499 77.1112 345.499C79.7032 345.499 79.7032 344.807 82.1992 345.845C83.2552 346.191 85.3672 346.536 86.6152 346.882C85.7512 347.92 85.9432 347.92 87.2872 348.497C94.1032 352.072 100.247 350.803 107.255 349.189C112.823 347.92 110.615 349.881 119.159 346.882C125.111 344.922 146.519 340.309 152.951 339.271C159.287 338.003 164.183 335.927 170.327 335.35C175.895 334.659 173.495 334.082 175.031 333.39C176.087 333.044 177.143 333.044 178.199 332.698C184.343 330.046 196.631 330.392 203.927 329.123C206.231 328.431 208.151 329.123 210.263 328.777C212.183 328.431 218.807 326.471 220.247 325.433C218.135 324.395 218.807 325.433 216.599 325.433L204.311 326.125L204.119 324.856C204.119 324.856 203.927 324.856 203.927 324.51C200.951 323.818 193.079 325.202 189.047 324.856H177.623C176.567 324.856 175.703 325.202 174.263 325.202C169.367 325.202 164.471 325.894 159.383 325.894C147.479 325.894 135.767 328.547 124.151 329.469C115.223 330.161 105.047 332.467 96.3112 332.813C94.0072 332.813 92.0872 333.851 89.6872 334.082C90.3592 331.776 93.5272 332.121 95.2552 331.776C97.3672 331.43 99.2872 331.43 101.591 331.084C105.431 330.738 110.519 330.046 114.167 329.469C122.711 328.201 131.159 328.201 139.607 326.471C148.055 325.202 157.463 325.202 165.911 324.51C174.167 324.164 183.575 323.818 192.503 323.818L193.751 322.55C199.319 322.204 204.119 323.588 209.879 322.204C210.935 322.204 224.951 321.166 225.623 321.166C230.903 321.858 234.359 323.472 240.023 322.204C242.135 321.512 245.975 321.858 247.703 321.166C250.007 320.128 250.871 317.822 252.983 317.591C254.423 319.552 253.847 319.552 254.423 321.166C255.671 323.127 256.727 324.741 258.647 326.125C262.007 328.431 262.295 328.777 264.791 331.084C265.463 331.776 265.655 332.352 266.231 333.044L280.055 348.497C286.391 356.108 291.959 362.912 297.431 371.907C300.791 376.866 304.439 377.788 307.031 379.749C305.783 380.787 304.727 380.441 303.383 380.095C302.711 381.363 303.383 380.787 301.943 381.363C300.503 380.095 300.887 380.095 300.023 378.365C298.967 376.404 296.855 374.444 295.607 372.829C295.415 372.483 295.415 372.483 294.935 372.138C294.935 371.792 294.551 371.446 294.551 371.446L284.567 358.991C283.703 357.953 283.127 357.377 282.263 356.339C280.535 355.07 279.287 352.418 277.847 350.803L271.223 342.616C269.303 340.655 268.919 339.041 266.135 338.349C265.079 334.082 261.431 333.044 258.743 330.507C257.879 329.815 256.439 329.469 255.767 328.547C254.327 327.278 254.903 326.932 252.791 325.894C251.351 325.202 250.871 325.548 249.143 325.894C243.863 327.163 245.783 325.894 241.463 325.894C238.487 326.24 235.511 326.586 233.207 326.24C231.767 326.24 227.639 327.855 225.527 328.201C219.767 328.893 218.327 331.199 209.591 331.545C204.023 331.545 198.167 332.813 192.791 333.505C185.111 334.543 184.919 333.851 175.991 335.812C169.655 337.08 167.063 337.08 160.727 340.079C156.311 342.039 154.583 343.423 149.687 343.653C148.247 343.999 147.767 344.922 146.903 343.653C148.343 342.385 151.127 342.962 153.047 342.385C154.775 341.693 157.079 340.77 158.135 339.387C151.799 340.655 144.791 341.693 138.551 343.653C132.983 345.268 126.839 344.922 119.639 347.574C115.223 348.843 115.607 349.535 114.359 349.881L95.6392 353.225C89.0152 353.225 87.3832 350.573 83.7352 349.304C74.8072 346.652 64.1512 346.652 60.7912 341.116C58.1992 340.77 58.6792 341.462 57.6232 339.502C55.8952 336.504 53.7832 335.581 52.3432 332.237C50.6152 328.662 48.9832 324.972 46.5832 320.705C43.7992 315.169 40.2472 313.094 38.5192 302.6C37.8472 298.333 37.2712 298.679 36.4072 296.372C37.0792 294.758 36.7912 295.104 37.8472 294.066C39.7672 292.451 41.0152 290.722 42.5512 288.761C43.6072 287.147 43.9912 285.763 45.3352 284.494C47.6392 282.188 47.2552 281.842 48.3112 280.919C50.4232 278.959 54.9352 277.921 56.8552 276.307C57.7192 275.615 57.2392 275.269 58.7752 275.038C62.8072 274 60.8872 275.038 65.7832 272.386C68.3752 271.348 71.9272 269.387 73.6552 266.85C74.9032 264.89 75.5752 265.582 77.3032 263.852L82.3912 259.239C83.4472 258.201 83.2552 258.201 83.8312 257.279C87.1912 253.704 92.0872 251.974 95.2552 249.091C94.5832 247.131 88.6312 243.786 86.5192 242.864C84.2152 241.595 76.5352 232.946 75.4792 231.332C72.5032 226.027 71.2552 224.413 67.6072 220.146C66.9352 219.454 66.7432 218.877 65.8792 218.185C61.6552 212.65 56.0872 208.037 54.4552 198.466C53.7832 193.853 52.5352 190.278 51.2872 186.011C50.6152 184.051 44.9512 177.477 47.9272 175.863C48.5992 177.131 47.9272 177.477 48.5992 178.861C49.8472 182.205 52.2472 184.166 54.3592 192.7C55.0312 195.006 55.2232 196.62 55.6072 199.273C56.6632 204.578 58.1992 205.846 60.5032 210.113L67.1272 218.301C72.6952 223.605 73.7512 227.526 76.9192 231.447L80.5672 235.368C87.9592 243.902 87.7672 240.903 92.6632 245.286C97.5592 249.206 95.4472 249.206 99.2872 246.323C100.727 245.055 101.591 244.017 103.319 242.979C107.735 241.019 108.887 239.404 114.551 240.327C117.143 240.673 120.311 239.981 122.807 240.327C124.919 240.673 127.511 241.941 129.815 242.287C134.519 242.979 139.127 244.94 143.447 246.9C145.367 247.938 147.863 249.552 149.591 249.898C151.031 247.938 150.839 244.594 150.455 242.057C149.783 236.175 152.183 231.908 153.239 226.258C153.623 223.605 155.543 220.376 155.543 220.03C153.815 212.189 155.927 210.113 155.927 202.271C157.847 203.309 155.735 201.925 156.983 203.54C157.367 203.886 157.367 203.886 158.231 204.232C158.231 198.35 156.503 203.886 155.639 200.887C154.775 197.312 157.079 188.663 161.591 186.703L162.839 186.357C161.111 182.436 158.135 179.438 155.831 176.439C154.775 175.171 154.391 175.171 153.239 173.787L149.015 169.52C148.631 169.174 148.343 168.828 147.767 168.482C146.327 166.868 143.735 164.216 142.007 163.524L143.447 168.482C143.639 169.174 144.503 172.749 144.503 173.441C145.367 177.016 146.231 179.322 147.479 182.667C148.151 184.281 148.727 185.665 149.207 187.28C150.647 191.892 151.127 191.892 151.799 193.853C152.663 196.505 154.391 197.197 154.103 199.388C152.375 198.696 151.799 197.082 150.935 195.467C148.631 190.508 149.495 192.123 147.959 187.625C147.767 186.588 147.287 186.357 146.903 185.319C145.175 180.706 145.847 179.438 141.143 177.477C137.975 176.209 135.863 173.902 132.599 172.865L125.399 170.212C124.535 169.866 123.671 169.52 122.807 169.52C120.887 169.174 119.639 168.482 117.911 167.906C115.991 167.56 114.935 167.214 112.823 166.868C108.791 166.522 104.375 167.214 100.535 167.214C97.3672 167.56 96.1192 168.252 89.1112 168.482C87.3832 168.482 85.7512 169.174 84.0232 169.174C84.2152 167.906 83.8312 168.136 85.4632 168.136L91.7992 167.444C101.783 165.83 107.063 164.792 116.855 166.407C120.023 166.753 124.919 168.021 127.895 169.751C129.815 170.789 129.623 170.097 131.543 170.789L138.167 174.133C140.279 175.402 141.527 176.439 144.311 177.477L142.391 169.866C140.471 160.641 141.335 162.255 135.191 157.412L123.959 149.57C123.095 148.878 121.847 148.301 121.367 147.263C120.503 145.303 121.559 145.995 119.447 144.265C117.719 142.997 117.143 141.267 114.743 139.652C111.383 137 105.143 130.773 102.455 127.428C101.399 126.16 101.207 126.16 100.151 125.122C95.2552 119.817 96.1192 119.817 91.0312 114.974C89.1112 113.705 88.4392 111.399 86.6152 109.669C82.7752 106.325 83.2552 108.055 80.8552 106.094C79.4152 105.056 80.4712 105.056 78.0712 104.134C76.6312 103.788 76.6312 103.096 75.0952 102.519C71.0632 100.559 70.0072 103.211 68.2792 102.173C68.4712 100.559 67.6072 101.481 68.9512 100.905C70.0072 99.867 71.5432 100.213 72.5992 100.213C74.5192 100.559 75.5752 101.481 77.6872 101.481C78.7432 102.75 77.8792 102.519 79.1272 103.442C80.8552 104.48 84.4072 104.71 85.7512 105.748L91.7032 112.667L92.3752 111.399C93.6232 113.013 93.4312 113.013 94.6792 114.743C100.823 122.931 102.743 123.277 108.695 129.158C109.559 130.196 110.999 130.773 111.863 131.811C114.839 134.117 117.431 137.692 120.407 139.652C121.847 140.69 122.327 141.613 123.383 142.651C126.551 146.226 128.279 147.263 132.311 150.262C134.615 151.876 135.959 154.529 138.647 155.567C137.975 151.992 136.727 147.725 135.479 144.38C132.887 137.461 131.447 130.196 129.335 123.046C128.471 119.702 127.607 115.781 126.359 112.552C125.303 109.554 121.271 101.366 121.079 97.7912C120.695 93.1784 117.239 87.643 116.183 82.6843C115.511 80.7238 115.127 79.1094 114.455 77.1489L112.727 72.1901C112.727 67.9233 112.343 62.042 112.727 58.0058C113.399 53.047 113.591 49.8181 114.839 45.2053C115.223 43.5908 115.895 41.2844 116.279 39.6699C117.143 37.3635 117.719 36.6716 118.871 35.0571C121.655 30.7903 125.015 28.1379 129.527 25.4855C130.775 24.4477 132.119 23.8711 133.367 22.8332C134.423 21.7953 136.343 20.1808 137.015 19.4889C138.263 17.8744 139.127 17.5285 140.663 16.1446L147.287 9.22541H147.575Z" fill="black"/>
<path fill-rule="evenodd" clip-rule="evenodd" d="M69.7199 87.2975C69.0479 86.2597 69.0479 86.6056 68.6639 85.6831C68.8559 86.375 68.6639 86.029 69.0479 86.7209C69.2399 87.0669 69.4319 87.0669 69.7199 87.4129V87.2975ZM59.5439 74.1511C58.8719 72.1906 58.4879 72.8825 58.1039 71.4987C58.1039 72.1906 57.9119 72.1906 58.4879 72.7672C59.1599 74.0357 58.6799 73.4591 59.5439 74.0357V74.1511ZM54.8399 62.965C53.3999 61.6965 55.5119 61.9271 53.7839 59.3901C50.6159 54.4313 50.9999 58.6982 49.0799 63.6569C50.1359 64.9255 49.7519 64.3489 50.9999 64.3489L51.1919 65.9633C53.1119 67.0012 51.1919 65.2714 54.8399 67.5778L55.2239 66.8859L55.4159 66.5399L63.8639 78.7639C64.7279 80.0324 65.9759 80.7243 67.0319 82.1081C67.7039 83.146 67.4159 83.3767 68.2799 84.4145C70.8719 87.0669 73.1759 90.9878 75.6719 93.6401C77.5919 95.2546 78.8399 93.6401 78.8399 97.2151C76.7279 96.5231 74.1359 92.6023 72.2159 91.3337C75.1919 95.6006 71.8319 92.6023 76.6319 96.6385C77.4959 97.3304 81.0479 100.213 81.3359 101.251C81.1439 101.251 81.5279 103.212 78.3599 100.559C71.3519 94.678 75.1919 98.2529 69.6239 90.6418C68.9519 89.6039 68.1839 89.0273 67.7039 87.9895C66.8399 86.7209 66.6479 86.375 65.7839 85.3371C64.3439 83.7226 56.8559 73.4591 54.9359 72.1906C54.0719 71.1527 52.6319 71.1527 51.9599 70.5761C51.2879 70.2302 51.7679 69.5383 49.1759 68.9617C48.3119 68.6157 46.1999 68.9617 45.3359 68.6157C44.4719 68.2697 44.4719 68.2697 44.6639 67.0012C44.8559 65.3867 44.6639 66.3093 45.7199 65.7327C46.7759 66.7706 45.9119 65.3867 46.5839 67.3472L50.6159 67.6931C49.7519 66.0787 48.5039 65.3867 47.2559 63.7723C47.0639 61.8118 47.2559 59.8514 47.9279 58.4675C48.3119 57.7756 49.8479 56.5071 50.9039 56.1611C53.0159 56.8531 56.4719 60.7739 54.5519 63.0803L54.8399 62.965Z" fill="black"/>
<path fill-rule="evenodd" clip-rule="evenodd" d="M46.7755 56.6225L47.4475 57.891C47.8315 59.1595 47.4475 57.545 47.6395 59.1595C45.0475 59.5055 43.2235 55.8152 41.3035 53.8548C40.0555 52.5863 40.6315 52.8169 39.8635 51.2024C38.6155 49.242 36.8875 50.5105 34.7755 48.5501C33.0475 46.9356 32.1835 46.2437 32.8555 42.6687C33.9115 41.9768 34.1035 41.6309 35.4475 41.6309L35.2555 44.9751C36.1195 45.6671 35.6395 44.2832 36.1195 46.2437C40.5355 44.6292 37.1755 46.2437 39.4795 45.5517C40.5355 45.2058 40.3435 44.8598 40.9195 44.5139C41.9755 44.1679 40.9195 44.8598 42.6475 44.8598C43.5115 43.5913 43.3195 43.2453 44.3755 42.2075C46.4875 42.5534 45.6235 43.2453 46.4875 45.2058C46.6795 45.8977 48.7915 47.1662 49.2715 47.5122L47.3515 49.8186C46.4875 49.4726 42.9355 48.5501 42.2635 47.8581C41.5915 46.8203 42.2635 47.1662 41.8795 46.2437C41.8795 45.8977 41.6875 45.8977 41.6875 45.8977C40.4395 50.1645 41.8795 49.242 42.9355 52.125C43.6075 54.7773 42.9355 52.4709 46.9675 56.3918L46.7755 56.6225Z" fill="black"/>
<path fill-rule="evenodd" clip-rule="evenodd" d="M39.768 56.6226C39.768 58.237 39.576 58.237 39.096 59.6209C41.208 61.2354 44.664 59.9668 42.936 63.8877L42.552 66.5401C40.824 66.886 40.44 66.5401 39.576 65.5022L38.136 63.5418C37.464 62.8498 38.136 63.5418 37.272 62.8498C34.968 63.8877 36.6 65.1562 31.512 65.1562C31.128 66.1941 31.512 65.8482 30.264 66.1941C29.208 64.9256 28.536 60.8894 28.536 60.8894C28.92 59.6209 29.208 59.2749 29.592 58.237C30.456 56.6226 29.976 56.6226 31.704 56.6226C31.896 61.5813 30.648 59.6209 30.264 61.9273C31.992 62.6192 31.512 61.2354 33.048 60.8894C34.488 60.1975 34.488 61.5813 35.832 60.1975C37.08 59.1596 37.752 55.5847 39.192 54.6621C39.576 55.354 39.864 55.354 39.864 56.6226H39.768Z" fill="black"/>
<path fill-rule="evenodd" clip-rule="evenodd" d="M19.223 32.9822L21.143 33.3282C22.391 30.3298 22.199 31.7137 24.311 32.0596C25.559 31.0218 24.695 31.0218 26.231 30.4452C29.207 33.7894 25.367 34.366 26.615 37.7103C28.535 37.7103 27.287 37.3644 28.919 37.0184C30.167 37.7103 31.703 38.9788 31.511 40.9393C29.207 41.6312 29.591 41.6312 28.919 39.9014L27.863 41.1699C25.559 41.1699 25.559 40.824 24.215 39.5554C22.295 37.595 23.159 38.2869 22.103 36.2112C18.263 37.4797 15.959 33.9048 15.959 29.292C17.207 28.2541 16.823 27.6775 18.551 28.0234C18.743 30.3298 17.879 30.6758 19.223 32.9822Z" fill="black"/>
<path fill-rule="evenodd" clip-rule="evenodd" d="M94.7754 89.9499L94.5834 89.6039C94.1994 90.2958 94.7754 88.3354 92.4714 89.258C91.4154 85.9137 87.7674 87.9894 91.4154 92.2563L94.1994 92.6022C94.5834 94.2167 94.1994 94.5627 93.5274 95.6006C93.5274 98.9448 94.7754 99.8674 94.7754 102.52C91.4154 102.52 90.5514 99.8674 90.7434 96.6384L86.9034 91.6797C86.9034 91.3337 88.3434 84.0686 93.2394 86.7209C94.4874 87.7588 94.6794 87.9894 94.6794 90.0652L94.7754 89.9499Z" fill="black"/>
<path fill-rule="evenodd" clip-rule="evenodd" d="M75.6706 58.9288C73.9426 59.9666 74.2306 58.2368 71.8306 60.8892C72.2146 63.5416 72.2146 62.5037 74.8066 63.1956L74.6146 65.848H70.3906C66.5506 58.5828 70.7746 59.6207 73.5586 56.2764C73.3666 53.97 72.8866 53.624 73.3666 51.3176L75.9586 50.9717C75.7666 52.5862 75.5746 53.2781 75.5746 54.8926C75.7666 56.507 76.4386 57.5449 75.7666 58.8134L75.6706 58.9288Z" fill="black"/>
<path fill-rule="evenodd" clip-rule="evenodd" d="M75.0952 74.3808C74.2312 73.6889 74.4232 73.3429 73.3672 73.1123C73.5592 75.0727 73.3672 76.1106 74.4232 77.3791C75.8632 77.3791 74.4232 77.0332 76.5352 76.6872C76.1512 80.2621 73.9432 80.2621 72.8872 78.3017C72.0232 77.2638 72.2152 77.0332 71.8312 75.3034C69.2392 75.9953 66.2632 72.651 66.7432 69.0761C69.0472 68.3842 71.4472 71.0365 71.6392 71.0365C73.0792 72.305 75.6712 69.768 74.9992 74.3808H75.0952Z" fill="black"/>
<path fill-rule="evenodd" clip-rule="evenodd" d="M10.679 10.6088C10.679 12.9152 11.063 12.2233 12.407 13.2612C12.215 17.1821 10.295 14.8757 10.679 18.7966C12.119 19.8344 11.927 18.7966 12.791 20.411C12.119 21.6796 11.543 21.6796 9.81502 21.6796C8.37502 19.0272 7.70302 18.1046 8.75902 14.4144C7.89502 12.454 7.03102 11.4161 7.70302 8.53307C10.871 8.53307 10.679 7.49519 10.679 10.4935V10.6088Z" fill="black"/>
<path fill-rule="evenodd" clip-rule="evenodd" d="M83.3516 169.867C76.7276 168.598 72.6956 170.905 67.6076 172.519C65.0156 173.211 61.6556 173.557 59.0636 173.788C57.1436 174.134 52.2476 175.748 50.9996 174.825C51.3836 174.134 50.1356 174.134 53.9756 173.557C55.2236 173.557 56.0876 173.211 57.3356 172.865C59.9276 172.519 62.2316 172.519 64.5356 171.827C68.1836 171.135 77.3036 166.522 82.3916 168.829C83.8316 169.521 83.0636 168.483 83.2556 169.867H83.3516Z" fill="black"/>
<path fill-rule="evenodd" clip-rule="evenodd" d="M105.624 95.1392C105.432 93.8707 107.352 91.5643 104.376 90.5264C103.512 91.2184 102.936 92.8328 102.456 94.1014C102.072 95.1392 102.648 97.6763 102.84 99.4061L98.9997 96.7537C98.6157 91.795 100.056 90.1805 103.224 89.1426C107.64 88.1047 107.928 95.3699 105.528 95.0239L105.624 95.1392Z" fill="black"/>
<path fill-rule="evenodd" clip-rule="evenodd" d="M40.8239 69.5381C39.9599 70.8067 40.1519 70.2301 39.7679 71.8445C40.4399 73.1131 39.9599 72.1905 41.0159 73.459C41.3999 73.805 41.6879 74.1509 41.8799 74.7275C44.6639 73.459 43.1279 74.7275 43.3199 75.0735L41.8799 76.688C39.9599 75.6501 35.9279 71.7292 35.9279 69.0769C35.9279 65.7326 37.6559 66.4245 39.9599 66.4245C40.1519 67.693 40.3439 68.7309 40.8239 69.4228V69.5381Z" fill="black"/>
<path fill-rule="evenodd" clip-rule="evenodd" d="M26.616 18.2206C24.696 18.2206 25.176 17.1827 23.832 18.9125C25.944 20.8729 24.216 21.2189 24.888 22.8334C25.752 24.1019 27 24.4479 26.616 27.1002C24.024 28.3687 21.912 24.4479 21.912 21.5649C22.104 16.2601 26.328 14.9916 26.616 18.2206Z" fill="black"/>
<path fill-rule="evenodd" clip-rule="evenodd" d="M68.6638 96.1767C66.7438 95.1388 65.4958 94.9081 65.0158 97.7911C66.7438 98.4831 67.1278 97.7911 67.6078 100.098C67.9918 102.058 68.6638 102.75 68.4718 104.71C67.4158 104.71 65.8798 103.672 65.1118 103.442C64.2478 102.75 63.8638 100.443 63.8638 98.829C63.8638 94.9081 67.7038 92.6017 68.7598 96.1767H68.6638Z" fill="black"/>
<path fill-rule="evenodd" clip-rule="evenodd" d="M9.81641 1.7298V6.3426C8.76041 5.65068 9.14441 7.03452 8.95241 5.30472C8.95241 5.30472 9.14441 4.0362 9.14441 3.69024L8.95241 3.34428C8.95241 3.69024 8.56841 3.34428 8.28041 2.99832C7.41641 2.65236 8.08841 2.99832 7.41641 2.3064C6.74441 1.61448 7.80041 1.96044 6.55241 1.61448C4.82441 0.5766 5.68841 1.61448 5.49641 1.61448C4.82441 2.883 5.11241 3.92088 5.11241 5.88132C6.16841 6.9192 6.84041 6.9192 6.55241 8.87964C3.96041 10.1482 0.792406 6.22728 4.82441 0C6.93641 0 8.47241 1.03788 9.72041 1.61448L9.81641 1.7298Z" fill="black"/>
<path fill-rule="evenodd" clip-rule="evenodd" d="M56.3758 95.4846C56.1838 95.8306 56.5678 96.1765 54.6478 95.4846L53.5918 99.0595L55.8958 100.328C56.9518 99.2902 56.0878 99.6361 57.3358 99.0595L58.0078 100.097C57.8158 101.366 57.1438 102.058 55.4158 103.096C52.8238 102.058 50.5198 97.2144 53.3038 93.8701C54.7438 94.2161 55.6078 94.2161 56.2798 95.4846H56.3758Z" fill="black"/>
<path fill-rule="evenodd" clip-rule="evenodd" d="M102.84 102.058C101.592 102.75 101.784 101.712 99.4795 102.058C99.4795 109.9 99.2875 107.363 101.208 109.323C99.9595 113.244 96.7915 106.671 97.3675 103.788C98.2315 100.79 99.0955 100.444 101.208 100.79C102.936 100.79 102.456 100.79 102.936 102.058H102.84Z" fill="black"/>
<path fill-rule="evenodd" clip-rule="evenodd" d="M133.272 217.148C131.832 217.148 130.296 216.11 128.856 215.533C127.128 214.495 126.744 214.495 124.44 213.919C123.384 210.92 123.768 212.881 122.328 210.92C123.768 210.92 124.056 210.92 124.632 212.535C127.416 212.189 127.608 213.573 129.912 213.803L130.584 215.418C131.256 214.726 131.256 214.726 132.312 214.726C133.56 216.341 132.984 215.764 134.904 215.418L136.344 217.033L132.696 215.764C132.696 216.11 132.888 216.11 132.888 216.456L133.272 217.148Z" fill="black"/>
<path fill-rule="evenodd" clip-rule="evenodd" d="M46.5837 75.0731C47.4477 76.1109 48.6957 76.6875 50.6157 76.6875C51.4797 75.9956 51.4797 75.6497 52.3438 75.6497C52.1517 78.648 49.7517 77.9561 47.4477 78.302C45.7197 75.9956 44.4717 76.3416 44.8557 71.7288L46.5837 71.3828C47.2557 72.9973 46.7757 72.9973 46.5837 74.9577V75.0731Z" fill="black"/>
<path fill-rule="evenodd" clip-rule="evenodd" d="M59.5431 101.367C61.6551 104.019 58.6791 104.019 59.5431 107.594C60.4071 107.94 60.2151 107.594 60.7911 107.594L62.0391 108.286C61.8471 108.978 62.0391 109.9 59.7351 108.978C58.2951 107.94 57.4311 105.633 56.9511 103.673C58.1991 101.367 58.1991 101.021 59.5431 101.367Z" fill="black"/>
<path fill-rule="evenodd" clip-rule="evenodd" d="M133.271 217.147C139.031 218.762 136.439 218.416 138.839 217.839C138.167 220.146 140.567 218.877 145.463 221.184C147.383 221.876 148.439 221.53 149.879 222.452C150.551 222.798 150.743 223.144 151.607 223.49C152.663 224.182 151.223 223.49 152.471 223.836C152.471 223.836 152.855 224.182 153.143 224.182L153.527 224.528C152.663 226.142 153.335 225.22 148.823 223.49L133.271 217.263V217.147Z" fill="black"/>
<path fill-rule="evenodd" clip-rule="evenodd" d="M34.104 33.6731C33.912 32.6352 33.912 34.711 33.912 32.4045C33.72 31.136 34.584 30.4441 34.104 28.8296C33.432 26.1773 31.992 27.5611 32.184 25.2547C32.376 25.2547 31.8 24.2168 33.432 24.9087C33.624 24.9087 34.296 25.6007 34.488 25.9466C34.872 26.9845 35.16 27.9071 35.352 28.9449C35.736 30.9054 37.08 35.1722 34.104 33.9037V33.6731Z" fill="black"/>
<path fill-rule="evenodd" clip-rule="evenodd" d="M50.8073 43.2454C50.6153 44.8601 50.4233 44.2834 51.4793 44.8601C52.3433 43.5914 51.6713 43.822 50.8073 43.2454ZM50.4233 41.6306C51.0953 41.6306 54.0713 40.9386 53.2073 43.9374C52.3433 45.5521 51.9593 46.2441 50.4233 46.2441C50.0393 45.2061 49.7513 43.5914 49.7513 42.3227C46.5833 39.3239 47.8313 42.3227 47.1593 39.6699C48.8873 39.6699 49.9433 40.3619 50.3273 41.6306H50.4233Z" fill="black"/>
<path fill-rule="evenodd" clip-rule="evenodd" d="M125.784 42.207C126.648 38.6321 127.224 41.5151 129.816 34.9419C131.064 31.5976 132.408 29.9831 135.576 29.0605C133.848 33.3274 133.272 28.3686 130.68 35.2878C129.816 37.9402 128.088 41.5151 125.784 42.207Z" fill="black"/>
<path fill-rule="evenodd" clip-rule="evenodd" d="M123.672 235.253C126.84 235.945 130.008 236.522 132.984 237.906C134.712 238.598 134.712 238.944 135.096 239.52C133.848 239.52 132.984 238.828 132.12 238.252C130.392 237.906 132.984 240.904 123.672 235.253Z" fill="black"/>
<path fill-rule="evenodd" clip-rule="evenodd" d="M46.7758 56.6229C46.1038 54.6621 44.4718 53.6241 47.1598 51.3174L47.3518 51.6634C48.4078 53.2781 48.7918 52.3554 48.7918 53.9701C48.9838 55.5848 47.9278 56.2769 46.6798 56.6229H46.7758Z" fill="black"/>
<path fill-rule="evenodd" clip-rule="evenodd" d="M79.511 58.3513C79.703 57.0828 79.703 57.3134 80.759 56.0449C80.087 54.4304 80.087 55.6989 79.511 53.3925C79.319 52.7006 79.511 53.0465 79.127 52.124C78.263 50.5095 78.935 52.8159 78.263 50.8555C82.103 51.2014 83.351 58.1206 79.511 58.4666V58.3513Z" fill="black"/>
<path fill-rule="evenodd" clip-rule="evenodd" d="M116.472 230.295L116.664 231.909C113.304 230.871 109.464 227.988 106.488 226.95C106.872 226.258 106.488 225.681 108.792 226.95C109.848 227.642 110.52 227.988 111.384 228.564C116.088 231.217 114.168 228.91 116.472 230.179V230.295Z" fill="black"/>
<path fill-rule="evenodd" clip-rule="evenodd" d="M72.8873 83.3767C73.7513 82.6848 73.0793 82.6848 74.1353 83.3767C74.3273 84.9912 74.3273 84.0686 74.1353 85.6831L73.7513 86.9516C73.5593 87.9895 73.7513 87.2976 73.3673 87.9895C72.6953 86.375 71.2553 82.6848 71.9273 81.0703C72.7913 82.1082 72.5993 81.7622 72.9833 83.3767H72.8873Z" fill="black"/>
<path fill-rule="evenodd" clip-rule="evenodd" d="M204.6 259.239C203.544 258.201 198.648 250.013 198.456 247.707C199.512 248.399 200.376 250.705 201.624 253.242C202.488 254.857 204.216 257.163 204.6 259.124V259.239Z" fill="black"/>
<path fill-rule="evenodd" clip-rule="evenodd" d="M141.144 197.774C139.416 197.082 139.704 197.428 139.032 195.467C135.192 195.813 137.784 194.775 133.944 194.775C133.56 194.775 132.888 194.775 132.696 194.429C131.448 194.083 132.024 194.083 131.64 193.737C133.944 193.737 138.264 194.429 140.376 195.698C141.24 196.39 140.76 195.698 141.24 197.659L141.144 197.774Z" fill="black"/>
<path fill-rule="evenodd" clip-rule="evenodd" d="M28.536 29.9838C27.48 28.9458 27.672 28.7151 27.864 26.4084C28.728 25.7163 28.728 25.3703 30.168 25.1396C29.976 26.1777 28.92 29.4071 28.44 30.0991L28.536 29.9838Z" fill="black"/>
<path fill-rule="evenodd" clip-rule="evenodd" d="M123.672 235.253C121.752 235.253 122.232 234.907 120.504 233.985C119.448 233.639 118.392 232.947 117.144 232.716C117.528 231.678 117.336 232.024 118.008 231.447L119.256 233.408C119.64 232.716 119.448 232.716 120.312 232.37C124.728 235.715 121.368 233.639 123.672 235.369V235.253Z" fill="black"/>
<path fill-rule="evenodd" clip-rule="evenodd" d="M33.2402 80.378C31.9922 81.416 31.5122 80.724 30.0722 79.6859L30.2642 77.0332C32.3762 78.0712 30.0722 77.0332 32.8562 79.6859H33.0482L33.2402 80.378Z" fill="black"/>
<path fill-rule="evenodd" clip-rule="evenodd" d="M112.439 187.28C112.439 189.587 107.735 187.626 106.295 186.934C107.735 186.242 110.519 186.934 112.439 187.28Z" fill="black"/>
<path fill-rule="evenodd" clip-rule="evenodd" d="M88.8241 105.057L90.2641 103.788C90.9361 106.095 90.0721 106.787 88.3441 105.749C86.6161 105.057 86.2321 104.134 85.7521 103.096C87.1921 103.442 87.6721 104.134 88.7281 105.057H88.8241Z" fill="black"/>
<path fill-rule="evenodd" clip-rule="evenodd" d="M58.1026 45.7821L56.1826 46.1281C56.8546 42.2067 57.0466 44.8594 55.5106 41.5146C57.2386 41.8607 58.2946 43.4754 58.1026 45.7821Z" fill="black"/>
<path fill-rule="evenodd" clip-rule="evenodd" d="M192.504 298.795C191.64 299.487 191.832 299.487 191.064 299.141C190.008 298.449 190.008 297.526 189.816 297.18C188.952 295.219 188.088 296.142 187.032 294.527C188.76 293.489 191.064 297.872 191.064 297.872C191.448 298.564 191.928 298.218 192.504 298.91V298.795Z" fill="black"/>
<path fill-rule="evenodd" clip-rule="evenodd" d="M222.84 283.919C220.728 283.227 221.976 282.65 220.248 280.92C219.384 279.882 219.384 280.574 218.328 278.959L217.656 277.921L217.464 277.575C219.192 277.921 219.576 278.844 220.44 280.228C222.36 283.573 222.36 281.266 222.744 283.803L222.84 283.919Z" fill="black"/>
<path fill-rule="evenodd" clip-rule="evenodd" d="M100.92 203.079C99.1919 202.733 98.8079 201.81 96.8879 201.118C95.1599 200.426 93.9119 200.08 93.5279 199.157C94.7759 199.503 96.3119 199.849 97.5599 200.426C98.6159 201.118 100.344 202.387 100.92 203.079Z" fill="black"/>
<path fill-rule="evenodd" clip-rule="evenodd" d="M87.5762 196.16C84.9842 195.814 83.7362 194.891 82.0082 193.853C80.2802 193.161 80.7602 193.853 79.0322 192.238C81.1442 192.584 85.3682 194.891 87.5762 196.16Z" fill="black"/>
<path fill-rule="evenodd" clip-rule="evenodd" d="M211.223 269.503C209.783 268.234 210.551 268.234 209.495 267.196L204.599 259.354C206.519 260.623 206.327 262.353 207.959 263.967C209.015 265.236 210.743 267.888 211.127 269.503H211.223Z" fill="black"/>
<path fill-rule="evenodd" clip-rule="evenodd" d="M151.32 203.079C150.456 202.733 149.4 202.041 148.536 201.465C147.288 200.773 146.424 200.773 145.944 199.504C147.864 199.85 150.36 201.465 151.224 203.079H151.32Z" fill="black"/>
<path fill-rule="evenodd" clip-rule="evenodd" d="M117.911 210.575C117.719 210.921 118.775 211.844 115.799 210.575C114.743 210.229 114.071 209.883 113.495 209.537C113.879 208.845 112.631 208.845 114.551 208.845L117.911 210.46V210.575Z" fill="black"/>
<path fill-rule="evenodd" clip-rule="evenodd" d="M59.9277 99.0606C58.0077 100.099 57.3357 97.7919 56.7597 95.7158C58.4877 96.4078 57.4317 96.4078 58.4877 97.3305C59.3517 98.5992 59.1597 97.6765 59.9277 98.9452V99.0606Z" fill="black"/>
<path fill-rule="evenodd" clip-rule="evenodd" d="M9.81641 31.368C7.70441 31.714 6.84041 29.407 9.43241 28.7148L9.81641 31.368Z" fill="black"/>
<path fill-rule="evenodd" clip-rule="evenodd" d="M121.176 190.509C120.312 190.855 118.584 190.163 117.528 189.471C117.72 189.471 116.856 188.433 119.448 189.125C120.696 189.817 120.504 189.471 121.176 190.393V190.509Z" fill="black"/>
<path fill-rule="evenodd" clip-rule="evenodd" d="M103.896 186.588C101.976 186.588 100.536 186.242 99.0005 185.55C99.8645 184.858 100.248 185.204 101.112 185.55C102.84 185.55 103.032 185.55 103.896 186.588Z" fill="black"/>
<path fill-rule="evenodd" clip-rule="evenodd" d="M112.439 208.96C110.711 207.922 108.407 207.922 107.351 205.615C108.407 206.307 112.055 207.922 112.439 208.96Z" fill="black"/>
<path fill-rule="evenodd" clip-rule="evenodd" d="M16.8235 17.8752L17.8795 14.876C18.9355 16.1449 19.1275 18.2212 16.8235 17.8752Z" fill="black"/>
<path fill-rule="evenodd" clip-rule="evenodd" d="M117.336 189.241L116.664 189.587C115.608 189.587 115.416 189.587 114.36 188.895C114.36 188.895 114.552 186.933 117.336 189.241Z" fill="black"/>
<path fill-rule="evenodd" clip-rule="evenodd" d="M103.896 108.287L104.088 104.941C106.008 105.98 104.952 107.595 103.896 108.287Z" fill="black"/>
<path fill-rule="evenodd" clip-rule="evenodd" d="M171.096 303.408C170.424 304.1 168.984 304.1 168.312 302.716C169.368 302.023 170.232 302.369 171.096 303.408Z" fill="black"/>
<path fill-rule="evenodd" clip-rule="evenodd" d="M128.76 299.025C126.84 299.025 123.192 298.679 121.752 297.41L128.76 299.025Z" fill="black"/>
<path fill-rule="evenodd" clip-rule="evenodd" d="M97.9434 97.4461C96.6954 96.754 96.6954 96.1772 96.5034 94.793C97.9434 94.793 97.9434 95.4851 97.9434 97.4461Z" fill="black"/>
<path fill-rule="evenodd" clip-rule="evenodd" d="M49.5592 51.7798C49.3672 51.7798 49.3672 51.4337 49.3672 51.0877L49.5592 50.0495C50.2312 48.0885 49.7512 49.0113 50.6152 48.4346C51.2872 50.0495 50.9992 48.4346 50.4232 50.0495C49.7512 52.0105 50.6152 50.7416 49.5592 51.6645V51.7798Z" fill="black"/>
<path fill-rule="evenodd" clip-rule="evenodd" d="M62.5196 298.794C63.5756 298.448 63.3836 298.794 63.7676 299.486C62.9036 300.525 63.0956 300.178 61.6556 300.178C61.6556 299.14 61.6556 298.909 62.5196 298.909V298.794Z" fill="black"/>
<path fill-rule="evenodd" clip-rule="evenodd" d="M96.1191 237.559C94.8711 236.867 95.4471 237.213 95.0631 236.521C96.5031 236.175 96.7911 235.829 98.0391 237.213L96.1191 237.559Z" fill="black"/>
<path fill-rule="evenodd" clip-rule="evenodd" d="M130.295 193.853C129.431 193.853 128.855 193.507 128.183 193.507C126.743 193.161 127.511 193.853 126.455 192.815C128.183 192.123 129.239 192.815 130.295 193.853Z" fill="black"/>
<path fill-rule="evenodd" clip-rule="evenodd" d="M199.703 305.369C198.455 304.677 196.535 303.408 195.671 302.023C197.111 302.369 198.839 304.33 199.703 305.369Z" fill="black"/>
<path fill-rule="evenodd" clip-rule="evenodd" d="M159.576 306.981H151.32C151.512 306.981 151.704 306.635 152.184 306.289C153.048 305.597 153.432 305.943 154.776 306.635C156.696 307.327 157.56 306.981 159.672 306.981H159.576Z" fill="black"/>
<path fill-rule="evenodd" clip-rule="evenodd" d="M12.9844 9.91741C12.3124 9.57135 11.2564 9.57135 12.1204 7.61035C13.1764 8.64853 12.9844 7.61035 12.9844 9.91741Z" fill="black"/>
<path fill-rule="evenodd" clip-rule="evenodd" d="M125.784 45.5525C125.592 44.8604 125.4 44.8604 125.592 43.9376C125.976 42.6687 125.784 43.2455 126.84 42.8994L125.784 45.5525Z" fill="black"/>
<path fill-rule="evenodd" clip-rule="evenodd" d="M97.752 185.319C96.312 185.319 94.584 184.973 93.72 184.281C94.968 184.281 97.08 184.627 97.752 185.319Z" fill="black"/>
<path fill-rule="evenodd" clip-rule="evenodd" d="M121.367 212.305C120.119 211.959 119.255 211.612 118.391 211.036C119.831 210.689 120.311 211.036 121.367 212.305Z" fill="black"/>
<path fill-rule="evenodd" clip-rule="evenodd" d="M77.4004 191.547C76.7284 191.547 76.3444 191.547 75.9604 191.201C74.2324 190.855 75.5764 191.201 75.0964 190.509C76.1524 189.817 76.5364 190.509 77.4004 191.547Z" fill="black"/>
<path fill-rule="evenodd" clip-rule="evenodd" d="M92.2793 199.043L90.1673 197.774C90.1673 197.774 89.3033 196.736 91.4153 197.774C92.4713 198.12 92.2793 198.466 92.2793 199.043Z" fill="black"/>
<path fill-rule="evenodd" clip-rule="evenodd" d="M99.0957 221.761C98.4237 221.415 98.0397 221.069 97.3677 220.723L96.1197 219.454C97.5597 220.723 97.8477 219.108 99.0957 221.761Z" fill="black"/>
<path fill-rule="evenodd" clip-rule="evenodd" d="M149.4 156.029C149.208 156.029 149.208 155.683 149.016 155.683L147.96 152.684C149.208 153.376 149.016 154.299 149.4 156.029Z" fill="black"/>
<path fill-rule="evenodd" clip-rule="evenodd" d="M15.5752 11.9932C15.9592 15.3389 18.3592 12.6854 15.5752 11.9932Z" fill="black"/>
<path fill-rule="evenodd" clip-rule="evenodd" d="M92.6641 217.494C91.4161 216.802 91.8001 217.494 91.4161 215.879C92.8561 216.225 92.2801 215.533 92.6641 217.494Z" fill="black"/>
<path fill-rule="evenodd" clip-rule="evenodd" d="M1.17578 10.9553C-0.744219 10.9553 0.311781 11.3013 0.119781 9.91728C0.791781 9.57127 1.17578 9.22526 1.17578 10.9553Z" fill="black"/>
<path fill-rule="evenodd" clip-rule="evenodd" d="M119.832 209.652C119.64 209.998 120.216 210.69 118.776 209.998C117.912 209.652 118.104 209.306 118.104 208.96L119.832 209.652Z" fill="black"/>
<path fill-rule="evenodd" clip-rule="evenodd" d="M211.031 286.572L208.439 285.879C209.879 285.533 210.167 285.533 211.031 286.572Z" fill="black"/>
<path fill-rule="evenodd" clip-rule="evenodd" d="M78.4551 204.693C77.2071 204.001 77.3991 204.001 76.7271 203.078C77.5911 203.424 77.7831 203.424 78.4551 204.693Z" fill="black"/>
<path fill-rule="evenodd" clip-rule="evenodd" d="M72.6953 199.735C71.2553 199.043 72.0233 199.735 71.6393 198.466C72.3113 198.812 72.6953 198.466 72.6953 199.735Z" fill="black"/>
<path fill-rule="evenodd" clip-rule="evenodd" d="M97.9434 176.442L95.6394 176.095C96.0234 176.095 96.6954 175.748 96.6954 175.748C98.4234 175.748 97.5594 176.095 97.9434 176.442Z" fill="black"/>
<path fill-rule="evenodd" clip-rule="evenodd" d="M14.1359 11.3009C13.2719 10.2629 13.2719 10.6089 14.3279 10.0322C14.5199 11.3009 14.9999 10.3782 14.1359 11.3009Z" fill="black"/>
<path fill-rule="evenodd" clip-rule="evenodd" d="M74.8067 62.965C74.1347 61.0043 74.8067 61.927 74.9987 61.6963C75.1907 62.3884 76.0547 62.0423 74.8067 62.965Z" fill="black"/>
<path fill-rule="evenodd" clip-rule="evenodd" d="M68.2793 187.856L66.5513 187.51C66.9353 187.164 65.6873 186.472 67.2233 187.164C68.4713 187.51 67.8953 187.51 68.2793 187.856Z" fill="black"/>
<path fill-rule="evenodd" clip-rule="evenodd" d="M92.8555 106.325C92.8555 107.363 92.1835 107.017 92.1835 106.671C92.3755 105.633 92.8555 105.633 92.8555 106.325Z" fill="black"/>
<path fill-rule="evenodd" clip-rule="evenodd" d="M65.1113 201.119L63.3833 199.504C64.4393 199.85 64.6313 200.196 65.1113 201.119Z" fill="black"/>
<path fill-rule="evenodd" clip-rule="evenodd" d="M155.352 205.039C154.488 205.039 154.68 205.385 154.296 204.001C154.68 204.347 155.352 204.693 155.352 205.039Z" fill="black"/>
<path fill-rule="evenodd" clip-rule="evenodd" d="M169.559 219.8C169.367 220.146 169.751 220.492 168.695 219.8C169.079 219.454 168.695 218.532 169.559 219.8Z" fill="black"/>
<path fill-rule="evenodd" clip-rule="evenodd" d="M103.512 204.002L102.264 203.656C102.456 203.656 103.32 202.615 103.512 204.002Z" fill="black"/>
<path fill-rule="evenodd" clip-rule="evenodd" d="M143.064 198.811C142.008 198.465 142.872 199.157 142.2 197.773C144.12 198.811 142.392 198.119 143.064 198.811Z" fill="black"/>
<path fill-rule="evenodd" clip-rule="evenodd" d="M145.559 161.565C144.119 161.565 145.175 161.911 144.503 160.871C145.175 161.218 145.367 160.871 145.559 161.565Z" fill="black"/>
<path fill-rule="evenodd" clip-rule="evenodd" d="M213.719 287.264L212.471 286.917C213.335 286.57 213.143 286.223 213.719 287.264Z" fill="black"/>
<path fill-rule="evenodd" clip-rule="evenodd" d="M75.0954 201.695L73.6554 200.426C74.0394 200.426 73.6554 200.08 74.3274 200.772C75.1914 201.465 74.7114 200.772 75.1914 201.811L75.0954 201.695Z" fill="black"/>
<path fill-rule="evenodd" clip-rule="evenodd" d="M123.48 191.202C122.424 191.202 122.808 191.549 122.424 190.509L123.48 191.202Z" fill="black"/>
<path fill-rule="evenodd" clip-rule="evenodd" d="M215.064 274.116C215.064 275.155 214.68 274.463 214.68 274.116C214.68 273.424 215.064 274.116 215.064 274.116Z" fill="black"/>
<path fill-rule="evenodd" clip-rule="evenodd" d="M84.4082 225.451C83.3522 224.759 83.7362 225.451 83.5442 224.413L84.4082 225.451Z" fill="black"/>
<path fill-rule="evenodd" clip-rule="evenodd" d="M88.4392 347.805C88.6312 347.805 89.1112 348.499 88.2472 348.152C88.2472 348.152 87.8632 347.805 88.4392 347.805Z" fill="black"/>
<path fill-rule="evenodd" clip-rule="evenodd" d="M153.432 204.695L152.568 204.001C154.296 204.348 152.76 204.001 153.432 204.695Z" fill="black"/>
</svg>
