<svg width="454" height="502" viewBox="0 0 454 502" fill="none" xmlns="http://www.w3.org/2000/svg">
<path fill-rule="evenodd" clip-rule="evenodd" d="M426.681 98.1993C428.823 98.6275 428.537 99.484 431.107 98.6275C432.677 98.6275 433.676 97.7711 435.818 98.1993C436.389 98.1993 438.673 99.0558 439.672 99.0558C441.813 99.9123 441.528 100.341 443.098 101.054C447.809 100.198 450.949 100.626 450.949 94.916C450.949 92.061 449.95 91.6328 448.808 90.0625C447.238 88.4922 447.523 88.4922 446.238 85.9228C444.954 82.6395 443.098 83.0677 436.389 81.783C432.962 80.9265 434.247 80.4982 430.393 81.3547C427.823 81.783 427.252 80.4982 425.682 79.7845C423.113 80.2127 421.828 81.0692 419.401 81.0692C416.261 80.641 416.832 79.7845 414.976 79.0707C407.696 74.6454 410.551 77.0722 407.696 76.2157C406.411 76.2157 407.41 75.7874 405.126 75.7874C403.841 79.0707 401.272 79.499 401.272 84.7807C401.272 88.4922 403.128 88.4922 404.698 90.4908C406.554 93.3458 406.554 93.774 409.694 94.6305C413.12 95.9153 411.264 96.629 415.404 98.342C421.971 100.341 421.685 100.341 426.396 98.342L426.681 98.1993ZM186.29 39.9571C186.29 39.9571 188.431 46.0953 188.859 47.2373C189.43 50.5206 184.434 90.348 183.863 92.7748L179.723 107.906C184.719 107.906 182.292 102.196 195.854 101.054C206.56 99.7696 206.275 97.3428 214.554 96.629C224.404 95.7725 234.396 93.774 243.247 90.0625C247.387 88.064 246.387 87.2075 247.958 83.496C248.243 79.0707 233.683 62.3689 232.541 58.6574C231.541 56.6589 232.541 57.3726 230.97 55.3741L217.409 43.0976C213.555 39.8143 209.13 37.3875 204.704 40.6708C205.989 42.2411 205.989 41.9556 207.845 42.6693L215.125 48.8076C218.551 52.5191 220.121 54.5176 222.405 60.2276C223.405 62.2261 224.547 64.6529 225.26 66.7942L230.685 89.6342L228.115 93.3458C226.26 92.4893 227.544 92.9175 227.544 90.919C227.544 86.4937 226.26 88.064 225.403 80.7837C225.118 77.0722 224.118 73.9317 223.547 70.2202L225.403 71.0767C224.832 69.5064 224.118 67.3652 223.262 66.2232L224.261 69.9347C222.12 67.9362 222.976 67.9362 222.12 65.5094C222.12 65.0812 221.549 63.5109 221.121 63.0826C220.55 60.6559 221.121 61.5124 221.406 61.0841C218.837 59.7994 217.98 54.9459 214.411 52.9474C212.556 52.0909 213.127 52.9474 211.842 51.3771C210.272 49.8069 211.271 50.0923 209.272 48.9503C207.988 47.6656 207.988 47.3801 206.703 46.9518C204.847 45.6671 201.707 44.5251 199.423 44.5251C199.994 46.5236 203.848 51.8054 205.133 53.5184C207.702 57.2299 207.702 58.3719 209.272 63.2254C210.557 67.6507 217.552 90.0625 211.842 92.9175C210.272 91.6328 210.557 90.4908 210.272 86.0655L208.416 71.3622C207.417 64.0819 206.56 60.3704 202.42 53.0901L195.854 44.0968C194.569 45.6671 196.425 48.2366 196.853 51.3771L194.997 52.6619C195.568 60.7986 194.997 58.3719 194.997 65.2239C194.997 71.7904 195.283 70.0774 193.998 70.9339C192.713 68.5072 193.998 64.0819 193.998 61.2269C193.713 55.9451 192.428 40.8136 186.718 38.3868V40.3853L186.29 39.9571ZM417.831 134.03C419.687 132.459 419.116 134.03 420.4 131.603L417.26 132.888L417.831 134.172V134.03ZM426.967 124.323C430.393 122.324 430.107 117.756 432.392 114.187C436.246 107.335 437.816 108.477 440.243 106.907L435.818 101.197C426.967 101.625 426.396 106.907 421.971 108.049C422.542 106.051 423.255 105.622 424.112 103.909C420.258 103.481 408.695 101.054 406.696 99.484C406.125 98.6275 406.411 98.6275 405.412 97.9138C405.126 97.4855 404.841 97.0573 404.127 96.629C401.986 94.2023 399.987 90.919 395.562 89.777C392.992 88.4922 389.566 88.2068 386.426 89.3488C383.285 90.6335 384.856 93.4885 382.572 95.487C381.001 97.0573 377.147 97.9138 375.006 98.7703C372.436 100.055 370.581 101.197 367.154 100.055C367.725 98.0565 366.869 99.1985 369.296 98.0565C366.441 97.2 363.586 96.7718 360.445 96.058C355.734 94.4878 340.603 87.0648 339.033 86.6365C332.038 85.3517 329.183 83.7815 321.332 83.3532C315.622 82.925 309.626 85.3517 304.344 86.2083C298.063 87.493 291.354 87.493 285.644 88.635C283.074 89.4915 281.504 90.6335 278.364 91.9183C272.939 93.4885 268.942 95.2015 264.089 98.4848C258.379 102.196 256.808 105.337 253.097 107.906C251.241 109.191 248.672 109.905 246.816 111.618C249.956 114.045 257.808 113.188 261.947 112.903C267.372 112.046 272.083 112.903 277.079 112.046C281.504 111.618 303.916 111.19 307.056 112.903L250.813 114.473L256.808 117.328C260.234 118.898 272.225 121.468 276.651 122.61C285.787 125.465 294.923 127.035 304.487 128.748C313.909 130.746 314.622 129.176 326.328 132.888C328.469 133.316 327.613 132.888 330.468 133.316C331.752 133.316 332.609 133.744 333.608 133.744C338.033 134.601 344.314 134.601 349.025 135.029C351.88 135.457 354.021 135.885 356.876 135.885C359.018 136.314 362.586 135.885 364.157 137.456C360.302 138.312 353.165 137.027 348.74 136.171H334.893C332.752 136.171 334.322 136.171 332.038 135.314C324.758 133.316 302.631 132.031 299.205 130.889C297.064 130.033 298.92 130.033 296.065 129.319L269.799 123.181C244.532 118.327 246.673 112.617 243.532 111.761C238.536 111.332 239.107 108.906 235.967 108.906C235.681 111.761 235.681 110.476 237.537 112.189C242.248 115.472 240.106 114.616 244.103 115.9C245.674 116.329 258.95 124.465 259.521 125.322C257.379 124.894 256.666 124.037 255.095 123.752C252.954 122.895 254.096 124.608 251.241 122.467C249.385 120.897 246.245 118.755 243.675 118.042C244.246 120.04 248.1 122.181 249.956 124.608L254.667 132.317C252.526 131.46 251.241 129.033 249.956 127.463C248.672 125.893 246.53 124.18 244.96 123.038C243.39 121.039 238.964 114.901 235.824 114.045C236.395 116.043 237.68 117.756 238.679 120.611C240.535 127.178 247.244 138.455 251.669 144.593C253.24 146.592 253.525 148.305 255.524 149.875L264.945 158.868C267.515 161.295 272.796 164.15 276.365 166.577C280.219 168.575 284.216 171.002 289.07 172.715C299.491 176.427 302.631 175.998 312.195 177.14C319.761 178.425 327.613 182.85 335.321 181.566L350.738 178.282C354.878 176.712 355.449 176.998 359.303 178.282C362.158 179.139 363.728 178.711 366.869 177.854C369.724 176.998 382.001 171.002 385.141 168.147C386.426 166.862 387.996 164.436 389.566 163.722C392.992 161.295 396.847 160.867 401.557 157.155C406.982 152.73 405.983 152.73 408.838 145.735C411.407 140.025 414.262 139.169 416.689 135.6C411.978 136.028 409.409 137.598 404.698 138.455C402.557 138.883 400.844 138.455 398.131 138.883C385.141 141.738 387.996 138.455 380.145 139.74C377.575 140.168 368.439 140.168 366.583 139.311C367.583 137.313 367.868 138.027 370.009 138.455C375.72 138.883 378.575 138.455 383.571 137.598C388.995 137.17 395.847 138.027 400.558 136.314L415.404 132.174C418.259 131.317 419.258 130.175 421.685 129.319C424.54 127.749 425.111 127.32 426.681 124.894L426.967 124.323ZM73.5165 197.268C76.3716 198.838 88.9336 195.27 91.2176 192.843C92.5024 191.273 91.5031 191.558 92.5024 190.416C93.7871 189.131 93.5016 191.273 93.7871 188.846C92.7879 188.846 90.3611 190.131 89.0764 190.844C87.7916 191.273 87.5061 191.701 86.2214 192.129C81.7961 194.128 78.6556 194.984 75.5151 196.269C73.6593 197.125 74.2303 197.125 73.6593 197.554L73.5165 197.268ZM73.231 199.695C74.2303 200.98 77.3708 202.978 78.6556 203.406C81.5106 204.691 83.0808 202.978 86.5069 204.263C90.6466 205.833 95.0719 209.117 98.4979 211.543C101.067 212.828 102.352 213.542 104.493 215.255C107.919 217.682 108.633 220.108 111.06 222.963C114.914 227.389 118.911 231.957 123.051 234.812C127.762 238.095 150.887 244.947 153.314 240.093C153.885 238.809 153.885 238.095 154.884 236.382C157.026 231.528 160.88 225.818 166.875 224.962C166.304 226.96 167.446 225.39 165.591 226.96C164.02 228.245 162.165 228.531 161.165 230.672C167.732 229.387 171.872 231.528 178.581 228.673C181.436 227.817 181.721 226.247 183.292 223.392C183.863 222.107 186.147 217.682 186.432 216.54C188.003 209.688 186.718 207.546 190.287 199.838C191.286 197.411 194.997 189.274 197.852 187.561C197.281 192.843 192.856 196.983 191.571 202.264C206.417 198.981 200.136 196.126 205.133 189.274C206.132 187.989 207.988 185.991 208.987 184.421C212.841 177.569 207.417 171.002 213.983 165.72C224.118 157.155 217.837 157.584 222.263 148.162C224.832 142.88 224.118 139.597 225.118 134.315C225.689 130.175 231.399 110.333 232.969 107.906C230.114 108.335 224.689 112.76 223.119 114.473C219.265 118.613 206.988 127.035 204.847 129.176C201.707 132.459 199.137 133.316 195.426 135.743C192.285 137.741 189.43 141.024 186.861 143.451C185.29 144.736 186.29 144.308 185.005 145.45C184.005 146.306 183.72 146.306 182.863 147.02C180.008 149.875 178.153 153.587 175.583 156.442C166.733 165.435 170.159 165.435 168.588 168.29C168.303 168.718 167.304 170.288 167.018 170.717C167.589 172.001 168.303 171.573 167.304 173.143C166.019 175.998 164.449 177.997 162.593 180.424C159.738 184.135 162.022 188.132 158.453 191.415L159.024 184.849C155.598 187.276 158.453 188.56 148.889 190.987C144.464 192.272 139.753 193.842 135.328 193.842C136.327 192.272 135.042 192.557 138.183 192.272C144.749 190.987 150.459 188.132 155.17 183.707C156.169 182.85 156.169 182.85 157.311 182.137C157.597 181.28 158.596 180.852 159.167 180.566C160.166 179.282 160.737 176.855 161.736 175.713C162.736 173.286 165.876 167.148 165.162 165.149C162.307 165.149 159.452 166.434 156.883 167.576C155.313 168.433 154.313 169.146 153.029 169.575C150.174 171.145 151.173 170.431 149.603 170.431C148.603 170.859 147.033 174.571 142.608 176.141C144.178 171.288 144.749 171.716 148.889 169.289C153.6 166.434 154.599 169.289 156.169 165.578C160.309 165.578 160.88 165.149 163.164 163.579C165.733 161.581 166.304 162.723 168.16 159.868C171.301 156.156 177.011 148.448 180.865 146.021C183.72 144.45 183.006 144.022 185.005 141.595C187.574 138.312 191.571 135.457 193.855 132.602C191.286 132.602 182.435 135.885 180.579 135.029C180.865 134.172 180.294 133.744 182.435 133.459H185.29C188.145 133.03 196.71 130.175 198.566 129.033C202.706 126.607 205.133 124.18 209.272 121.753C213.127 119.755 214.982 115.615 218.123 113.188C221.977 109.477 237.109 102.196 238.964 98.9131C237.109 98.9131 234.539 99.7696 232.683 100.198C225.118 101.054 217.552 103.481 209.986 105.051C203.991 106.336 198.566 106.336 192.571 107.906C189.716 108.763 188.145 110.333 185.576 112.046C185.29 112.046 184.005 112.903 183.72 113.331C175.44 119.469 168.874 128.034 157.168 128.462C154.599 132.174 149.888 133.744 145.463 136.171C141.323 138.598 137.612 141.453 134.757 145.592C133.186 148.019 131.616 148.448 129.332 150.446C127.476 152.445 127.762 154.586 125.192 155.728C121.338 157.298 120.196 160.581 117.626 162.58L111.06 171.145C106.92 175.57 109.49 175.998 102.209 181.28C89.2191 190.273 105.635 197.125 72.8028 200.409L73.231 199.695ZM276.936 316.893C276.936 318.892 276.936 318.463 277.935 319.32C277.65 318.035 277.65 318.035 276.936 316.893ZM340.46 439.801C340.746 437.375 340.746 437.375 342.601 436.518C343.886 436.09 345.171 435.662 346.456 435.233C348.597 434.377 349.311 431.95 351.166 430.38C355.877 426.24 355.306 427.525 359.446 419.388C363.871 411.251 366.012 397.405 366.012 386.841C366.012 380.274 371.437 374.279 364.442 357.149C361.016 348.156 363.871 349.012 362.586 340.019C362.015 334.737 359.446 329.027 357.162 324.887C345.171 302.904 355.592 308.185 348.882 297.622C347.883 295.623 343.458 291.484 341.888 290.342C338.747 287.487 334.322 288.771 329.611 281.777C328.612 280.492 327.755 278.493 326.756 276.923C323.901 272.498 323.901 272.783 318.905 270.785C314.48 268.786 311.91 269.215 308.198 267.501C304.772 266.217 304.059 262.22 301.204 260.221C296.778 256.938 296.207 257.794 290.212 257.794L277.222 258.651C277.507 261.506 278.506 261.078 281.076 261.934C285.501 263.504 279.791 263.504 288.642 269.215C290.497 270.071 291.211 271.213 292.781 272.498C297.492 276.923 303.202 282.633 307.342 287.915L316.478 300.905C322.188 309.47 319.619 307.043 323.758 315.608C324.758 317.607 327.898 324.173 327.898 326.6C325.329 325.03 319.333 306.187 315.622 301.762C307.342 291.626 310.911 292.34 298.634 280.206C297.349 278.922 296.493 277.351 295.208 276.067C291.068 272.355 286.929 269.215 281.932 266.359L273.082 260.221C273.082 261.078 273.082 261.791 273.653 262.648C274.938 263.933 273.367 263.076 276.222 263.504C277.793 269.643 281.932 272.07 284.074 276.923C285.358 276.495 285.073 276.495 285.358 276.495C285.358 276.067 284.787 276.067 285.644 276.067C286.643 278.493 287.214 280.92 287.785 282.919C290.64 290.199 295.636 293.91 296.065 302.475C293.21 300.905 292.924 297.622 291.925 293.054C289.355 291.484 288.071 288.629 286.215 286.202C282.361 280.064 276.08 267.93 273.938 265.075C272.939 263.79 272.368 262.648 271.369 261.363C271.083 264.646 276.365 295.195 276.08 297.194C274.795 299.192 274.509 298.478 274.795 301.619C274.795 302.904 275.366 304.046 275.366 306.044L275.08 299.478C276.936 299.906 276.08 298.193 276.651 301.476L277.65 312.04C278.221 314.895 279.791 322.603 279.791 324.602C279.791 328.741 277.65 325.458 279.506 334.737C280.077 337.592 282.075 342.874 281.647 345.301C279.077 344.444 277.222 328.17 276.222 324.887C276.222 323.602 275.651 322.46 275.651 321.176L275.366 317.892C274.795 315.466 275.651 317.036 275.366 315.037C275.366 314.181 274.795 313.039 274.367 311.326C274.081 308.471 274.367 306.472 274.081 304.046C273.51 294.624 272.225 295.909 272.511 284.917C272.796 279.635 269.37 255.225 267.515 251.513C264.374 245.375 264.66 242.948 263.66 238.095L256.095 210.401C251.098 193.699 249.1 189.988 242.533 175.427C242.248 174.143 241.962 173.429 240.677 173.001L243.247 188.846C243.532 193.699 242.961 192.557 242.676 196.983C240.82 219.395 233.54 228.673 227.544 248.23C226.545 251.942 223.119 257.223 219.979 259.65C216.553 262.077 216.124 265.36 210.129 268.215C207.559 269.786 198.423 273.069 194.997 272.355C196.568 269.5 210.414 269.072 215.268 261.791C217.409 258.508 219.979 256.938 222.548 253.655C225.403 249.943 225.403 247.088 227.259 242.663C228.544 239.38 229.4 233.67 230.685 230.815L233.54 225.533C236.966 215.826 240.106 201.551 239.821 190.559L238.536 184.849C238.536 197.411 232.541 210.116 229.686 222.25C228.401 227.103 222.405 244.233 219.265 247.088C217.124 249.087 215.839 251.228 212.698 252.798C213.269 250.8 216.553 247.088 218.123 245.518C222.263 240.236 229.543 224.819 228.829 218.253C227.259 221.108 228.829 221.536 226.26 221.536C226.831 219.966 227.83 217.824 228.115 216.682C229.4 212.257 230.257 213.399 230.97 212.257C231.256 209.83 230.685 210.259 230.97 208.546C232.541 201.265 234.825 195.555 235.396 187.847C235.681 184.135 236.68 180.995 236.68 177.283C236.68 175.285 235.681 172.43 236.68 170.431C237.68 171.716 236.966 170.003 237.251 171.716C238.251 175.427 236.68 179.424 238.536 182.708L239.107 178.996C239.393 176.569 238.822 177.711 238.536 175.713C238.536 174.143 239.107 174.428 238.536 172.43C237.965 170.859 237.537 171.145 237.251 168.718L238.822 167.433L228.686 140.168C227.402 137.313 229.257 141.024 228.401 139.311C227.83 138.455 228.115 138.883 227.402 138.455C227.116 142.166 227.402 142.88 226.117 146.163C222.691 156.727 226.402 158.726 222.263 161.581C219.693 162.865 221.692 161.152 220.407 163.151C219.122 165.149 213.127 170.003 212.841 171.288C212.556 172.572 214.126 174.571 212.27 181.851C211.271 186.276 207.559 189.56 205.704 194.128C204.704 195.698 205.133 196.983 204.133 198.553C203.562 199.838 198.709 204.263 197.852 205.119C189.002 204.691 192.142 206.404 188.003 217.396C185.861 223.534 184.148 228.388 177.867 230.815C173.442 232.099 161.736 232.099 159.167 235.24C157.597 237.238 157.026 240.093 154.456 241.806C152.315 243.091 142.465 243.377 139.896 242.663C133.329 240.236 125.05 239.38 120.053 234.098C116.913 230.815 115.628 234.098 111.488 234.098L104.922 234.526C103.066 234.526 103.637 234.098 102.067 234.098C93.2161 233.67 98.6406 233.241 92.9306 232.528C91.6459 232.099 91.3604 232.099 90.0756 231.671C89.0764 231.671 88.2199 230.815 87.2206 230.386C85.3648 229.958 82.5098 230.386 80.6541 229.958C73.6593 228.673 67.6638 228.388 61.6682 231.243C58.5277 232.528 56.672 231.671 53.3887 231.671C42.3969 231.671 36.4014 245.09 22.6973 237.809C16.7018 234.526 15.1316 235.383 10.4208 229.244C4.99627 222.392 7.28028 221.108 4.99627 213.827C3.99702 210.116 2.42676 206.547 2.42676 202.835C2.42676 199.552 2.14126 198.41 0.571002 196.269L0 193.414C0.285501 189.274 1.57026 192.129 2.56951 194.699C3.85427 197.982 9.56429 204.12 7.99403 207.261C6.70928 206.833 7.70853 208.117 6.42378 205.69C6.13827 205.262 5.85277 203.692 5.42452 203.264C4.85352 206.547 6.99478 211.829 7.56578 215.826C8.56503 221.536 7.85128 222.678 11.42 227.246C15.5598 232.528 24.9813 237.809 32.5471 236.667C31.2624 234.669 24.2676 231.814 21.8408 229.815C19.6996 228.245 14.2751 223.677 13.9896 220.822C15.8453 220.822 14.5606 220.394 16.1308 222.107C16.7018 223.392 17.4156 223.677 17.9866 224.105C22.9828 229.815 32.2616 234.241 32.5471 234.669C46.3939 234.669 38.8282 231.386 51.2475 228.531C54.1025 227.674 58.5277 228.102 61.6682 227.246C68.663 226.389 71.0898 222.392 85.6503 226.818C94.2154 229.244 92.6451 229.673 99.4972 229.673C104.493 229.244 106.492 231.671 115.342 230.529C115.057 228.959 110.632 224.391 109.347 222.821C106.777 219.966 105.207 217.111 102.352 215.112C100.782 214.256 99.4972 213.542 98.2124 212.685C85.2221 202.978 81.7961 206.975 77.9418 204.977L68.8058 199.267C66.6645 198.41 64.9515 198.41 64.095 196.84C64.666 196.412 63.8095 196.412 65.0943 195.983C65.6653 195.555 66.0935 195.983 66.95 195.555H70.376C72.5173 195.555 74.2303 193.985 76.0861 193.128C77.3708 192.7 77.6563 192.7 79.2266 192.272L85.2221 189.845C87.7916 188.989 91.7886 186.99 93.7871 184.992C95.3574 183.421 96.6421 179.282 101.638 176.427C106.349 173.572 106.064 170.717 109.204 167.005C110.774 165.007 112.059 164.578 113.058 162.152C114.629 159.297 114.629 159.297 116.913 157.298C119.768 154.443 122.337 151.16 125.192 148.733C128.618 145.45 131.188 145.45 133.472 140.168C135.328 135.743 139.182 134.03 142.037 131.175C143.322 129.89 143.036 129.604 143.893 128.748C144.892 127.463 145.177 127.891 146.748 127.178C148.032 126.321 147.319 126.321 148.889 125.607C150.174 124.751 150.459 124.323 151.744 124.037C153.6 122.752 156.74 123.181 158.739 122.039C159.738 121.61 160.023 121.182 160.88 120.468C162.45 120.04 162.165 120.897 164.02 120.468C165.305 120.04 167.161 118.042 169.017 116.757L174.013 113.474C176.868 111.475 176.868 112.189 177.867 109.048C179.437 104.623 180.437 99.6268 181.293 95.2015C182.578 89.9198 182.292 85.78 183.149 80.07L186.29 58.0864C186.575 56.5161 186.861 56.0879 187.289 54.3749C187.86 47.5228 185.433 39.6716 182.863 32.8195C181.293 29.108 181.293 29.108 179.009 25.9675L167.589 5.26868C166.304 2.84192 164.734 -0.441345 164.163 -2.0116C163.164 -4.01013 160.737 -7.72162 161.594 -10.1484C164.734 -11.4331 167.018 -1.15512 168.16 1.27167C170.73 5.41141 172.3 9.8367 174.441 13.5482L184.291 31.8203C185.576 34.6753 187.146 35.9601 190.287 36.2455C188.431 31.8203 185.29 28.537 183.006 23.6835C180.151 17.117 176.44 11.1214 172.871 4.98315C170.301 0.129639 166.304 -11.7187 166.304 -17.0004L169.445 -15.7157C172.3 -6.29413 169.73 -11.5759 173.585 -6.29413C174.156 -5.00937 175.44 -2.58261 175.726 -1.86887C176.011 -0.298615 176.011 0.129639 176.297 1.4144C177.296 5.12592 180.151 9.97943 181.721 13.2627C183.577 18.1162 189.002 26.6812 192.713 29.9645C195.854 32.3913 193.713 35.6745 200.565 36.1028C204.99 36.531 208.13 34.1043 212.556 36.531C215.982 38.5295 217.98 40.2426 220.835 42.6693C222.405 44.2396 222.691 45.0961 224.261 45.9526C228.686 48.8076 232.541 51.2343 235.253 56.0879C237.109 58.9429 238.108 61.3697 240.249 64.2247C244.389 68.3644 250.099 74.36 252.24 80.07C252.811 82.0685 252.526 84.4952 252.526 86.6365C252.811 90.348 249.956 92.3465 247.815 94.7733C246.245 96.058 246.245 97.2 244.96 98.9131C243.104 101.34 238.679 103.053 237.109 105.48C238.108 109.619 242.819 109.905 246.53 108.763C251.955 107.478 253.097 104.623 256.951 101.911C258.521 100.626 257.522 101.483 258.521 100.341C259.521 99.0558 261.376 97.9138 262.661 97.0573C266.087 94.6305 280.077 87.6357 280.933 87.3503C283.788 85.3517 287.928 84.9235 291.639 84.067C293.495 83.6387 296.065 83.6387 297.635 83.2105C297.92 83.2105 309.055 77.9287 314.051 78.357C317.906 78.7852 321.617 78.7852 324.758 77.0722C329.754 79.499 332.609 77.0722 335.464 78.357C338.033 80.3555 338.033 79.9272 340.888 81.212L357.305 88.4922C360.16 89.777 365.156 92.632 368.296 92.9175C374.007 94.2023 375.291 97.0573 379.717 92.4893C381.001 89.206 378.432 87.2075 384.142 84.3525C386.283 83.0677 392.421 84.7807 395.847 84.7807C396.847 86.351 397.132 86.7792 399.273 87.2075C399.559 85.209 399.273 83.496 399.559 81.4975C399.844 80.2127 400.844 79.0707 401.415 77.3577C402.414 74.0745 400.844 74.5027 401.415 72.5042C401.7 70.9339 403.556 70.9339 404.841 70.5057C402.985 68.5072 401.7 69.6492 400.701 66.7942C407.981 65.9377 406.982 69.2209 406.696 73.6462C407.981 75.6447 407.267 74.5027 409.266 74.9309C410.836 75.3592 411.407 76.5012 415.261 77.7859C417.403 78.2142 416.546 78.6425 418.116 79.7845C421.542 79.7845 423.541 78.4997 426.681 78.2142C428.537 78.2142 429.536 78.2142 431.107 77.7859C433.676 77.3577 432.962 76.9295 435.247 76.5012C438.673 77.7859 436.817 79.7845 442.527 79.3562C443.812 80.9265 445.096 80.9265 446.952 82.2112C450.378 85.4945 454.518 91.9183 453.947 97.3428C452.948 102.625 451.092 102.625 447.38 105.48C440.1 111.618 437.531 104.623 431.963 120.183C431.392 122.181 430.678 123.894 429.394 125.036L418.973 136.456C417.403 138.027 416.403 138.455 415.119 140.168C414.119 141.024 412.264 143.451 411.693 144.593C405.697 153.587 412.264 152.302 398.417 160.867C396.561 162.152 390.566 165.007 389.281 166.149C385.855 169.86 385.427 170.574 380.716 173.001C375.72 175.427 365.87 181.566 358.875 179.853C348.74 176.998 353.165 179.424 347.169 180.709C322.188 185.563 324.044 180.281 312.481 178.711C307.056 177.854 299.776 177.854 294.78 175.856C290.069 174.285 284.645 173.001 280.219 170.146L270.37 164.864C269.37 164.007 268.799 163.579 267.229 162.865C263.375 160.439 261.805 158.012 258.95 156.013L247.244 142.166C243.39 136.028 239.964 128.748 237.109 121.753C236.109 119.326 235.824 116.043 233.683 114.901C232.112 116.9 231.827 120.611 231.113 123.038C228.258 134.03 228.544 131.175 231.113 141.31C232.112 145.021 231.684 147.02 234.967 148.59C234.967 154.729 242.533 168.575 245.103 175.427C246.673 179.567 249.243 183.136 251.098 187.704C252.669 192.129 254.953 196.269 256.523 200.694C258.093 205.119 259.092 210.116 260.663 214.969C263.518 224.676 266.373 234.098 268.228 244.233C271.083 258.08 280.219 253.226 290.64 254.368C296.35 255.653 294.78 251.513 307.056 260.507C310.911 262.933 314.051 265.36 318.762 267.359C322.188 268.929 328.612 271.784 329.754 275.067C331.61 280.349 333.608 284.489 338.89 285.203C341.031 289.628 344.6 289.342 347.169 293.768C349.311 297.051 352.594 300.334 352.594 305.616C352.594 314.181 352.023 315.037 358.304 324.744C365.584 336.165 363.3 348.298 364.299 351.582C367.154 362.145 370.581 373.137 367.725 384.557C366.441 388.982 367.725 388.268 367.725 390.267C367.154 392.694 366.441 391.552 366.726 397.119C366.726 399.118 365.156 407.683 364.87 410.109C364.299 413.393 357.59 428.81 354.164 430.808C347.598 434.091 350.31 436.946 347.598 438.945C345.742 438.088 347.312 439.373 346.027 437.375C344.457 438.659 342.173 440.658 340.032 439.801H340.46Z" fill="black"/>
<path fill-rule="evenodd" clip-rule="evenodd" d="M256.096 285.203C255.096 286.774 252.955 294.91 251.67 297.765L244.39 316.037C242.249 321.748 235.254 330.313 234.969 331.883C237.824 331.883 237.538 329.456 239.108 327.029C243.819 320.177 244.533 319.321 248.53 310.756C250.671 305.902 256.809 291.627 256.096 285.061V285.203ZM251.385 360.861C250.386 362.431 250.814 359.291 250.814 362.86C251.099 363.716 250.814 362.86 251.813 364.144L251.528 360.861H251.385ZM249.529 407.255C249.529 407.255 250.528 405.257 253.383 407.255C255.525 408.825 256.524 411.68 258.094 413.393C260.235 415.392 260.235 413.822 260.949 416.248C252.67 415.392 256.524 410.538 252.099 409.396C254.24 414.678 258.665 417.533 260.949 422.387C262.519 425.67 262.519 424.385 264.803 429.667C266.374 434.092 267.373 429.667 267.373 442.657C267.373 447.511 267.658 449.509 269.942 453.221C271.227 455.219 274.653 459.787 276.937 460.073C279.792 459.645 281.363 458.788 281.363 456.361C281.363 449.509 281.934 452.222 282.647 449.509C282.647 446.654 279.792 442.943 278.793 439.802C277.508 436.947 276.224 433.236 275.367 430.095C274.082 426.384 272.226 424.385 270.656 420.674C267.801 412.965 268.087 404.4 264.661 399.118C262.091 395.407 257.38 375.85 256.381 369.426C255.81 366.571 254.811 365.286 251.67 366.999C251.099 367.428 249.815 368.284 249.101 368.57C248.815 370.14 249.101 370.568 248.815 371.853C248.53 372.709 248.53 372.709 248.244 373.423C247.673 374.993 248.244 373.423 247.673 374.28C246.103 372.995 246.674 371.425 245.818 369.426C244.533 367.428 243.962 367.428 245.247 365.286C247.388 365.715 246.817 366.143 248.387 366.857H248.958C250.528 364.002 246.389 363.573 251.528 357.15C253.669 358.006 252.812 358.434 255.667 358.006C255.953 351.154 254.383 351.154 253.098 343.731C252.527 339.591 252.527 335.166 251.813 331.883C250.528 322.461 251.813 318.464 252.812 309.043C255.667 307.044 257.238 306.616 255.382 301.334C253.241 303.333 249.672 315.181 247.531 318.893C244.676 323.032 238.395 331.169 238.395 336.023C238.395 337.593 239.394 339.734 238.395 342.161C237.11 340.162 239.394 340.876 236.539 338.449C233.969 342.589 232.685 338.878 229.972 342.161L226.546 345.872C224.691 348.299 222.407 352.439 220.551 354.437C216.411 358.863 219.266 354.437 213.984 361.718C212.129 364.144 208.988 366.999 208.56 370.283C210.701 371.139 210.13 369.854 211.7 371.853C210.701 373.423 210.13 373.138 208.274 373.851C207.275 376.278 207.275 378.277 206.704 379.133C203.849 378.277 203.563 377.135 204.563 373.851C205.562 370.568 205.134 369.426 206.418 366.571C208.988 361.718 212.7 357.578 216.839 354.009C220.265 350.726 222.549 347.157 225.69 343.874C227.546 341.875 226.689 344.73 227.546 341.447C229.116 336.165 228.545 338.164 232.542 338.164L233.541 334.024L229.401 333.168C228.117 332.739 229.116 333.168 228.402 332.311C229.972 331.455 228.688 331.883 230.972 331.883L231.543 329.884C238.109 328.6 238.537 323.746 241.392 318.893C243.962 314.753 246.103 309.899 247.959 305.046C249.244 301.762 250.528 298.194 251.813 294.91C253.098 291.199 253.669 287.63 254.954 284.347L258.38 274.212C259.379 270.5 259.664 267.36 260.521 263.22C263.376 253.513 260.806 240.808 258.38 231.101L254.525 215.256C253.241 209.974 251.67 205.549 249.815 200.552C248.53 196.413 245.389 189.56 244.818 185.849C247.388 186.705 247.388 188.704 248.673 192.701C252.099 200.838 254.668 208.546 256.952 217.968C260.093 230.53 263.519 240.808 263.519 254.227C263.519 257.51 264.09 257.082 263.233 260.365C262.234 262.792 261.948 264.79 261.663 266.931L263.233 264.076C264.518 260.365 263.804 255.083 265.803 252.228C268.943 253.084 267.944 255.511 267.373 257.938C269.229 259.508 268.943 259.937 268.943 262.792C265.803 265.218 266.088 268.502 264.803 272.213L261.663 282.777C260.664 286.488 260.093 290.057 259.093 293.768C257.523 302.762 260.378 299.05 260.378 305.617C260.378 309.756 258.237 310.898 255.382 312.183C256.381 319.892 253.812 318.75 254.383 324.745C254.668 328.029 256.524 333.739 256.524 337.736C256.524 351.582 259.664 350.298 259.664 356.864C259.95 361.289 258.094 359.719 260.949 368.284C263.09 375.564 264.375 383.701 266.945 391.124C267.516 393.979 269.086 395.55 269.8 397.976C272.369 405.257 270.799 409.396 271.655 414.25L274.51 420.816C275.51 422.815 276.366 424.956 277.651 427.383C279.507 432.236 280.792 437.09 283.076 441.23C288.786 452.222 286.216 448.938 284.36 455.505C286.93 455.077 287.501 453.078 289.357 452.222C290.641 451.365 291.498 450.937 292.497 450.651C294.067 449.795 293.782 449.367 295.067 448.653C299.206 446.654 300.491 444.513 306.058 441.801C307.343 440.944 309.484 438.517 310.484 436.947C315.908 427.954 313.624 429.239 314.909 423.529C317.05 415.392 315.908 416.248 315.908 409.254C315.908 407.255 316.479 404.4 316.479 401.973C316.479 399.118 317.05 397.548 317.05 394.693C317.05 390.982 316.051 390.982 315.765 387.841C315.48 384.986 315.48 383.416 315.48 380.561C315.194 376.849 311.34 356.15 310.769 353.295C309.77 349.156 308.913 345.159 307.629 340.733C307.343 339.449 307.058 338.735 306.629 337.45C306.058 334.595 303.774 332.168 304.488 328.885C304.774 325.174 297.493 310.613 296.922 304.475C297.208 304.903 297.208 304.903 297.493 304.903L297.779 305.331C300.919 308.186 300.348 309.043 302.204 313.04C303.489 315.466 305.345 319.606 305.63 322.461L305.345 322.033L304.774 321.177C302.632 317.893 306.344 323.175 304.488 320.32C303.917 319.464 303.917 319.892 303.203 319.035C303.774 323.175 305.773 325.887 306.629 330.455C307.629 334.595 309.199 338.164 310.055 341.447L310.341 339.877C311.626 340.733 311.34 338.592 311.911 343.588L314.052 357.007C314.338 360.29 315.052 361.86 315.052 366C315.052 367.57 315.337 368.855 316.051 370.14C316.622 372.567 316.622 371.71 317.05 374.993C318.335 383.987 320.191 392.552 319.905 401.402C319.905 403.401 319.62 405.114 319.62 406.684C319.62 409.967 320.191 407.969 319.905 415.677C319.905 419.389 320.904 419.389 319.334 423.386C318.049 425.813 318.763 427.097 315.194 434.806C312.625 439.659 310.484 443.371 305.059 445.37C300.634 447.368 296.78 451.508 292.354 453.506C288.215 455.077 286.359 456.361 283.789 460.073C281.22 464.213 278.365 464.213 274.653 461.643C272.797 460.787 272.084 458.788 270.799 457.218C263.233 448.225 267.373 444.656 265.803 435.662C265.232 433.236 264.803 434.092 263.947 432.379C263.661 432.379 261.377 424.671 258.237 420.959C256.667 418.961 248.815 410.396 249.957 407.969L249.529 407.255Z" fill="black"/>
<path fill-rule="evenodd" clip-rule="evenodd" d="M102.639 464.641C103.21 460.929 106.493 460.929 107.35 458.074L105.494 456.504C106.065 455.219 105.779 456.076 106.065 454.934C103.21 454.505 103.21 454.505 101.639 456.218C101.068 456.647 100.069 457.503 99.7837 457.789C99.2127 458.645 99.2127 458.645 98.499 459.787C95.3585 457.36 101.639 453.649 102.639 452.078C103.638 450.508 104.209 450.508 104.494 448.795C102.924 444.655 100.355 445.512 99.07 442.229C100.069 440.658 99.641 440.944 101.211 440.23C103.067 441.087 102.21 441.087 105.066 441.8C107.207 438.517 108.206 438.089 108.492 436.519L106.921 436.09L107.492 428.382C105.351 428.81 102.781 429.667 101.497 429.667C101.211 427.24 101.782 426.812 103.352 425.955L107.207 426.812L107.778 424.385L108.063 424.813L109.634 426.098C110.633 422.815 110.918 423.243 112.489 420.816C117.485 413.536 116.343 417.105 120.34 413.108C122.481 410.681 120.911 410.253 125.336 410.253C124.765 406.969 123.48 403.686 127.477 403.401C127.763 408.254 125.336 405.827 127.763 413.108C129.904 412.679 136.899 413.536 135.614 406.256C132.759 404.685 133.045 405.399 131.189 403.829C132.474 402.259 132.759 402.544 134.044 401.83C135.043 395.692 136.613 398.119 137.184 392.837C135.329 390.839 136.185 392.837 135.329 390.41C136.899 387.555 139.183 387.983 140.325 388.412C142.466 392.552 140.61 392.552 142.181 395.264C143.465 394.407 142.181 395.692 143.18 394.407C144.465 393.551 143.751 392.837 145.036 392.837C147.605 391.98 146.32 393.265 146.606 393.265C146.32 393.694 146.32 393.694 145.607 394.122C142.466 396.977 139.04 398.262 138.326 400.26C137.755 402.687 138.326 401.545 138.612 401.83C139.183 401.83 138.612 401.402 140.753 400.974C142.323 405.399 142.609 403.829 145.178 406.684L146.463 408.254C148.319 406.684 147.034 405.827 149.318 404.971C157.883 402.116 161.309 408.682 155.885 415.106C153.315 415.106 153.743 415.534 151.745 414.678C151.745 410.966 154.314 413.108 154.6 409.824C154.885 406.969 147.034 404.543 147.605 412.251C149.175 413.536 149.175 413.108 150.175 414.678C144.75 414.678 147.605 409.824 143.608 408.968C139.468 408.111 137.327 414.25 137.327 413.821C137.327 413.821 137.042 413.821 137.042 414.25L133.616 414.678C131.046 414.25 130.19 413.821 128.619 414.678L125.764 411.823L118.484 416.248C115.344 418.675 114.344 421.53 113.06 422.815C109.919 426.526 110.49 426.098 109.919 431.808C109.348 436.233 111.489 438.66 111.489 442.371C110.918 441.943 109.919 441.943 109.348 441.943L107.492 440.658C104.923 445.512 109.063 445.512 105.922 452.507C108.492 454.077 108.777 455.79 110.918 456.647L110.347 461.928C110.347 462.785 104.923 470.922 102.068 464.783L102.639 464.641Z" fill="black"/>
<path fill-rule="evenodd" clip-rule="evenodd" d="M190.713 417.39C190.428 424.67 198.993 424.242 194.567 417.39H190.713ZM189.143 412.964C187.858 412.964 187.858 412.964 187.287 413.821L187.002 415.391C187.002 416.248 184.86 417.818 182.291 416.248C183.29 414.249 182.005 415.819 183.576 414.677C184.575 414.249 184.575 414.249 185.146 413.393C186.716 411.394 187.287 408.539 185.431 406.541L180.007 403.686C179.721 400.402 181.863 401.259 180.578 396.834C180.292 397.262 180.292 397.262 180.007 397.262C179.436 395.692 179.721 397.262 179.008 397.69L177.437 396.405C168.587 397.262 175.582 392.694 176.153 389.553C174.868 388.697 175.153 388.697 173.583 387.983C171.442 386.698 172.298 387.555 171.014 385.556L168.444 386.413C168.159 383.986 167.873 381.987 169.015 381.131C170.3 380.703 170.871 380.274 172.156 381.131C174.297 382.416 172.156 382.701 171.87 382.701C173.44 383.558 179.721 385.556 181.006 385.556L182.005 382.273C184.575 383.558 184.147 384.271 183.576 387.555C182.005 388.411 182.005 387.983 180.435 389.125C181.006 394.407 181.72 392.408 183.29 394.835C184.86 397.262 183.29 401.402 188.286 399.689C188.001 398.404 187.287 397.69 188.286 396.405C189.857 394.407 194.853 397.976 194.282 403.257L190.428 404.828C190.142 408.539 189.143 410.109 193.854 413.393C195.709 414.677 196.994 414.963 198.279 416.676C198.564 420.387 196.994 423.242 194.425 424.813C192.854 425.241 185.574 423.528 188.429 417.104C189.428 414.677 188.715 415.819 188.715 412.964H189.143Z" fill="black"/>
<path fill-rule="evenodd" clip-rule="evenodd" d="M29.9771 254.655C27.4076 252.228 28.4069 249.802 23.9816 244.092C21.1266 239.952 23.4106 240.38 23.4106 239.952C25.9801 241.522 23.4106 240.38 26.2656 244.805C27.2649 246.09 28.1214 248.089 29.1206 249.659C30.6909 253.37 30.1199 251.229 32.9749 253.37C34.5451 254.227 35.8299 255.369 37.1147 257.082C40.9689 260.793 51.9607 263.934 57.3852 267.645L71.6603 275.782C76.0856 279.066 80.2253 283.063 85.9354 285.204C93.2156 287.631 97.6409 286.06 105.492 285.632H112.487C127.904 285.204 129.189 291.342 143.178 289.772C148.603 289.344 153.599 291.342 163.449 287.773L174.155 283.348C177.296 281.778 181.15 280.065 184.29 278.495L191.856 274.069C195.711 272.499 193.998 273.641 194.711 274.069C192.57 276.496 180.436 282.206 177.01 283.776C172.585 286.203 161.165 290.628 156.169 291.485C152.029 291.913 146.747 291.485 142.607 291.913C137.897 291.913 134.042 291.485 129.617 290.628C127.048 290.2 126.762 289.058 124.906 288.63C122.337 287.345 109.061 287.345 106.92 287.345C96.7844 287.773 92.3591 290.2 83.2231 285.775C79.7971 284.205 77.5131 282.492 74.3726 280.065C73.8016 279.637 73.0878 279.208 72.5168 278.78L61.8105 271.928C57.6707 269.929 54.8157 267.074 47.9637 264.648C42.2537 262.649 38.5422 259.794 34.6879 256.939C31.5474 254.512 34.4024 255.369 30.5481 254.941L29.9771 254.655Z" fill="black"/>
<path fill-rule="evenodd" clip-rule="evenodd" d="M204.42 403.257C200.28 402.829 198.139 404.114 198.139 399.546C199.424 400.402 198.424 399.546 199.424 400.402C200.423 401.687 199.424 401.687 202.85 401.972L203.849 400.402C208.845 397.975 201.279 395.12 200.423 395.12C199.852 395.549 198.567 397.119 197.568 397.547C193.714 397.975 197.568 393.407 197.568 392.694C197.568 390.695 195.712 388.554 194.427 387.84C192.286 388.697 192.857 388.697 191.287 389.41C191.001 387.412 191.572 386.984 192.857 385.699C197.568 386.555 197.853 385.699 200.423 388.982C201.993 388.126 203.278 387.412 204.848 388.982C208.988 386.127 207.418 387.697 208.988 388.126C211.557 388.982 209.273 388.554 210.273 387.697C210.558 385.699 209.273 388.126 208.702 384.414C206.561 383.558 206.561 383.558 206.133 380.703C207.703 380.274 207.703 380.703 208.988 379.418C212.128 377.848 209.559 375.706 213.128 376.135C214.983 376.135 214.698 376.135 215.269 377.419C212.699 378.99 212.699 378.276 211.843 381.559C216.268 388.839 210.558 390.981 209.702 393.836L212.557 396.691C212.842 399.117 213.556 403.543 212.557 405.256C211.272 407.254 207.846 408.967 205.99 406.54C207.56 405.256 207.846 406.112 209.416 405.256C209.702 403.257 209.702 402.401 209.131 401.116C204.991 400.688 204.991 401.972 204.705 403.114L204.42 403.257Z" fill="black"/>
<path fill-rule="evenodd" clip-rule="evenodd" d="M161.021 223.25C162.306 221.68 162.306 220.395 169.586 215.541C177.152 210.688 179.436 206.976 184.146 199.696C186.288 196.413 188.572 194.414 190.427 190.703C194.567 184.565 197.708 177.284 200.848 170.718L208.414 151.589L208.985 150.733C209.984 149.448 209.556 151.161 209.27 150.304C209.27 148.734 209.556 147.021 210.27 145.451C211.554 142.596 211.269 144.594 213.125 143.024C211.554 138.599 212.554 142.596 215.694 131.176C216.265 128.321 217.264 123.467 219.548 122.183C219.548 124.181 218.264 127.893 217.693 130.319C215.551 138.884 217.407 134.745 216.693 138.028C216.122 140.026 214.552 142.881 213.553 145.308C210.983 154.301 212.554 148.591 210.412 152.16C209.128 154.587 208.842 157.442 207.843 159.44C206.558 162.296 205.987 163.58 204.702 166.721L195.566 187.42C192.997 193.558 194.282 187.42 191.427 192.273C187.572 198.84 189.571 195.556 187.001 197.983C185.431 199.268 184.146 201.695 182.862 203.693C181.291 205.263 182.291 205.263 181.006 206.976C177.58 211.402 171.87 215.541 167.159 218.396C163.019 220.823 165.018 221.68 161.164 222.822L161.021 223.25Z" fill="black"/>
<path fill-rule="evenodd" clip-rule="evenodd" d="M131.473 436.518C134.614 436.518 135.898 435.233 135.327 429.951L132.187 427.525L132.758 424.67C142.179 419.816 135.613 418.531 137.469 415.248C140.895 415.676 140.038 417.247 141.608 420.102C143.75 419.673 144.463 418.531 147.033 419.673C148.603 420.53 149.602 422.1 150.173 424.099C151.744 428.524 148.318 431.379 143.607 430.951C143.321 428.952 143.892 427.667 143.607 426.811C143.607 426.811 140.466 421.529 140.181 428.809C139.61 436.09 136.755 436.518 135.47 437.803L131.616 436.232L131.473 436.518Z" fill="black"/>
<path fill-rule="evenodd" clip-rule="evenodd" d="M189.86 342.587C191.715 341.303 191.715 343.016 194.285 344.158C198.996 341.303 196.426 338.019 195.57 334.451C185.434 334.879 191.43 338.162 187.005 340.589C186.005 338.162 186.719 338.162 186.719 335.735C190.145 334.165 187.718 334.165 192.429 333.737C200.709 332.452 197.14 335.735 202.564 331.738V329.312C202.279 329.312 201.993 329.312 201.993 328.883H199.852C199.852 326.028 198.853 326.028 197.996 324.03L199.281 322.745C201.422 322.745 200.851 323.602 203.421 322.317L203.706 319.89C200.851 318.32 200.851 320.747 200.28 317.891L205.277 316.607C211.272 322.317 204.991 325.6 204.991 326.028C205.99 327.599 205.99 327.313 207.132 328.027C207.703 338.59 202.707 335.735 200.851 335.735C202.422 343.016 201.137 343.872 194.57 345.871C193 345.014 193.571 345.442 192.429 344.3C191.43 343.872 190.859 343.444 190.288 342.73L189.86 342.587Z" fill="black"/>
<path fill-rule="evenodd" clip-rule="evenodd" d="M92.5007 433.378C94.3565 432.95 95.6412 432.95 95.9267 430.952C94.3565 431.808 93.3572 432.236 92.5007 433.378ZM77.9402 461.929C80.0814 462.785 78.2257 461.5 79.7959 463.213C80.3669 464.07 80.7952 464.07 81.3662 464.784C83.9357 464.355 85.2204 462.785 84.7922 460.358C84.5067 457.932 83.7929 461.215 81.3662 456.219C80.7952 454.934 80.7952 454.934 79.7959 454.22C79.5104 454.22 78.5112 453.792 78.5112 453.792C75.6562 451.793 78.2257 447.225 80.0814 440.801H81.3662C82.9364 440.801 83.2219 438.375 84.7922 437.09C87.3617 435.091 86.3624 437.518 86.3624 433.807C91.3587 432.522 95.213 428.525 98.3535 427.668C98.3535 429.239 98.068 428.953 97.3542 430.523C98.639 432.094 97.9252 430.523 98.3535 432.522C89.503 439.802 86.9334 434.092 82.2227 443.514C80.9379 445.94 80.9379 447.939 80.3669 450.794C81.3662 452.793 80.9379 451.222 81.3662 453.649C92.358 454.506 88.932 467.068 82.6509 466.211C79.2249 465.783 78.2257 464.213 77.9402 461.786V461.929Z" fill="black"/>
<path fill-rule="evenodd" clip-rule="evenodd" d="M232.542 165.435C234.113 165.864 233.542 166.292 233.542 167.862C233.256 169.432 232.971 171.145 232.542 172.716C232.257 176.855 230.972 177.569 232.257 182.137H230.972C229.973 182.565 230.401 182.137 229.687 182.565C229.402 184.992 229.973 186.705 230.258 189.846C228.403 192.272 228.403 192.272 227.118 196.412C226.547 199.267 225.262 200.838 223.977 203.264C219.838 213.4 225.548 204.549 217.982 217.111C215.841 220.394 207.561 231.386 204.706 233.385C202.565 234.955 202.136 237.096 198.71 237.524C199.281 233.385 201.851 236.24 208.132 227.817C209.131 226.533 210.987 224.962 211.273 224.106C212.843 221.251 210.987 222.821 213.414 219.966C218.125 214.684 222.55 204.121 224.12 197.126C224.691 195.127 224.691 193.414 225.119 191.416C226.119 188.133 226.975 186.991 227.974 181.281C228.26 178.426 229.259 179.282 229.83 176.427C230.401 172.287 231.115 166.292 232.4 165.435H232.542Z" fill="black"/>
<path fill-rule="evenodd" clip-rule="evenodd" d="M186.716 385.7C186.431 384.843 185.717 387.698 187.002 382.416C187.287 381.132 187.573 379.561 188.001 377.991C185.86 376.706 185.86 376.421 184.147 376.421C184.718 377.991 185.432 377.277 184.432 378.419C183.433 377.563 182.577 376.849 181.577 375.993C180.293 376.421 179.436 376.849 178.437 377.991C177.152 379.99 178.722 379.561 176.581 381.274C173.726 376.421 182.291 373.138 183.148 372.709C184.718 371.853 185.717 371.139 187.858 370.711C186.859 372.709 188.429 371.567 186.003 372.709C183.148 374.28 184.718 373.138 184.147 374.28C186.003 375.564 186.288 373.851 188.572 372.709L198.422 367.856C205.702 362.574 202.847 372.281 202.276 374.422C200.992 372.852 201.705 371.567 201.705 369.141C199.564 369.569 195.139 373.566 192.569 374.851C191.284 375.707 190.713 375.707 189.429 376.849C190 379.704 191.284 378.419 190.428 382.131C189.857 384.558 188.858 386.271 187.002 385.842L186.716 385.7Z" fill="black"/>
<path fill-rule="evenodd" clip-rule="evenodd" d="M285.501 364.144C284.216 365.715 285.216 369.854 285.787 371.853C286.072 373.851 286.358 376.706 287.642 378.705L285.501 364.001V364.144ZM283.645 363.288C285.787 362.431 284.645 362.003 285.787 360.861C288.927 368.57 288.927 386.556 290.212 390.553C291.497 393.836 298.063 415.82 297.207 417.39C295.351 421.53 295.351 412.108 293.352 406.398C292.353 404.4 292.068 401.973 291.497 399.546C290.926 397.12 289.926 395.121 289.355 392.98C287.785 386.128 284.359 370.14 283.645 363.288Z" fill="black"/>
<path fill-rule="evenodd" clip-rule="evenodd" d="M110.917 400.402C109.347 396.262 106.778 398.403 106.778 394.264H110.632C112.488 391.837 111.631 392.979 114.772 392.265L115.771 388.554C114.486 387.269 113.915 387.269 114.201 385.27C117.056 385.699 120.767 390.124 114.486 397.119C116.627 398.689 116.056 399.117 116.342 402.829L115.343 404.113C113.772 405.398 113.772 404.97 112.488 405.684C110.632 407.254 113.059 406.968 107.777 406.968C107.777 404.542 109.918 403.685 110.917 400.402Z" fill="black"/>
<path fill-rule="evenodd" clip-rule="evenodd" d="M336.748 364.144C337.747 365.001 337.033 363.716 337.747 365.001L339.317 375.564C339.603 380.418 339.888 384.557 338.746 388.983C337.176 393.836 340.602 395.121 338.175 408.968C337.89 410.538 337.176 413.821 336.034 414.678C335.749 414.249 334.749 415.106 335.463 411.823L337.319 402.829C337.89 400.831 336.748 379.561 337.033 376.421C337.033 375.136 337.604 370.282 337.604 369.854C337.319 368.284 336.034 366.571 337.033 364.144H336.748Z" fill="black"/>
<path fill-rule="evenodd" clip-rule="evenodd" d="M267.801 335.167C267.515 339.592 268.372 340.877 268.372 344.588C266.23 343.018 267.372 343.018 266.516 336.023C265.945 331.883 263.946 309.9 265.517 308.33C266.516 309.614 266.801 322.605 268.086 328.743C269.371 334.025 271.512 343.874 270.656 349.156C268.514 346.729 270.085 339.021 267.801 335.309V335.167Z" fill="black"/>
<path fill-rule="evenodd" clip-rule="evenodd" d="M237.252 353.866C241.106 353.866 240.678 354.294 242.248 356.721C240.107 360.004 241.249 360.861 237.252 364.001C237.252 367.713 236.681 370.568 233.112 370.854C233.112 367.142 235.681 367.57 231.827 362.288C233.683 359.862 236.823 360.718 238.394 357.863C237.823 355.436 238.679 357.435 236.538 355.436L237.109 353.866H237.252Z" fill="black"/>
<path fill-rule="evenodd" clip-rule="evenodd" d="M79.2255 428.096H81.0813C83.6508 431.807 82.937 430.094 84.5073 432.236C82.6515 434.662 83.5081 433.806 80.3675 433.52L80.653 438.374C78.5118 439.944 79.0828 440.801 78.7973 441.229V441.657L78.5118 442.514C76.9415 441.229 78.2263 442.085 76.9415 440.515C75.0858 440.515 74.372 441.372 72.8018 440.943C73.3728 437.66 72.8018 440.943 75.6568 436.804C77.5125 434.377 76.9415 434.805 76.2278 431.522H76.5133C76.5133 431.094 78.0835 431.094 79.0828 428.239L79.2255 428.096Z" fill="black"/>
<path fill-rule="evenodd" clip-rule="evenodd" d="M230.255 161.296C231.254 162.867 229.256 165.722 228.399 167.435C227.4 169.861 226.829 171.86 225.83 174.715C224.83 177.57 223.974 178.426 222.689 181.281L215.694 193.558C215.409 194.414 214.695 195.556 214.41 196.413C213.41 197.983 212.839 198.411 212.268 199.268C210.698 201.695 210.698 203.693 208.842 205.834C204.132 210.688 206.987 209.546 204.132 211.116C204.703 208.261 205.702 208.261 207.986 205.406C209.842 202.979 209.556 201.695 211.126 198.84C211.697 197.555 212.411 197.269 212.982 196.413C216.123 191.988 216.408 189.133 217.978 186.991C222.975 180.139 224.545 173.145 227.114 167.863C228.97 163.009 228.685 162.581 230.255 161.296Z" fill="black"/>
<path fill-rule="evenodd" clip-rule="evenodd" d="M151.315 364.144L154.17 365.001C158.024 360.861 158.024 364.573 158.309 360.861C157.025 359.576 157.31 360.433 156.168 359.576C156.168 356.721 157.738 356.293 160.308 355.865C163.163 359.148 162.164 358.72 162.164 363.573C162.164 366 162.735 364.43 162.735 366.428C160.593 366.857 162.164 366 160.593 366C159.023 366.428 160.022 366.857 157.167 366.857C154.027 366.857 151.457 367.285 151.457 364.002L151.315 364.144Z" fill="black"/>
<path fill-rule="evenodd" clip-rule="evenodd" d="M289.355 140.167C291.21 139.311 311.196 146.734 314.907 147.448C319.618 148.304 324.043 149.018 329.182 149.874C333.893 151.159 335.463 151.159 340.174 151.159C344.028 151.159 343.029 151.159 344.314 152.016C344.028 152.016 344.028 152.444 343.029 152.444C343.029 152.444 341.744 152.016 341.459 152.016C336.462 151.587 337.319 152.444 329.182 151.159C320.046 149.589 310.482 147.448 301.774 144.593C299.205 143.736 297.349 143.308 295.208 142.594C292.352 142.166 290.497 141.738 289.497 140.167H289.355Z" fill="black"/>
<path fill-rule="evenodd" clip-rule="evenodd" d="M197.422 150.732C195.852 154.444 190.142 167.862 187.001 169.433C186.716 166.578 190.142 162.866 191.427 160.439C192.711 158.441 194.282 154.301 195.566 151.446C196.851 148.591 197.708 144.88 198.992 142.025C200.277 137.599 201.134 137.599 203.418 133.888C203.989 135.886 203.132 137.171 202.133 138.741C200.563 141.596 201.562 140.312 200.848 144.023C197.422 147.306 198.992 146.45 197.422 150.59V150.732Z" fill="black"/>
<path fill-rule="evenodd" clip-rule="evenodd" d="M211.272 334.023C210.272 335.308 210.986 334.023 210.272 335.308C209.987 335.736 210.272 336.165 209.987 336.593C211.843 335.736 210.986 336.593 211.272 334.166V334.023ZM209.416 336.878C207.846 335.308 208.131 326.743 215.982 330.74C216.982 339.305 213.413 337.592 211.272 338.449C209.701 338.877 211.272 339.305 208.417 339.305C208.417 337.735 208.417 337.735 209.416 336.878Z" fill="black"/>
<path fill-rule="evenodd" clip-rule="evenodd" d="M168.302 373.851L168.587 369.711L171.442 368.141C171.442 364.429 169.301 360.432 169.301 358.719C171.871 358.291 175.011 361.146 174.726 363.144C174.44 367.284 173.155 368.426 170.586 370.853L170.871 372.852C171.442 373.28 170.871 373.28 171.871 373.28H173.441C172.87 375.707 173.155 375.278 170.3 375.707L168.445 373.708L168.302 373.851Z" fill="black"/>
<path fill-rule="evenodd" clip-rule="evenodd" d="M241.25 349.869L240.964 347.014L243.105 345.73C243.676 341.59 242.534 344.159 241.535 340.448C242.82 339.163 242.82 338.878 244.676 340.02C246.246 341.304 245.247 341.304 247.816 342.018C247.816 344.445 247.816 346.158 246.246 348.156C244.961 349.727 243.391 350.583 241.25 349.727V349.869Z" fill="black"/>
<path fill-rule="evenodd" clip-rule="evenodd" d="M109.631 197.126C107.775 197.554 107.061 197.126 106.776 198.696C107.061 198.696 107.775 198.268 108.06 198.268C109.916 196.983 108.631 197.84 109.631 196.983V197.126ZM109.345 200.409L108.774 199.125C106.633 200.409 107.489 200.409 103.778 200.695C106.633 193.843 111.058 196.27 113.199 196.27C114.484 196.27 117.625 194.985 118.909 194.985C121.764 194.557 123.049 193.7 124.619 194.985C123.335 196.27 123.335 195.841 120.48 195.841C119.195 199.981 113.913 195.841 109.488 200.267L109.345 200.409Z" fill="black"/>
<path fill-rule="evenodd" clip-rule="evenodd" d="M222.404 342.16C222.118 345.444 216.408 351.154 214.553 354.009C212.697 356.007 206.987 362.145 204.132 363.002C203.133 359.29 206.701 361.432 213.268 352.867C214.553 350.868 220.834 342.731 222.404 342.303V342.16Z" fill="black"/>
<path fill-rule="evenodd" clip-rule="evenodd" d="M207.845 249.373C209.13 251.799 202.849 259.508 197.139 261.935L179.438 269.215C180.437 265.503 181.294 267.645 187.004 264.79L199.28 259.508C200.851 258.651 204.277 255.083 205.276 252.941L206.846 250.086C207.417 249.23 207.132 249.658 207.845 249.23V249.373Z" fill="black"/>
<path fill-rule="evenodd" clip-rule="evenodd" d="M237.25 353.867L234.11 354.723C232.254 351.44 231.255 351.868 233.824 349.441C234.824 348.585 234.395 348.585 235.395 347.443C236.394 345.873 235.966 345.016 238.821 346.158L239.106 353.01L237.25 353.867Z" fill="black"/>
<path fill-rule="evenodd" clip-rule="evenodd" d="M272.226 373.851C274.367 374.707 275.367 383.558 276.651 388.554C278.222 394.692 279.221 397.976 280.078 404.828C277.936 403.971 278.507 402.829 277.508 397.547C276.937 393.836 271.798 377.134 272.083 373.994L272.226 373.851Z" fill="black"/>
<path fill-rule="evenodd" clip-rule="evenodd" d="M154.741 386.984C146.461 388.554 151.886 388.269 147.746 389.411C147.746 386.984 148.317 387.84 149.602 385.699C157.881 385.271 156.168 382.844 159.451 384.129C158.88 386.127 158.88 385.414 156.882 386.556C155.597 386.984 155.883 386.984 155.312 387.412L159.166 386.984L160.165 389.411C155.169 388.982 155.74 390.267 152.599 390.695C152.599 389.125 152.885 389.411 154.17 387.84L154.741 386.984Z" fill="black"/>
<path fill-rule="evenodd" clip-rule="evenodd" d="M154.742 203.264V206.975L154.456 207.403C155.455 207.832 154.171 208.974 156.312 207.403V209.83C158.453 208.545 159.452 206.547 163.878 204.977C162.307 208.26 147.461 217.253 145.605 217.539C146.605 213.827 150.316 214.255 151.886 212.257C152.886 210.972 154.742 204.977 154.742 203.264Z" fill="black"/>
<path fill-rule="evenodd" clip-rule="evenodd" d="M142.18 156.87L135.614 162.152C135.614 159.725 135.328 161.295 136.613 159.725C137.612 158.869 141.038 156.87 145.178 153.159L151.745 147.02C152.744 146.164 154.314 145.736 155.171 144.594C157.026 143.023 160.167 140.882 162.736 140.168C162.451 142.167 163.307 141.025 161.166 142.167C160.595 142.595 159.881 142.595 159.31 143.023C153.6 145.878 153.886 147.163 152.316 148.733C151.316 150.018 149.746 150.304 148.89 151.16L145.463 154.015C144.464 154.872 143.608 156.014 142.323 156.87H142.18Z" fill="black"/>
<path fill-rule="evenodd" clip-rule="evenodd" d="M257.664 135.315C259.52 134.887 263.945 139.455 266.515 141.882L273.081 147.164C274.937 148.448 274.366 147.164 274.937 149.162C270.512 148.306 259.092 138.17 257.521 135.315H257.664Z" fill="black"/>
<path fill-rule="evenodd" clip-rule="evenodd" d="M127.335 392.981C127.335 390.554 128.62 388.841 130.761 388.555C130.476 390.554 129.762 389.84 128.905 392.695L129.905 393.98C131.475 397.263 128.62 393.123 132.046 398.833C132.617 399.69 132.617 400.832 133.045 401.688C131.76 401.26 131.475 401.26 130.476 400.832C128.62 399.262 127.335 395.55 127.335 393.123V392.981Z" fill="black"/>
<path fill-rule="evenodd" clip-rule="evenodd" d="M110.49 454.077C110.49 450.794 111.489 451.222 111.489 448.367C111.489 447.939 110.49 442.657 113.63 445.512C115.2 447.083 115.771 454.934 110.49 454.077Z" fill="black"/>
<path fill-rule="evenodd" clip-rule="evenodd" d="M44.8237 243.662C46.6795 241.664 47.6787 244.09 56.2438 246.517C58.8133 246.945 59.3843 248.087 62.2393 248.516C66.3791 249.8 67.6638 249.372 68.5203 250.942C67.9493 251.371 68.8058 251.371 67.2356 251.371C66.6646 251.371 66.6646 251.371 65.6653 250.942L44.8237 243.662Z" fill="black"/>
<path fill-rule="evenodd" clip-rule="evenodd" d="M382.429 149.591C388.425 149.591 396.704 148.021 402.271 145.88C404.127 145.023 403.271 145.023 404.841 145.88C402.985 148.735 390.28 149.591 384.998 150.733C380.573 151.59 382.857 150.305 382.429 149.448V149.591Z" fill="black"/>
<path fill-rule="evenodd" clip-rule="evenodd" d="M260.519 125.179C263.089 125.607 273.795 132.888 278.506 134.886C280.362 136.171 280.076 135.314 281.075 137.313C278.506 137.313 276.936 136.028 275.08 134.886C273.795 134.03 273.795 134.03 272.939 133.316C270.797 131.746 261.233 126.464 260.662 125.179H260.519Z" fill="black"/>
<path fill-rule="evenodd" clip-rule="evenodd" d="M286.5 152.874L299.49 156.585C300.49 157.014 301.346 157.442 302.06 157.87C303.345 158.298 304.629 158.298 305.914 158.727C307.77 159.155 311.624 160.011 312.481 161.153C311.196 161.582 294.494 156.728 292.638 155.872C288.784 154.301 289.498 155.443 286.643 153.017L286.5 152.874Z" fill="black"/>
<path fill-rule="evenodd" clip-rule="evenodd" d="M286.5 261.935C289.926 263.22 289.926 264.79 293.067 266.075C301.346 269.358 305.058 272.927 311.767 278.637C308.626 277.781 307.056 274.212 302.916 272.071L289.355 265.219C286.786 263.22 287.214 263.648 286.5 261.935Z" fill="black"/>
<path fill-rule="evenodd" clip-rule="evenodd" d="M418.117 86.4955C419.973 88.0657 422.257 95.0605 420.972 98.3438C419.687 97.4872 419.973 97.9155 419.402 96.3452C417.546 90.6352 416.261 88.6367 418.117 86.6382V86.4955Z" fill="black"/>
<path fill-rule="evenodd" clip-rule="evenodd" d="M330.324 334.023C331.609 335.308 337.319 353.58 335.749 356.435C334.178 355.15 335.178 356.863 334.178 350.725C333.607 344.587 329.753 335.308 330.324 334.023Z" fill="black"/>
<path fill-rule="evenodd" clip-rule="evenodd" d="M334.464 419.959C337.605 422.386 331.609 427.24 330.039 429.381C328.754 431.379 329.04 431.808 327.184 432.236C327.184 429.809 328.183 428.524 330.61 426.098C331.609 424.813 332.18 424.527 332.751 423.243C333.322 421.244 332.751 421.244 334.321 419.959H334.464Z" fill="black"/>
<path fill-rule="evenodd" clip-rule="evenodd" d="M141.464 347.014C145.319 349.012 146.175 353.152 144.89 355.579C142.749 354.294 143.891 352.295 141.75 351.153C141.75 351.153 136.04 349.155 141.464 347.014Z" fill="black"/>
<path fill-rule="evenodd" clip-rule="evenodd" d="M193.284 75.0735C193.284 77.5003 192.713 79.9271 192.284 82.3538C191.999 83.6386 191.999 84.7806 191.713 86.4936V88.4921C191.142 90.9189 191.713 88.9204 190.714 89.7769C190.429 89.3486 189.429 90.2051 189.715 85.6371L191.856 76.2156C192.427 74.217 191.285 75.359 193.141 74.9308L193.284 75.0735Z" fill="black"/>
<path fill-rule="evenodd" clip-rule="evenodd" d="M166.16 388.982C167.159 388.554 167.445 388.982 169.301 388.982C169.015 391.409 168.016 390.552 168.73 393.122C169.301 395.977 170.014 395.12 169.301 397.547C166.731 396.69 167.159 396.262 166.16 393.835C165.589 392.979 165.161 392.979 165.589 391.409L166.16 388.982Z" fill="black"/>
<path fill-rule="evenodd" clip-rule="evenodd" d="M332.609 299.336C335.464 299.336 337.034 304.618 338.033 307.473C338.604 309.471 341.888 316.038 340.888 317.18C339.033 315.181 336.463 304.618 335.178 302.905C333.608 300.906 333.894 301.62 332.609 299.193V299.336Z" fill="black"/>
<path fill-rule="evenodd" clip-rule="evenodd" d="M129.189 425.954C126.334 421.814 127.048 423.956 127.048 419.102C127.333 416.675 126.762 418.246 128.047 417.532L128.618 423.67C129.903 424.955 130.474 424.955 130.759 426.953C127.619 429.38 129.76 426.097 126.905 431.093C126.334 432.378 126.905 431.093 125.906 432.378C125.335 428.666 126.905 428.238 128.047 427.096C128.618 426.24 128.618 426.668 129.046 426.24L129.189 425.954Z" fill="black"/>
<path fill-rule="evenodd" clip-rule="evenodd" d="M325.9 437.804C326.471 437.376 325.9 436.948 327.185 436.948C329.041 436.948 327.756 437.804 332.181 437.376C334.323 437.376 337.606 436.948 338.748 438.233C338.177 439.517 339.747 439.517 332.752 439.089C330.611 439.089 327.328 439.089 325.758 437.804H325.9Z" fill="black"/>
<path fill-rule="evenodd" clip-rule="evenodd" d="M84.6512 428.382C84.9367 426.383 85.6504 427.525 85.6504 424.67C85.3649 424.67 85.3649 424.67 85.3649 424.242C85.0794 423.385 84.7939 424.67 83.7947 422.957C84.3657 421.672 84.3657 420.959 86.3642 422.101C88.2199 423.385 87.9344 427.811 87.6489 428.667C87.0779 431.094 87.3634 429.524 86.6497 430.237L84.7939 428.239L84.6512 428.382Z" fill="black"/>
<path fill-rule="evenodd" clip-rule="evenodd" d="M79.2258 428.097L77.3701 423.671C77.0846 423.671 76.7991 423.671 76.7991 423.243L75.2288 422.387C73.3731 421.53 74.2296 422.387 74.2296 420.816C76.0853 419.532 76.3708 419.96 77.6556 421.245C81.5098 424.528 80.5106 424.528 79.2258 428.097Z" fill="black"/>
<path fill-rule="evenodd" clip-rule="evenodd" d="M358.16 152.017C359.159 151.161 357.589 151.589 362.014 151.161C363.013 151.161 364.869 150.733 366.154 150.733C368.01 150.733 372.72 149.876 374.005 150.304C372.149 152.731 369.58 151.875 366.154 151.875C363.584 151.875 360.729 152.731 358.303 151.875L358.16 152.017Z" fill="black"/>
<path fill-rule="evenodd" clip-rule="evenodd" d="M394.135 126.32C395.42 125.035 404.841 125.035 407.125 125.463C406.554 127.034 408.695 126.748 401.701 126.748C399.559 127.176 395.991 128.033 394.135 126.32Z" fill="black"/>
<path fill-rule="evenodd" clip-rule="evenodd" d="M156.739 349.868C156.739 349.868 159.308 350.725 156.453 353.58C155.168 354.864 154.312 355.15 152.313 355.15C152.313 352.723 154.455 349.012 156.739 349.868Z" fill="black"/>
<path fill-rule="evenodd" clip-rule="evenodd" d="M266.514 275.781C267.799 277.066 265.943 288.771 265.515 291.626C264.944 291.198 265.8 292.055 264.944 291.198C263.945 290.342 265.943 276.923 266.514 275.781Z" fill="black"/>
<path fill-rule="evenodd" clip-rule="evenodd" d="M305.059 322.602C307.628 324.173 310.055 335.164 310.483 338.448C309.912 337.591 310.198 338.448 309.198 336.877L305.059 322.602Z" fill="black"/>
<path fill-rule="evenodd" clip-rule="evenodd" d="M176.297 186.99C175.298 189.845 173.728 189.845 173.157 192.7C172.157 193.128 172.871 192.7 172.157 193.985C169.302 196.84 167.161 200.551 165.163 201.265C166.447 198.41 173.442 189.845 176.154 186.99H176.297Z" fill="black"/>
<path fill-rule="evenodd" clip-rule="evenodd" d="M200.564 363.287C200.564 366.57 191.143 368.569 190.429 368.569C191.428 367.284 190.714 367.712 192.57 366.57C194.426 365.714 199.137 363.287 200.421 363.287H200.564Z" fill="black"/>
<path fill-rule="evenodd" clip-rule="evenodd" d="M262.089 417.39C264.23 417.39 265.515 418.246 266.514 419.388C270.939 424.242 269.369 418.532 270.368 423.1C268.227 423.956 262.803 418.96 262.089 417.39Z" fill="black"/>
<path fill-rule="evenodd" clip-rule="evenodd" d="M158.595 193.128C158.31 194.698 158.31 196.411 157.596 197.982C157.025 202.122 157.025 201.265 155.455 201.265C155.74 194.698 156.026 193.985 158.595 193.128Z" fill="black"/>
<path fill-rule="evenodd" clip-rule="evenodd" d="M426.967 124.323C425.968 124.323 416.832 127.606 413.977 125.179C415.547 124.751 419.401 125.179 421.257 124.751C422.542 124.323 423.113 123.466 424.397 123.181C426.253 122.324 426.253 122.753 426.967 124.466V124.323Z" fill="black"/>
<path fill-rule="evenodd" clip-rule="evenodd" d="M314.336 98.2001C315.907 99.0566 314.907 98.6284 315.907 99.4849C311.481 99.4849 311.196 99.0566 305.2 99.0566C301.774 99.4849 303.059 99.4849 302.345 98.6284L308.055 97.7719L314.336 98.2001Z" fill="black"/>
<path fill-rule="evenodd" clip-rule="evenodd" d="M149.459 346.157C152.029 345.729 152.314 345.729 153.599 347.728C151.029 349.012 150.458 346.157 148.174 349.726C147.175 351.725 148.46 351.011 146.604 351.296C146.604 348.441 148.174 347.157 149.459 346.015V346.157Z" fill="black"/>
<path fill-rule="evenodd" clip-rule="evenodd" d="M416.26 66.08C420.4 67.6502 421.257 69.3632 422.541 72.6465C419.972 72.6465 420.971 71.3617 419.115 69.7915C417.545 68.2212 416.26 68.5067 416.26 66.08Z" fill="black"/>
<path fill-rule="evenodd" clip-rule="evenodd" d="M312.624 277.351C314.48 278.207 320.475 284.631 321.76 286.772C319.619 285.488 317.335 283.061 315.765 281.491C314.48 279.92 313.195 279.92 313.195 279.92C311.91 279.492 313.766 280.777 312.624 277.494V277.351Z" fill="black"/>
<path fill-rule="evenodd" clip-rule="evenodd" d="M226.402 348.298C227.972 349.155 227.401 348.727 228.543 349.869C229.828 351.439 230.399 350.297 229.543 353.152C227.401 352.724 224.832 350.725 226.402 348.298Z" fill="black"/>
<path fill-rule="evenodd" clip-rule="evenodd" d="M108.634 386.126C108.349 388.553 108.634 386.983 107.349 388.981C106.35 391.408 107.92 390.266 105.779 390.98C103.923 388.981 105.208 386.126 108.634 386.126Z" fill="black"/>
<path fill-rule="evenodd" clip-rule="evenodd" d="M87.2219 256.653C88.2211 255.797 85.6516 255.797 89.3631 255.797L94.3594 256.653C97.2144 257.51 95.3586 256.653 96.2151 258.224L87.0791 256.653H87.2219Z" fill="black"/>
<path fill-rule="evenodd" clip-rule="evenodd" d="M9.13709 210.972H9.42259L11.2783 214.255C12.2776 216.254 12.8486 217.11 11.5638 218.395C10.2791 217.11 10.5646 216.825 9.99359 215.112L8.70883 211.828C8.42333 210.544 8.70883 211.4 8.99434 210.972H9.13709Z" fill="black"/>
<path fill-rule="evenodd" clip-rule="evenodd" d="M102.066 398.69L102.352 405.256C100.496 404.828 100.781 404.4 100.496 402.401C100.21 399.975 100.21 399.546 102.066 398.69Z" fill="black"/>
<path fill-rule="evenodd" clip-rule="evenodd" d="M314.909 436.233C315.194 435.804 313.624 435.376 316.479 435.376L321.904 436.233C322.903 437.089 322.189 436.661 322.903 437.089C321.047 437.946 316.336 437.089 315.052 436.233H314.909Z" fill="black"/>
<path fill-rule="evenodd" clip-rule="evenodd" d="M172.157 400.403C174.298 400.403 176.297 402.83 177.153 404.543C174.584 405.827 172.442 402.116 172.157 400.403Z" fill="black"/>
<path fill-rule="evenodd" clip-rule="evenodd" d="M295.922 433.378C297.778 434.948 296.208 433.806 296.208 440.23C295.637 440.23 294.923 441.515 294.923 436.947C294.923 436.518 294.923 435.376 295.208 434.948C295.494 431.237 295.208 433.663 295.779 433.378H295.922Z" fill="black"/>
<path fill-rule="evenodd" clip-rule="evenodd" d="M62.2406 420.244C66.3803 418.959 65.3811 419.815 65.6666 420.672C65.0956 421.1 65.6666 421.1 64.3818 421.1L62.8116 421.528L63.8108 424.812C61.2413 423.955 61.2413 422.385 62.2406 420.386V420.244Z" fill="black"/>
<path fill-rule="evenodd" clip-rule="evenodd" d="M284.217 353.152C285.217 354.723 285.502 357.292 285.502 359.291C283.646 358.434 283.361 356.864 283.361 354.437C283.361 352.438 283.932 353.152 284.36 353.152H284.217Z" fill="black"/>
<path fill-rule="evenodd" clip-rule="evenodd" d="M222.975 336.88C223.546 335.595 222.975 336.024 224.259 335.31C225.83 334.882 225.544 335.31 226.829 335.31L227.114 339.021C224.973 338.165 227.685 339.878 226.115 338.593C224.545 337.308 226.115 337.308 222.975 337.023V336.88Z" fill="black"/>
<path fill-rule="evenodd" clip-rule="evenodd" d="M173.156 192.7C174.441 192.272 173.442 193.128 174.727 191.844C175.298 191.415 174.727 191.844 175.726 190.987C176.725 189.702 176.011 190.131 177.296 189.417C176.725 191.844 176.011 191.415 174.441 193.557C173.156 195.127 173.442 195.555 171.015 196.84L173.156 192.7Z" fill="black"/>
<path fill-rule="evenodd" clip-rule="evenodd" d="M111.201 417.105C111.201 419.104 111.487 417.533 110.202 419.532C108.917 421.959 110.488 420.817 108.061 421.53C107.062 419.532 109.346 417.105 111.201 417.105Z" fill="black"/>
<path fill-rule="evenodd" clip-rule="evenodd" d="M182.008 184.136C182.294 182.137 183.293 181.281 184.149 179.71C186.719 175.571 183.864 177.284 186.719 175.999C186.433 177.997 183.578 183.279 182.008 184.136Z" fill="black"/>
<path fill-rule="evenodd" clip-rule="evenodd" d="M347.168 341.732C348.452 343.017 349.309 346.157 348.452 348.584C347.881 347.014 347.881 347.014 347.168 344.872C346.597 342.874 345.597 343.588 347.168 341.589V341.732Z" fill="black"/>
<path fill-rule="evenodd" clip-rule="evenodd" d="M285.501 426.384C285.501 424.385 285.501 425.099 286.072 424.385C287.072 425.955 287.643 429.239 287.072 430.952C285.787 430.095 285.501 428.097 285.501 426.526V426.384Z" fill="black"/>
<path fill-rule="evenodd" clip-rule="evenodd" d="M133.045 257.796C138.755 257.796 137.184 258.653 139.326 257.368C140.61 256.511 141.895 255.798 143.465 256.511C142.894 256.94 141.895 257.368 140.61 257.796C138.755 258.653 135.186 259.081 133.045 257.796Z" fill="black"/>
<path fill-rule="evenodd" clip-rule="evenodd" d="M68.5205 434.091L68.806 432.807C69.0915 432.378 68.806 432.378 69.8053 431.95H71.09C71.3755 434.805 71.09 434.805 68.9488 435.233C68.9488 435.233 68.6633 434.377 68.6633 433.949L68.5205 434.091Z" fill="black"/>
<path fill-rule="evenodd" clip-rule="evenodd" d="M316.762 113.332C317.761 112.047 316.476 112.903 317.761 112.047C319.046 111.619 321.901 112.475 322.757 112.903C321.472 114.188 318.903 113.332 316.762 113.332Z" fill="black"/>
<path fill-rule="evenodd" clip-rule="evenodd" d="M376.146 114.187C375.575 116.186 374.576 115.757 372.292 115.757C372.863 113.331 374.433 112.902 376.146 114.187Z" fill="black"/>
<path fill-rule="evenodd" clip-rule="evenodd" d="M358.734 101.055C358.449 103.481 358.449 103.053 355.594 103.481C356.165 101.055 356.165 101.055 358.734 101.055Z" fill="black"/>
<path fill-rule="evenodd" clip-rule="evenodd" d="M113.344 257.081C114.914 256.225 116.77 257.081 118.055 258.651C116.485 258.651 113.344 258.223 113.344 257.081Z" fill="black"/>
<path fill-rule="evenodd" clip-rule="evenodd" d="M322.76 287.915C324.33 288.771 326.614 291.198 327.47 293.196C325.9 292.768 323.045 289.057 322.76 287.915Z" fill="black"/>
<path fill-rule="evenodd" clip-rule="evenodd" d="M107.063 421.959C106.492 423.529 106.064 423.957 103.923 423.957C103.923 421.959 105.208 421.102 107.063 421.959Z" fill="black"/>
<path fill-rule="evenodd" clip-rule="evenodd" d="M182.008 184.137C180.723 186.563 179.439 187.848 177.297 189.418C178.297 187.848 178.582 187.848 179.439 186.135C180.438 184.565 180.01 184.85 182.008 184.137Z" fill="black"/>
<path fill-rule="evenodd" clip-rule="evenodd" d="M287.358 434.949C288.643 437.376 288.357 438.233 287.358 439.375C287.073 438.518 286.787 438.518 286.787 436.948C286.502 433.664 287.073 435.377 287.358 434.949Z" fill="black"/>
<path fill-rule="evenodd" clip-rule="evenodd" d="M182.577 177.285C183.576 175.714 184.147 173.145 186.003 172.859C185.432 174.43 184.433 176.999 182.577 177.285Z" fill="black"/>
<path fill-rule="evenodd" clip-rule="evenodd" d="M95.0712 447.939C96.6415 448.795 96.927 449.937 96.356 451.65C95.0712 450.366 93.7865 449.652 95.0712 447.939Z" fill="black"/>
<path fill-rule="evenodd" clip-rule="evenodd" d="M219.263 332.31C219.834 332.31 219.834 331.882 220.833 331.882C223.973 331.882 221.832 331.882 222.689 332.31C222.403 332.31 223.26 333.595 220.547 333.595C219.548 333.595 219.548 333.595 219.263 332.31Z" fill="black"/>
<path fill-rule="evenodd" clip-rule="evenodd" d="M115.913 411.68C117.197 410.11 118.054 409.681 119.053 410.823C118.482 411.68 119.339 411.68 118.054 412.108C115.913 412.536 115.913 411.68 115.913 411.68Z" fill="black"/>
<path fill-rule="evenodd" clip-rule="evenodd" d="M76.5139 253.797C77.7987 252.227 79.6544 252.941 80.6537 254.654C78.5124 254.654 78.0842 254.654 76.5139 253.797Z" fill="black"/>
<path fill-rule="evenodd" clip-rule="evenodd" d="M190.43 323.747C190.144 325.745 190.144 326.602 188.574 327.458C188.288 324.603 188.574 324.603 190.43 323.747Z" fill="black"/>
<path fill-rule="evenodd" clip-rule="evenodd" d="M168.017 255.368L172.443 253.369C171.872 254.94 170.301 255.796 169.588 255.796C166.733 256.224 169.017 255.796 168.017 255.368Z" fill="black"/>
<path fill-rule="evenodd" clip-rule="evenodd" d="M166.447 371.424C167.446 371.852 167.446 370.139 167.732 372.708C167.732 374.707 167.732 373.137 166.732 373.993C164.163 371.566 166.447 371.566 166.447 371.566V371.424Z" fill="black"/>
<path fill-rule="evenodd" clip-rule="evenodd" d="M58.1003 428.811C59.9561 428.811 59.3851 428.811 59.9561 430.381L58.3858 431.951L58.1003 428.668V428.811Z" fill="black"/>
<path fill-rule="evenodd" clip-rule="evenodd" d="M228.114 363.288C227.829 364.858 227.115 365.286 225.545 365.714C225.83 364.144 226.116 363.288 228.114 363.288Z" fill="black"/>
<path fill-rule="evenodd" clip-rule="evenodd" d="M123.193 406.826C123.193 408.396 123.193 408.396 121.337 408.824C121.623 406.397 121.052 406.397 123.193 406.826Z" fill="black"/>
<path fill-rule="evenodd" clip-rule="evenodd" d="M125.334 257.509L121.194 258.793C122.479 256.795 122.765 256.795 125.334 257.509Z" fill="black"/>
<path fill-rule="evenodd" clip-rule="evenodd" d="M163.306 383.701C163.306 384.129 164.306 382.845 163.306 384.986C163.021 385.842 163.021 385.414 162.307 385.842C161.308 384.558 160.737 383.844 163.306 383.844V383.701Z" fill="black"/>
<path fill-rule="evenodd" clip-rule="evenodd" d="M172.443 162.152C173.728 160.153 172.443 161.295 174.299 159.725C174.87 158.869 174.87 159.297 175.869 158.44C175.298 160.011 174.014 161.295 172.443 162.152Z" fill="black"/>
<path fill-rule="evenodd" clip-rule="evenodd" d="M119.769 404.828C119.198 403.971 118.769 405.684 119.198 403.971C119.483 402.686 118.912 403.543 120.197 402.686C121.767 403.971 121.196 404.685 119.911 404.685L119.769 404.828Z" fill="black"/>
<path fill-rule="evenodd" clip-rule="evenodd" d="M156.74 374.708C159.31 376.706 157.026 377.134 156.74 377.134C156.455 376.706 156.169 377.991 156.455 375.85C156.455 373.851 156.169 375.85 156.74 374.565V374.708Z" fill="black"/>
<path fill-rule="evenodd" clip-rule="evenodd" d="M104.207 406.826C106.349 406.826 105.207 406.826 106.349 407.683C105.349 409.253 104.493 408.967 104.207 406.826Z" fill="black"/>
<path fill-rule="evenodd" clip-rule="evenodd" d="M368.58 500.043C370.436 499.186 369.865 499.186 371.15 500.471C370.15 500.899 371.721 501.328 369.865 500.899C368.009 500.471 368.866 500.043 368.58 500.043Z" fill="black"/>
<path fill-rule="evenodd" clip-rule="evenodd" d="M285.217 420.673C287.358 423.1 285.502 422.671 285.217 423.1C284.646 421.815 284.646 423.528 284.931 421.815C284.931 420.53 284.931 421.387 285.217 420.53V420.673Z" fill="black"/>
<path fill-rule="evenodd" clip-rule="evenodd" d="M165.448 383.272C167.019 382.415 166.019 382.415 167.59 383.272C166.59 384.128 168.874 384.128 166.305 384.128C164.449 383.7 166.019 384.128 165.306 383.272H165.448Z" fill="black"/>
<path fill-rule="evenodd" clip-rule="evenodd" d="M176.582 405.684C178.152 406.112 178.152 405.684 177.153 407.682C176.154 406.397 176.154 406.826 176.582 405.684Z" fill="black"/>
<path fill-rule="evenodd" clip-rule="evenodd" d="M99.2122 429.238C100.211 429.666 101.068 428.381 100.211 430.094C99.9259 430.523 99.2122 432.093 99.2122 429.238Z" fill="black"/>
<path fill-rule="evenodd" clip-rule="evenodd" d="M323.045 432.948C323.045 432.948 322.759 431.663 323.616 432.948C324.187 433.805 323.901 433.376 323.901 434.233C322.616 433.805 322.616 434.233 322.902 432.948H323.045Z" fill="black"/>
<path fill-rule="evenodd" clip-rule="evenodd" d="M196.425 327.457C195.854 329.027 196.71 327.885 195.14 328.742C195.711 327.171 194.569 327.457 196.425 327.457Z" fill="black"/>
<path fill-rule="evenodd" clip-rule="evenodd" d="M327.471 163.008C329.041 161.438 325.9 162.152 328.47 162.152C329.755 162.58 328.47 162.152 329.469 163.008H327.613H327.471Z" fill="black"/>
<path fill-rule="evenodd" clip-rule="evenodd" d="M331.326 87.6353C331.326 86.065 331.326 86.3505 332.61 87.207L331.326 87.6353Z" fill="black"/>
<path fill-rule="evenodd" clip-rule="evenodd" d="M61.2402 424.814C60.9547 426.099 61.2402 425.67 60.241 426.099C60.5265 424.528 60.241 425.242 61.2402 424.814Z" fill="black"/>
<path fill-rule="evenodd" clip-rule="evenodd" d="M204.42 403.258C205.99 404.115 205.99 403.258 204.991 404.543L204.42 403.258Z" fill="black"/>
<path fill-rule="evenodd" clip-rule="evenodd" d="M79.2253 456.505C79.2253 455.22 79.5108 456.076 79.5108 456.076C79.7963 456.076 79.7963 456.505 79.7963 456.505C79.7963 456.933 79.2253 457.789 79.2253 456.505Z" fill="black"/>
<path fill-rule="evenodd" clip-rule="evenodd" d="M203.706 400.403C202.422 399.975 203.135 401.26 202.707 399.547C204.277 399.547 202.993 399.119 203.706 400.403Z" fill="black"/>
<path fill-rule="evenodd" clip-rule="evenodd" d="M308.627 112.473L310.198 112.045C308.913 113.33 310.198 113.33 308.627 112.473Z" fill="black"/>
<path fill-rule="evenodd" clip-rule="evenodd" d="M39.542 247.23C41.1122 247.23 40.113 246.802 40.8267 248.087C40.2557 247.659 39.542 247.659 39.542 247.23Z" fill="black"/>
<path fill-rule="evenodd" clip-rule="evenodd" d="M179.438 182.565L178.867 184.136C178.582 183.707 178.296 184.992 178.867 183.279C179.153 181.994 178.867 182.851 179.438 182.423V182.565Z" fill="black"/>
<path fill-rule="evenodd" clip-rule="evenodd" d="M179.438 182.564C180.009 180.566 180.009 181.28 180.723 180.994L179.438 182.564Z" fill="black"/>
<path fill-rule="evenodd" clip-rule="evenodd" d="M195.568 322.176C196.852 322.176 196.139 321.747 196.852 323.032L195.568 322.176Z" fill="black"/>
<path fill-rule="evenodd" clip-rule="evenodd" d="M131.475 436.519C129.904 436.09 130.904 436.947 130.19 435.234C130.475 435.662 130.761 436.09 131.475 436.519Z" fill="black"/>
<path fill-rule="evenodd" clip-rule="evenodd" d="M69.8037 426.383L70.803 427.24C68.9472 427.24 70.5175 427.668 69.8037 426.383Z" fill="black"/>
<path fill-rule="evenodd" clip-rule="evenodd" d="M176.299 186.991C177.298 185.42 176.584 186.134 177.584 185.706L176.299 186.991Z" fill="black"/>
<path fill-rule="evenodd" clip-rule="evenodd" d="M170.587 164.151C171.587 162.866 170.587 163.723 172.158 162.866L170.587 164.151Z" fill="black"/>
<path fill-rule="evenodd" clip-rule="evenodd" d="M251.098 368.998L252.097 369.854C250.527 369.426 251.812 369.854 251.098 368.998Z" fill="black"/>
<path fill-rule="evenodd" clip-rule="evenodd" d="M202.134 336.879C203.134 338.877 202.705 336.879 203.134 338.877L202.134 336.879Z" fill="black"/>
</svg>
