<svg width="321" height="412" viewBox="0 0 321 412" fill="none" xmlns="http://www.w3.org/2000/svg">
<path fill-rule="evenodd" clip-rule="evenodd" d="M153.574 344.607C153.574 340.762 152.453 341.073 151.955 340.762C150.336 339.618 150.336 338.995 148.094 338.683C148.592 343.672 148.592 347.621 151.955 350.531C153.076 349.596 152.204 351.466 153.076 347.517C153.325 346.582 153.574 345.75 153.574 344.503V344.607ZM65.8881 265.517C65.3899 264.062 64.0198 263.75 62.2761 263.127L65.8881 265.517ZM60.906 261.983C60.6569 261.672 60.4077 261.36 60.0341 261.048C59.5359 260.736 60.0341 261.048 59.1622 260.736C60.0341 261.36 59.6604 261.36 60.7814 261.879L60.906 261.983ZM131.154 338.787C130.656 337.02 127.791 333.487 126.421 331.72C125.549 330.785 124.553 329.953 123.681 328.706C122.56 327.563 122.56 326.627 121.439 325.172C115.087 317.793 98.5213 297.008 91.1726 291.707C88.4324 289.94 91.4217 290.772 89.5534 288.485C88.6815 287.342 87.6851 286.719 86.5641 285.471L77.4716 277.157C72.2404 271.545 70.2475 270.921 64.7672 266.452L54.5537 258.762C44.3403 250.759 43.4684 252.214 37.4898 248.68C36.3688 247.745 37.2407 248.057 35.8706 247.537C34.2514 248.992 33.6287 254.604 32.8813 256.995L61.2796 274.767C64.8917 277.781 70.8703 281.314 74.4823 284.224L84.073 291.291C85.194 292.435 85.4431 293.058 86.8132 293.994C87.9342 295.137 88.6815 295.449 90.1761 296.696L104.5 310.31C106.368 312.077 107.863 314.156 109.233 316.234L114.464 322.158C115.336 323.302 116.332 324.237 117.204 325.172C117.703 326.108 117.703 326.316 118.325 326.939C118.824 327.563 118.824 327.563 119.695 328.082C120.567 329.226 121.315 329.849 122.436 331.096C124.304 333.487 124.927 333.798 126.546 334.942C127.667 335.877 128.414 337.332 131.279 338.787H131.154ZM28.8956 258.45C29.7675 254.293 30.5148 253.461 30.5148 252.214C30.7639 251.071 30.7639 249.824 30.7639 248.992C29.892 241.613 31.013 246.29 32.3831 240.054C32.6322 237.976 34.0023 237.04 35.3724 235.585C39.2336 231.428 45.5858 222.282 46.9559 217.19C45.0876 217.813 42.8456 218.957 41.4756 220.204L25.159 229.661C24.038 231.428 26.0309 233.507 22.917 234.13C22.4188 233.195 22.0451 235.066 22.4188 232.987C22.4188 232.987 22.917 231.844 22.917 231.532C19.0558 231.22 18.8067 232.987 16.3156 234.234C14.4473 234.858 12.4545 235.377 10.5862 236.625C8.71786 237.768 7.84598 239.639 6.47589 241.094C4.23392 243.484 3.4866 243.796 3.4866 245.563H5.97766C7.09866 250.031 7.84598 249.408 9.83884 252.941C11.458 255.332 12.8282 257.41 16.6893 257.722L18.9313 255.644C25.2835 255.332 25.5327 257.099 28.8956 258.658V258.45ZM212.364 319.768C213.734 318.001 214.606 317.689 215.976 315.299C217.595 312.285 220.086 308.232 221.456 304.594C221.954 303.451 221.705 302.516 221.954 301.061C222.826 298.359 224.445 295.76 225.815 293.058C226.314 291.915 228.556 281.522 228.556 280.275C227.684 274.974 227.185 268.115 228.556 262.503V248.265C229.427 235.274 222.203 231.636 222.203 223.114C222.203 221.347 223.324 219.892 223.075 217.813L222.826 215.111C222.826 210.642 223.947 210.642 223.324 204.718C222.452 196.716 215.353 201.497 206.011 204.095C202.15 205.238 199.659 206.485 198.538 209.707C201.527 210.642 205.762 217.709 205.389 220.723C204.517 219.788 204.89 220.1 204.018 219.788C204.517 222.802 206.759 223.322 207.88 226.024C209.25 229.246 209.25 230.805 209.499 234.026C209.997 238.807 211.99 243.484 212.862 247.953C213.36 251.175 213.111 248.888 212.613 249.408C209.623 244.419 209.001 232.779 207.132 228.414C206.26 226.336 205.264 224.569 204.143 222.802C203.645 221.659 203.271 220.723 202.524 219.58C200.655 217.19 200.655 214.28 197.293 211.578C193.68 208.875 185.46 210.642 181.848 212.513C182.097 215.527 187.079 221.139 188.2 224.985L187.951 226.128C186.083 224.985 182.969 215.735 179.73 215.111C176.741 214.799 167.649 218.957 165.407 222.49C164.286 224.881 162.667 226.647 162.044 229.038C161.172 233.507 162.916 242.341 163.414 247.121C163.912 252.734 165.905 257.826 166.154 263.438C166.403 265.829 166.403 269.986 168.396 271.441C168.396 275.598 170.015 284.432 171.385 288.381C172.257 291.395 172.755 292.539 173.254 296.072C173.254 298.462 174.624 300.853 175.122 303.763C176.243 309.063 180.104 319.768 181.972 326.835C185.834 343.464 181.474 329.226 183.342 339.826C183.841 343.048 185.211 352.61 182.844 355.52C181.972 354.584 183.716 349.284 182.595 345.127C181.723 343.048 181.474 345.127 181.723 341.905C181.723 340.138 181.225 336.916 180.851 334.838C180.353 330.369 179.232 324.757 177.862 320.599C175.371 311.662 172.88 302.516 171.012 293.37C170.513 291.291 170.513 291.603 169.642 289.836L164.161 265.517C162.542 261.36 162.791 255.436 161.67 251.279C160.798 247.745 161.67 243.588 160.549 239.742C160.3 239.431 160.051 238.807 159.677 238.599C159.179 237.976 159.677 238.287 158.805 237.976L158.307 237.664C158.307 223.114 156.937 225.504 145.852 228.726C140.62 230.181 127.418 231.74 125.176 236.729C124.304 238.807 124.678 238.495 122.934 239.95L123.183 248.265L129.535 279.132L137.756 296.592C138.254 297.527 138.877 299.606 139.375 301.061C141.243 305.53 142.987 309.687 145.727 313.844C146.599 314.987 147.969 316.234 147.097 317.378C144.108 315.923 141.617 308.44 140.496 305.841L138.254 302.308C136.884 299.606 135.763 296.384 134.393 293.994L132.774 289.525C132.774 289.213 128.912 282.977 127.542 277.053C126.67 273.831 125.923 270.817 125.3 267.907C124.428 264.374 123.681 261.672 122.809 258.45C122.311 256.059 123.307 255.748 123.058 253.461C122.56 251.383 122.187 250.447 122.187 248.473L120.567 247.329C121.066 245.251 122.809 244.108 120.069 242.341C120.069 240.262 120.318 239.119 120.069 237.56C119.197 237.248 111.226 238.495 109.607 238.703C105.994 239.327 102.133 239.846 98.5213 240.158C94.6601 240.782 93.29 240.782 92.7918 246.394C91.9199 252.318 94.411 251.383 94.411 255.02C94.411 259.489 94.9092 262.087 95.7811 266.244C96.653 271.233 98.5213 270.09 100.14 273.935C102.382 278.404 102.632 281.938 105.123 286.926C105.621 288.07 106.493 289.94 106.991 290.772L109.731 294.305C110.852 295.449 111.599 296.384 112.471 297.527L126.795 314.675C128.414 316.754 130.407 318.521 132.026 321.223C133.396 323.613 139.25 329.226 141.617 330.369C144.357 331.824 143.485 330.992 145.727 333.071C151.208 338.371 150.709 336.293 156.688 340.45L160.549 343.152C164.161 345.542 169.143 345.542 174.001 348.764C179.232 352.298 183.093 357.91 182.844 364.146C188.076 358.222 188.076 348.452 192.809 341.905C193.93 340.138 195.549 339.515 197.168 337.436C197.666 336.812 198.289 336.293 199.036 335.357L204.517 328.81C205.638 327.667 206.759 325.796 207.88 324.341L211.741 319.56L212.364 319.768ZM61.4042 209.811C64.1444 209.811 64.3935 210.746 66.6355 209.187C67.5073 208.875 69.1265 207.732 69.9984 207.109C74.1087 204.407 75.7279 204.718 75.7279 201.808L61.4042 209.811ZM97.7739 198.794C96.4038 198.171 90.9235 199.418 88.6815 199.418C90.9235 200.561 95.9056 200.353 97.7739 198.794ZM214.855 182.166C212.986 182.166 213.734 181.854 212.613 180.711C212.114 184.244 213.734 183.413 213.485 186.011C213.485 187.154 212.364 189.545 211.865 191C211.367 193.078 209.374 198.379 209.374 200.769C210.744 200.457 210.246 200.457 211.616 199.834C214.356 183.517 216.598 190.064 217.968 183.205C218.467 180.815 218.467 178.736 218.218 176.138C215.228 178.216 216.598 179.983 214.855 182.062V182.166ZM201.029 150.779C201.527 155.56 202.648 157.846 203.271 161.172C203.769 164.394 201.403 168.239 208.502 176.034C209.374 174.579 208.752 172.188 208.502 169.798C208.253 167.72 208.502 165.329 208.253 162.939C208.004 158.782 207.755 154.624 208.004 150.155L208.502 124.069C207.381 125.524 201.029 149.012 201.029 150.779ZM211.492 124.693V123.238C211.741 121.471 211.741 120.536 211.243 120.016L210.993 123.238C210.744 124.381 210.993 124.173 211.492 124.693ZM234.036 119.704C234.908 118.561 234.534 118.561 234.285 116.69C234.285 117.833 233.413 118.457 234.036 119.704ZM226.064 98.0869C228.556 96.6319 227.684 93.0983 227.435 90.3961C227.435 89.4608 227.933 88.0058 228.306 86.8626C228.306 84.4722 228.057 84.4722 227.435 83.6407L226.064 98.1908V98.0869ZM213.983 105.466C214.481 107.856 216.225 106.921 216.723 108.999C217.595 112.013 214.481 112.221 217.221 113.988C218.342 114.923 217.719 113.988 218.342 115.131C216.474 116.586 213.36 115.755 211.118 115.443C211.367 117.522 211.367 116.067 212.737 116.378C213.235 119.912 212.488 128.226 212.239 132.072C211.741 139.139 211.118 146.31 211.367 153.689C211.616 159.925 211.865 170.63 213.858 176.242C214.979 175.098 215.477 174.163 216.349 173.02C217.47 171.253 218.591 171.253 219.089 169.486C219.961 167.72 219.089 167.408 220.709 165.641C222.577 163.251 220.46 163.251 223.449 162.939C223.947 162.003 224.321 161.172 224.819 160.237C225.691 158.47 225.317 158.782 225.068 157.223C225.94 156.079 226.936 155.456 227.559 154.001C228.431 151.61 229.801 149.22 227.31 147.765C228.182 146.622 228.68 145.375 228.68 143.608C228.929 140.906 229.178 140.594 229.801 138.619C230.673 134.462 227.933 117.833 226.189 113.988C225.317 112.533 225.068 110.974 224.57 109.519C223.2 111.286 217.719 134.982 216.598 136.229C214.979 134.15 219.339 124.381 219.961 121.367C220.46 119.288 221.082 116.586 221.581 113.988C222.702 110.143 223.2 110.454 223.2 105.674C223.698 104.531 222.702 105.05 224.819 104.531C224.819 101.309 225.317 91.5394 224.819 89.6686L220.958 99.1262C220.46 100.893 220.46 101.517 218.716 101.205C218.218 100.269 221.207 95.5926 221.456 94.3455C222.328 91.6433 222.826 89.3569 225.317 87.4861C225.317 85.7193 225.566 83.9525 225.317 82.1857C224.819 78.9639 225.566 79.4836 225.566 76.5736C224.445 77.1971 224.196 78.3404 223.075 78.9639C221.705 80.1072 220.584 79.8993 219.712 78.9639C221.082 78.3404 220.584 78.6521 221.581 78.3404C222.452 78.0286 222.951 77.7168 223.2 77.1971C223.449 75.7421 223.2 74.495 222.328 73.3518C221.207 70.9614 219.837 72.4164 217.968 71.585C217.968 70.9614 216.848 70.4417 219.339 70.4417C222.328 70.4417 222.951 73.4557 225.94 73.4557L228.182 62.4392C228.431 60.0488 227.684 59.4252 227.684 57.1388C227.435 55.6838 227.435 52.6698 229.054 51.8384C230.922 52.9816 229.926 54.2288 229.926 55.9956C229.677 62.5431 231.545 55.9956 229.054 69.2985C228.556 71.0653 229.054 72.0007 228.805 73.1439C228.556 74.5989 227.684 75.2225 227.684 77.3011C227.933 80.0032 229.926 83.225 230.175 86.239C230.424 90.3961 229.054 95.6965 228.805 99.8537C228.556 101.621 228.805 103.387 228.556 104.842C227.435 109.831 227.185 107.856 228.805 113.157C229.677 115.859 230.424 118.457 231.047 121.471C233.289 120.328 232.666 112.533 232.666 110.454C232.666 102.14 236.278 68.9867 239.018 63.5824L246.99 43.7319C247.488 41.6533 248.609 40.5101 249.232 38.9512C249.73 36.8726 249.73 35.9372 251.723 34.4822C253.591 35.9372 250.602 38.6394 248.982 42.4848L245.37 51.4227C244 54.4366 243.128 57.3466 241.758 60.5685C241.26 62.3353 240.886 63.2706 240.139 64.7256C239.267 66.4924 239.267 67.9474 238.769 69.7142C237.15 76.7814 236.901 83.9525 235.78 91.3315C235.531 94.0337 235.78 98.1908 234.908 101.413C234.036 104.634 233.538 108.792 234.036 112.637L237.025 104.323C237.523 101.309 237.897 98.0869 238.644 95.1769C242.007 85.4075 240.264 78.0286 245.495 68.7789C246.367 67.6356 247.737 66.7003 247.737 65.5571C248.235 62.3353 247.488 64.9335 249.356 62.0235C252.345 57.2427 256.829 45.083 260.068 38.9512C261.936 34.794 262.808 26.7914 268.662 24.7129C270.904 23.7775 271.153 24.7129 272.772 22.9461C273.893 22.0107 274.641 20.5557 275.762 19.9321C281.491 16.3985 300.299 14.9435 308.021 16.9182C311.882 18.0614 313.252 19.3085 316.615 20.7636L316.864 17.7496C313.501 15.3592 309.391 15.3592 303.911 14.216C301.171 13.5924 298.43 14.216 294.32 11.8256C293.199 10.8903 293.448 10.8903 292.078 10.3706C289.836 10.0588 289.338 10.9942 287.345 10.3706C282.612 9.2274 281.865 9.74705 277.132 9.74705C268.537 9.43526 272.772 8.81169 262.31 11.2021C260.068 11.5138 259.57 11.5138 257.95 12.3453C256.082 13.2806 255.708 13.4885 253.591 13.8003C246.74 14.4239 247.488 18.581 245.869 21.4911C244.997 22.6343 244.997 24.1932 244.997 25.6482C245.246 29.4936 244.125 29.8054 242.257 32.5076C241.136 34.5861 241.136 38.4315 238.644 39.5747C237.274 37.4962 243.378 29.1818 244.125 26.7914C240.015 27.415 239.143 28.87 237.274 30.9486C235.032 33.0272 234.783 36.249 232.043 35.9372C231.171 33.5468 237.025 27.3111 238.894 26.1679C240.513 25.0247 241.385 25.2325 243.004 23.7775C243.004 22.6343 242.755 22.3225 243.253 20.5557C244.872 14.3199 243.004 15.2553 250.103 12.2414L258.324 9.2274C261.687 8.60383 264.676 8.29204 268.288 7.46061C268.787 3.61523 272.399 4.75845 274.391 3.92701C276.011 2.99165 273.893 3.30344 279.124 0.913065C280.993 0.289489 278.875 0.601277 281.366 0.289489C281.117 2.99165 279.498 2.05629 277.256 3.30344C275.014 4.44666 277.007 5.07023 272.274 5.38202C271.153 5.69381 270.655 6.31739 270.032 7.14882H275.512C278.003 6.83703 278.875 7.46061 280.993 7.14882C284.854 6.83703 282.612 6.21346 286.224 7.46061C291.704 9.2274 288.964 6.31739 295.067 10.1628C298.679 12.2414 307.149 13.3846 309.64 13.1767L304.658 9.95491C301.669 7.56454 302.416 8.4999 299.427 6.7331C293.946 3.19951 293.324 2.26414 287.594 1.43271V0.289489C290.334 -0.645874 292.825 0.913064 294.445 1.7445C296.313 2.88772 298.555 4.13487 300.797 5.27809C306.028 7.98025 306.277 9.43526 312.879 11.8256C310.637 12.1374 312.007 12.4492 311.509 12.761C313.128 13.6964 312.007 13.6964 314 14.216C320.85 16.2946 316.491 18.685 318.982 21.0753C318.484 22.8421 318.11 22.5303 318.733 24.6089C319.854 24.9207 320.975 24.9207 320.975 26.0639C320.975 27.2072 319.854 27.519 318.733 27.519C316.491 26.0639 317.861 26.5836 316.491 24.8168C314.249 21.595 311.758 19.8282 306.526 19.5164C305.654 17.7496 306.775 18.581 305.156 17.7496C302.167 17.7496 296.936 16.8142 294.196 17.126C291.206 17.7496 287.345 18.581 283.982 19.2046C275.762 20.14 277.381 22.4264 272.648 25.1286C270.406 26.2718 270.157 26.2718 267.915 26.5836C266.046 27.519 259.32 43.2123 258.324 45.8105C256.082 49.9677 250.103 62.1274 248.982 65.661C247.861 69.1946 245.121 71.2732 244.249 75.1186C242.879 79.8993 242.007 90.1883 240.886 92.5787C240.015 94.969 239.516 95.8005 239.516 98.5026C239.018 102.348 238.146 106.193 237.025 110.351C233.413 122.198 232.915 134.358 231.545 146.518C231.296 150.675 229.926 154.209 228.182 157.742C227.061 159.197 226.812 160.756 225.94 162.523C223.449 167.512 221.581 163.147 218.716 177.593C217.844 182.374 219.837 184.452 215.976 188.609C214.356 190.064 211.616 197.235 212.613 199.002C213.485 199.002 215.602 198.067 216.474 197.859C217.844 197.235 218.342 196.716 220.086 196.404C223.947 197.859 225.317 199.106 226.438 202.64C228.68 210.019 225.068 219.788 226.189 223.633C226.687 225.088 227.061 226.647 227.559 228.102C227.808 229.557 228.68 231.948 229.427 232.883C231.669 230.805 232.417 228.726 234.41 226.959C236.652 224.881 238.022 223.945 239.641 221.035C242.63 216.047 243.751 210.019 248.733 205.965C250.353 204.822 250.975 203.575 252.345 201.808C261.687 189.649 255.335 185.803 257.328 176.346C253.466 176.969 255.957 177.801 251.847 178.424C250.477 178.736 249.979 178.736 248.484 179.36C247.114 179.671 247.114 180.295 245.495 179.36C247.986 177.281 254.338 177.281 258.199 173.747C259.32 172.604 259.071 173.124 260.69 172.292C263.182 171.357 263.182 170.214 266.42 170.526C273.27 170.837 271.651 174.059 275.512 176.138C278.875 177.593 280.245 182.062 280.993 185.076C281.491 188.09 280.121 188.609 279.374 190.376C278.502 191.831 278.875 194.845 279.124 196.612C279.124 200.457 278.626 199.314 277.754 202.224C276.633 206.069 273.395 214.384 271.402 217.086C270.032 219.164 268.911 221.867 267.79 223.945C266.669 225.712 267.79 225.4 265.548 226.024C265.299 223.01 269.658 217.709 270.779 214.799C271.651 213.656 272.149 212.409 272.648 210.954C273.52 208.252 274.516 205.654 275.637 202.952C277.505 197.963 277.007 198.794 277.007 193.494C277.007 189.337 279.996 188.713 278.875 184.556C278.377 182.789 276.633 178.632 274.765 177.489C272.274 176.346 273.146 177.489 270.904 175.41C270.032 174.267 269.036 173.02 267.915 172.396C264.303 171.253 261.562 174.163 260.441 176.242C256.829 183.309 261.811 190.48 256.829 198.794C254.961 201.808 255.459 202.952 252.47 205.862C248.111 210.331 247.239 209.707 244.997 215.631C244.125 218.645 243.128 223.01 240.886 225.4C238.146 228.414 239.516 227.479 235.904 229.557C234.036 230.701 230.922 233.091 229.552 234.858C232.292 239.327 233.164 253.565 232.292 259.177C231.794 262.191 231.171 264.789 230.922 267.492C230.922 271.337 231.42 282.042 230.673 284.952C229.303 289.109 230.175 293.578 227.684 296.176C224.944 299.398 224.694 303.035 224.072 306.881C223.823 311.038 219.961 315.507 216.848 319.04C212.737 323.198 210.246 328.186 205.762 332.343C204.641 333.487 204.392 333.798 203.271 335.046C201.403 336.812 199.659 339.203 197.542 341.281C195.673 343.048 195.922 344.295 194.801 346.27C193.182 346.27 194.303 346.582 192.31 345.958C190.691 349.18 190.442 353.961 188.449 357.806C186.581 361.028 184.339 365.185 182.346 367.887C183.218 369.654 183.218 367.887 183.218 369.966L180.229 369.342C180.229 371.421 179.357 372.564 178.609 374.643L176.118 374.331C176.118 373.707 177.239 366.328 177.488 365.185C180.229 357.183 176.367 355.104 170.015 350.635C168.147 349.18 162.791 347.621 160.051 347.621C159.802 349.388 159.802 356.767 158.681 358.014C156.439 360.404 159.802 360.093 156.812 367.783L153.2 376.098C150.46 381.71 148.841 387.322 146.599 392.726C145.478 395.428 143.61 398.027 142.489 400.729C139.998 406.965 138.379 422.034 137.008 429.517C135.887 427.439 138.877 411.434 139.5 408.212C139.998 405.821 139.25 404.99 139.998 403.223C140.87 401.145 141.368 400.209 141.866 398.235C143.734 391.687 146.848 385.243 149.09 378.696C150.46 375.474 151.581 372.148 152.951 369.238C154.321 365.081 155.442 363.314 155.941 358.845C156.19 356.143 155.941 352.921 157.311 350.531C158.183 348.764 158.681 348.452 158.681 346.374C156.812 345.439 156.812 345.231 155.318 344.295C155.069 346.686 155.318 348.452 154.82 350.531C154.571 352.921 153.699 354.065 153.45 356.143C153.45 359.157 152.578 358.222 152.079 361.444C151.83 366.744 149.339 372.98 147.097 377.761C145.478 380.982 144.606 384.62 142.738 387.842C138.005 395.221 139.998 398.546 138.379 404.159C136.51 410.394 132.649 423.385 131.777 429.309C131.777 429.933 131.777 432.012 131.279 432.323C128.539 433.259 129.66 430.868 129.66 429.102C129.66 427.023 129.66 425.256 129.909 423.178C130.781 419.02 131.279 416.11 131.528 411.953C131.528 408.939 133.396 398.339 134.891 395.636C136.261 392.415 134.891 393.558 134.019 390.856L135.14 390.232C136.51 389.92 137.008 388.777 137.382 387.01C136.261 386.387 135.514 386.075 134.393 385.555C135.763 384.1 136.261 385.555 138.254 386.179C139.624 383.165 140.994 380.567 142.364 377.553C143.734 374.85 145.727 371.94 146.475 368.615C147.346 365.913 148.343 363.834 146.973 361.548C145.603 359.157 147.471 361.548 146.724 359.469C146.225 357.702 144.482 358.326 143.361 355.935C142.24 354.169 141.991 353.233 139.749 352.402L141.991 355.624C139.001 355.624 136.759 349.388 134.019 346.997L132.151 345.231C129.66 343.776 129.162 342.84 128.29 342.217C127.418 341.593 127.169 341.073 126.67 340.138C125.3 338.06 123.058 337.124 121.439 335.15L112.098 324.445C110.977 322.678 109.856 322.366 109.108 320.911C107.489 319.144 106.617 316.442 104.749 314.987C103.877 314.052 103.628 314.364 102.258 314.364C101.386 312.909 100.888 312.597 99.2686 311.35C99.7668 309.895 99.5177 311.038 100.14 309.583C97.6494 307.816 96.5284 306.569 94.411 304.594L88.6815 299.294C87.5605 298.151 85.3185 296.904 84.3221 296.072L76.3506 289.213C73.8596 287.134 68.8774 284.744 68.3792 282.146C66.1372 281.834 65.639 281.21 64.0198 280.067C62.6497 278.612 62.1515 278.924 60.1586 277.365L58.2903 276.222C57.1693 275.078 58.5394 275.598 57.1693 274.455C55.301 272.688 54.9274 275.39 53.5573 271.753C51.9381 272.064 53.0591 271.753 51.9381 272.064C51.0662 269.986 49.1979 269.986 47.205 268.531L32.3831 258.45C31.2621 260.84 32.6322 264.685 29.6429 265.517C28.2728 264.374 28.7711 264.374 28.0237 263.75C26.9027 262.607 26.4045 263.438 25.5327 261.983C24.4117 260.217 26.0309 261.36 24.1625 259.593C19.4295 255.748 19.8032 262.295 14.1982 259.905C13.0772 259.281 8.46875 257.514 7.59686 256.683C3.4866 252.526 4.23392 251.694 2.86383 248.057C0.621857 243.068 -1.49557 247.433 4.23392 240.054C6.97409 236.521 10.3371 234.442 14.9456 232.675C16.5648 232.052 19.3049 229.661 21.2978 229.661C22.1697 229.973 22.1697 229.973 22.917 230.285C23.1661 226.751 26.5291 226.751 29.5184 224.985C32.2585 223.841 34.7496 221.971 37.2407 220.516C38.6108 219.892 39.7318 219.372 40.8528 218.437C42.472 217.294 43.0948 216.982 44.714 216.047L60.6569 207.732C62.0269 207.109 63.397 206.589 64.7672 205.965C69.1265 203.263 75.2297 197.963 81.3328 198.275L86.8132 198.898C86.8132 198.898 87.0623 198.898 87.0623 199.21L88.4324 198.067C90.6744 197.443 93.1654 197.755 95.6565 197.443C97.0266 197.131 98.3967 196.82 100.016 196.508C106.866 195.884 101.386 192.663 114.838 200.977C118.699 203.367 120.567 205.965 123.681 208.356C131.404 214.903 126.172 213.344 129.162 218.749C131.653 222.594 138.005 224.673 138.254 226.128C133.521 225.192 127.169 220.204 126.67 215.735C126.421 212.721 126.67 212.721 124.428 210.954C123.557 210.331 123.93 210.331 122.809 209.499L116.706 204.199C113.343 201.497 106.244 195.053 101.511 199.21C99.8914 200.665 100.14 200.353 97.6494 200.977C95.4074 201.912 96.0302 202.432 93.5391 203.055C92.169 203.055 90.1761 202.744 88.806 202.432C85.4431 202.12 86.315 202.432 84.073 200.977C81.3328 198.898 77.7207 200.042 76.8489 202.432C75.2297 206.277 74.6069 205.654 70.7457 207.732C68.8774 208.875 66.6355 211.578 63.5216 212.201L50.8171 216.982C47.4541 219.061 46.7068 224.361 44.714 227.375C41.7247 231.844 41.351 233.611 39.4827 238.391C38.6108 240.158 37.8635 239.535 37.8635 242.237C39.7318 242.549 38.7354 241.925 39.2336 243.172C38.3617 245.251 38.1126 244.315 35.6215 244.939C35.6215 246.394 41.1019 249.096 44.2157 250.863C48.9488 253.877 54.4292 256.163 58.2903 259.489C60.1586 260.944 60.7814 261.256 63.0234 262.711L67.1337 265.725C68.7529 266.868 70.123 267.803 71.8667 268.739C71.3685 269.882 71.6176 269.362 71.3685 270.194C73.6105 271.649 85.194 283.185 87.0623 285.263C91.1726 289.732 95.9056 293.89 100.265 298.255L107.738 306.569C109.357 308.336 110.728 310.414 112.471 312.181C114.34 314.26 115.834 315.715 117.453 317.793L122.187 323.094C125.549 327.251 128.539 329.953 131.528 334.63L140.62 346.478C145.354 351.778 140.371 349.18 148.841 354.169C150.211 354.792 151.083 355.312 152.204 356.247C153.823 353.025 149.464 351.466 148.841 350.947C145.229 347.725 146.599 339.411 144.108 336.397L138.379 332.24C139.998 337.02 146.35 346.478 146.35 351.259C143.61 350.115 139.998 342.113 138.628 339.411L127.916 321.639C127.044 320.703 126.297 320.184 125.425 319.248C121.066 313.948 117.453 308.024 113.343 302.62C111.973 300.853 109.98 299.398 108.61 297.631C107.24 295.552 105.247 294.409 103.877 292.331C102.756 290.876 103.628 290.564 102.756 288.797L100.016 281.938C99.144 280.171 98.8949 276.014 98.1476 274.871C97.6494 273.935 96.7775 273.727 95.6565 272.48C95.1583 271.545 94.2864 270.713 93.7882 269.466L91.5462 257.93C91.5462 256.475 92.0444 255.54 91.7953 253.773C91.2971 252.318 89.5534 252.318 90.4252 246.394C90.6744 244.004 91.7953 240.782 93.4146 239.535C96.7775 237.456 97.0266 237.144 102.258 237.144C105.247 237.144 109.482 236.832 111.35 235.689C109.98 232.156 107.489 229.453 105.247 226.543C104.375 225.4 103.005 223.322 101.884 222.386C98.023 218.541 97.5248 215.527 90.3007 210.227L81.2083 202.848C82.8275 203.159 82.8275 203.159 84.5712 203.471C86.8132 203.783 88.6815 206.485 90.3007 207.94L92.5427 209.707C102.756 219.476 108.486 229.557 115.461 235.793C118.45 235.481 122.934 233.715 125.051 232.26C132.524 228.414 139.126 228.726 146.225 226.024C156.19 222.49 152.578 225.088 158.058 223.945C163.04 222.802 162.791 218.333 169.143 215.943C173.876 214.176 178.236 210.331 182.969 209.395C187.328 208.46 190.94 207.628 195.424 207.628C199.285 204.614 198.414 204.407 204.018 202.848C206.51 201.912 206.51 201.704 207.008 199.626C207.506 196.092 208.876 192.766 208.876 189.233C209.125 185.076 209.997 187.778 199.784 184.764C197.293 184.14 195.424 184.452 195.051 182.685C197.293 181.75 202.275 184.452 205.015 185.076C206.634 185.076 207.506 184.764 208.876 184.14C207.506 178.216 203.396 178.216 202.773 176.138C202.275 174.371 202.275 172.604 201.403 170.526C199.784 167.304 200.282 162.835 199.784 158.989C198.912 153.065 197.915 154.209 199.535 147.765C200.033 145.063 199.285 144.751 202.275 143.296C201.403 139.451 203.396 133.527 204.517 129.681C209.997 110.662 204.517 116.898 204.766 112.533C204.766 110.454 205.638 109.311 206.385 108.064C203.645 107.441 202.026 107.129 202.026 104.531C201.776 102.14 202.524 99.7498 205.638 100.062C206.136 101.517 205.887 102.764 206.51 103.907C207.381 106.297 208.129 104.531 207.631 107.752C209.001 108.376 209.872 108.896 210.62 110.143C209.499 111.598 210.62 110.454 209.001 111.286C209.25 112.429 209.499 113.053 210.371 113.988C213.36 113.988 214.73 113.053 214.73 110.766C214.73 108.064 212.239 108.688 211.99 105.778H213.36L213.983 105.466Z" fill="black"/>
<path fill-rule="evenodd" clip-rule="evenodd" d="M201.281 52.0463C201.779 56.5153 203.149 55.8917 200.16 56.5153C195.427 57.4506 196.548 60.0488 196.797 60.0488C197.669 60.9842 200.409 60.0488 201.779 60.0488C202.028 60.6724 202.277 60.9842 202.651 61.5039C203.772 63.8942 202.651 62.6471 201.032 64.5178L201.53 66.9082H204.893L204.394 68.675C207.384 70.13 204.644 68.0514 208.256 68.3632C208.256 70.7536 207.757 70.13 204.644 70.13C204.394 73.3518 204.394 73.6636 200.782 73.9754C198.042 73.9754 200.284 73.9754 198.042 73.3518C195.551 76.5736 192.562 79.5875 198.54 79.8993C199.661 78.964 199.911 78.4443 201.281 77.8207C202.9 78.4443 202.152 77.509 202.9 79.2758C209.75 79.5875 202.402 84.0565 208.131 86.9665C210.871 85.5115 214.732 85.5115 213.611 82.8094C212.74 80.419 212.74 83.1211 211.992 80.419C214.982 81.0426 214.982 82.8094 214.732 85.1997C212.241 87.2783 210.871 86.9665 208.38 88.4215C206.761 87.798 207.259 87.798 205.64 87.2783C204.021 86.6547 204.021 87.2783 202.9 86.1351C202.028 85.1997 202.651 84.9919 201.281 84.0565C199.661 82.9133 200.16 83.7447 199.911 81.3543H196.921C195.551 81.3543 195.053 81.0426 194.43 81.0426C192.811 80.7308 191.067 82.1858 192.562 78.964C190.071 79.5875 188.95 78.0286 188.95 76.2618L191.939 73.2479L195.8 72.9361C196.298 72.3125 196.298 72.0007 196.672 71.1693C194.804 72.6243 195.551 71.7929 191.441 72.3125C190.32 69.2985 188.95 68.4671 190.071 64.9335C191.69 64.3099 193.06 63.7903 195.302 63.4785C195.053 66.7003 192.562 64.9335 193.06 68.4671C194.43 68.7789 195.551 68.7789 196.921 67.5318L197.419 62.2314C193.309 61.0881 195.551 58.0742 194.43 54.5406C193.558 51.3188 194.43 52.7738 195.302 50.6952C196.174 48.3048 194.43 47.4734 197.544 47.1616C198.042 50.3834 197.046 51.007 201.405 51.9424L201.281 52.0463Z" fill="black"/>
<path fill-rule="evenodd" clip-rule="evenodd" d="M205.886 31.2603C208.875 30.9485 207.007 30.3249 209.249 29.8053C212.861 30.7407 211.117 32.1957 210.619 34.586C211.491 35.7293 212.487 36.6646 212.861 37.8078C210.619 39.8864 211.242 38.4314 209 39.2629C207.63 39.8864 207.131 40.4061 205.138 40.7179C204.267 42.7964 203.27 43.1082 202.149 44.2515C203.021 46.33 204.391 46.0183 204.391 48.4086C197.541 48.7204 200.779 45.3947 197.541 43.42L193.929 44.3554V38.7432C195.797 39.3668 195.548 40.51 197.292 40.8218C202.025 41.4454 198.413 34.8978 193.43 33.9625C193.181 33.3389 193.181 32.8192 192.932 32.1957C192.06 31.0524 192.683 32.8192 191.811 30.7407C195.672 26.8953 197.042 31.8839 197.914 32.8192C199.534 33.4428 199.035 32.8192 201.277 33.131C204.889 33.7546 201.526 35.5214 206.509 33.4428C206.01 32.2996 206.259 32.8192 206.259 31.3642L205.886 31.2603Z" fill="black"/>
<path fill-rule="evenodd" clip-rule="evenodd" d="M172.258 48.409C174.998 46.3304 181.102 47.4736 181.849 48.0972C181.351 49.864 179.358 48.7208 177.489 50.4876C175.621 52.5662 178.61 53.7094 179.981 53.7094C182.223 54.0212 182.721 53.0858 184.091 52.774C184.963 54.5408 183.842 55.788 181.849 55.9958C177.988 56.9312 177.739 55.6841 175.746 55.6841C173.877 55.3723 174.625 56.3076 173.504 55.0605C171.013 52.9819 170.514 51.2151 170.764 48.5129C170.265 48.5129 166.902 49.1365 165.781 50.9033C167.401 52.3583 170.764 51.8387 169.393 55.6841C166.404 57.1391 163.29 54.229 162.792 52.1505C162.294 50.0719 163.664 51.2151 161.671 50.3837C160.55 50.0719 160.799 50.6955 159.18 49.4483C158.059 48.5129 157.312 47.6815 157.312 45.9147C160.675 45.6029 158.433 45.6029 160.675 46.8501C164.536 47.1619 163.664 46.2265 166.778 46.5383C166.778 45.0833 166.529 45.9147 167.276 44.7715C170.016 45.0833 167.525 45.0833 169.518 46.5383C169.767 46.8501 171.76 47.9933 172.258 48.3051V48.409Z" fill="black"/>
<path fill-rule="evenodd" clip-rule="evenodd" d="M200.407 290.044C200.407 290.044 200.656 290.98 199.286 289.732L198.414 277.573C198.165 271.96 197.915 268.427 196.795 263.023L192.061 243.484C191.812 242.029 190.691 237.56 191.563 236.625C192.061 237.248 192.435 236.936 192.933 239.327C193.432 242.029 193.805 244.315 194.802 249.096C196.172 253.565 197.044 257.41 197.791 262.087C198.663 265.101 200.282 273.104 200.033 275.702C199.784 280.171 201.154 288.173 200.282 289.94L200.407 290.044Z" fill="black"/>
<path fill-rule="evenodd" clip-rule="evenodd" d="M139.003 185.699C140.373 185.387 141.245 185.075 142.366 184.556C145.978 182.789 145.729 179.567 149.59 178.632C149.839 181.022 149.59 178.632 147.722 181.334C144.732 185.179 143.362 185.803 138.38 187.881C134.27 189.336 132.651 195.572 132.9 197.339C133.149 198.794 134.768 199.417 133.398 200.872C132.277 200.561 132.9 201.496 132.028 199.729C131.779 198.794 131.779 198.274 131.156 197.339C130.658 195.572 132.028 190.791 133.896 188.713C135.266 187.569 136.387 186.946 137.757 186.011C135.889 182.477 136.636 169.382 142.117 169.382C141.868 171.149 140.747 171.149 139.875 172.396C137.384 175.929 138.505 182.477 139.003 185.699Z" fill="black"/>
<path fill-rule="evenodd" clip-rule="evenodd" d="M213.859 305.114C213.859 299.813 215.479 287.03 215.229 286.094C214.98 284.951 215.229 285.471 214.358 284.639C216.849 282.249 214.358 278.715 214.358 277.572C214.108 276.949 214.358 276.429 214.607 275.494L213.237 258.034C212.987 255.643 211.866 251.486 212.987 249.719C213.859 250.655 213.486 249.407 214.358 252.733L214.856 270.193C214.856 273.207 215.728 274.662 215.977 277.053C216.475 282.977 215.728 296.903 214.607 303.451L213.735 305.217L213.859 305.114Z" fill="black"/>
<path fill-rule="evenodd" clip-rule="evenodd" d="M162.417 218.021C160.549 216.566 159.926 210.018 159.926 207.628C159.428 203.159 158.307 201.704 158.805 197.235C159.677 191.623 160.175 182.997 162.417 178.216C162.916 177.073 163.289 177.073 164.286 176.449C164.037 178.528 163.414 179.151 162.666 180.918C161.296 184.14 160.798 193.39 160.175 197.235C159.677 202.847 161.545 207.316 161.795 212.928L162.666 216.462C162.916 219.164 162.916 217.086 162.417 217.917V218.021Z" fill="black"/>
<path fill-rule="evenodd" clip-rule="evenodd" d="M222.7 44.8748C223.821 45.1866 224.319 45.1866 225.191 45.4983L227.059 46.9534C224.07 50.7987 223.696 48.4084 217.718 45.8101C216.846 41.9647 217.469 39.8862 220.458 38.4312C223.821 39.3665 222.949 41.9647 222.7 44.9787V44.8748Z" fill="black"/>
<path fill-rule="evenodd" clip-rule="evenodd" d="M204.766 89.6684C206.137 91.747 203.396 91.4352 205.887 93.202C208.129 92.8902 206.137 92.8902 208.129 92.2666C209.998 92.8902 209.25 92.5784 209.5 94.0334C209.749 95.4884 210.371 94.657 209.998 97.0474C198.912 101.516 199.286 88.1094 204.766 89.6684Z" fill="black"/>
<path fill-rule="evenodd" clip-rule="evenodd" d="M231.545 193.077C227.435 191.622 235.157 187.777 237.026 183.62C232.916 182.996 228.805 183.62 224.57 184.555C222.951 184.867 223.2 185.698 221.207 184.867C221.706 183.932 223.076 183.412 224.57 183.412C231.172 182.788 232.791 181.645 239.143 182.788C241.012 181.853 243.503 180.086 245.745 179.774C245.745 181.853 246.866 180.71 241.883 182.996C241.012 183.308 238.022 184.763 237.524 185.387C236.652 186.322 237.275 186.322 236.154 187.153C235.033 188.297 235.656 187.153 234.535 188.92C233.414 190.063 233.414 189.856 232.666 190.687C231.795 191.622 232.168 191.83 231.545 193.077Z" fill="black"/>
<path fill-rule="evenodd" clip-rule="evenodd" d="M189.943 181.542C188.074 181.23 185.832 179.463 183.092 178.84C180.601 177.904 177.861 176.761 175.121 176.449C172.38 176.138 169.889 175.306 167.398 174.371C163.288 172.916 161.295 172.604 160.548 171.149C163.288 170.525 168.27 174.371 175.743 175.306C178.733 175.93 189.569 178.32 190.067 181.542H189.943Z" fill="black"/>
<path fill-rule="evenodd" clip-rule="evenodd" d="M79.4647 249.719C76.9736 249.719 75.1053 245.874 72.6143 243.795C67.383 239.638 67.6321 238.183 59.6606 232.779L50.07 225.4C51.9383 225.4 53.6821 226.855 56.4222 228.622L66.0129 236.312C66.8848 236.936 79.4647 248.472 79.4647 249.615V249.719Z" fill="black"/>
<path fill-rule="evenodd" clip-rule="evenodd" d="M183.592 205.861C183.343 205.549 182.471 206.485 183.094 203.471L184.713 196.611C186.582 192.142 186.955 189.544 188.326 187.154C191.688 182.165 196.048 182.685 192.436 185.075C189.945 186.842 189.945 187.466 188.575 190.064C187.703 192.142 188.575 191.519 188.076 193.078C187.578 195.156 186.208 196.611 185.585 199.313C184.464 203.471 185.087 202.847 184.464 204.614C184.215 206.381 184.215 205.549 183.592 205.757V205.861Z" fill="black"/>
<path fill-rule="evenodd" clip-rule="evenodd" d="M189.446 84.5753C189.197 86.6539 188.076 86.6539 187.204 88.4207C188.823 89.356 188.574 88.7324 189.446 90.1875C187.204 91.3307 186.456 90.1875 183.716 89.2521L183.467 89.5639C183.218 89.8757 183.218 89.8757 182.969 89.8757C180.478 90.811 180.727 90.4992 179.98 90.1875C180.852 87.7971 182.222 89.8757 183.343 87.4853C184.214 85.0949 183.343 85.4067 185.211 83.3281C187.453 83.3281 188.2 83.3281 189.57 84.4713L189.446 84.5753Z" fill="black"/>
<path fill-rule="evenodd" clip-rule="evenodd" d="M178.861 93.2012C178.611 94.968 177.491 94.3444 176.619 96.2152C175.249 99.2291 177.74 97.6702 177.117 99.437C174.875 101.827 169.644 97.0466 174.377 93.2012C175.747 92.058 175.747 92.058 177.989 92.2659L178.861 93.2012Z" fill="black"/>
<path fill-rule="evenodd" clip-rule="evenodd" d="M204.765 54.3329C206.135 55.4761 207.505 56.4115 209.498 54.9565C209.249 53.1897 207.63 53.5014 209 52.8779C210.37 52.2543 211.491 53.5014 211.491 54.6447C211.491 59.4254 204.267 56.7233 202.897 54.6447C201.776 53.1897 202.025 50.4875 203.768 49.8639C206.509 48.7207 204.889 52.8779 204.889 54.3329H204.765Z" fill="black"/>
<path fill-rule="evenodd" clip-rule="evenodd" d="M214.23 105.362C215.102 102.971 214.728 103.283 214.23 101.205C213.981 99.7497 214.479 97.9829 214.23 96.2161L212.86 97.3593L212.362 92.8903C212.611 91.4353 212.362 92.2668 213.732 91.955C213.732 93.7218 213.732 93.41 214.604 94.3453C214.604 92.5785 214.106 88.7332 215.725 89.3567C216.846 89.9803 215.974 92.5785 215.974 93.5139L215.725 102.14C215.725 104.53 216.597 105.154 214.355 105.362H214.23Z" fill="black"/>
<path fill-rule="evenodd" clip-rule="evenodd" d="M146.1 220.619C145.602 223.633 146.349 221.554 146.598 224.464C145.228 223.84 144.979 223.84 144.356 222.697C143.235 219.683 135.762 209.083 137.506 206.38C139.125 207.004 137.755 205.237 139.374 209.914C141.865 217.293 141.616 214.383 143.235 217.293C144.356 219.06 144.107 219.683 145.976 220.515L146.1 220.619Z" fill="black"/>
<path fill-rule="evenodd" clip-rule="evenodd" d="M177.86 88.4208C177.86 91.123 175.992 92.2662 175.12 91.123L173.999 89.0444C172.38 86.9658 174.498 86.9658 175.12 86.654C173.999 83.9519 171.757 86.0305 169.64 85.199C171.01 83.1204 172.38 83.744 175.12 84.2637C177.611 85.199 177.86 86.0305 177.86 88.4208Z" fill="black"/>
<path fill-rule="evenodd" clip-rule="evenodd" d="M271.277 242.548C269.907 243.172 269.658 243.172 267.665 243.172C266.793 242.236 266.295 241.405 266.045 239.95C269.658 240.262 266.544 240.885 269.408 241.717C269.907 240.262 269.159 237.248 268.537 235.481C268.038 233.714 265.796 231.636 268.038 230.181C269.408 231.947 271.65 239.119 271.401 242.652L271.277 242.548Z" fill="black"/>
<path fill-rule="evenodd" clip-rule="evenodd" d="M174.002 92.0594C172.631 93.8262 171.511 93.2026 168.77 93.2026C167.151 91.7476 166.528 92.0594 167.151 88.4218C167.151 86.655 167.4 86.655 168.77 86.3433C169.019 86.655 169.019 86.3433 169.019 86.9668C169.518 90.1886 173.752 91.9554 174.002 91.9554V92.0594Z" fill="black"/>
<path fill-rule="evenodd" clip-rule="evenodd" d="M222.203 67.4272C220.584 68.8822 219.712 69.5058 216.723 69.8176V69.5058L216.474 68.0508C215.103 67.739 213.733 67.4272 214.232 66.284C215.851 65.6604 215.602 68.6744 220.584 66.5958C220.833 61.6072 218.093 63.0622 216.972 60.9836C219.214 60.0482 219.712 61.6072 220.833 62.7504C221.954 64.2054 222.452 65.7643 222.203 67.5311V67.4272Z" fill="black"/>
<path fill-rule="evenodd" clip-rule="evenodd" d="M213.36 46.019C212.239 47.1622 209.499 48.4094 207.63 46.3308L208.751 44.8758C208.502 42.7972 207.381 43.4208 208.502 41.8618C210.121 42.4854 210.121 43.3168 210.744 44.564C212.612 42.4854 210.495 42.7972 212.986 41.8618C214.107 43.005 213.858 44.2522 213.484 46.019H213.36Z" fill="black"/>
<path fill-rule="evenodd" clip-rule="evenodd" d="M194.303 327.042C194.552 323.82 195.673 320.495 196.794 317.273C197.292 315.818 198.662 308.335 198.662 306.88C200.53 307.815 200.281 306.88 198.911 311.868C198.413 313.635 198.662 315.402 198.039 317.169C196.669 320.391 196.171 320.702 195.548 324.548C195.548 324.86 195.299 326.003 195.299 326.003C194.801 326.938 195.299 326.315 194.178 326.938L194.303 327.042Z" fill="black"/>
<path fill-rule="evenodd" clip-rule="evenodd" d="M215.852 160.444C215.852 160.444 216.35 149.22 215.852 142.672C215.603 141.737 215.603 140.906 215.603 139.97C215.852 138.515 215.603 138.203 216.973 137.892C217.845 139.658 216.724 159.197 215.852 160.444Z" fill="black"/>
<path fill-rule="evenodd" clip-rule="evenodd" d="M205.887 31.2601H204.267C204.267 29.1815 205.388 28.8697 203.396 27.4147C201.527 26.4793 201.776 27.1029 199.285 26.7911C198.413 25.8557 198.164 25.8557 199.036 24.7125C202.897 23.7772 204.766 26.4793 206.759 28.2461C206.759 30.0129 206.26 29.7011 205.887 31.2601Z" fill="black"/>
<path fill-rule="evenodd" clip-rule="evenodd" d="M237.024 48.7208L237.274 45.499C235.903 44.5636 235.032 44.5636 235.654 42.7968C234.035 42.1732 234.284 42.7968 234.035 41.3418C240.138 41.6536 242.256 49.3443 237.024 48.7208Z" fill="black"/>
<path fill-rule="evenodd" clip-rule="evenodd" d="M85.1927 224.776C83.3244 224.464 81.5807 222.074 77.9686 219.164C77.4704 218.54 76.5985 218.228 76.1003 218.02C73.8583 215.942 71.7409 215.007 70.869 213.24C73.3601 213.552 78.3423 218.02 80.2106 219.787C81.0825 220.411 81.0825 220.723 81.8298 221.554C82.7017 222.178 84.3209 223.009 85.1927 224.776Z" fill="black"/>
<path fill-rule="evenodd" clip-rule="evenodd" d="M155.443 168.239V169.174C153.824 169.798 143.86 169.798 142.49 169.174C143.61 167.407 145.479 168.239 148.593 168.239H155.443Z" fill="black"/>
<path fill-rule="evenodd" clip-rule="evenodd" d="M154.445 326.211C152.203 325.275 148.342 318.52 148.093 317.896C149.961 318.208 151.082 319.663 152.203 321.43C153.822 324.652 154.071 324.132 154.445 324.964C155.566 326.73 154.694 325.899 154.445 326.107V326.211Z" fill="black"/>
<path fill-rule="evenodd" clip-rule="evenodd" d="M172.255 37.8083C170.013 34.7943 173.875 37.1847 171.134 32.1961C174.996 31.8843 174.747 34.5865 173.875 36.6651C173.003 38.7436 173.626 37.6004 172.255 37.8083Z" fill="black"/>
<path fill-rule="evenodd" clip-rule="evenodd" d="M221.581 34.7946C219.962 33.8592 220.709 34.7946 221.083 33.3396C221.083 31.5728 221.083 31.5728 220.585 30.3257C218.093 29.7021 218.093 30.9492 217.595 28.2471C221.955 28.5589 223.947 32.4042 221.705 34.7946H221.581Z" fill="black"/>
<path fill-rule="evenodd" clip-rule="evenodd" d="M231.545 66.1797C234.036 61.399 233.164 56.4104 234.908 54.6436C235.406 55.5789 234.036 65.8679 231.545 66.1797Z" fill="black"/>
<path fill-rule="evenodd" clip-rule="evenodd" d="M181.101 100.581C179.233 100.581 179.482 100.893 178.61 99.438C182.969 97.983 179.482 99.1262 181.599 96.7358C182.098 97.0476 181.848 96.4241 182.471 97.3594C182.969 98.8144 182.222 100.062 181.101 100.581Z" fill="black"/>
<path fill-rule="evenodd" clip-rule="evenodd" d="M156.067 47.265C154.198 46.1218 154.447 43.4196 158.558 43.7314C158.309 45.4982 158.309 44.0432 157.437 45.4982C156.316 47.265 158.309 46.1218 156.067 47.265Z" fill="black"/>
<path fill-rule="evenodd" clip-rule="evenodd" d="M165.408 44.5634C164.536 43.628 164.536 43.4201 165.408 42.173C166.28 41.2376 166.778 40.0944 167.899 40.718C169.518 41.3416 166.28 44.2516 165.408 44.5634Z" fill="black"/>
<path fill-rule="evenodd" clip-rule="evenodd" d="M195.176 103.283C193.806 103.283 193.307 102.971 191.813 102.348C190.194 102.036 190.443 102.348 190.194 100.893L192.685 100.269C193.806 102.659 192.934 101.204 194.304 102.348C195.176 102.971 194.553 102.659 195.176 103.283Z" fill="black"/>
<path fill-rule="evenodd" clip-rule="evenodd" d="M174.997 44.2516C172.505 44.2516 172.256 43.1084 173.128 41.0298C175.37 41.3416 175.619 42.173 174.997 44.2516Z" fill="black"/>
<path fill-rule="evenodd" clip-rule="evenodd" d="M263.555 236.625C261.313 236.625 262.185 236.625 260.815 235.689C259.444 234.754 259.444 235.377 259.195 233.922C261.686 234.234 263.056 235.066 263.555 236.625Z" fill="black"/>
<path fill-rule="evenodd" clip-rule="evenodd" d="M197.043 23.5696C195.175 23.8813 194.552 23.5696 195.424 22.1145C195.673 22.1145 196.296 20.9713 197.292 22.1145C198.164 23.0499 197.043 23.2578 197.043 23.5696Z" fill="black"/>
<path fill-rule="evenodd" clip-rule="evenodd" d="M232.045 51.4219C230.426 51.4219 229.056 50.2786 228.682 48.7197C230.302 48.7197 229.181 48.4079 230.302 49.6551L231.921 51.4219H232.045Z" fill="black"/>
<path fill-rule="evenodd" clip-rule="evenodd" d="M195.175 27.4152C195.175 25.9602 195.674 25.9602 197.667 25.6484C197.168 27.1034 196.795 27.4152 195.175 27.4152Z" fill="black"/>
<path fill-rule="evenodd" clip-rule="evenodd" d="M191.064 46.9538C191.064 46.9538 191.562 47.8891 189.694 47.2656C188.822 46.9538 188.822 46.3302 188.573 45.8105C189.943 46.1223 191.064 45.8105 191.064 46.9538Z" fill="black"/>
<path fill-rule="evenodd" clip-rule="evenodd" d="M199.534 87.5898C199.285 85.823 199.285 85.823 201.153 85.5112C201.153 86.9662 200.904 87.278 199.534 87.5898Z" fill="black"/>
<path fill-rule="evenodd" clip-rule="evenodd" d="M213.858 309.895C213.359 308.96 212.737 310.83 212.986 308.44C213.235 307.297 214.107 307.297 214.356 307.297L213.858 309.999V309.895Z" fill="black"/>
<path fill-rule="evenodd" clip-rule="evenodd" d="M177.239 377.136C176.741 376.513 176.118 378.072 176.741 376.201C176.99 375.058 176.741 375.889 177.613 375.266C178.111 375.889 178.734 374.642 178.111 376.201C177.862 377.656 178.111 376.825 177.239 377.136Z" fill="black"/>
<path fill-rule="evenodd" clip-rule="evenodd" d="M86.8124 257.722C85.1932 257.41 85.1932 257.722 84.9441 256.267C86.8124 256.267 86.5633 256.267 86.8124 257.722Z" fill="black"/>
<path fill-rule="evenodd" clip-rule="evenodd" d="M208.377 60.8804C207.879 61.8157 208.128 62.3354 206.509 61.1921C206.758 60.5686 206.01 60.5686 207.007 60.5686C209.498 59.945 208.128 60.5686 208.377 60.8804Z" fill="black"/>
<path fill-rule="evenodd" clip-rule="evenodd" d="M191.065 91.7472C189.197 91.7472 189.695 92.3708 189.695 90.604C190.816 90.9158 190.816 90.604 191.065 91.7472Z" fill="black"/>
<path fill-rule="evenodd" clip-rule="evenodd" d="M192.933 37.1838L192.061 35.417C193.182 36.0406 192.31 34.7934 192.933 36.0406C194.054 37.8074 192.933 37.1838 192.933 37.1838Z" fill="black"/>
<path fill-rule="evenodd" clip-rule="evenodd" d="M204.766 126.355C203.894 125.42 204.517 125.42 204.766 124.9C205.265 125.836 205.265 123.757 205.015 125.524C205.015 126.459 205.265 125.836 204.766 126.459V126.355Z" fill="black"/>
<path fill-rule="evenodd" clip-rule="evenodd" d="M172.008 26.7913C170.638 27.1031 171.759 26.7913 170.887 26.4796C172.257 25.856 171.385 26.1678 172.008 26.7913Z" fill="black"/>
<path fill-rule="evenodd" clip-rule="evenodd" d="M151.081 235.793L151.953 234.858C151.704 236.001 153.074 235.793 151.081 235.793Z" fill="black"/>
</svg>
