<svg width="430" height="76" viewBox="0 0 430 76" fill="none" xmlns="http://www.w3.org/2000/svg">
<path d="M86 70C85.4 71 84.7667 71.9667 84.1 72.9C83.4333 73.7667 82.6 74.6667 81.6 75.6C81.5333 74.8 81.5333 74.0667 81.6 73.4C81.7333 72.7333 81.9 72.0333 82.1 71.3C82.4333 70.5 82.7667 69.7 83.1 68.9C83.5 68.1 83.9 67.3333 84.3 66.6C88.5 59.1333 92.1667 52.6 95.3 47C98.5 41.4 101.267 36.5333 103.6 32.4C106 28.2 108 24.7 109.6 21.9C111.267 19.1 112.633 16.8 113.7 15C114.833 13.1333 115.7 11.7 116.3 10.7C116.967 9.63333 117.467 8.8 117.8 8.2C118 7.86666 118.167 7.56666 118.3 7.3C118.433 7.03333 118.567 6.76666 118.7 6.49999C118.567 6.36666 118.467 6.3 118.4 6.3C117.6 6.96666 116.8 7.63333 116 8.29999C115.267 8.89999 114.533 9.56666 113.8 10.3C112.267 11.6333 110.533 13.3 108.6 15.3C106.667 17.3 104.7 19.3667 102.7 21.5C100.7 23.6333 98.7333 25.7333 96.8 27.8C94.9333 29.8 93.2667 31.4667 91.8 32.8C89.1333 35.2 86.5 37.6333 83.9 40.1C81.3 42.5667 78.6667 45 76 47.4C73.4 49.8667 70.7667 52.3333 68.1 54.8C65.5 57.2 62.8333 59.6 60.1 62C59.7667 62.3333 59.3667 62.6333 58.9 62.9C58.5 63.1667 58.1 63.4667 57.7 63.8C57.2333 64.0667 56.7333 64.2667 56.2 64.4C55.7333 64.5333 55.2333 64.4 54.7 64C54.1667 63.6 53.9 63.1667 53.9 62.7C53.9 62.1667 54.0333 61.6333 54.3 61.1C54.8333 59.4333 55.5 57.9333 56.3 56.6C58.5667 52.8 60.8 49.0333 63 45.3C65.2667 41.5 67.5667 37.7 69.9 33.9C71.9667 30.5 74.0667 27.1 76.2 23.7C78.4 20.3 80.5667 16.9 82.7 13.5C82.8333 13.1667 83 12.8667 83.2 12.6C83.4 12.2667 83.6667 11.8333 84 11.3C83.6667 11.4333 83.4 11.5 83.2 11.5C83.0667 11.5 82.9333 11.5667 82.8 11.7C79.1333 14.7 75.3667 17.5333 71.5 20.2C67.6333 22.8 63.6333 25.3333 59.5 27.8C55.2333 30.2667 50.9667 32.7 46.7 35.1C42.5 37.5 38.2 39.9 33.8 42.3C30.4667 44.1667 27.1 45.9333 23.7 47.6C20.3667 49.2 16.9 50.6667 13.3 52C11.7667 52.5333 10.2 53.0333 8.6 53.5C7 53.9667 5.43333 54.4333 3.9 54.9C3.56667 55.0333 3.2 55.1333 2.8 55.2C2.4 55.2667 1.96667 55.2333 1.5 55.1C1.36667 55.0333 1.16667 54.9333 0.9 54.8C0.7 54.6667 0.5 54.5333 0.3 54.4C0.433333 54.1333 0.566667 53.9 0.7 53.7C0.833333 53.4333 1.03333 53.2667 1.3 53.2C1.63333 53.0667 1.96667 52.9667 2.3 52.9C2.63333 52.8333 3 52.7667 3.4 52.7C6.6 51.7667 9.7 50.7 12.7 49.5C15.7 48.3 18.7 46.9667 21.7 45.5C29.3667 41.7 36.9 37.7333 44.3 33.6C51.7 29.4 59.0333 24.9333 66.3 20.2C69.9667 17.8667 73.5 15.4 76.9 12.8C80.3667 10.1333 83.8 7.36666 87.2 4.5C87.6667 4.03333 88.3 3.56666 89.1 3.1C89.3667 2.89999 89.6667 2.79999 90 2.79999C90.3333 2.79999 90.6333 2.96666 90.9 3.3C91.2333 3.76666 91.3333 4.33333 91.2 5L88.9 9C84.7 15.6 80.5667 22.1667 76.5 28.7C72.5 35.2333 68.4333 41.8333 64.3 48.5C63.2333 50.1667 62.2333 51.8 61.3 53.4C60.3667 55 59.4333 56.6333 58.5 58.3C58.3667 58.4333 58.3 58.6 58.3 58.8C58.3 59 58.2667 59.1667 58.2 59.3L58.5 59.7C59.4333 58.7667 60.3667 57.9333 61.3 57.2C62.3 56.4 63.3 55.5667 64.3 54.7C67.3 51.8333 70.3 48.9333 73.3 46C76.3 43.0667 79.4 40.2 82.6 37.4C85.1333 35.1333 87.9 32.5 90.9 29.5C93.9667 26.5 97.0333 23.4333 100.1 20.3C103.233 17.1 106.3 14.0333 109.3 11.1C112.367 8.1 115.2 5.43333 117.8 3.1C118.133 2.76666 118.5 2.46666 118.9 2.2C119.367 1.93333 119.8 1.63333 120.2 1.3C120.6 1.1 121.033 0.966664 121.5 0.899994C121.967 0.766663 122.433 0.866663 122.9 1.2C123.3 1.53333 123.5 1.96666 123.5 2.5C123.567 2.96666 123.5 3.43333 123.3 3.9C122.767 5.03333 122.2 6.16666 121.6 7.3C121 8.43333 120.367 9.56666 119.7 10.7C117.567 14.4333 115.333 18.2333 113 22.1C110.667 25.9667 108.133 30.2333 105.4 34.9C102.733 39.5 99.8 44.6667 96.6 50.4C93.4 56.0667 89.8667 62.6 86 70ZM119.702 38.3C120.502 38.1667 121.269 38.0667 122.002 38C122.736 37.8667 123.469 37.7333 124.202 37.6C124.736 37.4667 125.402 37.3667 126.202 37.3C127.002 37.2333 127.702 37.1333 128.302 37C128.636 37 128.869 37 129.002 37C129.202 37 129.469 37.0667 129.802 37.2C130.002 37.3333 130.169 37.5333 130.302 37.8C130.502 38 130.569 38.2333 130.502 38.5C130.502 38.6333 130.369 38.8 130.102 39C129.836 39.2 129.636 39.3 129.502 39.3C128.836 39.4333 128.202 39.5667 127.602 39.7C127.069 39.7667 126.469 39.8333 125.802 39.9C124.536 40.1667 123.269 40.4 122.002 40.6C120.802 40.7333 119.602 40.9333 118.402 41.2C117.669 41.3333 117.069 41.6667 116.602 42.2C115.202 43.5333 114.036 44.6333 113.102 45.5C112.236 46.3667 111.169 47 109.902 47.4C108.969 47.6667 108.102 47.7333 107.302 47.6C106.502 47.4 105.902 46.9333 105.502 46.2C105.102 45.4667 105.036 44.4667 105.302 43.2C105.569 41.8667 106.302 40.2333 107.502 38.3C108.369 36.9667 109.369 35.7667 110.502 34.7C111.702 33.5667 112.969 32.4667 114.302 31.4C114.836 31 115.402 30.6667 116.002 30.4C116.602 30.0667 117.302 29.8667 118.102 29.8C119.236 29.6667 120.102 29.8667 120.702 30.4C121.302 30.8667 121.569 31.6667 121.502 32.8C121.502 33.3333 121.402 33.9 121.202 34.5C121.002 35.0333 120.836 35.6 120.702 36.2C120.569 36.5333 120.402 36.8667 120.202 37.2C120.069 37.4667 119.902 37.8333 119.702 38.3ZM110.102 38.8C108.969 40.2 108.402 41.4 108.402 42.4C108.402 43.3333 108.702 43.9667 109.302 44.3C109.969 44.5667 110.736 44.5 111.602 44.1C112.536 43.6333 113.336 42.7 114.002 41.3C112.936 41.3 112.069 41.1333 111.402 40.8C110.736 40.4 110.302 39.7333 110.102 38.8ZM118.602 32.2C116.269 32.9333 114.536 34.3 113.402 36.3C113.269 36.5667 113.202 36.8333 113.202 37.1C113.202 37.3667 113.369 37.6333 113.702 37.9C114.102 38.3 114.636 38.4667 115.302 38.4C116.036 38.3333 116.536 38.0333 116.802 37.5C117.202 36.9667 117.536 36.3667 117.802 35.7C118.136 35.0333 118.402 34.4 118.602 33.8C118.736 33.6667 118.769 33.4667 118.702 33.2C118.636 32.9333 118.602 32.6 118.602 32.2ZM146.403 39.5C145.403 40.3667 144.17 41.0667 142.703 41.6C141.303 42.1333 139.936 42.4333 138.603 42.5C137.336 42.5667 136.27 42.3 135.403 41.7C134.536 41.1 134.136 40.0667 134.203 38.6C134.203 38.4667 134.17 38.3667 134.103 38.3C134.103 38.1667 134.07 37.9667 134.003 37.7C133.47 38.0333 133.003 38.3667 132.603 38.7C132.203 39.0333 131.736 39.3667 131.203 39.7C130.47 40.1667 129.77 40.6667 129.103 41.2C128.436 41.6667 127.703 42.0667 126.903 42.4C126.236 42.7333 125.57 42.9 124.903 42.9C123.57 42.9 122.903 42.2333 122.903 40.9C122.903 40.3 123.003 39.7333 123.203 39.2C123.67 38.0667 124.27 37.0333 125.003 36.1C125.736 35.1667 126.47 34.2333 127.203 33.3C127.936 32.7 128.57 32.5667 129.103 32.9C129.636 33.4333 129.636 34.1 129.103 34.9C128.77 35.4333 128.403 35.9333 128.003 36.4C127.67 36.8667 127.303 37.3667 126.903 37.9C126.703 38.2333 126.37 38.8 125.903 39.6C126.303 39.4 126.603 39.3 126.803 39.3C127.07 39.2333 127.303 39.1333 127.503 39C128.636 38.0667 129.77 37.1667 130.903 36.3C132.103 35.3667 133.27 34.4333 134.403 33.5C134.67 33.3667 134.903 33.1667 135.103 32.9C135.37 32.6333 135.67 32.4333 136.003 32.3C136.203 32.1667 136.47 32.1 136.803 32.1C137.203 32.1 137.536 32.1667 137.803 32.3C138.603 32.6333 138.77 33.2667 138.303 34.2C138.17 34.6667 138.003 35.1333 137.803 35.6C137.67 36 137.536 36.4 137.403 36.8C137.07 38.0667 137.036 38.9333 137.303 39.4C137.636 39.8667 138.136 40.1 138.803 40.1C139.47 40.1 140.203 39.9667 141.003 39.7C141.803 39.4333 142.57 39.2 143.303 39C143.636 38.9333 144.07 38.8 144.603 38.6C145.203 38.3333 145.703 38.1667 146.103 38.1C146.57 38.0333 146.87 38.1 147.003 38.3C147.136 38.4333 146.936 38.8333 146.403 39.5ZM150.076 37.9C150.676 37.3 151.109 36.6 151.376 35.8C151.709 34.9333 151.809 34.2 151.676 33.6C151.542 32.9333 151.176 32.5 150.576 32.3C149.976 32.0333 149.109 32.2333 147.976 32.9C147.442 33.2333 146.876 33.6667 146.276 34.2C145.676 34.7333 145.176 35.3333 144.776 36C144.376 36.6 144.142 37.2333 144.076 37.9C144.076 38.5667 144.376 39.1333 144.976 39.6C145.642 40.2667 146.342 40.9667 147.076 41.7C147.809 42.3667 148.542 43 149.276 43.6C151.209 42.7333 153.109 41.9667 154.976 41.3C156.842 40.6333 158.742 39.7333 160.676 38.6C161.476 38.1333 162.209 37.8667 162.876 37.8C163.209 37.8 163.542 37.8667 163.876 38C164.209 38.0667 164.442 38.3333 164.576 38.8C164.376 39.4 164.042 39.8333 163.576 40.1C163.109 40.3 162.642 40.4667 162.176 40.6C161.242 41 160.142 41.4333 158.876 41.9C157.609 42.3 156.342 42.7667 155.076 43.3C153.809 43.7667 152.642 44.3 151.576 44.9C150.509 45.5 149.742 46.1333 149.276 46.8C148.742 47.8667 147.842 48.8333 146.576 49.7C145.176 50.6333 143.709 51.4333 142.176 52.1C140.709 52.7 139.109 53.1 137.376 53.3C136.509 53.3667 135.576 53.3 134.576 53.1C134.309 53.0333 134.109 52.8667 133.976 52.6C133.776 52.3333 133.642 52.0333 133.576 51.7C133.442 51.3667 133.509 51.1333 133.776 51C134.042 50.8667 134.309 50.7 134.576 50.5C136.176 49.1667 137.909 48 139.776 47C141.576 45.9333 143.642 45.0333 145.976 44.3C145.776 44.1 145.542 43.9333 145.276 43.8C145.076 43.6 144.876 43.3667 144.676 43.1C144.209 42.7 143.742 42.3 143.276 41.9C142.876 41.5 142.509 41.0667 142.176 40.6C141.442 39.6667 141.076 38.7 141.076 37.7C141.076 36.6333 141.476 35.6333 142.276 34.7C143.409 33.5 144.642 32.5 145.976 31.7C147.376 30.9 148.909 30.4 150.576 30.2C152.642 29.8667 153.976 30.4333 154.576 31.9C154.976 32.6333 155.076 33.3667 154.876 34.1C154.676 34.8333 154.309 35.5 153.776 36.1C153.242 36.7667 152.742 37.2667 152.276 37.6C151.809 37.8667 151.209 38.1667 150.476 38.5C150.409 38.3667 150.342 38.2667 150.276 38.2C150.209 38.1333 150.142 38.0333 150.076 37.9ZM138.176 50.2C137.709 51 137.709 51.4333 138.176 51.5C138.642 51.5667 139.342 51.4 140.276 51C141.142 50.6 142.142 50.0333 143.276 49.3C144.409 48.5 145.442 47.6667 146.376 46.8C145.109 46.8 143.642 47.1 141.976 47.7C140.309 48.2333 139.042 49.0667 138.176 50.2ZM178.951 38.3C179.284 38.1667 179.584 38.0667 179.851 38C180.117 37.8667 180.417 37.7333 180.751 37.6C181.551 37.4667 182.117 37.7 182.451 38.3C182.784 39.1 182.584 39.6667 181.851 40C179.384 41.2667 176.817 42.2333 174.151 42.9C171.484 43.5667 168.817 43.9667 166.151 44.1C165.217 44.1667 164.217 44.1667 163.151 44.1C162.151 44.0333 161.217 43.8 160.351 43.4C159.551 43 158.951 42.4333 158.551 41.7C158.151 40.9 158.117 39.8333 158.451 38.5C158.917 37.1667 159.351 36.2333 159.751 35.7C160.151 35.1667 160.917 34.6 162.051 34C163.251 33.4667 164.484 33.1 165.751 32.9C167.084 32.6333 168.351 32.5 169.551 32.5C170.684 32.6333 171.351 33.2 171.551 34.2C171.751 35.2667 171.384 36.0667 170.451 36.6C169.784 37 169.084 37.3667 168.351 37.7C167.617 37.9667 166.851 38.2333 166.051 38.5C165.451 38.6333 164.817 38.7333 164.151 38.8C163.484 38.8667 162.817 38.9 162.151 38.9C161.151 38.9 160.584 39.1333 160.451 39.6C160.384 40 160.584 40.4333 161.051 40.9C161.717 41.5667 162.884 41.9333 164.551 42C166.217 42 167.984 41.8667 169.851 41.6C171.784 41.2667 173.584 40.8 175.251 40.2C176.984 39.6 178.217 38.9667 178.951 38.3ZM168.851 35.4C169.317 34.8 169.317 34.5 168.851 34.5C168.451 34.4333 167.817 34.5333 166.951 34.8C166.151 35.0667 165.217 35.4667 164.151 36C163.084 36.5333 162.151 37.0667 161.351 37.6C162.351 37.7333 163.651 37.6 165.251 37.2C166.851 36.7333 168.051 36.1333 168.851 35.4ZM207.761 70.6C208.494 70.9333 209.161 71.1 209.761 71.1C210.428 71.0333 211.094 70.9333 211.761 70.8C213.494 70.6 215.261 70.3667 217.061 70.1C218.861 69.7667 220.661 69.4333 222.461 69.1C226.994 68.4333 231.461 67.7667 235.861 67.1C240.261 66.3667 244.728 65.6667 249.261 65C252.594 64.4667 255.928 63.9333 259.261 63.4C262.594 62.8667 265.928 62.3333 269.261 61.8C271.794 61.4667 274.328 61.2 276.861 61C279.461 60.8 282.028 60.8667 284.561 61.2C284.028 61.4667 283.628 61.6 283.361 61.6C279.694 62.8667 275.994 63.8 272.261 64.4C268.528 65 264.761 65.5667 260.961 66.1C256.761 66.8333 252.594 67.5 248.461 68.1C244.328 68.7 240.161 69.3333 235.961 70C232.094 70.6667 228.261 71.3 224.461 71.9C220.661 72.5 216.861 73.0667 213.061 73.6C211.394 73.8667 209.628 73.9 207.761 73.7C206.494 73.6333 205.628 73.2333 205.161 72.5C204.694 71.7667 204.661 70.8333 205.061 69.7C205.794 67.8333 206.661 66.1 207.661 64.5C209.594 61.1 211.528 57.7333 213.461 54.4C215.461 51.0667 217.461 47.7 219.461 44.3C219.661 43.9 219.861 43.5 220.061 43.1C220.328 42.7 220.594 42.1667 220.861 41.5C220.394 41.6333 220.028 41.7 219.761 41.7C219.494 41.6333 219.194 41.6667 218.861 41.8C215.794 42.3333 212.761 42.8667 209.761 43.4C206.761 43.8667 203.728 44.3667 200.661 44.9C200.128 44.9667 199.594 45.1 199.061 45.3C198.528 45.4333 197.994 45.5667 197.461 45.7C196.928 45.8333 196.561 45.9 196.361 45.9C196.161 45.8333 195.961 45.7667 195.761 45.7C195.561 45.5667 195.394 45.4 195.261 45.2C195.194 45.0667 195.228 44.9 195.361 44.7C195.428 44.4333 195.528 44.2667 195.661 44.2C196.394 43.6 197.161 43.2 197.961 43C199.361 42.6 200.761 42.2333 202.161 41.9C203.561 41.5 204.994 41.1667 206.461 40.9C208.994 40.5 211.461 40.1333 213.861 39.8C216.328 39.4 218.828 39.0333 221.361 38.7C221.894 38.6333 222.294 38.5 222.561 38.3C222.828 38.1 223.128 37.8 223.461 37.4C225.194 34.3333 226.961 31.3333 228.761 28.4C230.561 25.4 232.361 22.4 234.161 19.4C235.228 17.5333 236.294 15.7333 237.361 14C238.428 12.2667 239.528 10.5333 240.661 8.79999C240.928 8.33333 241.194 7.86666 241.461 7.39999C241.794 6.93333 242.161 6.36666 242.561 5.7C241.228 5.83333 240.028 5.93333 238.961 5.99999C237.894 6.06666 236.828 6.16666 235.761 6.3C233.428 6.63333 231.094 7 228.761 7.39999C226.494 7.73333 224.194 8.06667 221.861 8.4C221.194 8.46666 220.594 8.46666 220.061 8.4C219.861 8.33333 219.661 8.2 219.461 8C219.328 7.73333 219.194 7.5 219.061 7.3C219.061 7.16666 219.161 7 219.361 6.8C219.561 6.53333 219.728 6.33333 219.861 6.2C220.128 6.13333 220.361 6.06666 220.561 5.99999C220.828 5.86666 221.094 5.76666 221.361 5.7C224.561 5.03333 227.728 4.46666 230.861 4C233.994 3.53333 237.161 3.16667 240.361 2.9C240.894 2.83333 241.428 2.79999 241.961 2.79999C242.494 2.79999 243.028 2.73333 243.561 2.6C244.028 2.46666 244.428 2.3 244.761 2.1C245.161 1.83333 245.594 1.56666 246.061 1.3C246.394 1.96666 246.828 2.33333 247.361 2.4C247.961 2.46666 248.561 2.46666 249.161 2.4C251.161 2.26666 253.161 2.16666 255.161 2.1C257.228 2.03333 259.294 1.96667 261.361 1.9C266.361 1.9 271.361 1.86666 276.361 1.79999C281.361 1.73333 286.361 1.73333 291.361 1.79999C294.028 1.86666 296.694 1.93333 299.361 2C302.094 2.06666 304.761 2.4 307.361 3C308.628 3.26666 309.861 3.63333 311.061 4.09999C312.261 4.56666 313.428 5 314.561 5.4C314.694 5.4 314.828 5.63333 314.961 6.1H311.161C302.428 5.3 293.761 4.9 285.161 4.9C276.628 4.9 267.994 4.9 259.261 4.9C257.261 5.03333 255.228 5.13333 253.161 5.2C251.094 5.26666 249.061 5.33333 247.061 5.4C246.461 5.4 245.994 5.5 245.661 5.7C245.328 5.9 244.994 6.23333 244.661 6.7C241.861 11.5667 239.061 16.3667 236.261 21.1C233.461 25.8333 230.661 30.6333 227.861 35.5C227.594 35.8333 227.361 36.2 227.161 36.6C227.028 36.9333 226.794 37.3667 226.461 37.9H227.961C231.361 37.7 234.728 37.5 238.061 37.3C241.461 37.0333 244.861 36.7667 248.261 36.5C253.061 36.1 257.994 36.3667 263.061 37.3C263.461 37.4333 263.761 37.6333 263.961 37.9C262.161 38.1 260.328 38.3333 258.461 38.6C256.594 38.8 254.761 39 252.961 39.2C249.961 39.4 246.961 39.6 243.961 39.8C241.028 40 238.094 40.1667 235.161 40.3C233.628 40.4333 232.094 40.5667 230.561 40.7C229.094 40.8333 227.594 40.9333 226.061 41C225.061 41.0667 224.294 41.5333 223.761 42.4C221.294 46.8 218.794 51.1333 216.261 55.4C213.794 59.6 211.328 63.8667 208.861 68.2C208.661 68.5333 208.461 68.9 208.261 69.3C208.128 69.7 207.961 70.1333 207.761 70.6ZM298.608 35.1C300.741 33.1 302.808 31 304.808 28.8C306.808 26.5333 308.541 23.9 310.008 20.9C309.341 21.1667 308.341 21.9333 307.008 23.2C305.741 24.4667 304.408 25.9667 303.008 27.7C301.608 29.3667 300.241 31.1 298.908 32.9C297.641 34.7 296.708 36.2 296.108 37.4C297.708 37.6667 299.441 37.8333 301.308 37.9C303.241 37.9667 305.141 37.9667 307.008 37.9C308.874 37.8333 310.674 37.7 312.408 37.5C314.141 37.3 315.708 37.1 317.108 36.9C317.508 36.8333 317.841 36.9 318.108 37.1C318.441 37.3 318.641 37.8 318.708 38.6C318.774 39.0667 318.641 39.3667 318.308 39.5C317.974 39.6333 317.641 39.7 317.308 39.7C315.174 39.5667 313.174 39.5333 311.308 39.6C309.441 39.6667 307.641 39.9 305.908 40.3C306.108 42.4333 305.841 44.4 305.108 46.2C304.374 48 303.541 49.5667 302.608 50.9C300.474 53.9667 298.108 56.7667 295.508 59.3C292.974 61.7667 290.208 63.9333 287.208 65.8C286.674 66.0667 286.141 66.3 285.608 66.5C285.008 66.7 284.374 66.9 283.708 67.1C282.508 67.3 281.541 66.9667 280.808 66.1C280.074 65.1667 279.808 63.9667 280.008 62.5C280.141 61.9667 280.308 61.4333 280.508 60.9C280.641 60.3667 280.841 59.8333 281.108 59.3C282.641 56.1 284.208 52.9 285.808 49.7C287.341 46.4333 288.708 43.5333 289.908 41C289.308 41 288.808 40.8 288.408 40.4C288.008 40 287.774 39.5667 287.708 39.1C287.641 38.5667 287.808 38.1 288.208 37.7C288.541 37.3 289.108 37.0667 289.908 37C290.508 36.9333 290.974 36.9333 291.308 37C291.641 37 291.941 37 292.208 37C292.474 36.9333 292.708 36.8 292.908 36.6C293.108 36.4 293.374 36.0333 293.708 35.5C295.641 32.3 297.641 29.4333 299.708 26.9C301.841 24.3667 304.174 21.8333 306.708 19.3C307.041 18.9667 307.374 18.6333 307.708 18.3C308.108 17.9667 308.508 17.6667 308.908 17.4C309.174 17.2 309.408 17.0333 309.608 16.9C309.808 16.7667 310.041 16.6333 310.308 16.5C311.108 16.2333 311.808 16.4333 312.408 17.1C313.074 17.7 313.341 18.5333 313.208 19.6C313.074 20.2667 312.941 20.9 312.808 21.5C312.674 22.1 312.441 22.6667 312.108 23.2C310.641 25.6667 309.041 27.9667 307.308 30.1C305.641 32.1667 303.741 33.9667 301.608 35.5C301.208 35.8333 300.774 36.0667 300.308 36.2C299.841 36.2667 299.274 35.9 298.608 35.1ZM303.308 40.4C302.441 40.6 301.474 40.7 300.408 40.7C299.341 40.6333 298.308 40.6 297.308 40.6C296.308 40.5333 295.408 40.5667 294.608 40.7C293.808 40.7667 293.241 41.0333 292.908 41.5C292.641 41.8333 292.308 42.3667 291.908 43.1C291.508 43.8333 291.108 44.6333 290.708 45.5C290.308 46.3 289.941 47.0667 289.608 47.8C289.274 48.5333 289.008 49.1 288.808 49.5C287.874 51.5667 286.941 53.6333 286.008 55.7C285.074 57.7667 284.108 59.8333 283.108 61.9C282.974 62.1 282.908 62.3667 282.908 62.7C282.908 62.9667 282.874 63.2 282.808 63.4C282.808 63.5333 282.908 63.7 283.108 63.9C283.574 63.7 284.074 63.5333 284.608 63.4C285.074 63.2667 285.541 63.1 286.008 62.9C289.208 60.9 292.108 58.5 294.708 55.7C297.374 52.9 299.808 49.7667 302.008 46.3C302.274 45.7667 302.541 44.9 302.808 43.7C303.141 42.5 303.308 41.4 303.308 40.4ZM322.721 35.1C324.854 33.1 326.921 31 328.921 28.8C330.921 26.5333 332.654 23.9 334.121 20.9C333.454 21.1667 332.454 21.9333 331.121 23.2C329.854 24.4667 328.521 25.9667 327.121 27.7C325.721 29.3667 324.354 31.1 323.021 32.9C321.754 34.7 320.821 36.2 320.221 37.4C321.821 37.6667 323.554 37.8333 325.421 37.9C327.354 37.9667 329.254 37.9667 331.121 37.9C332.988 37.8333 334.788 37.7 336.521 37.5C338.254 37.3 339.821 37.1 341.221 36.9C341.621 36.8333 341.954 36.9 342.221 37.1C342.554 37.3 342.754 37.8 342.821 38.6C342.888 39.0667 342.754 39.3667 342.421 39.5C342.088 39.6333 341.754 39.7 341.421 39.7C339.288 39.5667 337.288 39.5333 335.421 39.6C333.554 39.6667 331.754 39.9 330.021 40.3C330.221 42.4333 329.954 44.4 329.221 46.2C328.488 48 327.654 49.5667 326.721 50.9C324.588 53.9667 322.221 56.7667 319.621 59.3C317.088 61.7667 314.321 63.9333 311.321 65.8C310.788 66.0667 310.254 66.3 309.721 66.5C309.121 66.7 308.488 66.9 307.821 67.1C306.621 67.3 305.654 66.9667 304.921 66.1C304.188 65.1667 303.921 63.9667 304.121 62.5C304.254 61.9667 304.421 61.4333 304.621 60.9C304.754 60.3667 304.954 59.8333 305.221 59.3C306.754 56.1 308.321 52.9 309.921 49.7C311.454 46.4333 312.821 43.5333 314.021 41C313.421 41 312.921 40.8 312.521 40.4C312.121 40 311.888 39.5667 311.821 39.1C311.754 38.5667 311.921 38.1 312.321 37.7C312.654 37.3 313.221 37.0667 314.021 37C314.621 36.9333 315.088 36.9333 315.421 37C315.754 37 316.054 37 316.321 37C316.588 36.9333 316.821 36.8 317.021 36.6C317.221 36.4 317.488 36.0333 317.821 35.5C319.754 32.3 321.754 29.4333 323.821 26.9C325.954 24.3667 328.288 21.8333 330.821 19.3C331.154 18.9667 331.488 18.6333 331.821 18.3C332.221 17.9667 332.621 17.6667 333.021 17.4C333.288 17.2 333.521 17.0333 333.721 16.9C333.921 16.7667 334.154 16.6333 334.421 16.5C335.221 16.2333 335.921 16.4333 336.521 17.1C337.188 17.7 337.454 18.5333 337.321 19.6C337.188 20.2667 337.054 20.9 336.921 21.5C336.788 22.1 336.554 22.6667 336.221 23.2C334.754 25.6667 333.154 27.9667 331.421 30.1C329.754 32.1667 327.854 33.9667 325.721 35.5C325.321 35.8333 324.888 36.0667 324.421 36.2C323.954 36.2667 323.388 35.9 322.721 35.1ZM327.421 40.4C326.554 40.6 325.588 40.7 324.521 40.7C323.454 40.6333 322.421 40.6 321.421 40.6C320.421 40.5333 319.521 40.5667 318.721 40.7C317.921 40.7667 317.354 41.0333 317.021 41.5C316.754 41.8333 316.421 42.3667 316.021 43.1C315.621 43.8333 315.221 44.6333 314.821 45.5C314.421 46.3 314.054 47.0667 313.721 47.8C313.388 48.5333 313.121 49.1 312.921 49.5C311.988 51.5667 311.054 53.6333 310.121 55.7C309.188 57.7667 308.221 59.8333 307.221 61.9C307.088 62.1 307.021 62.3667 307.021 62.7C307.021 62.9667 306.988 63.2 306.921 63.4C306.921 63.5333 307.021 63.7 307.221 63.9C307.688 63.7 308.188 63.5333 308.721 63.4C309.188 63.2667 309.654 63.1 310.121 62.9C313.321 60.9 316.221 58.5 318.821 55.7C321.488 52.9 323.921 49.7667 326.121 46.3C326.388 45.7667 326.654 44.9 326.921 43.7C327.254 42.5 327.421 41.4 327.421 40.4ZM357.134 38.3C357.468 38.1667 357.768 38.0667 358.034 38C358.301 37.8667 358.601 37.7333 358.934 37.6C359.734 37.4667 360.301 37.7 360.634 38.3C360.968 39.1 360.768 39.6667 360.034 40C357.568 41.2667 355.001 42.2333 352.334 42.9C349.668 43.5667 347.001 43.9667 344.334 44.1C343.401 44.1667 342.401 44.1667 341.334 44.1C340.334 44.0333 339.401 43.8 338.534 43.4C337.734 43 337.134 42.4333 336.734 41.7C336.334 40.9 336.301 39.8333 336.634 38.5C337.101 37.1667 337.534 36.2333 337.934 35.7C338.334 35.1667 339.101 34.6 340.234 34C341.434 33.4667 342.668 33.1 343.934 32.9C345.268 32.6333 346.534 32.5 347.734 32.5C348.868 32.6333 349.534 33.2 349.734 34.2C349.934 35.2667 349.568 36.0667 348.634 36.6C347.968 37 347.268 37.3667 346.534 37.7C345.801 37.9667 345.034 38.2333 344.234 38.5C343.634 38.6333 343.001 38.7333 342.334 38.8C341.668 38.8667 341.001 38.9 340.334 38.9C339.334 38.9 338.768 39.1333 338.634 39.6C338.568 40 338.768 40.4333 339.234 40.9C339.901 41.5667 341.068 41.9333 342.734 42C344.401 42 346.168 41.8667 348.034 41.6C349.968 41.2667 351.768 40.8 353.434 40.2C355.168 39.6 356.401 38.9667 357.134 38.3ZM347.034 35.4C347.501 34.8 347.501 34.5 347.034 34.5C346.634 34.4333 346.001 34.5333 345.134 34.8C344.334 35.0667 343.401 35.4667 342.334 36C341.268 36.5333 340.334 37.0667 339.534 37.6C340.534 37.7333 341.834 37.6 343.434 37.2C345.034 36.7333 346.234 36.1333 347.034 35.4ZM375.521 40.5C375.254 40.7 374.788 40.9333 374.121 41.2C371.921 42.1333 369.688 42.9667 367.421 43.7C365.221 44.4333 362.921 44.8667 360.521 45C359.988 45.1333 359.388 45.2 358.721 45.2C358.121 45.1333 357.521 45.0333 356.921 44.9C355.388 44.5 354.321 43.7333 353.721 42.6C353.054 41.4 353.088 40 353.821 38.4C353.954 38.2 354.054 38 354.121 37.8C354.188 37.5333 354.288 37.3 354.421 37.1C355.688 35.4333 357.088 34.0667 358.621 33C360.154 31.8667 361.954 31.0667 364.021 30.6C364.621 30.4 365.254 30.3333 365.921 30.4C366.588 30.4 367.221 30.5 367.821 30.7C368.821 31.0333 369.454 31.7333 369.721 32.8C370.054 33.8 369.854 34.7 369.121 35.5C368.988 35.6333 368.821 35.7667 368.621 35.9C368.421 35.9667 368.188 36 367.921 36C367.788 36 367.688 35.9 367.621 35.7C367.554 35.4333 367.454 35.2333 367.321 35.1C367.188 34.0333 366.954 33.3667 366.621 33.1C366.288 32.8333 365.621 32.8333 364.621 33.1C363.021 33.5667 361.588 34.2667 360.321 35.2C359.054 36.1333 357.954 37.2 357.021 38.4C356.754 38.7333 356.521 39.1667 356.321 39.7C355.921 41.0333 356.354 41.8333 357.621 42.1C358.554 42.3667 359.588 42.4 360.721 42.2C362.521 42.0667 364.254 41.7667 365.921 41.3C367.588 40.8333 369.188 40.2333 370.721 39.5C371.388 39.2333 372.021 38.9667 372.621 38.7C373.221 38.4333 373.854 38.2333 374.521 38.1C376.188 37.7 377.121 37.8 377.321 38.4C377.521 38.9333 376.921 39.6333 375.521 40.5ZM371.884 16.5C370.351 16.7 369.418 16.5667 369.084 16.1C368.684 15.6333 368.551 15.3 368.684 15.1C368.884 14.7667 369.251 14.4667 369.784 14.2C370.251 13.8667 371.184 13.7667 372.584 13.9C374.784 14.1 377.051 14.2 379.384 14.2C381.784 14.2 384.151 14.0333 386.484 13.7C386.684 13.5667 386.851 13.4 386.984 13.2C387.918 11.9333 388.618 10.9333 389.084 10.2C389.551 9.46666 389.984 8.8 390.384 8.2C390.784 7.6 391.218 6.96666 391.684 6.3C392.218 5.56666 392.951 4.56667 393.884 3.3C394.084 2.9 394.384 2.56666 394.784 2.29999C395.251 1.96666 395.684 1.96666 396.084 2.29999C396.218 2.43333 396.318 2.66666 396.384 3C396.451 3.33333 396.484 3.63333 396.484 3.9C396.418 4.16666 396.284 4.43333 396.084 4.7C395.884 4.96666 395.718 5.19999 395.584 5.4C394.851 6.4 394.318 7.13333 393.984 7.6C393.718 8.06666 393.451 8.53333 393.184 9C392.918 9.46666 392.584 10.0333 392.184 10.7C391.784 11.3667 391.084 12.4 390.084 13.8C391.484 14.0667 393.284 14.2667 395.484 14.4C397.751 14.4667 400.184 14.5 402.784 14.5C405.384 14.4333 408.051 14.3333 410.784 14.2C413.584 14 416.251 13.7667 418.784 13.5C420.384 13.3667 421.884 13.2333 423.284 13.1C424.684 12.9667 425.851 12.9333 426.784 13C428.451 13.1333 429.218 13.4667 429.084 14C428.951 14.5333 428.184 14.9667 426.784 15.3C425.584 15.5 423.918 15.6667 421.784 15.8C419.718 15.9333 417.451 16.0667 414.984 16.2C412.518 16.2667 409.918 16.3333 407.184 16.4C404.518 16.4 401.951 16.4 399.484 16.4C397.084 16.3333 394.884 16.3 392.884 16.3C390.951 16.3 389.451 16.2667 388.384 16.2C387.251 17.6667 386.051 19.2667 384.784 21C383.584 22.7333 382.384 24.5 381.184 26.3C380.051 28.1 378.984 29.8667 377.984 31.6C376.984 33.2667 376.118 34.8 375.384 36.2C374.784 37.4 374.184 38.7333 373.584 40.2C372.984 41.6 372.584 42.8667 372.384 44C372.251 45.0667 372.451 45.8667 372.984 46.4C373.518 46.8667 374.584 46.7667 376.184 46.1C376.918 45.8333 377.751 45.4333 378.684 44.9C379.618 44.3667 380.584 43.8 381.584 43.2C382.584 42.5333 383.551 41.8667 384.484 41.2C385.418 40.4667 386.284 39.7667 387.084 39.1C387.418 38.9 387.684 38.7 387.884 38.5C388.084 38.2333 388.351 38.0333 388.684 37.9C389.084 37.6333 389.418 37.4667 389.684 37.4C390.018 37.2667 390.351 37.4 390.684 37.8C390.951 38.2 390.984 38.6 390.784 39C390.651 39.3333 390.418 39.6667 390.084 40C389.684 40.4 388.984 40.9667 387.984 41.7C386.984 42.4333 385.818 43.2 384.484 44C383.218 44.8 381.851 45.6 380.384 46.4C378.984 47.1333 377.651 47.7333 376.384 48.2C374.118 49 372.551 49.1 371.684 48.5C370.751 47.8333 370.251 46.8667 370.184 45.6C370.051 44.3333 370.218 42.9333 370.684 41.4C371.151 39.8667 371.618 38.5333 372.084 37.4C372.884 35.5333 373.818 33.6667 374.884 31.8C375.951 29.9333 377.051 28.1 378.184 26.3C379.384 24.5 380.551 22.7667 381.684 21.1C382.884 19.3667 383.951 17.7667 384.884 16.3C382.684 16.3667 380.418 16.4333 378.084 16.5C375.818 16.5 373.751 16.5 371.884 16.5Z" fill="black"/>
</svg>
