<svg width="458" height="83" viewBox="0 0 458 83" fill="none" xmlns="http://www.w3.org/2000/svg">
<path d="M51.2 17.5C52.4667 17.3667 53.6333 17.2667 54.7 17.2C55.7667 17.1333 56.8667 17.1 58 17.1C61.2 16.9 64.3667 16.8333 67.5 16.9C70.6333 16.9667 73.8 17.3667 77 18.1C78.6 18.5 80.2333 19.0667 81.9 19.8C84.0333 20.8 85.5 22.1667 86.3 23.9C87.1 25.6333 87.1333 27.5 86.4 29.5C86.0667 30.6333 85.5667 31.6667 84.9 32.6C84.2333 33.4667 83.5333 34.3 82.8 35.1C81.2 36.7 79.4667 38.1667 77.6 39.5C75.8 40.7667 73.9333 41.9667 72 43.1C62.6667 48.7 52.3667 52.5 41.1 54.5C38.7 54.9667 36.2667 55.3667 33.8 55.7C31.4 55.9667 28.8667 55.9667 26.2 55.7C25.3333 55.6333 24.6667 55.9667 24.2 56.7C22.8 58.5 21.4 60.3 20 62.1C18.6 63.8333 17.2 65.6 15.8 67.4C13.8667 70 11.8 72.4 9.6 74.6C7.4 76.8 5.03333 78.9 2.5 80.9C2.16667 81.2333 1.8 81.5333 1.4 81.8C1.06667 82.0667 0.6 82.3333 7.07805e-08 82.6C0.133333 82.4 0.233333 82.2333 0.3 82.1C0.433333 81.9 0.566667 81.7 0.7 81.5C3.03333 78.5 5.33333 75.5333 7.6 72.6C9.93333 69.6667 12.2333 66.7 14.5 63.7C15.7 62.2333 16.8667 60.7667 18 59.3C19.1333 57.7667 20.3667 56.1667 21.7 54.5C21.1667 54.4333 20.8 54.2667 20.6 54C19.4667 53.1333 18.8333 52.2 18.7 51.2C18.6333 50.2 19.0667 49.2333 20 48.3C20.9333 47.5667 21.9 46.9333 22.9 46.4C23.9667 45.8667 25.1333 45.5333 26.4 45.4C28.3333 45.1333 29.7333 44.2 30.6 42.6C32.9333 39.2 35.2667 35.8 37.6 32.4C40 29 42.3667 25.5667 44.7 22.1C44.7667 21.9667 44.8667 21.8 45 21.6C45.1333 21.4 45.2667 21.1 45.4 20.7C44.4667 20.9 43.6 21.0333 42.8 21.1C42 21.1667 41.2667 21.2667 40.6 21.4C34.2667 22.3333 28.0333 23.4333 21.9 24.7C15.8333 25.9667 9.7 27.3333 3.5 28.8C3.16667 28.9333 2.8 29 2.4 29C2 29 1.63333 29 1.3 29C0.966667 28.4667 0.866667 28.1 1 27.9C1.2 27.7 1.46667 27.5 1.8 27.3C2.4 27.1 2.96667 26.9 3.5 26.7C4.1 26.4333 4.76667 26.2333 5.5 26.1C9.5 25.1667 13.4667 24.2667 17.4 23.4C21.4 22.4667 25.4333 21.6 29.5 20.8C32.3 20.2667 35.1 19.8 37.9 19.4C40.7 18.9333 43.5 18.4667 46.3 18C46.8333 17.9333 47.2 17.7667 47.4 17.5C47.6 17.2333 47.8 16.9333 48 16.6C49.3333 14.4667 50.6333 12.3333 51.9 10.2C53.1667 8.06666 54.4333 5.96666 55.7 3.9C56.0333 3.5 56.3 3.1 56.5 2.7C56.7667 2.23333 57.0333 1.76666 57.3 1.3C57.5 1.16666 57.6667 1.03333 57.8 0.899996C57.9333 0.699995 58.1333 0.566661 58.4 0.499995C58.8 0.366664 59.1333 0.399997 59.4 0.599994C59.8 0.866661 59.9333 1.2 59.8 1.6C59.8 1.93333 59.7333 2.23333 59.6 2.49999C59.4667 2.76666 59.3333 2.99999 59.2 3.2C58 5.46666 56.7333 7.7 55.4 9.9C54.1333 12.1 52.8333 14.3333 51.5 16.6C51.5 16.7333 51.4 17.0333 51.2 17.5ZM27.4 52.6C28.7333 52.7333 29.9333 52.8 31 52.8C32.0667 52.7333 33.1667 52.6333 34.3 52.5C38.2333 51.9667 42.1 51.2333 45.9 50.3C49.7 49.3667 53.4 48.2 57 46.8C60.8 45.2667 64.4 43.6 67.8 41.8C71.2667 39.9333 74.6 37.7667 77.8 35.3C78.9333 34.4333 79.9667 33.5 80.9 32.5C81.8333 31.5 82.6 30.3333 83.2 29C84.8 25.6 83.5667 23.1667 79.5 21.7C79.3667 21.6333 79.2 21.6 79 21.6C78.8667 21.5333 78.7333 21.4667 78.6 21.4C74.8 20.2667 71.1333 19.7 67.6 19.7C65.0667 19.7 62.5 19.7667 59.9 19.9C57.3 19.9667 54.6667 20 52 20C50.2667 20 48.9667 20.8 48.1 22.4C45.5667 26.6 42.9667 30.7333 40.3 34.8C37.6333 38.8 34.8 42.8 31.8 46.8C31.0667 47.6667 30.3333 48.6 29.6 49.6C28.8667 50.5333 28.1333 51.5333 27.4 52.6ZM25.6 48.7C24.8667 49.0333 24.1667 49.4 23.5 49.8C22.9 50.1333 22.4 50.6667 22 51.4C22.2667 51.5333 22.5 51.6667 22.7 51.8C22.9 51.9333 23.1667 52.1 23.5 52.3C23.8333 51.7 24.2 51.1333 24.6 50.6C25.0667 50.0667 25.5 49.5333 25.9 49L25.6 48.7ZM106.077 47.6C105.344 48.3333 104.211 49.1 102.677 49.9C101.211 50.7 99.7107 51.2667 98.1773 51.6C96.7107 51.9333 95.4107 51.9 94.2773 51.5C93.144 51.1 92.5773 50.0333 92.5773 48.3C92.5773 47.7667 92.6107 47.2333 92.6773 46.7C92.744 46.1 92.844 45.4667 92.9773 44.8C91.244 45.8667 89.544 46.9333 87.8773 48C86.2773 49 84.6107 49.9667 82.8773 50.9C82.4773 51.2333 82.0107 51.4333 81.4773 51.5C81.0107 51.5667 80.544 51.6333 80.0773 51.7C78.6107 51.9 77.5773 51.4667 76.9773 50.4C76.3773 49.3333 76.4773 48.2333 77.2773 47.1C77.6107 46.7 77.9107 46.3333 78.1773 46C78.444 45.6667 78.7773 45.3333 79.1773 45C80.9107 43.4667 82.8107 42.3333 84.8773 41.6C86.944 40.8667 89.1773 40.6 91.5773 40.8C92.444 40.9333 93.144 40.6667 93.6773 40C94.144 39.5333 94.5773 39.0667 94.9773 38.6C95.444 38.1333 95.9107 37.6667 96.3773 37.2C96.5107 37 96.6773 36.8 96.8773 36.6C97.0773 36.4 97.2773 36.2667 97.4773 36.2C97.6773 36.1333 97.9107 36.1 98.1773 36.1C98.5107 36.1 98.7773 36.1667 98.9773 36.3C99.3107 36.7667 99.444 37.2667 99.3773 37.8C99.3107 38.3333 99.044 39 98.5773 39.8C98.3773 40.2 97.9773 41.0333 97.3773 42.3C96.7773 43.5 96.3107 44.7 95.9773 45.9C95.7107 47.1 95.7107 48.1 95.9773 48.9C96.244 49.6333 97.144 49.7667 98.6773 49.3C99.4773 49.1 100.344 48.7667 101.277 48.3C102.211 47.7667 103.144 47.2667 104.077 46.8C104.344 46.6667 104.611 46.5333 104.877 46.4C105.144 46.2 105.444 46.1333 105.777 46.2C106.111 46.3333 106.344 46.5667 106.477 46.9C106.677 47.1667 106.544 47.4 106.077 47.6ZM79.7773 48.8C81.7107 48.4667 83.744 47.7333 85.8773 46.6C88.0107 45.4 89.744 44.1333 91.0773 42.8C89.0773 42.9333 86.9773 43.5333 84.7773 44.6C82.5773 45.6667 80.9107 47.0667 79.7773 48.8ZM117.645 49.5C116.845 49.4333 116.211 49.2333 115.745 48.9C115.278 48.5667 114.878 48.1333 114.545 47.6C114.278 47.0667 114.045 46.5 113.845 45.9C113.711 45.3 113.578 44.7 113.445 44.1C113.045 43.1667 112.478 42.7 111.745 42.7C111.011 42.7 110.245 42.9333 109.445 43.4C108.711 43.8 108.011 44.3333 107.345 45C106.678 45.6667 106.145 46.1667 105.745 46.5C103.411 48.4333 101.611 50.6 100.345 53C100.145 53.5333 99.8445 53.9667 99.4445 54.3C98.9779 54.6333 98.5445 54.8667 98.1445 55C97.7445 55.0667 97.4112 55 97.1445 54.8C96.8112 54.6 96.6445 54.2 96.6445 53.6C96.6445 53.2667 96.7112 53 96.8445 52.8C96.9779 52.6 97.1112 52.3667 97.2445 52.1C98.5112 49.8333 99.7445 47.5667 100.945 45.3C102.145 43.0333 103.378 40.7667 104.645 38.5C104.978 37.8333 105.411 37.2333 105.945 36.7C106.078 36.5667 106.245 36.4667 106.445 36.4C106.711 36.3333 106.911 36.3667 107.045 36.5C107.511 36.7667 107.678 37.1333 107.545 37.6C107.545 38.0667 107.411 38.6333 107.145 39.3C106.678 40.1667 106.245 41.0333 105.845 41.9C105.445 42.7667 105.078 43.6667 104.745 44.6C105.278 44.2 105.611 43.9333 105.745 43.8C106.411 43.2667 107.011 42.7667 107.545 42.3C108.145 41.7667 108.745 41.3 109.345 40.9C110.145 40.2333 111.045 39.8333 112.045 39.7C114.045 39.2333 115.345 39.9667 115.945 41.9C116.078 42.4333 116.178 42.9333 116.245 43.4C116.311 43.8667 116.411 44.3333 116.545 44.8C116.678 45.5333 116.911 46.0333 117.245 46.3C117.578 46.5 118.145 46.5667 118.945 46.5C119.278 46.5 119.611 46.5 119.945 46.5C120.345 46.4333 120.711 46.4 121.045 46.4C121.978 46.3333 122.611 46.4667 122.945 46.8C123.278 47.1333 123.311 47.5333 123.045 48C122.778 48.4 122.178 48.7667 121.245 49.1C120.378 49.4333 119.178 49.5667 117.645 49.5ZM144.929 47.6C144.196 48.3333 143.062 49.1 141.529 49.9C140.062 50.7 138.562 51.2667 137.029 51.6C135.562 51.9333 134.262 51.9 133.129 51.5C131.996 51.1 131.429 50.0333 131.429 48.3C131.429 47.7667 131.462 47.2333 131.529 46.7C131.596 46.1 131.696 45.4667 131.829 44.8C130.096 45.8667 128.396 46.9333 126.729 48C125.129 49 123.462 49.9667 121.729 50.9C121.329 51.2333 120.862 51.4333 120.329 51.5C119.862 51.5667 119.396 51.6333 118.929 51.7C117.462 51.9 116.429 51.4667 115.829 50.4C115.229 49.3333 115.329 48.2333 116.129 47.1C116.462 46.7 116.762 46.3333 117.029 46C117.296 45.6667 117.629 45.3333 118.029 45C119.762 43.4667 121.662 42.3333 123.729 41.6C125.796 40.8667 128.029 40.6 130.429 40.8C131.296 40.9333 131.996 40.6667 132.529 40C132.996 39.5333 133.429 39.0667 133.829 38.6C134.296 38.1333 134.762 37.6667 135.229 37.2C135.362 37 135.529 36.8 135.729 36.6C135.929 36.4 136.129 36.2667 136.329 36.2C136.529 36.1333 136.762 36.1 137.029 36.1C137.362 36.1 137.629 36.1667 137.829 36.3C138.162 36.7667 138.296 37.2667 138.229 37.8C138.162 38.3333 137.896 39 137.429 39.8C137.229 40.2 136.829 41.0333 136.229 42.3C135.629 43.5 135.162 44.7 134.829 45.9C134.562 47.1 134.562 48.1 134.829 48.9C135.096 49.6333 135.996 49.7667 137.529 49.3C138.329 49.1 139.196 48.7667 140.129 48.3C141.062 47.7667 141.996 47.2667 142.929 46.8C143.196 46.6667 143.462 46.5333 143.729 46.4C143.996 46.2 144.296 46.1333 144.629 46.2C144.962 46.3333 145.196 46.5667 145.329 46.9C145.529 47.1667 145.396 47.4 144.929 47.6ZM118.629 48.8C120.562 48.4667 122.596 47.7333 124.729 46.6C126.862 45.4 128.596 44.1333 129.929 42.8C127.929 42.9333 125.829 43.5333 123.629 44.6C121.429 45.6667 119.762 47.0667 118.629 48.8ZM141.096 61.1C143.229 58.9 145.363 56.5667 147.496 54.1C149.696 51.6333 151.663 49.5333 153.396 47.8C155.129 46 156.263 45.3 156.796 45.7C157.329 46.1 156.729 47.4333 154.996 49.7C153.329 51.9 151.496 53.9333 149.496 55.8C147.563 57.6 145.629 59.4333 143.696 61.3C143.163 61.8333 142.596 62.3 141.996 62.7C141.396 63.1 140.829 63.5 140.296 63.9C140.029 64.0333 139.729 64.2 139.396 64.4C139.063 64.5333 138.729 64.6667 138.396 64.8C137.129 65.1333 136.129 65 135.396 64.4C134.663 63.8 134.229 62.8667 134.096 61.6C133.963 60.5333 134.063 59.5 134.396 58.5C134.929 55.9 135.729 53.4333 136.796 51.1C137.796 48.7667 138.896 46.4333 140.096 44.1C140.496 43.1667 140.963 42.3333 141.496 41.6C141.829 41 142.096 40.4333 142.296 39.9C142.496 39.3 142.329 38.7333 141.796 38.2C141.996 37.8 142.163 37.5333 142.296 37.4C143.563 36.8667 144.529 36.0667 145.196 35C145.929 33.9333 146.663 32.9 147.396 31.9C149.329 29.1667 151.263 26.4667 153.196 23.8C155.129 21.0667 157.263 18.5333 159.596 16.2C160.396 15.4 161.263 14.6333 162.196 13.9C162.529 13.4333 163.129 13.0333 163.996 12.7C164.463 12.5 164.929 12.3667 165.396 12.3C165.863 12.2333 166.329 12.3667 166.796 12.7C167.263 13.1 167.496 13.5667 167.496 14.1C167.563 14.5667 167.463 15.0333 167.196 15.5C166.863 16.2333 166.496 16.9667 166.096 17.7C165.763 18.3667 165.363 19.0333 164.896 19.7C162.763 22.5 160.463 25.1333 157.996 27.6C155.529 30 152.963 32.3667 150.296 34.7C149.496 35.4333 148.729 36.2 147.996 37C147.263 37.8 146.563 38.6667 145.896 39.6C144.563 42 143.263 44.4 141.996 46.8C140.729 49.1333 139.596 51.5667 138.596 54.1C138.329 54.9667 138.096 55.8333 137.896 56.7C137.629 57.5667 137.396 58.4333 137.196 59.3C136.863 60.4333 136.829 61.2333 137.096 61.7C137.296 62.1667 137.629 62.4 138.096 62.4C138.563 62.4 139.063 62.2667 139.596 62C140.196 61.7333 140.696 61.4333 141.096 61.1ZM162.296 17.8C161.696 18.4 160.729 19.4 159.396 20.8C158.129 22.1333 156.829 23.6 155.496 25.2C154.163 26.8 152.963 28.3333 151.896 29.8C150.829 31.2667 150.229 32.3667 150.096 33.1C150.629 32.5667 151.463 31.7 152.596 30.5C153.796 29.3 155.029 28 156.296 26.6C157.629 25.2 158.896 23.8 160.096 22.4C161.363 21 162.363 19.8333 163.096 18.9C163.829 17.9 164.163 17.2667 164.096 17C164.096 16.6667 163.496 16.9333 162.296 17.8ZM152.709 61.1C154.843 58.9 156.976 56.5667 159.109 54.1C161.309 51.6333 163.276 49.5333 165.009 47.8C166.743 46 167.876 45.3 168.409 45.7C168.943 46.1 168.343 47.4333 166.609 49.7C164.943 51.9 163.109 53.9333 161.109 55.8C159.176 57.6 157.243 59.4333 155.309 61.3C154.776 61.8333 154.209 62.3 153.609 62.7C153.009 63.1 152.443 63.5 151.909 63.9C151.643 64.0333 151.343 64.2 151.009 64.4C150.676 64.5333 150.343 64.6667 150.009 64.8C148.743 65.1333 147.743 65 147.009 64.4C146.276 63.8 145.843 62.8667 145.709 61.6C145.576 60.5333 145.676 59.5 146.009 58.5C146.543 55.9 147.343 53.4333 148.409 51.1C149.409 48.7667 150.509 46.4333 151.709 44.1C152.109 43.1667 152.576 42.3333 153.109 41.6C153.443 41 153.709 40.4333 153.909 39.9C154.109 39.3 153.943 38.7333 153.409 38.2C153.609 37.8 153.776 37.5333 153.909 37.4C155.176 36.8667 156.143 36.0667 156.809 35C157.543 33.9333 158.276 32.9 159.009 31.9C160.943 29.1667 162.876 26.4667 164.809 23.8C166.743 21.0667 168.876 18.5333 171.209 16.2C172.009 15.4 172.876 14.6333 173.809 13.9C174.143 13.4333 174.743 13.0333 175.609 12.7C176.076 12.5 176.543 12.3667 177.009 12.3C177.476 12.2333 177.943 12.3667 178.409 12.7C178.876 13.1 179.109 13.5667 179.109 14.1C179.176 14.5667 179.076 15.0333 178.809 15.5C178.476 16.2333 178.109 16.9667 177.709 17.7C177.376 18.3667 176.976 19.0333 176.509 19.7C174.376 22.5 172.076 25.1333 169.609 27.6C167.143 30 164.576 32.3667 161.909 34.7C161.109 35.4333 160.343 36.2 159.609 37C158.876 37.8 158.176 38.6667 157.509 39.6C156.176 42 154.876 44.4 153.609 46.8C152.343 49.1333 151.209 51.5667 150.209 54.1C149.943 54.9667 149.709 55.8333 149.509 56.7C149.243 57.5667 149.009 58.4333 148.809 59.3C148.476 60.4333 148.443 61.2333 148.709 61.7C148.909 62.1667 149.243 62.4 149.709 62.4C150.176 62.4 150.676 62.2667 151.209 62C151.809 61.7333 152.309 61.4333 152.709 61.1ZM173.909 17.8C173.309 18.4 172.343 19.4 171.009 20.8C169.743 22.1333 168.443 23.6 167.109 25.2C165.776 26.8 164.576 28.3333 163.509 29.8C162.443 31.2667 161.843 32.3667 161.709 33.1C162.243 32.5667 163.076 31.7 164.209 30.5C165.409 29.3 166.643 28 167.909 26.6C169.243 25.2 170.509 23.8 171.709 22.4C172.976 21 173.976 19.8333 174.709 18.9C175.443 17.9 175.776 17.2667 175.709 17C175.709 16.6667 175.109 16.9333 173.909 17.8ZM190.023 47.6C189.289 48.3333 188.156 49.1 186.623 49.9C185.156 50.7 183.656 51.2667 182.123 51.6C180.656 51.9333 179.356 51.9 178.223 51.5C177.089 51.1 176.523 50.0333 176.523 48.3C176.523 47.7667 176.556 47.2333 176.623 46.7C176.689 46.1 176.789 45.4667 176.923 44.8C175.189 45.8667 173.489 46.9333 171.823 48C170.223 49 168.556 49.9667 166.823 50.9C166.423 51.2333 165.956 51.4333 165.423 51.5C164.956 51.5667 164.489 51.6333 164.023 51.7C162.556 51.9 161.523 51.4667 160.923 50.4C160.323 49.3333 160.423 48.2333 161.223 47.1C161.556 46.7 161.856 46.3333 162.123 46C162.389 45.6667 162.723 45.3333 163.123 45C164.856 43.4667 166.756 42.3333 168.823 41.6C170.889 40.8667 173.123 40.6 175.523 40.8C176.389 40.9333 177.089 40.6667 177.623 40C178.089 39.5333 178.523 39.0667 178.923 38.6C179.389 38.1333 179.856 37.6667 180.323 37.2C180.456 37 180.623 36.8 180.823 36.6C181.023 36.4 181.223 36.2667 181.423 36.2C181.623 36.1333 181.856 36.1 182.123 36.1C182.456 36.1 182.723 36.1667 182.923 36.3C183.256 36.7667 183.389 37.2667 183.323 37.8C183.256 38.3333 182.989 39 182.523 39.8C182.323 40.2 181.923 41.0333 181.323 42.3C180.723 43.5 180.256 44.7 179.923 45.9C179.656 47.1 179.656 48.1 179.923 48.9C180.189 49.6333 181.089 49.7667 182.623 49.3C183.423 49.1 184.289 48.7667 185.223 48.3C186.156 47.7667 187.089 47.2667 188.023 46.8C188.289 46.6667 188.556 46.5333 188.823 46.4C189.089 46.2 189.389 46.1333 189.723 46.2C190.056 46.3333 190.289 46.5667 190.423 46.9C190.623 47.1667 190.489 47.4 190.023 47.6ZM163.723 48.8C165.656 48.4667 167.689 47.7333 169.823 46.6C171.956 45.4 173.689 44.1333 175.023 42.8C173.023 42.9333 170.923 43.5333 168.723 44.6C166.523 45.6667 164.856 47.0667 163.723 48.8ZM193.79 46C194.723 45.2667 195.657 44.5667 196.59 43.9C197.523 43.2333 198.457 42.5333 199.39 41.8C200.39 41.0667 201.557 40.0333 202.89 38.7C204.223 37.3667 205.39 36.3333 206.39 35.6C207.39 34.9333 208.257 34.5333 208.99 34.4C209.79 34.2667 210.323 34.3667 210.59 34.7C210.923 35.0333 210.89 35.5667 210.49 36.3C210.157 36.9667 209.323 37.8 207.99 38.8C206.257 40.0667 204.557 41.3 202.89 42.5C201.29 43.7 199.623 44.9333 197.89 46.2C197.357 46.6 196.823 47.0333 196.29 47.5C195.757 47.9 195.157 48.3 194.49 48.7C193.557 49.2333 192.823 49.8667 192.29 50.6C191.823 51.3333 191.457 52.1333 191.19 53C190.99 53.8 190.857 54.6667 190.79 55.6C190.723 56.4667 190.59 57.3333 190.39 58.2C190.99 58.5333 191.49 58.6 191.89 58.4C192.357 58.1333 192.757 57.8667 193.09 57.6C195.023 56.0667 196.923 54.5667 198.79 53.1C200.657 51.5667 202.557 50.0333 204.49 48.5C204.957 48.1667 205.39 47.8333 205.79 47.5C206.19 47.1 206.623 46.7333 207.09 46.4C207.89 45.6 208.857 45.3333 209.99 45.6C210.057 46.8667 209.657 47.8 208.79 48.4C207.257 49.7333 205.723 51.0667 204.19 52.4C202.657 53.6667 201.123 54.9667 199.59 56.3C198.657 57.0333 197.657 57.7667 196.59 58.5C195.59 59.1667 194.557 59.8667 193.49 60.6C193.357 60.7333 193.157 60.8667 192.89 61C191.357 61.7333 190.057 61.7333 188.99 61C187.99 60.2667 187.557 59.0333 187.69 57.3C187.757 56.7667 187.823 56.2333 187.89 55.7C187.957 55.1 188.09 54.4 188.29 53.6C187.823 53.9333 187.423 54.2 187.09 54.4C186.823 54.5333 186.523 54.7 186.19 54.9C184.99 55.9 183.757 56.9333 182.49 58C181.223 59 179.923 59.9667 178.59 60.9C178.257 61.2333 177.89 61.5 177.49 61.7C177.09 61.8333 176.623 61.8333 176.09 61.7C175.957 61.1667 176.057 60.7333 176.39 60.4C176.657 60 176.957 59.6333 177.29 59.3C178.49 58.2333 179.723 57.2 180.99 56.2C182.19 55.2 183.423 54.1667 184.69 53.1C185.29 52.5667 185.89 52.0667 186.49 51.6C187.157 51.1333 187.823 50.6333 188.49 50.1C189.09 49.6333 189.49 49.1 189.69 48.5C190.023 47.3 190.323 46.1 190.59 44.9C190.923 43.6333 191.257 42.3333 191.59 41C190.19 41.6 188.857 42.7333 187.59 44.4C187.257 44.7333 186.99 45.0667 186.79 45.4C186.657 45.6667 186.457 46 186.19 46.4C185.99 46.6667 185.723 46.9 185.39 47.1C185.057 47.2333 184.723 47.2 184.39 47C183.79 46.4667 183.723 45.8333 184.19 45.1C184.323 44.8333 184.457 44.6 184.59 44.4C184.723 44.1333 184.857 43.8667 184.99 43.6C185.79 42.8 186.59 41.9667 187.39 41.1C188.257 40.2333 189.057 39.4 189.79 38.6C189.923 38.4667 190.057 38.3667 190.19 38.3C190.323 38.2333 190.457 38.1333 190.59 38C191.657 37.4 192.557 37.3 193.29 37.7C194.09 38.1 194.49 38.8667 194.49 40C194.49 40.7333 194.39 41.4333 194.19 42.1C194.057 42.7667 193.923 43.4667 193.79 44.2C193.79 44.4667 193.757 44.7333 193.69 45C193.623 45.2 193.557 45.4333 193.49 45.7C193.557 45.7 193.59 45.7667 193.59 45.9C193.59 45.9667 193.657 46 193.79 46ZM235.937 78.6C236.67 78.9333 237.337 79.1 237.937 79.1C238.603 79.0333 239.27 78.9333 239.937 78.8C241.67 78.6 243.437 78.3667 245.237 78.1C247.037 77.7667 248.837 77.4333 250.637 77.1C255.17 76.4333 259.637 75.7667 264.037 75.1C268.437 74.3667 272.903 73.6667 277.437 73C280.77 72.4667 284.103 71.9333 287.437 71.4C290.77 70.8667 294.103 70.3333 297.437 69.8C299.97 69.4667 302.503 69.2 305.037 69C307.637 68.8 310.203 68.8667 312.737 69.2C312.203 69.4667 311.803 69.6 311.537 69.6C307.87 70.8667 304.17 71.8 300.437 72.4C296.703 73 292.937 73.5667 289.137 74.1C284.937 74.8333 280.77 75.5 276.637 76.1C272.503 76.7 268.337 77.3333 264.137 78C260.27 78.6667 256.437 79.3 252.637 79.9C248.837 80.5 245.037 81.0667 241.237 81.6C239.57 81.8667 237.803 81.9 235.937 81.7C234.67 81.6333 233.803 81.2333 233.337 80.5C232.87 79.7667 232.837 78.8333 233.237 77.7C233.97 75.8333 234.837 74.1 235.837 72.5C237.77 69.1 239.703 65.7333 241.637 62.4C243.637 59.0667 245.637 55.7 247.637 52.3C247.837 51.9 248.037 51.5 248.237 51.1C248.503 50.7 248.77 50.1667 249.037 49.5C248.57 49.6333 248.203 49.7 247.937 49.7C247.67 49.6333 247.37 49.6667 247.037 49.8C243.97 50.3333 240.937 50.8667 237.937 51.4C234.937 51.8667 231.903 52.3667 228.837 52.9C228.303 52.9667 227.77 53.1 227.237 53.3C226.703 53.4333 226.17 53.5667 225.637 53.7C225.103 53.8333 224.737 53.9 224.537 53.9C224.337 53.8333 224.137 53.7667 223.937 53.7C223.737 53.5667 223.57 53.4 223.437 53.2C223.37 53.0667 223.403 52.9 223.537 52.7C223.603 52.4333 223.703 52.2667 223.837 52.2C224.57 51.6 225.337 51.2 226.137 51C227.537 50.6 228.937 50.2333 230.337 49.9C231.737 49.5 233.17 49.1667 234.637 48.9C237.17 48.5 239.637 48.1333 242.037 47.8C244.503 47.4 247.003 47.0333 249.537 46.7C250.07 46.6333 250.47 46.5 250.737 46.3C251.003 46.1 251.303 45.8 251.637 45.4C253.37 42.3333 255.137 39.3333 256.937 36.4C258.737 33.4 260.537 30.4 262.337 27.4C263.403 25.5333 264.47 23.7333 265.537 22C266.603 20.2667 267.703 18.5333 268.837 16.8C269.103 16.3333 269.37 15.8667 269.637 15.4C269.97 14.9333 270.337 14.3667 270.737 13.7C269.403 13.8333 268.203 13.9333 267.137 14C266.07 14.0667 265.003 14.1667 263.937 14.3C261.603 14.6333 259.27 15 256.937 15.4C254.67 15.7333 252.37 16.0667 250.037 16.4C249.37 16.4667 248.77 16.4667 248.237 16.4C248.037 16.3333 247.837 16.2 247.637 16C247.503 15.7333 247.37 15.5 247.237 15.3C247.237 15.1667 247.337 15 247.537 14.8C247.737 14.5333 247.903 14.3333 248.037 14.2C248.303 14.1333 248.537 14.0667 248.737 14C249.003 13.8667 249.27 13.7667 249.537 13.7C252.737 13.0333 255.903 12.4667 259.037 12C262.17 11.5333 265.337 11.1667 268.537 10.9C269.07 10.8333 269.603 10.8 270.137 10.8C270.67 10.8 271.203 10.7333 271.737 10.6C272.203 10.4667 272.603 10.3 272.937 10.1C273.337 9.83333 273.77 9.56666 274.237 9.3C274.57 9.96666 275.003 10.3333 275.537 10.4C276.137 10.4667 276.737 10.4667 277.337 10.4C279.337 10.2667 281.337 10.1667 283.337 10.1C285.403 10.0333 287.47 9.96667 289.537 9.9C294.537 9.9 299.537 9.86666 304.537 9.79999C309.537 9.73333 314.537 9.73333 319.537 9.79999C322.203 9.86666 324.87 9.93333 327.537 10C330.27 10.0667 332.937 10.4 335.537 11C336.803 11.2667 338.037 11.6333 339.237 12.1C340.437 12.5667 341.603 13 342.737 13.4C342.87 13.4 343.003 13.6333 343.137 14.1H339.337C330.603 13.3 321.937 12.9 313.337 12.9C304.803 12.9 296.17 12.9 287.437 12.9C285.437 13.0333 283.403 13.1333 281.337 13.2C279.27 13.2667 277.237 13.3333 275.237 13.4C274.637 13.4 274.17 13.5 273.837 13.7C273.503 13.9 273.17 14.2333 272.837 14.7C270.037 19.5667 267.237 24.3667 264.437 29.1C261.637 33.8333 258.837 38.6333 256.037 43.5C255.77 43.8333 255.537 44.2 255.337 44.6C255.203 44.9333 254.97 45.3667 254.637 45.9H256.137C259.537 45.7 262.903 45.5 266.237 45.3C269.637 45.0333 273.037 44.7667 276.437 44.5C281.237 44.1 286.17 44.3667 291.237 45.3C291.637 45.4333 291.937 45.6333 292.137 45.9C290.337 46.1 288.503 46.3333 286.637 46.6C284.77 46.8 282.937 47 281.137 47.2C278.137 47.4 275.137 47.6 272.137 47.8C269.203 48 266.27 48.1667 263.337 48.3C261.803 48.4333 260.27 48.5667 258.737 48.7C257.27 48.8333 255.77 48.9333 254.237 49C253.237 49.0667 252.47 49.5333 251.937 50.4C249.47 54.8 246.97 59.1333 244.437 63.4C241.97 67.6 239.503 71.8667 237.037 76.2C236.837 76.5333 236.637 76.9 236.437 77.3C236.303 77.7 236.137 78.1333 235.937 78.6ZM326.784 43.1C328.917 41.1 330.984 39 332.984 36.8C334.984 34.5333 336.717 31.9 338.184 28.9C337.517 29.1667 336.517 29.9333 335.184 31.2C333.917 32.4667 332.584 33.9667 331.184 35.7C329.784 37.3667 328.417 39.1 327.084 40.9C325.817 42.7 324.884 44.2 324.284 45.4C325.884 45.6667 327.617 45.8333 329.484 45.9C331.417 45.9667 333.317 45.9667 335.184 45.9C337.05 45.8333 338.85 45.7 340.584 45.5C342.317 45.3 343.884 45.1 345.284 44.9C345.684 44.8333 346.017 44.9 346.284 45.1C346.617 45.3 346.817 45.8 346.884 46.6C346.95 47.0667 346.817 47.3667 346.484 47.5C346.15 47.6333 345.817 47.7 345.484 47.7C343.35 47.5667 341.35 47.5333 339.484 47.6C337.617 47.6667 335.817 47.9 334.084 48.3C334.284 50.4333 334.017 52.4 333.284 54.2C332.55 56 331.717 57.5667 330.784 58.9C328.65 61.9667 326.284 64.7667 323.684 67.3C321.15 69.7667 318.384 71.9333 315.384 73.8C314.85 74.0667 314.317 74.3 313.784 74.5C313.184 74.7 312.55 74.9 311.884 75.1C310.684 75.3 309.717 74.9667 308.984 74.1C308.25 73.1667 307.984 71.9667 308.184 70.5C308.317 69.9667 308.484 69.4333 308.684 68.9C308.817 68.3667 309.017 67.8333 309.284 67.3C310.817 64.1 312.384 60.9 313.984 57.7C315.517 54.4333 316.884 51.5333 318.084 49C317.484 49 316.984 48.8 316.584 48.4C316.184 48 315.95 47.5667 315.884 47.1C315.817 46.5667 315.984 46.1 316.384 45.7C316.717 45.3 317.284 45.0667 318.084 45C318.684 44.9333 319.15 44.9333 319.484 45C319.817 45 320.117 45 320.384 45C320.65 44.9333 320.884 44.8 321.084 44.6C321.284 44.4 321.55 44.0333 321.884 43.5C323.817 40.3 325.817 37.4333 327.884 34.9C330.017 32.3667 332.35 29.8333 334.884 27.3C335.217 26.9667 335.55 26.6333 335.884 26.3C336.284 25.9667 336.684 25.6667 337.084 25.4C337.35 25.2 337.584 25.0333 337.784 24.9C337.984 24.7667 338.217 24.6333 338.484 24.5C339.284 24.2333 339.984 24.4333 340.584 25.1C341.25 25.7 341.517 26.5333 341.384 27.6C341.25 28.2667 341.117 28.9 340.984 29.5C340.85 30.1 340.617 30.6667 340.284 31.2C338.817 33.6667 337.217 35.9667 335.484 38.1C333.817 40.1667 331.917 41.9667 329.784 43.5C329.384 43.8333 328.95 44.0667 328.484 44.2C328.017 44.2667 327.45 43.9 326.784 43.1ZM331.484 48.4C330.617 48.6 329.65 48.7 328.584 48.7C327.517 48.6333 326.484 48.6 325.484 48.6C324.484 48.5333 323.584 48.5667 322.784 48.7C321.984 48.7667 321.417 49.0333 321.084 49.5C320.817 49.8333 320.484 50.3667 320.084 51.1C319.684 51.8333 319.284 52.6333 318.884 53.5C318.484 54.3 318.117 55.0667 317.784 55.8C317.45 56.5333 317.184 57.1 316.984 57.5C316.05 59.5667 315.117 61.6333 314.184 63.7C313.25 65.7667 312.284 67.8333 311.284 69.9C311.15 70.1 311.084 70.3667 311.084 70.7C311.084 70.9667 311.05 71.2 310.984 71.4C310.984 71.5333 311.084 71.7 311.284 71.9C311.75 71.7 312.25 71.5333 312.784 71.4C313.25 71.2667 313.717 71.1 314.184 70.9C317.384 68.9 320.284 66.5 322.884 63.7C325.55 60.9 327.984 57.7667 330.184 54.3C330.45 53.7667 330.717 52.9 330.984 51.7C331.317 50.5 331.484 49.4 331.484 48.4ZM350.897 43.1C353.03 41.1 355.097 39 357.097 36.8C359.097 34.5333 360.83 31.9 362.297 28.9C361.63 29.1667 360.63 29.9333 359.297 31.2C358.03 32.4667 356.697 33.9667 355.297 35.7C353.897 37.3667 352.53 39.1 351.197 40.9C349.93 42.7 348.997 44.2 348.397 45.4C349.997 45.6667 351.73 45.8333 353.597 45.9C355.53 45.9667 357.43 45.9667 359.297 45.9C361.164 45.8333 362.964 45.7 364.697 45.5C366.43 45.3 367.997 45.1 369.397 44.9C369.797 44.8333 370.13 44.9 370.397 45.1C370.73 45.3 370.93 45.8 370.997 46.6C371.064 47.0667 370.93 47.3667 370.597 47.5C370.264 47.6333 369.93 47.7 369.597 47.7C367.464 47.5667 365.464 47.5333 363.597 47.6C361.73 47.6667 359.93 47.9 358.197 48.3C358.397 50.4333 358.13 52.4 357.397 54.2C356.664 56 355.83 57.5667 354.897 58.9C352.764 61.9667 350.397 64.7667 347.797 67.3C345.264 69.7667 342.497 71.9333 339.497 73.8C338.964 74.0667 338.43 74.3 337.897 74.5C337.297 74.7 336.664 74.9 335.997 75.1C334.797 75.3 333.83 74.9667 333.097 74.1C332.364 73.1667 332.097 71.9667 332.297 70.5C332.43 69.9667 332.597 69.4333 332.797 68.9C332.93 68.3667 333.13 67.8333 333.397 67.3C334.93 64.1 336.497 60.9 338.097 57.7C339.63 54.4333 340.997 51.5333 342.197 49C341.597 49 341.097 48.8 340.697 48.4C340.297 48 340.064 47.5667 339.997 47.1C339.93 46.5667 340.097 46.1 340.497 45.7C340.83 45.3 341.397 45.0667 342.197 45C342.797 44.9333 343.264 44.9333 343.597 45C343.93 45 344.23 45 344.497 45C344.764 44.9333 344.997 44.8 345.197 44.6C345.397 44.4 345.664 44.0333 345.997 43.5C347.93 40.3 349.93 37.4333 351.997 34.9C354.13 32.3667 356.464 29.8333 358.997 27.3C359.33 26.9667 359.664 26.6333 359.997 26.3C360.397 25.9667 360.797 25.6667 361.197 25.4C361.464 25.2 361.697 25.0333 361.897 24.9C362.097 24.7667 362.33 24.6333 362.597 24.5C363.397 24.2333 364.097 24.4333 364.697 25.1C365.364 25.7 365.63 26.5333 365.497 27.6C365.364 28.2667 365.23 28.9 365.097 29.5C364.964 30.1 364.73 30.6667 364.397 31.2C362.93 33.6667 361.33 35.9667 359.597 38.1C357.93 40.1667 356.03 41.9667 353.897 43.5C353.497 43.8333 353.064 44.0667 352.597 44.2C352.13 44.2667 351.564 43.9 350.897 43.1ZM355.597 48.4C354.73 48.6 353.764 48.7 352.697 48.7C351.63 48.6333 350.597 48.6 349.597 48.6C348.597 48.5333 347.697 48.5667 346.897 48.7C346.097 48.7667 345.53 49.0333 345.197 49.5C344.93 49.8333 344.597 50.3667 344.197 51.1C343.797 51.8333 343.397 52.6333 342.997 53.5C342.597 54.3 342.23 55.0667 341.897 55.8C341.564 56.5333 341.297 57.1 341.097 57.5C340.164 59.5667 339.23 61.6333 338.297 63.7C337.364 65.7667 336.397 67.8333 335.397 69.9C335.264 70.1 335.197 70.3667 335.197 70.7C335.197 70.9667 335.164 71.2 335.097 71.4C335.097 71.5333 335.197 71.7 335.397 71.9C335.864 71.7 336.364 71.5333 336.897 71.4C337.364 71.2667 337.83 71.1 338.297 70.9C341.497 68.9 344.397 66.5 346.997 63.7C349.664 60.9 352.097 57.7667 354.297 54.3C354.564 53.7667 354.83 52.9 355.097 51.7C355.43 50.5 355.597 49.4 355.597 48.4ZM385.31 46.3C385.643 46.1667 385.943 46.0667 386.21 46C386.477 45.8667 386.777 45.7333 387.11 45.6C387.91 45.4667 388.477 45.7 388.81 46.3C389.143 47.1 388.943 47.6667 388.21 48C385.743 49.2667 383.177 50.2333 380.51 50.9C377.843 51.5667 375.177 51.9667 372.51 52.1C371.577 52.1667 370.577 52.1667 369.51 52.1C368.51 52.0333 367.577 51.8 366.71 51.4C365.91 51 365.31 50.4333 364.91 49.7C364.51 48.9 364.477 47.8333 364.81 46.5C365.277 45.1667 365.71 44.2333 366.11 43.7C366.51 43.1667 367.277 42.6 368.41 42C369.61 41.4667 370.843 41.1 372.11 40.9C373.443 40.6333 374.71 40.5 375.91 40.5C377.043 40.6333 377.71 41.2 377.91 42.2C378.11 43.2667 377.743 44.0667 376.81 44.6C376.143 45 375.443 45.3667 374.71 45.7C373.977 45.9667 373.21 46.2333 372.41 46.5C371.81 46.6333 371.177 46.7333 370.51 46.8C369.843 46.8667 369.177 46.9 368.51 46.9C367.51 46.9 366.943 47.1333 366.81 47.6C366.743 48 366.943 48.4333 367.41 48.9C368.077 49.5667 369.243 49.9333 370.91 50C372.577 50 374.343 49.8667 376.21 49.6C378.143 49.2667 379.943 48.8 381.61 48.2C383.343 47.6 384.577 46.9667 385.31 46.3ZM375.21 43.4C375.677 42.8 375.677 42.5 375.21 42.5C374.81 42.4333 374.177 42.5333 373.31 42.8C372.51 43.0667 371.577 43.4667 370.51 44C369.443 44.5333 368.51 45.0667 367.71 45.6C368.71 45.7333 370.01 45.6 371.61 45.2C373.21 44.7333 374.41 44.1333 375.21 43.4ZM403.697 48.5C403.43 48.7 402.964 48.9333 402.297 49.2C400.097 50.1333 397.864 50.9667 395.597 51.7C393.397 52.4333 391.097 52.8667 388.697 53C388.164 53.1333 387.564 53.2 386.897 53.2C386.297 53.1333 385.697 53.0333 385.097 52.9C383.564 52.5 382.497 51.7333 381.897 50.6C381.23 49.4 381.264 48 381.997 46.4C382.13 46.2 382.23 46 382.297 45.8C382.364 45.5333 382.464 45.3 382.597 45.1C383.864 43.4333 385.264 42.0667 386.797 41C388.33 39.8667 390.13 39.0667 392.197 38.6C392.797 38.4 393.43 38.3333 394.097 38.4C394.764 38.4 395.397 38.5 395.997 38.7C396.997 39.0333 397.63 39.7333 397.897 40.8C398.23 41.8 398.03 42.7 397.297 43.5C397.164 43.6333 396.997 43.7667 396.797 43.9C396.597 43.9667 396.364 44 396.097 44C395.964 44 395.864 43.9 395.797 43.7C395.73 43.4333 395.63 43.2333 395.497 43.1C395.364 42.0333 395.13 41.3667 394.797 41.1C394.464 40.8333 393.797 40.8333 392.797 41.1C391.197 41.5667 389.764 42.2667 388.497 43.2C387.23 44.1333 386.13 45.2 385.197 46.4C384.93 46.7333 384.697 47.1667 384.497 47.7C384.097 49.0333 384.53 49.8333 385.797 50.1C386.73 50.3667 387.764 50.4 388.897 50.2C390.697 50.0667 392.43 49.7667 394.097 49.3C395.764 48.8333 397.364 48.2333 398.897 47.5C399.564 47.2333 400.197 46.9667 400.797 46.7C401.397 46.4333 402.03 46.2333 402.697 46.1C404.364 45.7 405.297 45.8 405.497 46.4C405.697 46.9333 405.097 47.6333 403.697 48.5ZM400.06 24.5C398.527 24.7 397.593 24.5667 397.26 24.1C396.86 23.6333 396.727 23.3 396.86 23.1C397.06 22.7667 397.427 22.4667 397.96 22.2C398.427 21.8667 399.36 21.7667 400.76 21.9C402.96 22.1 405.227 22.2 407.56 22.2C409.96 22.2 412.327 22.0333 414.66 21.7C414.86 21.5667 415.027 21.4 415.16 21.2C416.093 19.9333 416.793 18.9333 417.26 18.2C417.727 17.4667 418.16 16.8 418.56 16.2C418.96 15.6 419.393 14.9667 419.86 14.3C420.393 13.5667 421.127 12.5667 422.06 11.3C422.26 10.9 422.56 10.5667 422.96 10.3C423.427 9.96666 423.86 9.96666 424.26 10.3C424.393 10.4333 424.493 10.6667 424.56 11C424.627 11.3333 424.66 11.6333 424.66 11.9C424.593 12.1667 424.46 12.4333 424.26 12.7C424.06 12.9667 423.893 13.2 423.76 13.4C423.027 14.4 422.493 15.1333 422.16 15.6C421.893 16.0667 421.627 16.5333 421.36 17C421.093 17.4667 420.76 18.0333 420.36 18.7C419.96 19.3667 419.26 20.4 418.26 21.8C419.66 22.0667 421.46 22.2667 423.66 22.4C425.927 22.4667 428.36 22.5 430.96 22.5C433.56 22.4333 436.227 22.3333 438.96 22.2C441.76 22 444.427 21.7667 446.96 21.5C448.56 21.3667 450.06 21.2333 451.46 21.1C452.86 20.9667 454.027 20.9333 454.96 21C456.627 21.1333 457.393 21.4667 457.26 22C457.127 22.5333 456.36 22.9667 454.96 23.3C453.76 23.5 452.093 23.6667 449.96 23.8C447.893 23.9333 445.627 24.0667 443.16 24.2C440.693 24.2667 438.093 24.3333 435.36 24.4C432.693 24.4 430.127 24.4 427.66 24.4C425.26 24.3333 423.06 24.3 421.06 24.3C419.127 24.3 417.627 24.2667 416.56 24.2C415.427 25.6667 414.227 27.2667 412.96 29C411.76 30.7333 410.56 32.5 409.36 34.3C408.227 36.1 407.16 37.8667 406.16 39.6C405.16 41.2667 404.293 42.8 403.56 44.2C402.96 45.4 402.36 46.7333 401.76 48.2C401.16 49.6 400.76 50.8667 400.56 52C400.427 53.0667 400.627 53.8667 401.16 54.4C401.693 54.8667 402.76 54.7667 404.36 54.1C405.093 53.8333 405.927 53.4333 406.86 52.9C407.793 52.3667 408.76 51.8 409.76 51.2C410.76 50.5333 411.727 49.8667 412.66 49.2C413.593 48.4667 414.46 47.7667 415.26 47.1C415.593 46.9 415.86 46.7 416.06 46.5C416.26 46.2333 416.527 46.0333 416.86 45.9C417.26 45.6333 417.593 45.4667 417.86 45.4C418.193 45.2667 418.527 45.4 418.86 45.8C419.127 46.2 419.16 46.6 418.96 47C418.827 47.3333 418.593 47.6667 418.26 48C417.86 48.4 417.16 48.9667 416.16 49.7C415.16 50.4333 413.993 51.2 412.66 52C411.393 52.8 410.027 53.6 408.56 54.4C407.16 55.1333 405.827 55.7333 404.56 56.2C402.293 57 400.727 57.1 399.86 56.5C398.927 55.8333 398.427 54.8667 398.36 53.6C398.227 52.3333 398.393 50.9333 398.86 49.4C399.327 47.8667 399.793 46.5333 400.26 45.4C401.06 43.5333 401.993 41.6667 403.06 39.8C404.127 37.9333 405.227 36.1 406.36 34.3C407.56 32.5 408.727 30.7667 409.86 29.1C411.06 27.3667 412.127 25.7667 413.06 24.3C410.86 24.3667 408.593 24.4333 406.26 24.5C403.993 24.5 401.927 24.5 400.06 24.5Z" fill="black"/>
</svg>
