<svg width="464" height="62" viewBox="0 0 464 62" fill="none" xmlns="http://www.w3.org/2000/svg">
<path d="M59.78 32.1C61.74 32.1467 63.63 32.24 65.45 32.38C67.27 32.4733 69.0667 32.8 70.84 33.36V33.64C69.9067 33.6867 69.02 33.78 68.18 33.92C67.34 34.0133 66.4533 34.0833 65.52 34.13C64.4933 34.2233 63.4667 34.27 62.44 34.27C61.46 34.27 60.4333 34.27 59.36 34.27C58.6133 34.27 58.0067 34.62 57.54 35.32C55.16 38.82 52.78 42.3433 50.4 45.89C48.02 49.39 45.64 52.89 43.26 56.39C42.7467 57.09 42.2333 57.79 41.72 58.49C41.2067 59.19 40.6933 59.89 40.18 60.59C39.5267 61.5233 38.8733 61.78 38.22 61.36C37.5667 60.9867 37.52 60.2867 38.08 59.26C38.3133 58.6067 38.6167 58.0467 38.99 57.58C39.41 57.1133 39.8533 56.6233 40.32 56.11C41.0667 55.3633 41.7433 54.57 42.35 53.73C42.9567 52.89 43.5633 52.05 44.17 51.21C45.99 48.55 47.7867 45.9133 49.56 43.3C51.3333 40.64 53.1067 37.98 54.88 35.32C54.9733 35.18 55.0433 35.04 55.09 34.9C55.1833 34.76 55.3 34.5967 55.44 34.41C55.2067 34.3633 54.9967 34.34 54.81 34.34C54.67 34.2933 54.53 34.27 54.39 34.27C53.0367 34.27 51.6833 34.2933 50.33 34.34C49.0233 34.34 47.6933 34.3167 46.34 34.27C45.5 34.27 44.9167 34.62 44.59 35.32C43.6567 36.72 42.7 38.1433 41.72 39.59C40.7867 41.0367 39.83 42.4367 38.85 43.79C38.29 44.6767 37.6833 45.4933 37.03 46.24C36.3767 46.94 35.7233 47.6867 35.07 48.48C34.79 48.9 34.4867 49.2967 34.16 49.67C33.88 49.9967 33.6 50.3467 33.32 50.72C33.04 50.4867 32.9467 50.2533 33.04 50.02C33.1333 49.7867 33.2267 49.5767 33.32 49.39C33.88 48.4567 34.4167 47.5233 34.93 46.59C35.4433 45.61 36.0033 44.6533 36.61 43.72C37.5433 42.2267 38.4767 40.78 39.41 39.38C40.39 37.9333 41.37 36.4633 42.35 34.97C42.3967 34.8767 42.42 34.8067 42.42 34.76C42.4667 34.6667 42.5367 34.55 42.63 34.41C42.3967 34.41 42.21 34.41 42.07 34.41C41.9767 34.3633 41.8367 34.34 41.65 34.34C39.41 34.34 37.17 34.34 34.93 34.34C32.69 34.34 30.45 34.3633 28.21 34.41C24.9433 34.5033 21.6767 34.62 18.41 34.76C15.19 34.8533 11.9233 34.9467 8.61 35.04C7.49 35.04 6.39333 35.0867 5.32 35.18C4.24667 35.2267 3.15 35.2733 2.03 35.32C1.79667 35.32 1.51667 35.2967 1.19 35.25C0.863333 35.2033 0.7 34.9933 0.7 34.62C0.653333 34.2467 0.77 33.99 1.05 33.85C1.33 33.71 1.63333 33.6167 1.96 33.57C2.84667 33.4767 3.71 33.3833 4.55 33.29C5.43667 33.15 6.27667 33.08 7.07 33.08C10.57 32.94 14.0233 32.8233 17.43 32.73C20.8367 32.59 24.2433 32.4733 27.65 32.38C32.7367 32.24 37.87 32.17 43.05 32.17C43.89 32.17 44.52 31.7967 44.94 31.05C46.8067 28.3433 48.6733 25.66 50.54 23C52.4067 20.2933 54.2733 17.5633 56.14 14.81C56.7933 13.97 57.4 13.13 57.96 12.29C58.5667 11.45 59.22 10.5867 59.92 9.7C60.06 9.46666 60.2467 9.25666 60.48 9.07C60.7133 8.83666 61.0867 8.79 61.6 8.93C61.5067 9.25667 61.4133 9.56 61.32 9.84C61.2267 10.0733 61.0867 10.3067 60.9 10.54C60.1067 11.7533 59.3133 12.99 58.52 14.25C57.7267 15.4633 56.9333 16.6767 56.14 17.89C54.6467 20.13 53.1533 22.37 51.66 24.61C50.1667 26.85 48.6733 29.09 47.18 31.33C47.1333 31.4233 47.0867 31.5167 47.04 31.61C46.9933 31.7033 46.9233 31.8667 46.83 32.1H48.02H56.07C56.4433 32.1 56.7233 32.03 56.91 31.89C57.0967 31.75 57.3067 31.5167 57.54 31.19C59.36 28.53 61.1567 25.87 62.93 23.21C64.75 20.5033 66.5467 17.7733 68.32 15.02C69.3 13.5733 70.28 12.1033 71.26 10.61C72.2867 9.11666 73.29 7.62333 74.27 6.13C74.41 5.89666 74.5733 5.66333 74.76 5.43C74.9467 5.19666 75.2267 5.17333 75.6 5.36C76.16 5.64 76.2067 6.22333 75.74 7.11C75.2267 7.99667 74.7133 8.88333 74.2 9.77C73.6867 10.61 73.15 11.45 72.59 12.29C70.5833 15.4167 68.5767 18.52 66.57 21.6C64.5633 24.6333 62.5567 27.69 60.55 30.77C60.41 30.91 60.2933 31.0967 60.2 31.33C60.1067 31.5633 59.9667 31.82 59.78 32.1ZM83.0681 36.02C83.3948 35.88 83.6515 35.7633 83.8381 35.67C84.0248 35.5767 84.2115 35.46 84.3981 35.32C85.2848 34.8533 86.1481 34.3867 86.9881 33.92C87.8281 33.4533 88.6915 32.9867 89.5781 32.52C90.0448 32.24 90.5348 32.1 91.0481 32.1C91.2348 32.1 91.4215 32.17 91.6081 32.31C91.7948 32.45 91.9348 32.5667 92.0281 32.66C92.2615 33.08 92.0748 33.4767 91.4681 33.85C91.0015 34.13 90.5115 34.3867 89.9981 34.62C89.4848 34.8533 88.9715 35.1333 88.4581 35.46C87.2448 36.2533 86.0315 37.0467 84.8181 37.84C83.6048 38.5867 82.3915 39.3567 81.1781 40.15C80.4315 40.6633 79.8248 41.27 79.3581 41.97C78.8915 42.67 78.4015 43.37 77.8881 44.07C76.4415 46.31 74.9481 48.4567 73.4081 50.51C71.8215 52.5633 70.0948 54.5467 68.2281 56.46C67.4348 57.2067 66.6181 57.86 65.7781 58.42C65.4981 58.6533 65.2181 58.84 64.9381 58.98C64.6115 59.1667 64.2615 59.3067 63.8881 59.4C63.3748 59.4933 62.9315 59.4 62.5581 59.12C62.1848 58.84 62.0448 58.3967 62.1381 57.79C62.1381 57.23 62.3015 56.67 62.6281 56.11C63.2815 54.7567 64.0748 53.52 65.0081 52.4C65.8948 51.28 66.8748 50.2067 67.9481 49.18C69.5348 47.6867 71.1215 46.2167 72.7081 44.77C74.2948 43.2767 75.9048 41.7833 77.5381 40.29C77.7715 40.01 78.0048 39.73 78.2381 39.45C78.5181 39.1233 78.7748 38.7967 79.0081 38.47C79.8015 37.2567 80.5715 36.02 81.3181 34.76C82.0648 33.4533 82.8348 32.1467 83.6281 30.84C83.2548 30.84 82.9515 30.9333 82.7181 31.12C82.5315 31.26 82.3448 31.4 82.1581 31.54C81.3181 32.1467 80.4548 32.7533 79.5681 33.36C78.7281 33.92 77.7948 34.3867 76.7681 34.76C76.4415 34.9933 76.1381 35.11 75.8581 35.11C74.9248 35.25 74.2015 35.0867 73.6881 34.62C73.1748 34.1067 73.0348 33.3833 73.2681 32.45C73.4081 31.9833 73.5715 31.54 73.7581 31.12C73.9448 30.7 74.1548 30.28 74.3881 29.86C74.7615 29.2067 75.1348 28.5767 75.5081 27.97C75.9281 27.3633 76.3481 26.7567 76.7681 26.15C77.0015 25.87 77.2581 25.6833 77.5381 25.59C77.8181 25.45 78.1448 25.5667 78.5181 25.94C78.4248 26.1267 78.3315 26.3367 78.2381 26.57C78.1915 26.7567 78.0748 26.9433 77.8881 27.13C77.5148 27.9233 77.1181 28.67 76.6981 29.37C76.2781 30.07 75.8581 30.7933 75.4381 31.54C75.3448 31.7733 75.2515 32.03 75.1581 32.31C75.1115 32.59 74.9948 32.9167 74.8081 33.29C75.1815 33.1967 75.4848 33.15 75.7181 33.15C75.9981 33.15 76.2548 33.1033 76.4881 33.01C77.1415 32.6367 77.7715 32.2633 78.3781 31.89C78.9848 31.5167 79.5915 31.12 80.1981 30.7C80.9915 30.0933 81.7381 29.4867 82.4381 28.88C83.1381 28.2733 83.8848 27.6433 84.6781 26.99C84.9581 26.71 85.2615 26.5 85.5881 26.36C85.9148 26.1733 86.3115 26.1967 86.7781 26.43C87.4315 26.8033 87.4548 27.5733 86.8481 28.74C86.3348 29.7667 85.7981 30.7933 85.2381 31.82C84.6781 32.8467 84.1415 33.8967 83.6281 34.97C83.5348 35.0633 83.4415 35.18 83.3481 35.32C83.3015 35.46 83.2081 35.6933 83.0681 36.02ZM73.0581 47.22C72.2648 47.8733 71.4481 48.62 70.6081 49.46C69.7215 50.3 68.9048 51.14 68.1581 51.98C67.4115 52.82 66.7581 53.6133 66.1981 54.36C65.6381 55.1067 65.2648 55.7133 65.0781 56.18C65.5448 55.9 66.1748 55.41 66.9681 54.71C67.7148 54.01 68.4848 53.2167 69.2781 52.33C70.0248 51.4433 70.7481 50.5567 71.4481 49.67C72.1481 48.7367 72.6848 47.92 73.0581 47.22ZM93.158 35.18C91.618 36.6267 90.2413 38.0733 89.028 39.52C87.8146 40.92 86.6946 42.3667 85.668 43.86C84.5946 45.3067 83.5913 46.8233 82.658 48.41C81.678 49.95 80.698 51.56 79.718 53.24C79.5313 53.4267 79.3913 53.6133 79.298 53.8C79.158 53.9867 78.9713 54.1967 78.738 54.43C78.5513 54.6167 78.3413 54.7333 78.108 54.78C77.828 54.8267 77.5713 54.7567 77.338 54.57C77.1046 54.3833 76.9646 54.1733 76.918 53.94C76.8713 53.7067 76.8946 53.4733 76.988 53.24C77.1746 52.82 77.3846 52.4467 77.618 52.12C80.1846 48.62 82.588 45.05 84.828 41.41C87.068 37.77 89.3313 34.13 91.618 30.49C92.1313 29.6967 92.598 28.9267 93.018 28.18C93.4846 27.4333 93.9746 26.6633 94.488 25.87C94.628 25.6367 94.7913 25.4267 94.978 25.24C95.2113 25.0533 95.538 24.96 95.958 24.96C96.2846 25.24 96.378 25.52 96.238 25.8C96.1446 26.08 96.0513 26.3833 95.958 26.71C95.6313 27.27 95.3046 27.83 94.978 28.39C94.698 28.95 94.3946 29.5333 94.068 30.14C93.7413 30.56 93.508 31.0033 93.368 31.47C93.368 31.47 93.4146 31.5167 93.508 31.61C93.7413 31.3767 93.928 31.19 94.068 31.05C94.2546 30.91 94.4646 30.7233 94.698 30.49C95.6313 29.6967 96.518 28.9267 97.358 28.18C98.198 27.3867 99.0846 26.6167 100.018 25.87C100.531 25.4967 101.068 25.1933 101.628 24.96C102.235 24.7267 102.841 24.4933 103.448 24.26C103.681 24.12 103.938 24.05 104.218 24.05C104.545 24.0033 104.848 24.0033 105.128 24.05C105.921 24.1433 106.528 24.4467 106.948 24.96C107.415 25.4267 107.648 26.01 107.648 26.71C107.648 27.41 107.508 28.0633 107.228 28.67C106.995 29.23 106.691 29.7667 106.318 30.28C106.038 30.56 105.735 30.9333 105.408 31.4C105.641 31.4467 105.828 31.47 105.968 31.47C106.155 31.47 106.295 31.47 106.388 31.47C106.995 31.5167 107.578 31.54 108.138 31.54C108.745 31.54 109.351 31.5633 109.958 31.61C110.285 31.6567 110.588 31.7033 110.868 31.75C111.195 31.7967 111.498 31.89 111.778 32.03C112.431 32.2633 112.665 32.7067 112.478 33.36C112.291 33.8733 111.895 34.06 111.288 33.92C109.935 33.64 108.605 33.5233 107.298 33.57C106.038 33.57 104.755 33.6867 103.448 33.92C102.981 33.9667 102.538 34.06 102.118 34.2C101.698 34.2933 101.301 34.4333 100.928 34.62C100.041 34.9467 99.178 35.2733 98.338 35.6C97.498 35.9267 96.6813 36.2533 95.888 36.58C95.328 36.7667 94.8146 36.79 94.348 36.65C93.8813 36.4633 93.4846 35.9733 93.158 35.18ZM94.628 33.57C95.7013 33.29 96.7046 33.0567 97.638 32.87C98.5713 32.6367 99.4813 32.38 100.368 32.1C101.441 31.7733 102.351 31.26 103.098 30.56C103.845 29.86 104.521 29.0667 105.128 28.18C105.221 28.04 105.291 27.9 105.338 27.76C105.431 27.62 105.501 27.4567 105.548 27.27C105.688 26.3367 105.315 25.9167 104.428 26.01C104.055 26.0567 103.681 26.15 103.308 26.29C102.981 26.43 102.655 26.57 102.328 26.71C101.115 27.3633 100.018 28.1333 99.038 29.02C98.058 29.9067 97.1013 30.8167 96.168 31.75C95.9346 32.03 95.7013 32.31 95.468 32.59C95.2346 32.87 94.9546 33.1967 94.628 33.57ZM125.766 32.31C125.999 32.2167 126.209 32.1467 126.396 32.1C126.583 32.0067 126.793 31.9133 127.026 31.82C127.586 31.7267 127.983 31.89 128.216 32.31C128.449 32.87 128.309 33.2667 127.796 33.5C126.069 34.3867 124.273 35.0633 122.406 35.53C120.539 35.9967 118.673 36.2767 116.806 36.37C116.153 36.4167 115.453 36.4167 114.706 36.37C114.006 36.3233 113.353 36.16 112.746 35.88C112.186 35.6 111.766 35.2033 111.486 34.69C111.206 34.13 111.183 33.3833 111.416 32.45C111.743 31.5167 112.046 30.8633 112.326 30.49C112.606 30.1167 113.143 29.72 113.936 29.3C114.776 28.9267 115.639 28.67 116.526 28.53C117.459 28.3433 118.346 28.25 119.186 28.25C119.979 28.3433 120.446 28.74 120.586 29.44C120.726 30.1867 120.469 30.7467 119.816 31.12C119.349 31.4 118.859 31.6567 118.346 31.89C117.833 32.0767 117.296 32.2633 116.736 32.45C116.316 32.5433 115.873 32.6133 115.406 32.66C114.939 32.7067 114.473 32.73 114.006 32.73C113.306 32.73 112.909 32.8933 112.816 33.22C112.769 33.5 112.909 33.8033 113.236 34.13C113.703 34.5967 114.519 34.8533 115.686 34.9C116.853 34.9 118.089 34.8067 119.396 34.62C120.749 34.3867 122.009 34.06 123.176 33.64C124.389 33.22 125.253 32.7767 125.766 32.31ZM118.696 30.28C119.023 29.86 119.023 29.65 118.696 29.65C118.416 29.6033 117.973 29.6733 117.366 29.86C116.806 30.0467 116.153 30.3267 115.406 30.7C114.659 31.0733 114.006 31.4467 113.446 31.82C114.146 31.9133 115.056 31.82 116.176 31.54C117.296 31.2133 118.136 30.7933 118.696 30.28ZM138.707 34.55C138.147 34.5033 137.703 34.3633 137.377 34.13C137.05 33.8967 136.77 33.5933 136.537 33.22C136.35 32.8467 136.187 32.45 136.047 32.03C135.953 31.61 135.86 31.19 135.767 30.77C135.487 30.1167 135.09 29.79 134.577 29.79C134.063 29.79 133.527 29.9533 132.967 30.28C132.453 30.56 131.963 30.9333 131.497 31.4C131.03 31.8667 130.657 32.2167 130.377 32.45C128.743 33.8033 127.483 35.32 126.597 37C126.457 37.3733 126.247 37.6767 125.967 37.91C125.64 38.1433 125.337 38.3067 125.057 38.4C124.777 38.4467 124.543 38.4 124.357 38.26C124.123 38.12 124.007 37.84 124.007 37.42C124.007 37.1867 124.053 37 124.147 36.86C124.24 36.72 124.333 36.5567 124.427 36.37C125.313 34.7833 126.177 33.1967 127.017 31.61C127.857 30.0233 128.72 28.4367 129.607 26.85C129.84 26.3833 130.143 25.9633 130.517 25.59C130.61 25.4967 130.727 25.4267 130.867 25.38C131.053 25.3333 131.193 25.3567 131.287 25.45C131.613 25.6367 131.73 25.8933 131.637 26.22C131.637 26.5467 131.543 26.9433 131.357 27.41C131.03 28.0167 130.727 28.6233 130.447 29.23C130.167 29.8367 129.91 30.4667 129.677 31.12C130.05 30.84 130.283 30.6533 130.377 30.56C130.843 30.1867 131.263 29.8367 131.637 29.51C132.057 29.1367 132.477 28.81 132.897 28.53C133.457 28.0633 134.087 27.7833 134.787 27.69C136.187 27.3633 137.097 27.8767 137.517 29.23C137.61 29.6033 137.68 29.9533 137.727 30.28C137.773 30.6067 137.843 30.9333 137.937 31.26C138.03 31.7733 138.193 32.1233 138.427 32.31C138.66 32.45 139.057 32.4967 139.617 32.45C139.85 32.45 140.083 32.45 140.317 32.45C140.597 32.4033 140.853 32.38 141.087 32.38C141.74 32.3333 142.183 32.4267 142.417 32.66C142.65 32.8933 142.673 33.1733 142.487 33.5C142.3 33.78 141.88 34.0367 141.227 34.27C140.62 34.5033 139.78 34.5967 138.707 34.55ZM141.776 17.05C140.702 17.19 140.049 17.0967 139.816 16.77C139.536 16.4433 139.442 16.21 139.536 16.07C139.676 15.8367 139.932 15.6267 140.306 15.44C140.632 15.2067 141.286 15.1367 142.266 15.23C143.806 15.37 145.392 15.44 147.026 15.44C148.706 15.44 150.362 15.3233 151.996 15.09C152.136 14.9967 152.252 14.88 152.346 14.74C152.999 13.8533 153.489 13.1533 153.816 12.64C154.142 12.1267 154.446 11.66 154.726 11.24C155.006 10.82 155.309 10.3767 155.636 9.91C156.009 9.39667 156.522 8.69667 157.176 7.81C157.316 7.53 157.526 7.29666 157.806 7.11C158.132 6.87666 158.436 6.87666 158.716 7.11C158.809 7.20333 158.879 7.36666 158.926 7.6C158.972 7.83333 158.996 8.04333 158.996 8.23C158.949 8.41667 158.856 8.60333 158.716 8.79C158.576 8.97666 158.459 9.14 158.366 9.28C157.852 9.98 157.479 10.4933 157.246 10.82C157.059 11.1467 156.872 11.4733 156.686 11.8C156.499 12.1267 156.266 12.5233 155.986 12.99C155.706 13.4567 155.216 14.18 154.516 15.16C155.496 15.3467 156.756 15.4867 158.296 15.58C159.882 15.6267 161.586 15.65 163.406 15.65C165.226 15.6033 167.092 15.5333 169.006 15.44C170.966 15.3 172.832 15.1367 174.606 14.95C175.726 14.8567 176.776 14.7633 177.756 14.67C178.736 14.5767 179.552 14.5533 180.206 14.6C181.372 14.6933 181.909 14.9267 181.816 15.3C181.722 15.6733 181.186 15.9767 180.206 16.21C179.366 16.35 178.199 16.4667 176.706 16.56C175.259 16.6533 173.672 16.7467 171.946 16.84C170.219 16.8867 168.399 16.9333 166.486 16.98C164.619 16.98 162.822 16.98 161.096 16.98C159.416 16.9333 157.876 16.91 156.476 16.91C155.122 16.91 154.072 16.8867 153.326 16.84C152.532 17.8667 151.692 18.9867 150.806 20.2C149.966 21.4133 149.126 22.65 148.286 23.91C147.492 25.17 146.746 26.4067 146.046 27.62C145.346 28.7867 144.739 29.86 144.226 30.84C143.806 31.68 143.386 32.6133 142.966 33.64C142.546 34.62 142.266 35.5067 142.126 36.3C142.032 37.0467 142.172 37.6067 142.546 37.98C142.919 38.3067 143.666 38.2367 144.786 37.77C145.299 37.5833 145.882 37.3033 146.536 36.93C147.189 36.5567 147.866 36.16 148.566 35.74C149.266 35.2733 149.942 34.8067 150.596 34.34C151.249 33.8267 151.856 33.3367 152.416 32.87C152.649 32.73 152.836 32.59 152.976 32.45C153.116 32.2633 153.302 32.1233 153.536 32.03C153.816 31.8433 154.049 31.7267 154.236 31.68C154.469 31.5867 154.702 31.68 154.936 31.96C155.122 32.24 155.146 32.52 155.006 32.8C154.912 33.0333 154.749 33.2667 154.516 33.5C154.236 33.78 153.746 34.1767 153.046 34.69C152.346 35.2033 151.529 35.74 150.596 36.3C149.709 36.86 148.752 37.42 147.726 37.98C146.746 38.4933 145.812 38.9133 144.926 39.24C143.339 39.8 142.242 39.87 141.636 39.45C140.982 38.9833 140.632 38.3067 140.586 37.42C140.492 36.5333 140.609 35.5533 140.936 34.48C141.262 33.4067 141.589 32.4733 141.916 31.68C142.476 30.3733 143.129 29.0667 143.876 27.76C144.622 26.4533 145.392 25.17 146.186 23.91C147.026 22.65 147.842 21.4367 148.636 20.27C149.476 19.0567 150.222 17.9367 150.876 16.91C149.336 16.9567 147.749 17.0033 146.116 17.05C144.529 17.05 143.082 17.05 141.776 17.05ZM168.08 32.31C168.314 32.2167 168.524 32.1467 168.71 32.1C168.897 32.0067 169.107 31.9133 169.34 31.82C169.9 31.7267 170.297 31.89 170.53 32.31C170.764 32.87 170.624 33.2667 170.11 33.5C168.384 34.3867 166.587 35.0633 164.72 35.53C162.854 35.9967 160.987 36.2767 159.12 36.37C158.467 36.4167 157.767 36.4167 157.02 36.37C156.32 36.3233 155.667 36.16 155.06 35.88C154.5 35.6 154.08 35.2033 153.8 34.69C153.52 34.13 153.497 33.3833 153.73 32.45C154.057 31.5167 154.36 30.8633 154.64 30.49C154.92 30.1167 155.457 29.72 156.25 29.3C157.09 28.9267 157.954 28.67 158.84 28.53C159.774 28.3433 160.66 28.25 161.5 28.25C162.294 28.3433 162.76 28.74 162.9 29.44C163.04 30.1867 162.784 30.7467 162.13 31.12C161.664 31.4 161.174 31.6567 160.66 31.89C160.147 32.0767 159.61 32.2633 159.05 32.45C158.63 32.5433 158.187 32.6133 157.72 32.66C157.254 32.7067 156.787 32.73 156.32 32.73C155.62 32.73 155.224 32.8933 155.13 33.22C155.084 33.5 155.224 33.8033 155.55 34.13C156.017 34.5967 156.834 34.8533 158 34.9C159.167 34.9 160.404 34.8067 161.71 34.62C163.064 34.3867 164.324 34.06 165.49 33.64C166.704 33.22 167.567 32.7767 168.08 32.31ZM161.01 30.28C161.337 29.86 161.337 29.65 161.01 29.65C160.73 29.6033 160.287 29.6733 159.68 29.86C159.12 30.0467 158.467 30.3267 157.72 30.7C156.974 31.0733 156.32 31.4467 155.76 31.82C156.46 31.9133 157.37 31.82 158.49 31.54C159.61 31.2133 160.45 30.7933 161.01 30.28ZM175.561 32.1C176.214 31.5867 176.868 31.0967 177.521 30.63C178.174 30.1633 178.828 29.6733 179.481 29.16C180.181 28.6467 180.998 27.9233 181.931 26.99C182.864 26.0567 183.681 25.3333 184.381 24.82C185.081 24.3533 185.688 24.0733 186.201 23.98C186.761 23.8867 187.134 23.9567 187.321 24.19C187.554 24.4233 187.531 24.7967 187.251 25.31C187.018 25.7767 186.434 26.36 185.501 27.06C184.288 27.9467 183.098 28.81 181.931 29.65C180.811 30.49 179.644 31.3533 178.431 32.24C178.058 32.52 177.684 32.8233 177.311 33.15C176.938 33.43 176.518 33.71 176.051 33.99C175.398 34.3633 174.884 34.8067 174.511 35.32C174.184 35.8333 173.928 36.3933 173.741 37C173.601 37.56 173.508 38.1667 173.461 38.82C173.414 39.4267 173.321 40.0333 173.181 40.64C173.601 40.8733 173.951 40.92 174.231 40.78C174.558 40.5933 174.838 40.4067 175.071 40.22C176.424 39.1467 177.754 38.0967 179.061 37.07C180.368 35.9967 181.698 34.9233 183.051 33.85C183.378 33.6167 183.681 33.3833 183.961 33.15C184.241 32.87 184.544 32.6133 184.871 32.38C185.431 31.82 186.108 31.6333 186.901 31.82C186.948 32.7067 186.668 33.36 186.061 33.78C184.988 34.7133 183.914 35.6467 182.841 36.58C181.768 37.4667 180.694 38.3767 179.621 39.31C178.968 39.8233 178.268 40.3367 177.521 40.85C176.821 41.3167 176.098 41.8067 175.351 42.32C175.258 42.4133 175.118 42.5067 174.931 42.6C173.858 43.1133 172.948 43.1133 172.201 42.6C171.501 42.0867 171.198 41.2233 171.291 40.01C171.338 39.6367 171.384 39.2633 171.431 38.89C171.478 38.47 171.571 37.98 171.711 37.42C171.384 37.6533 171.104 37.84 170.871 37.98C170.684 38.0733 170.474 38.19 170.241 38.33C169.401 39.03 168.538 39.7533 167.651 40.5C166.764 41.2 165.854 41.8767 164.921 42.53C164.688 42.7633 164.431 42.95 164.151 43.09C163.871 43.1833 163.544 43.1833 163.171 43.09C163.078 42.7167 163.148 42.4133 163.381 42.18C163.568 41.9 163.778 41.6433 164.011 41.41C164.851 40.6633 165.714 39.94 166.601 39.24C167.441 38.54 168.304 37.8167 169.191 37.07C169.611 36.6967 170.031 36.3467 170.451 36.02C170.918 35.6933 171.384 35.3433 171.851 34.97C172.271 34.6433 172.551 34.27 172.691 33.85C172.924 33.01 173.134 32.17 173.321 31.33C173.554 30.4433 173.788 29.5333 174.021 28.6C173.041 29.02 172.108 29.8133 171.221 30.98C170.988 31.2133 170.801 31.4467 170.661 31.68C170.568 31.8667 170.428 32.1 170.241 32.38C170.101 32.5667 169.914 32.73 169.681 32.87C169.448 32.9633 169.214 32.94 168.981 32.8C168.561 32.4267 168.514 31.9833 168.841 31.47C168.934 31.2833 169.028 31.12 169.121 30.98C169.214 30.7933 169.308 30.6067 169.401 30.42C169.961 29.86 170.521 29.2767 171.081 28.67C171.688 28.0633 172.248 27.48 172.761 26.92C172.854 26.8267 172.948 26.7567 173.041 26.71C173.134 26.6633 173.228 26.5933 173.321 26.5C174.068 26.08 174.698 26.01 175.211 26.29C175.771 26.57 176.051 27.1067 176.051 27.9C176.051 28.4133 175.981 28.9033 175.841 29.37C175.748 29.8367 175.654 30.3267 175.561 30.84C175.561 31.0267 175.538 31.2133 175.491 31.4C175.444 31.54 175.398 31.7033 175.351 31.89C175.398 31.89 175.421 31.9367 175.421 32.03C175.421 32.0767 175.468 32.1 175.561 32.1ZM185.867 17.05C184.794 17.19 184.141 17.0967 183.907 16.77C183.627 16.4433 183.534 16.21 183.628 16.07C183.767 15.8367 184.024 15.6267 184.397 15.44C184.724 15.2067 185.377 15.1367 186.358 15.23C187.898 15.37 189.484 15.44 191.118 15.44C192.798 15.44 194.454 15.3233 196.088 15.09C196.228 14.9967 196.344 14.88 196.438 14.74C197.091 13.8533 197.581 13.1533 197.908 12.64C198.234 12.1267 198.538 11.66 198.818 11.24C199.098 10.82 199.401 10.3767 199.728 9.91C200.101 9.39667 200.614 8.69667 201.268 7.81C201.408 7.53 201.618 7.29666 201.898 7.11C202.224 6.87666 202.528 6.87666 202.808 7.11C202.901 7.20333 202.971 7.36666 203.018 7.6C203.064 7.83333 203.088 8.04333 203.088 8.23C203.041 8.41667 202.948 8.60333 202.808 8.79C202.668 8.97666 202.551 9.14 202.458 9.28C201.944 9.98 201.571 10.4933 201.338 10.82C201.151 11.1467 200.964 11.4733 200.778 11.8C200.591 12.1267 200.358 12.5233 200.078 12.99C199.798 13.4567 199.308 14.18 198.608 15.16C199.588 15.3467 200.848 15.4867 202.388 15.58C203.974 15.6267 205.678 15.65 207.498 15.65C209.318 15.6033 211.184 15.5333 213.098 15.44C215.058 15.3 216.924 15.1367 218.698 14.95C219.818 14.8567 220.868 14.7633 221.848 14.67C222.828 14.5767 223.644 14.5533 224.298 14.6C225.464 14.6933 226.001 14.9267 225.908 15.3C225.814 15.6733 225.278 15.9767 224.298 16.21C223.458 16.35 222.291 16.4667 220.798 16.56C219.351 16.6533 217.764 16.7467 216.038 16.84C214.311 16.8867 212.491 16.9333 210.578 16.98C208.711 16.98 206.914 16.98 205.188 16.98C203.508 16.9333 201.968 16.91 200.568 16.91C199.214 16.91 198.164 16.8867 197.418 16.84C196.624 17.8667 195.784 18.9867 194.898 20.2C194.058 21.4133 193.218 22.65 192.378 23.91C191.584 25.17 190.838 26.4067 190.138 27.62C189.438 28.7867 188.831 29.86 188.318 30.84C187.898 31.68 187.478 32.6133 187.058 33.64C186.638 34.62 186.358 35.5067 186.218 36.3C186.124 37.0467 186.264 37.6067 186.638 37.98C187.011 38.3067 187.758 38.2367 188.878 37.77C189.391 37.5833 189.974 37.3033 190.628 36.93C191.281 36.5567 191.958 36.16 192.658 35.74C193.358 35.2733 194.034 34.8067 194.688 34.34C195.341 33.8267 195.948 33.3367 196.508 32.87C196.741 32.73 196.928 32.59 197.068 32.45C197.208 32.2633 197.394 32.1233 197.628 32.03C197.908 31.8433 198.141 31.7267 198.328 31.68C198.561 31.5867 198.794 31.68 199.028 31.96C199.214 32.24 199.238 32.52 199.098 32.8C199.004 33.0333 198.841 33.2667 198.608 33.5C198.328 33.78 197.838 34.1767 197.138 34.69C196.438 35.2033 195.621 35.74 194.688 36.3C193.801 36.86 192.844 37.42 191.818 37.98C190.838 38.4933 189.904 38.9133 189.018 39.24C187.431 39.8 186.334 39.87 185.727 39.45C185.074 38.9833 184.724 38.3067 184.677 37.42C184.584 36.5333 184.701 35.5533 185.027 34.48C185.354 33.4067 185.681 32.4733 186.008 31.68C186.568 30.3733 187.221 29.0667 187.968 27.76C188.714 26.4533 189.484 25.17 190.278 23.91C191.118 22.65 191.934 21.4367 192.728 20.27C193.568 19.0567 194.314 17.9367 194.968 16.91C193.428 16.9567 191.841 17.0033 190.208 17.05C188.621 17.05 187.174 17.05 185.867 17.05ZM268.415 12.15C269.302 12.0567 270.118 11.9867 270.865 11.94C271.612 11.8933 272.382 11.87 273.175 11.87C275.415 11.73 277.632 11.6833 279.825 11.73C282.018 11.7767 284.235 12.0567 286.475 12.57C287.595 12.85 288.738 13.2467 289.905 13.76C291.398 14.46 292.425 15.4167 292.985 16.63C293.545 17.8433 293.568 19.15 293.055 20.55C292.822 21.3433 292.472 22.0667 292.005 22.72C291.538 23.3267 291.048 23.91 290.535 24.47C289.415 25.59 288.202 26.6167 286.895 27.55C285.635 28.4367 284.328 29.2767 282.975 30.07C276.442 33.99 269.232 36.65 261.345 38.05C259.665 38.3767 257.962 38.6567 256.235 38.89C254.555 39.0767 252.782 39.0767 250.915 38.89C250.308 38.8433 249.842 39.0767 249.515 39.59C248.535 40.85 247.555 42.11 246.575 43.37C245.595 44.5833 244.615 45.82 243.635 47.08C242.282 48.9 240.835 50.58 239.295 52.12C237.755 53.66 236.098 55.13 234.325 56.53C234.092 56.7633 233.835 56.9733 233.555 57.16C233.322 57.3467 232.995 57.5333 232.575 57.72C232.668 57.58 232.738 57.4633 232.785 57.37C232.878 57.23 232.972 57.09 233.065 56.95C234.698 54.85 236.308 52.7733 237.895 50.72C239.528 48.6667 241.138 46.59 242.725 44.49C243.565 43.4633 244.382 42.4367 245.175 41.41C245.968 40.3367 246.832 39.2167 247.765 38.05C247.392 38.0033 247.135 37.8867 246.995 37.7C246.202 37.0933 245.758 36.44 245.665 35.74C245.618 35.04 245.922 34.3633 246.575 33.71C247.228 33.1967 247.905 32.7533 248.605 32.38C249.352 32.0067 250.168 31.7733 251.055 31.68C252.408 31.4933 253.388 30.84 253.995 29.72C255.628 27.34 257.262 24.96 258.895 22.58C260.575 20.2 262.232 17.7967 263.865 15.37C263.912 15.2767 263.982 15.16 264.075 15.02C264.168 14.88 264.262 14.67 264.355 14.39C263.702 14.53 263.095 14.6233 262.535 14.67C261.975 14.7167 261.462 14.7867 260.995 14.88C256.562 15.5333 252.198 16.3033 247.905 17.19C243.658 18.0767 239.365 19.0333 235.025 20.06C234.792 20.1533 234.535 20.2 234.255 20.2C233.975 20.2 233.718 20.2 233.485 20.2C233.252 19.8267 233.182 19.57 233.275 19.43C233.415 19.29 233.602 19.15 233.835 19.01C234.255 18.87 234.652 18.73 235.025 18.59C235.445 18.4033 235.912 18.2633 236.425 18.17C239.225 17.5167 242.002 16.8867 244.755 16.28C247.555 15.6267 250.378 15.02 253.225 14.46C255.185 14.0867 257.145 13.76 259.105 13.48C261.065 13.1533 263.025 12.8267 264.985 12.5C265.358 12.4533 265.615 12.3367 265.755 12.15C265.895 11.9633 266.035 11.7533 266.175 11.52C267.108 10.0267 268.018 8.53333 268.905 7.04C269.792 5.54666 270.678 4.07666 271.565 2.63C271.798 2.35 271.985 2.07 272.125 1.79C272.312 1.46333 272.498 1.13666 272.685 0.809998C272.825 0.716663 272.942 0.623329 273.035 0.529997C273.128 0.389996 273.268 0.296663 273.455 0.249997C273.735 0.156665 273.968 0.179998 274.155 0.319996C274.435 0.506663 274.528 0.739997 274.435 1.02C274.435 1.25333 274.388 1.46333 274.295 1.65C274.202 1.83666 274.108 2 274.015 2.14C273.175 3.72666 272.288 5.29 271.355 6.83C270.468 8.37 269.558 9.93333 268.625 11.52C268.625 11.6133 268.555 11.8233 268.415 12.15ZM251.755 36.72C252.688 36.8133 253.528 36.86 254.275 36.86C255.022 36.8133 255.792 36.7433 256.585 36.65C259.338 36.2767 262.045 35.7633 264.705 35.11C267.365 34.4567 269.955 33.64 272.475 32.66C275.135 31.5867 277.655 30.42 280.035 29.16C282.462 27.8533 284.795 26.3367 287.035 24.61C287.828 24.0033 288.552 23.35 289.205 22.65C289.858 21.95 290.395 21.1333 290.815 20.2C291.935 17.82 291.072 16.1167 288.225 15.09C288.132 15.0433 288.015 15.02 287.875 15.02C287.782 14.9733 287.688 14.9267 287.595 14.88C284.935 14.0867 282.368 13.69 279.895 13.69C278.122 13.69 276.325 13.7367 274.505 13.83C272.685 13.8767 270.842 13.9 268.975 13.9C267.762 13.9 266.852 14.46 266.245 15.58C264.472 18.52 262.652 21.4133 260.785 24.26C258.918 27.06 256.935 29.86 254.835 32.66C254.322 33.2667 253.808 33.92 253.295 34.62C252.782 35.2733 252.268 35.9733 251.755 36.72ZM250.495 33.99C249.982 34.2233 249.492 34.48 249.025 34.76C248.605 34.9933 248.255 35.3667 247.975 35.88C248.162 35.9733 248.325 36.0667 248.465 36.16C248.605 36.2533 248.792 36.37 249.025 36.51C249.258 36.09 249.515 35.6933 249.795 35.32C250.122 34.9467 250.425 34.5733 250.705 34.2L250.495 33.99ZM302.769 34.55C302.209 34.5033 301.766 34.3633 301.439 34.13C301.112 33.8967 300.832 33.5933 300.599 33.22C300.412 32.8467 300.249 32.45 300.109 32.03C300.016 31.61 299.922 31.19 299.829 30.77C299.549 30.1167 299.152 29.79 298.639 29.79C298.126 29.79 297.589 29.9533 297.029 30.28C296.516 30.56 296.026 30.9333 295.559 31.4C295.092 31.8667 294.719 32.2167 294.439 32.45C292.806 33.8033 291.546 35.32 290.659 37C290.519 37.3733 290.309 37.6767 290.029 37.91C289.702 38.1433 289.399 38.3067 289.119 38.4C288.839 38.4467 288.606 38.4 288.419 38.26C288.186 38.12 288.069 37.84 288.069 37.42C288.069 37.1867 288.116 37 288.209 36.86C288.302 36.72 288.396 36.5567 288.489 36.37C289.376 34.7833 290.239 33.1967 291.079 31.61C291.919 30.0233 292.782 28.4367 293.669 26.85C293.902 26.3833 294.206 25.9633 294.579 25.59C294.672 25.4967 294.789 25.4267 294.929 25.38C295.116 25.3333 295.256 25.3567 295.349 25.45C295.676 25.6367 295.792 25.8933 295.699 26.22C295.699 26.5467 295.606 26.9433 295.419 27.41C295.092 28.0167 294.789 28.6233 294.509 29.23C294.229 29.8367 293.972 30.4667 293.739 31.12C294.112 30.84 294.346 30.6533 294.439 30.56C294.906 30.1867 295.326 29.8367 295.699 29.51C296.119 29.1367 296.539 28.81 296.959 28.53C297.519 28.0633 298.149 27.7833 298.849 27.69C300.249 27.3633 301.159 27.8767 301.579 29.23C301.672 29.6033 301.742 29.9533 301.789 30.28C301.836 30.6067 301.906 30.9333 301.999 31.26C302.092 31.7733 302.256 32.1233 302.489 32.31C302.722 32.45 303.119 32.4967 303.679 32.45C303.912 32.45 304.146 32.45 304.379 32.45C304.659 32.4033 304.916 32.38 305.149 32.38C305.802 32.3333 306.246 32.4267 306.479 32.66C306.712 32.8933 306.736 33.1733 306.549 33.5C306.362 33.78 305.942 34.0367 305.289 34.27C304.682 34.5033 303.842 34.5967 302.769 34.55ZM319.838 32.31C320.072 32.2167 320.282 32.1467 320.468 32.1C320.655 32.0067 320.865 31.9133 321.098 31.82C321.658 31.7267 322.055 31.89 322.288 32.31C322.522 32.87 322.382 33.2667 321.868 33.5C320.142 34.3867 318.345 35.0633 316.478 35.53C314.612 35.9967 312.745 36.2767 310.878 36.37C310.225 36.4167 309.525 36.4167 308.778 36.37C308.078 36.3233 307.425 36.16 306.818 35.88C306.258 35.6 305.838 35.2033 305.558 34.69C305.278 34.13 305.255 33.3833 305.488 32.45C305.815 31.5167 306.118 30.8633 306.398 30.49C306.678 30.1167 307.215 29.72 308.008 29.3C308.848 28.9267 309.712 28.67 310.598 28.53C311.532 28.3433 312.418 28.25 313.258 28.25C314.052 28.3433 314.518 28.74 314.658 29.44C314.798 30.1867 314.542 30.7467 313.888 31.12C313.422 31.4 312.932 31.6567 312.418 31.89C311.905 32.0767 311.368 32.2633 310.808 32.45C310.388 32.5433 309.945 32.6133 309.478 32.66C309.012 32.7067 308.545 32.73 308.078 32.73C307.378 32.73 306.982 32.8933 306.888 33.22C306.842 33.5 306.982 33.8033 307.308 34.13C307.775 34.5967 308.592 34.8533 309.758 34.9C310.925 34.9 312.162 34.8067 313.468 34.62C314.822 34.3867 316.082 34.06 317.248 33.64C318.462 33.22 319.325 32.7767 319.838 32.31ZM312.768 30.28C313.095 29.86 313.095 29.65 312.768 29.65C312.488 29.6033 312.045 29.6733 311.438 29.86C310.878 30.0467 310.225 30.3267 309.478 30.7C308.732 31.0733 308.078 31.4467 307.518 31.82C308.218 31.9133 309.128 31.82 310.248 31.54C311.368 31.2133 312.208 30.7933 312.768 30.28ZM323.119 35.18C321.579 36.6267 320.202 38.0733 318.989 39.52C317.776 40.92 316.656 42.3667 315.629 43.86C314.556 45.3067 313.552 46.8233 312.619 48.41C311.639 49.95 310.659 51.56 309.679 53.24C309.492 53.4267 309.352 53.6133 309.259 53.8C309.119 53.9867 308.932 54.1967 308.699 54.43C308.512 54.6167 308.302 54.7333 308.069 54.78C307.789 54.8267 307.532 54.7567 307.299 54.57C307.066 54.3833 306.926 54.1733 306.879 53.94C306.832 53.7067 306.856 53.4733 306.949 53.24C307.136 52.82 307.346 52.4467 307.579 52.12C310.146 48.62 312.549 45.05 314.789 41.41C317.029 37.77 319.292 34.13 321.579 30.49C322.092 29.6967 322.559 28.9267 322.979 28.18C323.446 27.4333 323.936 26.6633 324.449 25.87C324.589 25.6367 324.752 25.4267 324.939 25.24C325.172 25.0533 325.499 24.96 325.919 24.96C326.246 25.24 326.339 25.52 326.199 25.8C326.106 26.08 326.012 26.3833 325.919 26.71C325.592 27.27 325.266 27.83 324.939 28.39C324.659 28.95 324.356 29.5333 324.029 30.14C323.702 30.56 323.469 31.0033 323.329 31.47C323.329 31.47 323.376 31.5167 323.469 31.61C323.702 31.3767 323.889 31.19 324.029 31.05C324.216 30.91 324.426 30.7233 324.659 30.49C325.592 29.6967 326.479 28.9267 327.319 28.18C328.159 27.3867 329.046 26.6167 329.979 25.87C330.492 25.4967 331.029 25.1933 331.589 24.96C332.196 24.7267 332.802 24.4933 333.409 24.26C333.642 24.12 333.899 24.05 334.179 24.05C334.506 24.0033 334.809 24.0033 335.089 24.05C335.882 24.1433 336.489 24.4467 336.909 24.96C337.376 25.4267 337.609 26.01 337.609 26.71C337.609 27.41 337.469 28.0633 337.189 28.67C336.956 29.23 336.652 29.7667 336.279 30.28C335.999 30.56 335.696 30.9333 335.369 31.4C335.602 31.4467 335.789 31.47 335.929 31.47C336.116 31.47 336.256 31.47 336.349 31.47C336.956 31.5167 337.539 31.54 338.099 31.54C338.706 31.54 339.312 31.5633 339.919 31.61C340.246 31.6567 340.549 31.7033 340.829 31.75C341.156 31.7967 341.459 31.89 341.739 32.03C342.392 32.2633 342.626 32.7067 342.439 33.36C342.252 33.8733 341.856 34.06 341.249 33.92C339.896 33.64 338.566 33.5233 337.259 33.57C335.999 33.57 334.716 33.6867 333.409 33.92C332.942 33.9667 332.499 34.06 332.079 34.2C331.659 34.2933 331.262 34.4333 330.889 34.62C330.002 34.9467 329.139 35.2733 328.299 35.6C327.459 35.9267 326.642 36.2533 325.849 36.58C325.289 36.7667 324.776 36.79 324.309 36.65C323.842 36.4633 323.446 35.9733 323.119 35.18ZM324.589 33.57C325.662 33.29 326.666 33.0567 327.599 32.87C328.532 32.6367 329.442 32.38 330.329 32.1C331.402 31.7733 332.312 31.26 333.059 30.56C333.806 29.86 334.482 29.0667 335.089 28.18C335.182 28.04 335.252 27.9 335.299 27.76C335.392 27.62 335.462 27.4567 335.509 27.27C335.649 26.3367 335.276 25.9167 334.389 26.01C334.016 26.0567 333.642 26.15 333.269 26.29C332.942 26.43 332.616 26.57 332.289 26.71C331.076 27.3633 329.979 28.1333 328.999 29.02C328.019 29.9067 327.062 30.8167 326.129 31.75C325.896 32.03 325.662 32.31 325.429 32.59C325.196 32.87 324.916 33.1967 324.589 33.57ZM353.697 34.55C353.137 34.5033 352.694 34.3633 352.367 34.13C352.04 33.8967 351.76 33.5933 351.527 33.22C351.34 32.8467 351.177 32.45 351.037 32.03C350.944 31.61 350.85 31.19 350.757 30.77C350.477 30.1167 350.08 29.79 349.567 29.79C349.054 29.79 348.517 29.9533 347.957 30.28C347.444 30.56 346.954 30.9333 346.487 31.4C346.02 31.8667 345.647 32.2167 345.367 32.45C343.734 33.8033 342.474 35.32 341.587 37C341.447 37.3733 341.237 37.6767 340.957 37.91C340.63 38.1433 340.327 38.3067 340.047 38.4C339.767 38.4467 339.534 38.4 339.347 38.26C339.114 38.12 338.997 37.84 338.997 37.42C338.997 37.1867 339.044 37 339.137 36.86C339.23 36.72 339.324 36.5567 339.417 36.37C340.304 34.7833 341.167 33.1967 342.007 31.61C342.847 30.0233 343.71 28.4367 344.597 26.85C344.83 26.3833 345.134 25.9633 345.507 25.59C345.6 25.4967 345.717 25.4267 345.857 25.38C346.044 25.3333 346.184 25.3567 346.277 25.45C346.604 25.6367 346.72 25.8933 346.627 26.22C346.627 26.5467 346.534 26.9433 346.347 27.41C346.02 28.0167 345.717 28.6233 345.437 29.23C345.157 29.8367 344.9 30.4667 344.667 31.12C345.04 30.84 345.274 30.6533 345.367 30.56C345.834 30.1867 346.254 29.8367 346.627 29.51C347.047 29.1367 347.467 28.81 347.887 28.53C348.447 28.0633 349.077 27.7833 349.777 27.69C351.177 27.3633 352.087 27.8767 352.507 29.23C352.6 29.6033 352.67 29.9533 352.717 30.28C352.764 30.6067 352.834 30.9333 352.927 31.26C353.02 31.7733 353.184 32.1233 353.417 32.31C353.65 32.45 354.047 32.4967 354.607 32.45C354.84 32.45 355.074 32.45 355.307 32.45C355.587 32.4033 355.844 32.38 356.077 32.38C356.73 32.3333 357.174 32.4267 357.407 32.66C357.64 32.8933 357.664 33.1733 357.477 33.5C357.29 33.78 356.87 34.0367 356.217 34.27C355.61 34.5033 354.77 34.5967 353.697 34.55ZM365.096 32.31C365.656 32.2167 366.193 32.1467 366.706 32.1C367.219 32.0067 367.733 31.9133 368.246 31.82C368.619 31.7267 369.086 31.6567 369.646 31.61C370.206 31.5633 370.696 31.4933 371.116 31.4C371.349 31.4 371.513 31.4 371.606 31.4C371.746 31.4 371.933 31.4467 372.166 31.54C372.306 31.6333 372.423 31.7733 372.516 31.96C372.656 32.1 372.703 32.2633 372.656 32.45C372.656 32.5433 372.563 32.66 372.376 32.8C372.189 32.94 372.049 33.01 371.956 33.01C371.489 33.1033 371.046 33.1967 370.626 33.29C370.253 33.3367 369.833 33.3833 369.366 33.43C368.479 33.6167 367.593 33.78 366.706 33.92C365.866 34.0133 365.026 34.1533 364.186 34.34C363.673 34.4333 363.253 34.6667 362.926 35.04C361.946 35.9733 361.129 36.7433 360.476 37.35C359.869 37.9567 359.123 38.4 358.236 38.68C357.583 38.8667 356.976 38.9133 356.416 38.82C355.856 38.68 355.436 38.3533 355.156 37.84C354.876 37.3267 354.829 36.6267 355.016 35.74C355.203 34.8067 355.716 33.6633 356.556 32.31C357.163 31.3767 357.863 30.5367 358.656 29.79C359.496 28.9967 360.383 28.2267 361.316 27.48C361.689 27.2 362.086 26.9667 362.506 26.78C362.926 26.5467 363.416 26.4067 363.976 26.36C364.769 26.2667 365.376 26.4067 365.796 26.78C366.216 27.1067 366.403 27.6667 366.356 28.46C366.356 28.8333 366.286 29.23 366.146 29.65C366.006 30.0233 365.889 30.42 365.796 30.84C365.703 31.0733 365.586 31.3067 365.446 31.54C365.353 31.7267 365.236 31.9833 365.096 32.31ZM358.376 32.66C357.583 33.64 357.186 34.48 357.186 35.18C357.186 35.8333 357.396 36.2767 357.816 36.51C358.283 36.6967 358.819 36.65 359.426 36.37C360.079 36.0433 360.639 35.39 361.106 34.41C360.359 34.41 359.753 34.2933 359.286 34.06C358.819 33.78 358.516 33.3133 358.376 32.66ZM364.326 28.04C362.693 28.5533 361.479 29.51 360.686 30.91C360.593 31.0967 360.546 31.2833 360.546 31.47C360.546 31.6567 360.663 31.8433 360.896 32.03C361.176 32.31 361.549 32.4267 362.016 32.38C362.529 32.3333 362.879 32.1233 363.066 31.75C363.346 31.3767 363.579 30.9567 363.766 30.49C363.999 30.0233 364.186 29.58 364.326 29.16C364.419 29.0667 364.443 28.9267 364.396 28.74C364.349 28.5533 364.326 28.32 364.326 28.04ZM386.376 33.85C386.19 33.99 385.863 34.1533 385.396 34.34C383.856 34.9933 382.293 35.5767 380.706 36.09C379.166 36.6033 377.556 36.9067 375.876 37C375.503 37.0933 375.083 37.14 374.616 37.14C374.196 37.0933 373.776 37.0233 373.356 36.93C372.283 36.65 371.536 36.1133 371.116 35.32C370.65 34.48 370.673 33.5 371.186 32.38C371.28 32.24 371.35 32.1 371.396 31.96C371.443 31.7733 371.513 31.61 371.606 31.47C372.493 30.3033 373.473 29.3467 374.546 28.6C375.62 27.8067 376.88 27.2467 378.326 26.92C378.746 26.78 379.19 26.7333 379.656 26.78C380.123 26.78 380.566 26.85 380.986 26.99C381.686 27.2233 382.13 27.7133 382.316 28.46C382.55 29.16 382.41 29.79 381.896 30.35C381.803 30.4433 381.686 30.5367 381.546 30.63C381.406 30.6767 381.243 30.7 381.056 30.7C380.963 30.7 380.893 30.63 380.846 30.49C380.8 30.3033 380.73 30.1633 380.636 30.07C380.543 29.3233 380.38 28.8567 380.146 28.67C379.913 28.4833 379.446 28.4833 378.746 28.67C377.626 28.9967 376.623 29.4867 375.736 30.14C374.85 30.7933 374.08 31.54 373.426 32.38C373.24 32.6133 373.076 32.9167 372.936 33.29C372.656 34.2233 372.96 34.7833 373.846 34.97C374.5 35.1567 375.223 35.18 376.016 35.04C377.276 34.9467 378.49 34.7367 379.656 34.41C380.823 34.0833 381.943 33.6633 383.016 33.15C383.483 32.9633 383.926 32.7767 384.346 32.59C384.766 32.4033 385.21 32.2633 385.676 32.17C386.843 31.89 387.496 31.96 387.636 32.38C387.776 32.7533 387.356 33.2433 386.376 33.85ZM400.981 32.31C401.214 32.2167 401.424 32.1467 401.611 32.1C401.797 32.0067 402.007 31.9133 402.241 31.82C402.801 31.7267 403.197 31.89 403.431 32.31C403.664 32.87 403.524 33.2667 403.011 33.5C401.284 34.3867 399.487 35.0633 397.621 35.53C395.754 35.9967 393.887 36.2767 392.021 36.37C391.367 36.4167 390.667 36.4167 389.921 36.37C389.221 36.3233 388.567 36.16 387.961 35.88C387.401 35.6 386.981 35.2033 386.701 34.69C386.421 34.13 386.397 33.3833 386.631 32.45C386.957 31.5167 387.261 30.8633 387.541 30.49C387.821 30.1167 388.357 29.72 389.151 29.3C389.991 28.9267 390.854 28.67 391.741 28.53C392.674 28.3433 393.561 28.25 394.401 28.25C395.194 28.3433 395.661 28.74 395.801 29.44C395.941 30.1867 395.684 30.7467 395.031 31.12C394.564 31.4 394.074 31.6567 393.561 31.89C393.047 32.0767 392.511 32.2633 391.951 32.45C391.531 32.5433 391.087 32.6133 390.621 32.66C390.154 32.7067 389.687 32.73 389.221 32.73C388.521 32.73 388.124 32.8933 388.031 33.22C387.984 33.5 388.124 33.8033 388.451 34.13C388.917 34.5967 389.734 34.8533 390.901 34.9C392.067 34.9 393.304 34.8067 394.611 34.62C395.964 34.3867 397.224 34.06 398.391 33.64C399.604 33.22 400.467 32.7767 400.981 32.31ZM393.911 30.28C394.237 29.86 394.237 29.65 393.911 29.65C393.631 29.6033 393.187 29.6733 392.581 29.86C392.021 30.0467 391.367 30.3267 390.621 30.7C389.874 31.0733 389.221 31.4467 388.661 31.82C389.361 31.9133 390.271 31.82 391.391 31.54C392.511 31.2133 393.351 30.7933 393.911 30.28ZM407.901 32.03C408.321 31.61 408.625 31.12 408.811 30.56C409.045 29.9533 409.115 29.44 409.021 29.02C408.928 28.5533 408.671 28.25 408.251 28.11C407.831 27.9233 407.225 28.0633 406.431 28.53C406.058 28.7633 405.661 29.0667 405.241 29.44C404.821 29.8133 404.471 30.2333 404.191 30.7C403.911 31.12 403.748 31.5633 403.701 32.03C403.701 32.4967 403.911 32.8933 404.331 33.22C404.798 33.6867 405.288 34.1767 405.801 34.69C406.315 35.1567 406.828 35.6 407.341 36.02C408.695 35.4133 410.025 34.8767 411.331 34.41C412.638 33.9433 413.968 33.3133 415.321 32.52C415.881 32.1933 416.395 32.0067 416.861 31.96C417.095 31.96 417.328 32.0067 417.561 32.1C417.795 32.1467 417.958 32.3333 418.051 32.66C417.911 33.08 417.678 33.3833 417.351 33.57C417.025 33.71 416.698 33.8267 416.371 33.92C415.718 34.2 414.948 34.5033 414.061 34.83C413.175 35.11 412.288 35.4367 411.401 35.81C410.515 36.1367 409.698 36.51 408.951 36.93C408.205 37.35 407.668 37.7933 407.341 38.26C406.968 39.0067 406.338 39.6833 405.451 40.29C404.471 40.9433 403.445 41.5033 402.371 41.97C401.345 42.39 400.225 42.67 399.011 42.81C398.405 42.8567 397.751 42.81 397.051 42.67C396.865 42.6233 396.725 42.5067 396.631 42.32C396.491 42.1333 396.398 41.9233 396.351 41.69C396.258 41.4567 396.305 41.2933 396.491 41.2C396.678 41.1067 396.865 40.99 397.051 40.85C398.171 39.9167 399.385 39.1 400.691 38.4C401.951 37.6533 403.398 37.0233 405.031 36.51C404.891 36.37 404.728 36.2533 404.541 36.16C404.401 36.02 404.261 35.8567 404.121 35.67C403.795 35.39 403.468 35.11 403.141 34.83C402.861 34.55 402.605 34.2467 402.371 33.92C401.858 33.2667 401.601 32.59 401.601 31.89C401.601 31.1433 401.881 30.4433 402.441 29.79C403.235 28.95 404.098 28.25 405.031 27.69C406.011 27.13 407.085 26.78 408.251 26.64C409.698 26.4067 410.631 26.8033 411.051 27.83C411.331 28.3433 411.401 28.8567 411.261 29.37C411.121 29.8833 410.865 30.35 410.491 30.77C410.118 31.2367 409.768 31.5867 409.441 31.82C409.115 32.0067 408.695 32.2167 408.181 32.45C408.135 32.3567 408.088 32.2867 408.041 32.24C407.995 32.1933 407.948 32.1233 407.901 32.03ZM399.571 40.64C399.245 41.2 399.245 41.5033 399.571 41.55C399.898 41.5967 400.388 41.48 401.041 41.2C401.648 40.92 402.348 40.5233 403.141 40.01C403.935 39.45 404.658 38.8667 405.311 38.26C404.425 38.26 403.398 38.47 402.231 38.89C401.065 39.2633 400.178 39.8467 399.571 40.64ZM423.214 32.03C423.634 31.61 423.937 31.12 424.124 30.56C424.357 29.9533 424.427 29.44 424.334 29.02C424.241 28.5533 423.984 28.25 423.564 28.11C423.144 27.9233 422.537 28.0633 421.744 28.53C421.371 28.7633 420.974 29.0667 420.554 29.44C420.134 29.8133 419.784 30.2333 419.504 30.7C419.224 31.12 419.061 31.5633 419.014 32.03C419.014 32.4967 419.224 32.8933 419.644 33.22C420.111 33.6867 420.601 34.1767 421.114 34.69C421.627 35.1567 422.141 35.6 422.654 36.02C424.007 35.4133 425.337 34.8767 426.644 34.41C427.951 33.9433 429.281 33.3133 430.634 32.52C431.194 32.1933 431.707 32.0067 432.174 31.96C432.407 31.96 432.641 32.0067 432.874 32.1C433.107 32.1467 433.271 32.3333 433.364 32.66C433.224 33.08 432.991 33.3833 432.664 33.57C432.337 33.71 432.011 33.8267 431.684 33.92C431.031 34.2 430.261 34.5033 429.374 34.83C428.487 35.11 427.601 35.4367 426.714 35.81C425.827 36.1367 425.011 36.51 424.264 36.93C423.517 37.35 422.981 37.7933 422.654 38.26C422.281 39.0067 421.651 39.6833 420.764 40.29C419.784 40.9433 418.757 41.5033 417.684 41.97C416.657 42.39 415.537 42.67 414.324 42.81C413.717 42.8567 413.064 42.81 412.364 42.67C412.177 42.6233 412.037 42.5067 411.944 42.32C411.804 42.1333 411.711 41.9233 411.664 41.69C411.571 41.4567 411.617 41.2933 411.804 41.2C411.991 41.1067 412.177 40.99 412.364 40.85C413.484 39.9167 414.697 39.1 416.004 38.4C417.264 37.6533 418.711 37.0233 420.344 36.51C420.204 36.37 420.041 36.2533 419.854 36.16C419.714 36.02 419.574 35.8567 419.434 35.67C419.107 35.39 418.781 35.11 418.454 34.83C418.174 34.55 417.917 34.2467 417.684 33.92C417.171 33.2667 416.914 32.59 416.914 31.89C416.914 31.1433 417.194 30.4433 417.754 29.79C418.547 28.95 419.411 28.25 420.344 27.69C421.324 27.13 422.397 26.78 423.564 26.64C425.011 26.4067 425.944 26.8033 426.364 27.83C426.644 28.3433 426.714 28.8567 426.574 29.37C426.434 29.8833 426.177 30.35 425.804 30.77C425.431 31.2367 425.081 31.5867 424.754 31.82C424.427 32.0067 424.007 32.2167 423.494 32.45C423.447 32.3567 423.401 32.2867 423.354 32.24C423.307 32.1933 423.261 32.1233 423.214 32.03ZM414.884 40.64C414.557 41.2 414.557 41.5033 414.884 41.55C415.211 41.5967 415.701 41.48 416.354 41.2C416.961 40.92 417.661 40.5233 418.454 40.01C419.247 39.45 419.971 38.8667 420.624 38.26C419.737 38.26 418.711 38.47 417.544 38.89C416.377 39.2633 415.491 39.8467 414.884 40.64ZM440.906 32.31C441.466 32.2167 442.003 32.1467 442.516 32.1C443.03 32.0067 443.543 31.9133 444.056 31.82C444.43 31.7267 444.896 31.6567 445.456 31.61C446.016 31.5633 446.506 31.4933 446.926 31.4C447.16 31.4 447.323 31.4 447.416 31.4C447.556 31.4 447.743 31.4467 447.976 31.54C448.116 31.6333 448.233 31.7733 448.326 31.96C448.466 32.1 448.513 32.2633 448.466 32.45C448.466 32.5433 448.373 32.66 448.186 32.8C448 32.94 447.86 33.01 447.766 33.01C447.3 33.1033 446.856 33.1967 446.436 33.29C446.063 33.3367 445.643 33.3833 445.176 33.43C444.29 33.6167 443.403 33.78 442.516 33.92C441.676 34.0133 440.836 34.1533 439.996 34.34C439.483 34.4333 439.063 34.6667 438.736 35.04C437.756 35.9733 436.94 36.7433 436.286 37.35C435.68 37.9567 434.933 38.4 434.046 38.68C433.393 38.8667 432.786 38.9133 432.226 38.82C431.666 38.68 431.246 38.3533 430.966 37.84C430.686 37.3267 430.64 36.6267 430.826 35.74C431.013 34.8067 431.526 33.6633 432.366 32.31C432.973 31.3767 433.673 30.5367 434.466 29.79C435.306 28.9967 436.193 28.2267 437.126 27.48C437.5 27.2 437.896 26.9667 438.316 26.78C438.736 26.5467 439.226 26.4067 439.786 26.36C440.58 26.2667 441.186 26.4067 441.606 26.78C442.026 27.1067 442.213 27.6667 442.166 28.46C442.166 28.8333 442.096 29.23 441.956 29.65C441.816 30.0233 441.7 30.42 441.606 30.84C441.513 31.0733 441.396 31.3067 441.256 31.54C441.163 31.7267 441.046 31.9833 440.906 32.31ZM434.186 32.66C433.393 33.64 432.996 34.48 432.996 35.18C432.996 35.8333 433.206 36.2767 433.626 36.51C434.093 36.6967 434.63 36.65 435.236 36.37C435.89 36.0433 436.45 35.39 436.916 34.41C436.17 34.41 435.563 34.2933 435.096 34.06C434.63 33.78 434.326 33.3133 434.186 32.66ZM440.136 28.04C438.503 28.5533 437.29 29.51 436.496 30.91C436.403 31.0967 436.356 31.2833 436.356 31.47C436.356 31.6567 436.473 31.8433 436.706 32.03C436.986 32.31 437.36 32.4267 437.826 32.38C438.34 32.3333 438.69 32.1233 438.876 31.75C439.156 31.3767 439.39 30.9567 439.576 30.49C439.81 30.0233 439.996 29.58 440.136 29.16C440.23 29.0667 440.253 28.9267 440.206 28.74C440.16 28.5533 440.136 28.32 440.136 28.04ZM459.107 34.55C458.547 34.5033 458.104 34.3633 457.777 34.13C457.45 33.8967 457.17 33.5933 456.937 33.22C456.75 32.8467 456.587 32.45 456.447 32.03C456.354 31.61 456.26 31.19 456.167 30.77C455.887 30.1167 455.49 29.79 454.977 29.79C454.464 29.79 453.927 29.9533 453.367 30.28C452.854 30.56 452.364 30.9333 451.897 31.4C451.43 31.8667 451.057 32.2167 450.777 32.45C449.144 33.8033 447.884 35.32 446.997 37C446.857 37.3733 446.647 37.6767 446.367 37.91C446.04 38.1433 445.737 38.3067 445.457 38.4C445.177 38.4467 444.944 38.4 444.757 38.26C444.524 38.12 444.407 37.84 444.407 37.42C444.407 37.1867 444.454 37 444.547 36.86C444.64 36.72 444.734 36.5567 444.827 36.37C445.714 34.7833 446.577 33.1967 447.417 31.61C448.257 30.0233 449.12 28.4367 450.007 26.85C450.24 26.3833 450.544 25.9633 450.917 25.59C451.01 25.4967 451.127 25.4267 451.267 25.38C451.454 25.3333 451.594 25.3567 451.687 25.45C452.014 25.6367 452.13 25.8933 452.037 26.22C452.037 26.5467 451.944 26.9433 451.757 27.41C451.43 28.0167 451.127 28.6233 450.847 29.23C450.567 29.8367 450.31 30.4667 450.077 31.12C450.45 30.84 450.684 30.6533 450.777 30.56C451.244 30.1867 451.664 29.8367 452.037 29.51C452.457 29.1367 452.877 28.81 453.297 28.53C453.857 28.0633 454.487 27.7833 455.187 27.69C456.587 27.3633 457.497 27.8767 457.917 29.23C458.01 29.6033 458.08 29.9533 458.127 30.28C458.174 30.6067 458.244 30.9333 458.337 31.26C458.43 31.7733 458.594 32.1233 458.827 32.31C459.06 32.45 459.457 32.4967 460.017 32.45C460.25 32.45 460.484 32.45 460.717 32.45C460.997 32.4033 461.254 32.38 461.487 32.38C462.14 32.3333 462.584 32.4267 462.817 32.66C463.05 32.8933 463.074 33.1733 462.887 33.5C462.7 33.78 462.28 34.0367 461.627 34.27C461.02 34.5033 460.18 34.5967 459.107 34.55Z" fill="black"/>
</svg>
