<svg width="232" height="133" viewBox="0 0 232 133" fill="none" xmlns="http://www.w3.org/2000/svg">
<path d="M59.78 27.1C61.74 27.1467 63.63 27.24 65.45 27.38C67.27 27.4733 69.0667 27.8 70.84 28.36V28.64C69.9067 28.6867 69.02 28.78 68.18 28.92C67.34 29.0133 66.4533 29.0833 65.52 29.13C64.4933 29.2233 63.4667 29.27 62.44 29.27C61.46 29.27 60.4333 29.27 59.36 29.27C58.6133 29.27 58.0067 29.62 57.54 30.32C55.16 33.82 52.78 37.3433 50.4 40.89C48.02 44.39 45.64 47.89 43.26 51.39C42.7467 52.09 42.2333 52.79 41.72 53.49C41.2067 54.19 40.6933 54.89 40.18 55.59C39.5267 56.5233 38.8733 56.78 38.22 56.36C37.5667 55.9867 37.52 55.2867 38.08 54.26C38.3133 53.6067 38.6167 53.0467 38.99 52.58C39.41 52.1133 39.8533 51.6233 40.32 51.11C41.0667 50.3633 41.7433 49.57 42.35 48.73C42.9567 47.89 43.5633 47.05 44.17 46.21C45.99 43.55 47.7867 40.9133 49.56 38.3C51.3333 35.64 53.1067 32.98 54.88 30.32C54.9733 30.18 55.0433 30.04 55.09 29.9C55.1833 29.76 55.3 29.5967 55.44 29.41C55.2067 29.3633 54.9967 29.34 54.81 29.34C54.67 29.2933 54.53 29.27 54.39 29.27C53.0367 29.27 51.6833 29.2933 50.33 29.34C49.0233 29.34 47.6933 29.3167 46.34 29.27C45.5 29.27 44.9167 29.62 44.59 30.32C43.6567 31.72 42.7 33.1433 41.72 34.59C40.7867 36.0367 39.83 37.4367 38.85 38.79C38.29 39.6767 37.6833 40.4933 37.03 41.24C36.3767 41.94 35.7233 42.6867 35.07 43.48C34.79 43.9 34.4867 44.2967 34.16 44.67C33.88 44.9967 33.6 45.3467 33.32 45.72C33.04 45.4867 32.9467 45.2533 33.04 45.02C33.1333 44.7867 33.2267 44.5767 33.32 44.39C33.88 43.4567 34.4167 42.5233 34.93 41.59C35.4433 40.61 36.0033 39.6533 36.61 38.72C37.5433 37.2267 38.4767 35.78 39.41 34.38C40.39 32.9333 41.37 31.4633 42.35 29.97C42.3967 29.8767 42.42 29.8067 42.42 29.76C42.4667 29.6667 42.5367 29.55 42.63 29.41C42.3967 29.41 42.21 29.41 42.07 29.41C41.9767 29.3633 41.8367 29.34 41.65 29.34C39.41 29.34 37.17 29.34 34.93 29.34C32.69 29.34 30.45 29.3633 28.21 29.41C24.9433 29.5033 21.6767 29.62 18.41 29.76C15.19 29.8533 11.9233 29.9467 8.61 30.04C7.49 30.04 6.39333 30.0867 5.32 30.18C4.24667 30.2267 3.15 30.2733 2.03 30.32C1.79667 30.32 1.51667 30.2967 1.19 30.25C0.863333 30.2033 0.7 29.9933 0.7 29.62C0.653333 29.2467 0.77 28.99 1.05 28.85C1.33 28.71 1.63333 28.6167 1.96 28.57C2.84667 28.4767 3.71 28.3833 4.55 28.29C5.43667 28.15 6.27667 28.08 7.07 28.08C10.57 27.94 14.0233 27.8233 17.43 27.73C20.8367 27.59 24.2433 27.4733 27.65 27.38C32.7367 27.24 37.87 27.17 43.05 27.17C43.89 27.17 44.52 26.7967 44.94 26.05C46.8067 23.3433 48.6733 20.66 50.54 18C52.4067 15.2933 54.2733 12.5633 56.14 9.81C56.7933 8.97 57.4 8.13 57.96 7.29C58.5667 6.45 59.22 5.58667 59.92 4.7C60.06 4.46666 60.2467 4.25666 60.48 4.07C60.7133 3.83666 61.0867 3.79 61.6 3.93C61.5067 4.25667 61.4133 4.56 61.32 4.84C61.2267 5.07333 61.0867 5.30666 60.9 5.54C60.1067 6.75333 59.3133 7.99 58.52 9.25C57.7267 10.4633 56.9333 11.6767 56.14 12.89C54.6467 15.13 53.1533 17.37 51.66 19.61C50.1667 21.85 48.6733 24.09 47.18 26.33C47.1333 26.4233 47.0867 26.5167 47.04 26.61C46.9933 26.7033 46.9233 26.8667 46.83 27.1H48.02H56.07C56.4433 27.1 56.7233 27.03 56.91 26.89C57.0967 26.75 57.3067 26.5167 57.54 26.19C59.36 23.53 61.1567 20.87 62.93 18.21C64.75 15.5033 66.5467 12.7733 68.32 10.02C69.3 8.57333 70.28 7.10333 71.26 5.61C72.2867 4.11666 73.29 2.62333 74.27 1.13C74.41 0.896663 74.5733 0.66333 74.76 0.429997C74.9467 0.196664 75.2267 0.173331 75.6 0.359998C76.16 0.639997 76.2067 1.22333 75.74 2.11C75.2267 2.99667 74.7133 3.88333 74.2 4.77C73.6867 5.61 73.15 6.45 72.59 7.29C70.5833 10.4167 68.5767 13.52 66.57 16.6C64.5633 19.6333 62.5567 22.69 60.55 25.77C60.41 25.91 60.2933 26.0967 60.2 26.33C60.1067 26.5633 59.9667 26.82 59.78 27.1ZM83.0681 31.02C83.3948 30.88 83.6515 30.7633 83.8381 30.67C84.0248 30.5767 84.2115 30.46 84.3981 30.32C85.2848 29.8533 86.1481 29.3867 86.9881 28.92C87.8281 28.4533 88.6915 27.9867 89.5781 27.52C90.0448 27.24 90.5348 27.1 91.0481 27.1C91.2348 27.1 91.4215 27.17 91.6081 27.31C91.7948 27.45 91.9348 27.5667 92.0281 27.66C92.2615 28.08 92.0748 28.4767 91.4681 28.85C91.0015 29.13 90.5115 29.3867 89.9981 29.62C89.4848 29.8533 88.9715 30.1333 88.4581 30.46C87.2448 31.2533 86.0315 32.0467 84.8181 32.84C83.6048 33.5867 82.3915 34.3567 81.1781 35.15C80.4315 35.6633 79.8248 36.27 79.3581 36.97C78.8915 37.67 78.4015 38.37 77.8881 39.07C76.4415 41.31 74.9481 43.4567 73.4081 45.51C71.8215 47.5633 70.0948 49.5467 68.2281 51.46C67.4348 52.2067 66.6181 52.86 65.7781 53.42C65.4981 53.6533 65.2181 53.84 64.9381 53.98C64.6115 54.1667 64.2615 54.3067 63.8881 54.4C63.3748 54.4933 62.9315 54.4 62.5581 54.12C62.1848 53.84 62.0448 53.3967 62.1381 52.79C62.1381 52.23 62.3015 51.67 62.6281 51.11C63.2815 49.7567 64.0748 48.52 65.0081 47.4C65.8948 46.28 66.8748 45.2067 67.9481 44.18C69.5348 42.6867 71.1215 41.2167 72.7081 39.77C74.2948 38.2767 75.9048 36.7833 77.5381 35.29C77.7715 35.01 78.0048 34.73 78.2381 34.45C78.5181 34.1233 78.7748 33.7967 79.0081 33.47C79.8015 32.2567 80.5715 31.02 81.3181 29.76C82.0648 28.4533 82.8348 27.1467 83.6281 25.84C83.2548 25.84 82.9515 25.9333 82.7181 26.12C82.5315 26.26 82.3448 26.4 82.1581 26.54C81.3181 27.1467 80.4548 27.7533 79.5681 28.36C78.7281 28.92 77.7948 29.3867 76.7681 29.76C76.4415 29.9933 76.1381 30.11 75.8581 30.11C74.9248 30.25 74.2015 30.0867 73.6881 29.62C73.1748 29.1067 73.0348 28.3833 73.2681 27.45C73.4081 26.9833 73.5715 26.54 73.7581 26.12C73.9448 25.7 74.1548 25.28 74.3881 24.86C74.7615 24.2067 75.1348 23.5767 75.5081 22.97C75.9281 22.3633 76.3481 21.7567 76.7681 21.15C77.0015 20.87 77.2581 20.6833 77.5381 20.59C77.8181 20.45 78.1448 20.5667 78.5181 20.94C78.4248 21.1267 78.3315 21.3367 78.2381 21.57C78.1915 21.7567 78.0748 21.9433 77.8881 22.13C77.5148 22.9233 77.1181 23.67 76.6981 24.37C76.2781 25.07 75.8581 25.7933 75.4381 26.54C75.3448 26.7733 75.2515 27.03 75.1581 27.31C75.1115 27.59 74.9948 27.9167 74.8081 28.29C75.1815 28.1967 75.4848 28.15 75.7181 28.15C75.9981 28.15 76.2548 28.1033 76.4881 28.01C77.1415 27.6367 77.7715 27.2633 78.3781 26.89C78.9848 26.5167 79.5915 26.12 80.1981 25.7C80.9915 25.0933 81.7381 24.4867 82.4381 23.88C83.1381 23.2733 83.8848 22.6433 84.6781 21.99C84.9581 21.71 85.2615 21.5 85.5881 21.36C85.9148 21.1733 86.3115 21.1967 86.7781 21.43C87.4315 21.8033 87.4548 22.5733 86.8481 23.74C86.3348 24.7667 85.7981 25.7933 85.2381 26.82C84.6781 27.8467 84.1415 28.8967 83.6281 29.97C83.5348 30.0633 83.4415 30.18 83.3481 30.32C83.3015 30.46 83.2081 30.6933 83.0681 31.02ZM73.0581 42.22C72.2648 42.8733 71.4481 43.62 70.6081 44.46C69.7215 45.3 68.9048 46.14 68.1581 46.98C67.4115 47.82 66.7581 48.6133 66.1981 49.36C65.6381 50.1067 65.2648 50.7133 65.0781 51.18C65.5448 50.9 66.1748 50.41 66.9681 49.71C67.7148 49.01 68.4848 48.2167 69.2781 47.33C70.0248 46.4433 70.7481 45.5567 71.4481 44.67C72.1481 43.7367 72.6848 42.92 73.0581 42.22ZM93.158 30.18C91.618 31.6267 90.2413 33.0733 89.028 34.52C87.8146 35.92 86.6946 37.3667 85.668 38.86C84.5946 40.3067 83.5913 41.8233 82.658 43.41C81.678 44.95 80.698 46.56 79.718 48.24C79.5313 48.4267 79.3913 48.6133 79.298 48.8C79.158 48.9867 78.9713 49.1967 78.738 49.43C78.5513 49.6167 78.3413 49.7333 78.108 49.78C77.828 49.8267 77.5713 49.7567 77.338 49.57C77.1046 49.3833 76.9646 49.1733 76.918 48.94C76.8713 48.7067 76.8946 48.4733 76.988 48.24C77.1746 47.82 77.3846 47.4467 77.618 47.12C80.1846 43.62 82.588 40.05 84.828 36.41C87.068 32.77 89.3313 29.13 91.618 25.49C92.1313 24.6967 92.598 23.9267 93.018 23.18C93.4846 22.4333 93.9746 21.6633 94.488 20.87C94.628 20.6367 94.7913 20.4267 94.978 20.24C95.2113 20.0533 95.538 19.96 95.958 19.96C96.2846 20.24 96.378 20.52 96.238 20.8C96.1446 21.08 96.0513 21.3833 95.958 21.71C95.6313 22.27 95.3046 22.83 94.978 23.39C94.698 23.95 94.3946 24.5333 94.068 25.14C93.7413 25.56 93.508 26.0033 93.368 26.47C93.368 26.47 93.4146 26.5167 93.508 26.61C93.7413 26.3767 93.928 26.19 94.068 26.05C94.2546 25.91 94.4646 25.7233 94.698 25.49C95.6313 24.6967 96.518 23.9267 97.358 23.18C98.198 22.3867 99.0846 21.6167 100.018 20.87C100.531 20.4967 101.068 20.1933 101.628 19.96C102.235 19.7267 102.841 19.4933 103.448 19.26C103.681 19.12 103.938 19.05 104.218 19.05C104.545 19.0033 104.848 19.0033 105.128 19.05C105.921 19.1433 106.528 19.4467 106.948 19.96C107.415 20.4267 107.648 21.01 107.648 21.71C107.648 22.41 107.508 23.0633 107.228 23.67C106.995 24.23 106.691 24.7667 106.318 25.28C106.038 25.56 105.735 25.9333 105.408 26.4C105.641 26.4467 105.828 26.47 105.968 26.47C106.155 26.47 106.295 26.47 106.388 26.47C106.995 26.5167 107.578 26.54 108.138 26.54C108.745 26.54 109.351 26.5633 109.958 26.61C110.285 26.6567 110.588 26.7033 110.868 26.75C111.195 26.7967 111.498 26.89 111.778 27.03C112.431 27.2633 112.665 27.7067 112.478 28.36C112.291 28.8733 111.895 29.06 111.288 28.92C109.935 28.64 108.605 28.5233 107.298 28.57C106.038 28.57 104.755 28.6867 103.448 28.92C102.981 28.9667 102.538 29.06 102.118 29.2C101.698 29.2933 101.301 29.4333 100.928 29.62C100.041 29.9467 99.178 30.2733 98.338 30.6C97.498 30.9267 96.6813 31.2533 95.888 31.58C95.328 31.7667 94.8146 31.79 94.348 31.65C93.8813 31.4633 93.4846 30.9733 93.158 30.18ZM94.628 28.57C95.7013 28.29 96.7046 28.0567 97.638 27.87C98.5713 27.6367 99.4813 27.38 100.368 27.1C101.441 26.7733 102.351 26.26 103.098 25.56C103.845 24.86 104.521 24.0667 105.128 23.18C105.221 23.04 105.291 22.9 105.338 22.76C105.431 22.62 105.501 22.4567 105.548 22.27C105.688 21.3367 105.315 20.9167 104.428 21.01C104.055 21.0567 103.681 21.15 103.308 21.29C102.981 21.43 102.655 21.57 102.328 21.71C101.115 22.3633 100.018 23.1333 99.038 24.02C98.058 24.9067 97.1013 25.8167 96.168 26.75C95.9346 27.03 95.7013 27.31 95.468 27.59C95.2346 27.87 94.9546 28.1967 94.628 28.57ZM125.766 27.31C125.999 27.2167 126.209 27.1467 126.396 27.1C126.583 27.0067 126.793 26.9133 127.026 26.82C127.586 26.7267 127.983 26.89 128.216 27.31C128.449 27.87 128.309 28.2667 127.796 28.5C126.069 29.3867 124.273 30.0633 122.406 30.53C120.539 30.9967 118.673 31.2767 116.806 31.37C116.153 31.4167 115.453 31.4167 114.706 31.37C114.006 31.3233 113.353 31.16 112.746 30.88C112.186 30.6 111.766 30.2033 111.486 29.69C111.206 29.13 111.183 28.3833 111.416 27.45C111.743 26.5167 112.046 25.8633 112.326 25.49C112.606 25.1167 113.143 24.72 113.936 24.3C114.776 23.9267 115.639 23.67 116.526 23.53C117.459 23.3433 118.346 23.25 119.186 23.25C119.979 23.3433 120.446 23.74 120.586 24.44C120.726 25.1867 120.469 25.7467 119.816 26.12C119.349 26.4 118.859 26.6567 118.346 26.89C117.833 27.0767 117.296 27.2633 116.736 27.45C116.316 27.5433 115.873 27.6133 115.406 27.66C114.939 27.7067 114.473 27.73 114.006 27.73C113.306 27.73 112.909 27.8933 112.816 28.22C112.769 28.5 112.909 28.8033 113.236 29.13C113.703 29.5967 114.519 29.8533 115.686 29.9C116.853 29.9 118.089 29.8067 119.396 29.62C120.749 29.3867 122.009 29.06 123.176 28.64C124.389 28.22 125.253 27.7767 125.766 27.31ZM118.696 25.28C119.023 24.86 119.023 24.65 118.696 24.65C118.416 24.6033 117.973 24.6733 117.366 24.86C116.806 25.0467 116.153 25.3267 115.406 25.7C114.659 26.0733 114.006 26.4467 113.446 26.82C114.146 26.9133 115.056 26.82 116.176 26.54C117.296 26.2133 118.136 25.7933 118.696 25.28ZM138.707 29.55C138.147 29.5033 137.703 29.3633 137.377 29.13C137.05 28.8967 136.77 28.5933 136.537 28.22C136.35 27.8467 136.187 27.45 136.047 27.03C135.953 26.61 135.86 26.19 135.767 25.77C135.487 25.1167 135.09 24.79 134.577 24.79C134.063 24.79 133.527 24.9533 132.967 25.28C132.453 25.56 131.963 25.9333 131.497 26.4C131.03 26.8667 130.657 27.2167 130.377 27.45C128.743 28.8033 127.483 30.32 126.597 32C126.457 32.3733 126.247 32.6767 125.967 32.91C125.64 33.1433 125.337 33.3067 125.057 33.4C124.777 33.4467 124.543 33.4 124.357 33.26C124.123 33.12 124.007 32.84 124.007 32.42C124.007 32.1867 124.053 32 124.147 31.86C124.24 31.72 124.333 31.5567 124.427 31.37C125.313 29.7833 126.177 28.1967 127.017 26.61C127.857 25.0233 128.72 23.4367 129.607 21.85C129.84 21.3833 130.143 20.9633 130.517 20.59C130.61 20.4967 130.727 20.4267 130.867 20.38C131.053 20.3333 131.193 20.3567 131.287 20.45C131.613 20.6367 131.73 20.8933 131.637 21.22C131.637 21.5467 131.543 21.9433 131.357 22.41C131.03 23.0167 130.727 23.6233 130.447 24.23C130.167 24.8367 129.91 25.4667 129.677 26.12C130.05 25.84 130.283 25.6533 130.377 25.56C130.843 25.1867 131.263 24.8367 131.637 24.51C132.057 24.1367 132.477 23.81 132.897 23.53C133.457 23.0633 134.087 22.7833 134.787 22.69C136.187 22.3633 137.097 22.8767 137.517 24.23C137.61 24.6033 137.68 24.9533 137.727 25.28C137.773 25.6067 137.843 25.9333 137.937 26.26C138.03 26.7733 138.193 27.1233 138.427 27.31C138.66 27.45 139.057 27.4967 139.617 27.45C139.85 27.45 140.083 27.45 140.317 27.45C140.597 27.4033 140.853 27.38 141.087 27.38C141.74 27.3333 142.183 27.4267 142.417 27.66C142.65 27.8933 142.673 28.1733 142.487 28.5C142.3 28.78 141.88 29.0367 141.227 29.27C140.62 29.5033 139.78 29.5967 138.707 29.55ZM141.776 12.05C140.702 12.19 140.049 12.0967 139.816 11.77C139.536 11.4433 139.442 11.21 139.536 11.07C139.676 10.8367 139.932 10.6267 140.306 10.44C140.632 10.2067 141.286 10.1367 142.266 10.23C143.806 10.37 145.392 10.44 147.026 10.44C148.706 10.44 150.362 10.3233 151.996 10.09C152.136 9.99667 152.252 9.88 152.346 9.74C152.999 8.85333 153.489 8.15333 153.816 7.64C154.142 7.12666 154.446 6.66 154.726 6.24C155.006 5.82 155.309 5.37666 155.636 4.91C156.009 4.39667 156.522 3.69667 157.176 2.81C157.316 2.53 157.526 2.29666 157.806 2.11C158.132 1.87666 158.436 1.87666 158.716 2.11C158.809 2.20333 158.879 2.36666 158.926 2.6C158.972 2.83333 158.996 3.04333 158.996 3.23C158.949 3.41667 158.856 3.60333 158.716 3.79C158.576 3.97666 158.459 4.14 158.366 4.28C157.852 4.98 157.479 5.49333 157.246 5.82C157.059 6.14666 156.872 6.47333 156.686 6.8C156.499 7.12666 156.266 7.52333 155.986 7.99C155.706 8.45667 155.216 9.18 154.516 10.16C155.496 10.3467 156.756 10.4867 158.296 10.58C159.882 10.6267 161.586 10.65 163.406 10.65C165.226 10.6033 167.092 10.5333 169.006 10.44C170.966 10.3 172.832 10.1367 174.606 9.95C175.726 9.85666 176.776 9.76333 177.756 9.67C178.736 9.57666 179.552 9.55333 180.206 9.6C181.372 9.69333 181.909 9.92666 181.816 10.3C181.722 10.6733 181.186 10.9767 180.206 11.21C179.366 11.35 178.199 11.4667 176.706 11.56C175.259 11.6533 173.672 11.7467 171.946 11.84C170.219 11.8867 168.399 11.9333 166.486 11.98C164.619 11.98 162.822 11.98 161.096 11.98C159.416 11.9333 157.876 11.91 156.476 11.91C155.122 11.91 154.072 11.8867 153.326 11.84C152.532 12.8667 151.692 13.9867 150.806 15.2C149.966 16.4133 149.126 17.65 148.286 18.91C147.492 20.17 146.746 21.4067 146.046 22.62C145.346 23.7867 144.739 24.86 144.226 25.84C143.806 26.68 143.386 27.6133 142.966 28.64C142.546 29.62 142.266 30.5067 142.126 31.3C142.032 32.0467 142.172 32.6067 142.546 32.98C142.919 33.3067 143.666 33.2367 144.786 32.77C145.299 32.5833 145.882 32.3033 146.536 31.93C147.189 31.5567 147.866 31.16 148.566 30.74C149.266 30.2733 149.942 29.8067 150.596 29.34C151.249 28.8267 151.856 28.3367 152.416 27.87C152.649 27.73 152.836 27.59 152.976 27.45C153.116 27.2633 153.302 27.1233 153.536 27.03C153.816 26.8433 154.049 26.7267 154.236 26.68C154.469 26.5867 154.702 26.68 154.936 26.96C155.122 27.24 155.146 27.52 155.006 27.8C154.912 28.0333 154.749 28.2667 154.516 28.5C154.236 28.78 153.746 29.1767 153.046 29.69C152.346 30.2033 151.529 30.74 150.596 31.3C149.709 31.86 148.752 32.42 147.726 32.98C146.746 33.4933 145.812 33.9133 144.926 34.24C143.339 34.8 142.242 34.87 141.636 34.45C140.982 33.9833 140.632 33.3067 140.586 32.42C140.492 31.5333 140.609 30.5533 140.936 29.48C141.262 28.4067 141.589 27.4733 141.916 26.68C142.476 25.3733 143.129 24.0667 143.876 22.76C144.622 21.4533 145.392 20.17 146.186 18.91C147.026 17.65 147.842 16.4367 148.636 15.27C149.476 14.0567 150.222 12.9367 150.876 11.91C149.336 11.9567 147.749 12.0033 146.116 12.05C144.529 12.05 143.082 12.05 141.776 12.05ZM168.08 27.31C168.314 27.2167 168.524 27.1467 168.71 27.1C168.897 27.0067 169.107 26.9133 169.34 26.82C169.9 26.7267 170.297 26.89 170.53 27.31C170.764 27.87 170.624 28.2667 170.11 28.5C168.384 29.3867 166.587 30.0633 164.72 30.53C162.854 30.9967 160.987 31.2767 159.12 31.37C158.467 31.4167 157.767 31.4167 157.02 31.37C156.32 31.3233 155.667 31.16 155.06 30.88C154.5 30.6 154.08 30.2033 153.8 29.69C153.52 29.13 153.497 28.3833 153.73 27.45C154.057 26.5167 154.36 25.8633 154.64 25.49C154.92 25.1167 155.457 24.72 156.25 24.3C157.09 23.9267 157.954 23.67 158.84 23.53C159.774 23.3433 160.66 23.25 161.5 23.25C162.294 23.3433 162.76 23.74 162.9 24.44C163.04 25.1867 162.784 25.7467 162.13 26.12C161.664 26.4 161.174 26.6567 160.66 26.89C160.147 27.0767 159.61 27.2633 159.05 27.45C158.63 27.5433 158.187 27.6133 157.72 27.66C157.254 27.7067 156.787 27.73 156.32 27.73C155.62 27.73 155.224 27.8933 155.13 28.22C155.084 28.5 155.224 28.8033 155.55 29.13C156.017 29.5967 156.834 29.8533 158 29.9C159.167 29.9 160.404 29.8067 161.71 29.62C163.064 29.3867 164.324 29.06 165.49 28.64C166.704 28.22 167.567 27.7767 168.08 27.31ZM161.01 25.28C161.337 24.86 161.337 24.65 161.01 24.65C160.73 24.6033 160.287 24.6733 159.68 24.86C159.12 25.0467 158.467 25.3267 157.72 25.7C156.974 26.0733 156.32 26.4467 155.76 26.82C156.46 26.9133 157.37 26.82 158.49 26.54C159.61 26.2133 160.45 25.7933 161.01 25.28ZM175.561 27.1C176.214 26.5867 176.868 26.0967 177.521 25.63C178.174 25.1633 178.828 24.6733 179.481 24.16C180.181 23.6467 180.998 22.9233 181.931 21.99C182.864 21.0567 183.681 20.3333 184.381 19.82C185.081 19.3533 185.688 19.0733 186.201 18.98C186.761 18.8867 187.134 18.9567 187.321 19.19C187.554 19.4233 187.531 19.7967 187.251 20.31C187.018 20.7767 186.434 21.36 185.501 22.06C184.288 22.9467 183.098 23.81 181.931 24.65C180.811 25.49 179.644 26.3533 178.431 27.24C178.058 27.52 177.684 27.8233 177.311 28.15C176.938 28.43 176.518 28.71 176.051 28.99C175.398 29.3633 174.884 29.8067 174.511 30.32C174.184 30.8333 173.928 31.3933 173.741 32C173.601 32.56 173.508 33.1667 173.461 33.82C173.414 34.4267 173.321 35.0333 173.181 35.64C173.601 35.8733 173.951 35.92 174.231 35.78C174.558 35.5933 174.838 35.4067 175.071 35.22C176.424 34.1467 177.754 33.0967 179.061 32.07C180.368 30.9967 181.698 29.9233 183.051 28.85C183.378 28.6167 183.681 28.3833 183.961 28.15C184.241 27.87 184.544 27.6133 184.871 27.38C185.431 26.82 186.108 26.6333 186.901 26.82C186.948 27.7067 186.668 28.36 186.061 28.78C184.988 29.7133 183.914 30.6467 182.841 31.58C181.768 32.4667 180.694 33.3767 179.621 34.31C178.968 34.8233 178.268 35.3367 177.521 35.85C176.821 36.3167 176.098 36.8067 175.351 37.32C175.258 37.4133 175.118 37.5067 174.931 37.6C173.858 38.1133 172.948 38.1133 172.201 37.6C171.501 37.0867 171.198 36.2233 171.291 35.01C171.338 34.6367 171.384 34.2633 171.431 33.89C171.478 33.47 171.571 32.98 171.711 32.42C171.384 32.6533 171.104 32.84 170.871 32.98C170.684 33.0733 170.474 33.19 170.241 33.33C169.401 34.03 168.538 34.7533 167.651 35.5C166.764 36.2 165.854 36.8767 164.921 37.53C164.688 37.7633 164.431 37.95 164.151 38.09C163.871 38.1833 163.544 38.1833 163.171 38.09C163.078 37.7167 163.148 37.4133 163.381 37.18C163.568 36.9 163.778 36.6433 164.011 36.41C164.851 35.6633 165.714 34.94 166.601 34.24C167.441 33.54 168.304 32.8167 169.191 32.07C169.611 31.6967 170.031 31.3467 170.451 31.02C170.918 30.6933 171.384 30.3433 171.851 29.97C172.271 29.6433 172.551 29.27 172.691 28.85C172.924 28.01 173.134 27.17 173.321 26.33C173.554 25.4433 173.788 24.5333 174.021 23.6C173.041 24.02 172.108 24.8133 171.221 25.98C170.988 26.2133 170.801 26.4467 170.661 26.68C170.568 26.8667 170.428 27.1 170.241 27.38C170.101 27.5667 169.914 27.73 169.681 27.87C169.448 27.9633 169.214 27.94 168.981 27.8C168.561 27.4267 168.514 26.9833 168.841 26.47C168.934 26.2833 169.028 26.12 169.121 25.98C169.214 25.7933 169.308 25.6067 169.401 25.42C169.961 24.86 170.521 24.2767 171.081 23.67C171.688 23.0633 172.248 22.48 172.761 21.92C172.854 21.8267 172.948 21.7567 173.041 21.71C173.134 21.6633 173.228 21.5933 173.321 21.5C174.068 21.08 174.698 21.01 175.211 21.29C175.771 21.57 176.051 22.1067 176.051 22.9C176.051 23.4133 175.981 23.9033 175.841 24.37C175.748 24.8367 175.654 25.3267 175.561 25.84C175.561 26.0267 175.538 26.2133 175.491 26.4C175.444 26.54 175.398 26.7033 175.351 26.89C175.398 26.89 175.421 26.9367 175.421 27.03C175.421 27.0767 175.468 27.1 175.561 27.1ZM185.867 12.05C184.794 12.19 184.141 12.0967 183.907 11.77C183.627 11.4433 183.534 11.21 183.628 11.07C183.767 10.8367 184.024 10.6267 184.397 10.44C184.724 10.2067 185.377 10.1367 186.358 10.23C187.898 10.37 189.484 10.44 191.118 10.44C192.798 10.44 194.454 10.3233 196.088 10.09C196.228 9.99667 196.344 9.88 196.438 9.74C197.091 8.85333 197.581 8.15333 197.908 7.64C198.234 7.12666 198.538 6.66 198.818 6.24C199.098 5.82 199.401 5.37666 199.728 4.91C200.101 4.39667 200.614 3.69667 201.268 2.81C201.408 2.53 201.618 2.29666 201.898 2.11C202.224 1.87666 202.528 1.87666 202.808 2.11C202.901 2.20333 202.971 2.36666 203.018 2.6C203.064 2.83333 203.088 3.04333 203.088 3.23C203.041 3.41667 202.948 3.60333 202.808 3.79C202.668 3.97666 202.551 4.14 202.458 4.28C201.944 4.98 201.571 5.49333 201.338 5.82C201.151 6.14666 200.964 6.47333 200.778 6.8C200.591 7.12666 200.358 7.52333 200.078 7.99C199.798 8.45667 199.308 9.18 198.608 10.16C199.588 10.3467 200.848 10.4867 202.388 10.58C203.974 10.6267 205.678 10.65 207.498 10.65C209.318 10.6033 211.184 10.5333 213.098 10.44C215.058 10.3 216.924 10.1367 218.698 9.95C219.818 9.85666 220.868 9.76333 221.848 9.67C222.828 9.57666 223.644 9.55333 224.298 9.6C225.464 9.69333 226.001 9.92666 225.908 10.3C225.814 10.6733 225.278 10.9767 224.298 11.21C223.458 11.35 222.291 11.4667 220.798 11.56C219.351 11.6533 217.764 11.7467 216.038 11.84C214.311 11.8867 212.491 11.9333 210.578 11.98C208.711 11.98 206.914 11.98 205.188 11.98C203.508 11.9333 201.968 11.91 200.568 11.91C199.214 11.91 198.164 11.8867 197.418 11.84C196.624 12.8667 195.784 13.9867 194.898 15.2C194.058 16.4133 193.218 17.65 192.378 18.91C191.584 20.17 190.838 21.4067 190.138 22.62C189.438 23.7867 188.831 24.86 188.318 25.84C187.898 26.68 187.478 27.6133 187.058 28.64C186.638 29.62 186.358 30.5067 186.218 31.3C186.124 32.0467 186.264 32.6067 186.638 32.98C187.011 33.3067 187.758 33.2367 188.878 32.77C189.391 32.5833 189.974 32.3033 190.628 31.93C191.281 31.5567 191.958 31.16 192.658 30.74C193.358 30.2733 194.034 29.8067 194.688 29.34C195.341 28.8267 195.948 28.3367 196.508 27.87C196.741 27.73 196.928 27.59 197.068 27.45C197.208 27.2633 197.394 27.1233 197.628 27.03C197.908 26.8433 198.141 26.7267 198.328 26.68C198.561 26.5867 198.794 26.68 199.028 26.96C199.214 27.24 199.238 27.52 199.098 27.8C199.004 28.0333 198.841 28.2667 198.608 28.5C198.328 28.78 197.838 29.1767 197.138 29.69C196.438 30.2033 195.621 30.74 194.688 31.3C193.801 31.86 192.844 32.42 191.818 32.98C190.838 33.4933 189.904 33.9133 189.018 34.24C187.431 34.8 186.334 34.87 185.727 34.45C185.074 33.9833 184.724 33.3067 184.677 32.42C184.584 31.5333 184.701 30.5533 185.027 29.48C185.354 28.4067 185.681 27.4733 186.008 26.68C186.568 25.3733 187.221 24.0667 187.968 22.76C188.714 21.4533 189.484 20.17 190.278 18.91C191.118 17.65 191.934 16.4367 192.728 15.27C193.568 14.0567 194.314 12.9367 194.968 11.91C193.428 11.9567 191.841 12.0033 190.208 12.05C188.621 12.05 187.174 12.05 185.867 12.05ZM36.54 87.15C37.4267 87.0567 38.2433 86.9867 38.99 86.94C39.7367 86.8933 40.5067 86.87 41.3 86.87C43.54 86.73 45.7567 86.6833 47.95 86.73C50.1433 86.7767 52.36 87.0567 54.6 87.57C55.72 87.85 56.8633 88.2467 58.03 88.76C59.5233 89.46 60.55 90.4167 61.11 91.63C61.67 92.8433 61.6933 94.15 61.18 95.55C60.9467 96.3433 60.5967 97.0667 60.13 97.72C59.6633 98.3267 59.1733 98.91 58.66 99.47C57.54 100.59 56.3267 101.617 55.02 102.55C53.76 103.437 52.4533 104.277 51.1 105.07C44.5667 108.99 37.3567 111.65 29.47 113.05C27.79 113.377 26.0867 113.657 24.36 113.89C22.68 114.077 20.9067 114.077 19.04 113.89C18.4333 113.843 17.9667 114.077 17.64 114.59C16.66 115.85 15.68 117.11 14.7 118.37C13.72 119.583 12.74 120.82 11.76 122.08C10.4067 123.9 8.96 125.58 7.42 127.12C5.88 128.66 4.22333 130.13 2.45 131.53C2.21667 131.763 1.96 131.973 1.68 132.16C1.44667 132.347 1.12 132.533 0.7 132.72C0.793333 132.58 0.863333 132.463 0.91 132.37C1.00333 132.23 1.09667 132.09 1.19 131.95C2.82333 129.85 4.43333 127.773 6.02 125.72C7.65333 123.667 9.26333 121.59 10.85 119.49C11.69 118.463 12.5067 117.437 13.3 116.41C14.0933 115.337 14.9567 114.217 15.89 113.05C15.5167 113.003 15.26 112.887 15.12 112.7C14.3267 112.093 13.8833 111.44 13.79 110.74C13.7433 110.04 14.0467 109.363 14.7 108.71C15.3533 108.197 16.03 107.753 16.73 107.38C17.4767 107.007 18.2933 106.773 19.18 106.68C20.5333 106.493 21.5133 105.84 22.12 104.72C23.7533 102.34 25.3867 99.96 27.02 97.58C28.7 95.2 30.3567 92.7967 31.99 90.37C32.0367 90.2767 32.1067 90.16 32.2 90.02C32.2933 89.88 32.3867 89.67 32.48 89.39C31.8267 89.53 31.22 89.6233 30.66 89.67C30.1 89.7167 29.5867 89.7867 29.12 89.88C24.6867 90.5333 20.3233 91.3033 16.03 92.19C11.7833 93.0767 7.49 94.0333 3.15 95.06C2.91667 95.1533 2.66 95.2 2.38 95.2C2.1 95.2 1.84333 95.2 1.61 95.2C1.37667 94.8267 1.30667 94.57 1.4 94.43C1.54 94.29 1.72667 94.15 1.96 94.01C2.38 93.87 2.77667 93.73 3.15 93.59C3.57 93.4033 4.03667 93.2633 4.55 93.17C7.35 92.5167 10.1267 91.8867 12.88 91.28C15.68 90.6267 18.5033 90.02 21.35 89.46C23.31 89.0867 25.27 88.76 27.23 88.48C29.19 88.1533 31.15 87.8267 33.11 87.5C33.4833 87.4533 33.74 87.3367 33.88 87.15C34.02 86.9633 34.16 86.7533 34.3 86.52C35.2333 85.0267 36.1433 83.5333 37.03 82.04C37.9167 80.5467 38.8033 79.0767 39.69 77.63C39.9233 77.35 40.11 77.07 40.25 76.79C40.4367 76.4633 40.6233 76.1367 40.81 75.81C40.95 75.7167 41.0667 75.6233 41.16 75.53C41.2533 75.39 41.3933 75.2967 41.58 75.25C41.86 75.1567 42.0933 75.18 42.28 75.32C42.56 75.5067 42.6533 75.74 42.56 76.02C42.56 76.2533 42.5133 76.4633 42.42 76.65C42.3267 76.8367 42.2333 77 42.14 77.14C41.3 78.7267 40.4133 80.29 39.48 81.83C38.5933 83.37 37.6833 84.9333 36.75 86.52C36.75 86.6133 36.68 86.8233 36.54 87.15ZM19.88 111.72C20.8133 111.813 21.6533 111.86 22.4 111.86C23.1467 111.813 23.9167 111.743 24.71 111.65C27.4633 111.277 30.17 110.763 32.83 110.11C35.49 109.457 38.08 108.64 40.6 107.66C43.26 106.587 45.78 105.42 48.16 104.16C50.5867 102.853 52.92 101.337 55.16 99.61C55.9533 99.0033 56.6767 98.35 57.33 97.65C57.9833 96.95 58.52 96.1333 58.94 95.2C60.06 92.82 59.1967 91.1167 56.35 90.09C56.2567 90.0433 56.14 90.02 56 90.02C55.9067 89.9733 55.8133 89.9267 55.72 89.88C53.06 89.0867 50.4933 88.69 48.02 88.69C46.2467 88.69 44.45 88.7367 42.63 88.83C40.81 88.8767 38.9667 88.9 37.1 88.9C35.8867 88.9 34.9767 89.46 34.37 90.58C32.5967 93.52 30.7767 96.4133 28.91 99.26C27.0433 102.06 25.06 104.86 22.96 107.66C22.4467 108.267 21.9333 108.92 21.42 109.62C20.9067 110.273 20.3933 110.973 19.88 111.72ZM18.62 108.99C18.1067 109.223 17.6167 109.48 17.15 109.76C16.73 109.993 16.38 110.367 16.1 110.88C16.2867 110.973 16.45 111.067 16.59 111.16C16.73 111.253 16.9167 111.37 17.15 111.51C17.3833 111.09 17.64 110.693 17.92 110.32C18.2467 109.947 18.55 109.573 18.83 109.2L18.62 108.99ZM70.8941 109.55C70.3341 109.503 69.8908 109.363 69.5641 109.13C69.2375 108.897 68.9575 108.593 68.7241 108.22C68.5375 107.847 68.3741 107.45 68.2341 107.03C68.1408 106.61 68.0475 106.19 67.9541 105.77C67.6741 105.117 67.2775 104.79 66.7641 104.79C66.2508 104.79 65.7141 104.953 65.1541 105.28C64.6408 105.56 64.1508 105.933 63.6841 106.4C63.2175 106.867 62.8441 107.217 62.5641 107.45C60.9308 108.803 59.6708 110.32 58.7841 112C58.6441 112.373 58.4341 112.677 58.1541 112.91C57.8275 113.143 57.5241 113.307 57.2441 113.4C56.9641 113.447 56.7308 113.4 56.5441 113.26C56.3108 113.12 56.1941 112.84 56.1941 112.42C56.1941 112.187 56.2408 112 56.3341 111.86C56.4275 111.72 56.5208 111.557 56.6141 111.37C57.5008 109.783 58.3641 108.197 59.2041 106.61C60.0441 105.023 60.9075 103.437 61.7941 101.85C62.0275 101.383 62.3308 100.963 62.7041 100.59C62.7975 100.497 62.9141 100.427 63.0541 100.38C63.2408 100.333 63.3808 100.357 63.4741 100.45C63.8008 100.637 63.9175 100.893 63.8241 101.22C63.8241 101.547 63.7308 101.943 63.5441 102.41C63.2175 103.017 62.9141 103.623 62.6341 104.23C62.3541 104.837 62.0975 105.467 61.8641 106.12C62.2375 105.84 62.4708 105.653 62.5641 105.56C63.0308 105.187 63.4508 104.837 63.8241 104.51C64.2441 104.137 64.6641 103.81 65.0841 103.53C65.6441 103.063 66.2741 102.783 66.9741 102.69C68.3741 102.363 69.2841 102.877 69.7041 104.23C69.7975 104.603 69.8675 104.953 69.9141 105.28C69.9608 105.607 70.0308 105.933 70.1241 106.26C70.2175 106.773 70.3808 107.123 70.6141 107.31C70.8475 107.45 71.2441 107.497 71.8041 107.45C72.0375 107.45 72.2708 107.45 72.5041 107.45C72.7841 107.403 73.0408 107.38 73.2741 107.38C73.9275 107.333 74.3708 107.427 74.6041 107.66C74.8375 107.893 74.8608 108.173 74.6741 108.5C74.4875 108.78 74.0675 109.037 73.4141 109.27C72.8075 109.503 71.9675 109.597 70.8941 109.55ZM87.9632 107.31C88.1965 107.217 88.4065 107.147 88.5932 107.1C88.7799 107.007 88.9899 106.913 89.2232 106.82C89.7832 106.727 90.1799 106.89 90.4132 107.31C90.6465 107.87 90.5065 108.267 89.9932 108.5C88.2665 109.387 86.4699 110.063 84.6032 110.53C82.7365 110.997 80.8699 111.277 79.0032 111.37C78.3499 111.417 77.6499 111.417 76.9032 111.37C76.2032 111.323 75.5499 111.16 74.9432 110.88C74.3832 110.6 73.9632 110.203 73.6832 109.69C73.4032 109.13 73.3799 108.383 73.6132 107.45C73.9399 106.517 74.2432 105.863 74.5232 105.49C74.8032 105.117 75.3399 104.72 76.1332 104.3C76.9732 103.927 77.8365 103.67 78.7232 103.53C79.6565 103.343 80.5432 103.25 81.3832 103.25C82.1765 103.343 82.6432 103.74 82.7832 104.44C82.9232 105.187 82.6665 105.747 82.0132 106.12C81.5465 106.4 81.0565 106.657 80.5432 106.89C80.0299 107.077 79.4932 107.263 78.9332 107.45C78.5132 107.543 78.0699 107.613 77.6032 107.66C77.1365 107.707 76.6699 107.73 76.2032 107.73C75.5032 107.73 75.1065 107.893 75.0132 108.22C74.9665 108.5 75.1065 108.803 75.4332 109.13C75.8999 109.597 76.7165 109.853 77.8832 109.9C79.0499 109.9 80.2865 109.807 81.5932 109.62C82.9465 109.387 84.2065 109.06 85.3732 108.64C86.5865 108.22 87.4499 107.777 87.9632 107.31ZM80.8932 105.28C81.2199 104.86 81.2199 104.65 80.8932 104.65C80.6132 104.603 80.1699 104.673 79.5632 104.86C79.0032 105.047 78.3499 105.327 77.6032 105.7C76.8565 106.073 76.2032 106.447 75.6432 106.82C76.3432 106.913 77.2532 106.82 78.3732 106.54C79.4932 106.213 80.3332 105.793 80.8932 105.28ZM91.2439 110.18C89.7039 111.627 88.3272 113.073 87.1139 114.52C85.9006 115.92 84.7806 117.367 83.7539 118.86C82.6806 120.307 81.6772 121.823 80.7439 123.41C79.7639 124.95 78.7839 126.56 77.8039 128.24C77.6172 128.427 77.4772 128.613 77.3839 128.8C77.2439 128.987 77.0572 129.197 76.8239 129.43C76.6372 129.617 76.4272 129.733 76.1939 129.78C75.9139 129.827 75.6572 129.757 75.4239 129.57C75.1906 129.383 75.0506 129.173 75.0039 128.94C74.9572 128.707 74.9806 128.473 75.0739 128.24C75.2606 127.82 75.4706 127.447 75.7039 127.12C78.2706 123.62 80.6739 120.05 82.9139 116.41C85.1539 112.77 87.4172 109.13 89.7039 105.49C90.2172 104.697 90.6839 103.927 91.1039 103.18C91.5706 102.433 92.0606 101.663 92.5739 100.87C92.7139 100.637 92.8772 100.427 93.0639 100.24C93.2972 100.053 93.6239 99.96 94.0439 99.96C94.3706 100.24 94.4639 100.52 94.3239 100.8C94.2306 101.08 94.1372 101.383 94.0439 101.71C93.7172 102.27 93.3906 102.83 93.0639 103.39C92.7839 103.95 92.4806 104.533 92.1539 105.14C91.8272 105.56 91.5939 106.003 91.4539 106.47C91.4539 106.47 91.5006 106.517 91.5939 106.61C91.8272 106.377 92.0139 106.19 92.1539 106.05C92.3406 105.91 92.5506 105.723 92.7839 105.49C93.7172 104.697 94.6039 103.927 95.4439 103.18C96.2839 102.387 97.1706 101.617 98.1039 100.87C98.6172 100.497 99.1539 100.193 99.7139 99.96C100.321 99.7267 100.927 99.4933 101.534 99.26C101.767 99.12 102.024 99.05 102.304 99.05C102.631 99.0033 102.934 99.0033 103.214 99.05C104.007 99.1433 104.614 99.4467 105.034 99.96C105.501 100.427 105.734 101.01 105.734 101.71C105.734 102.41 105.594 103.063 105.314 103.67C105.081 104.23 104.777 104.767 104.404 105.28C104.124 105.56 103.821 105.933 103.494 106.4C103.727 106.447 103.914 106.47 104.054 106.47C104.241 106.47 104.381 106.47 104.474 106.47C105.081 106.517 105.664 106.54 106.224 106.54C106.831 106.54 107.437 106.563 108.044 106.61C108.371 106.657 108.674 106.703 108.954 106.75C109.281 106.797 109.584 106.89 109.864 107.03C110.517 107.263 110.751 107.707 110.564 108.36C110.377 108.873 109.981 109.06 109.374 108.92C108.021 108.64 106.691 108.523 105.384 108.57C104.124 108.57 102.841 108.687 101.534 108.92C101.067 108.967 100.624 109.06 100.204 109.2C99.7839 109.293 99.3872 109.433 99.0139 109.62C98.1272 109.947 97.2639 110.273 96.4239 110.6C95.5839 110.927 94.7672 111.253 93.9739 111.58C93.4139 111.767 92.9006 111.79 92.4339 111.65C91.9672 111.463 91.5706 110.973 91.2439 110.18ZM92.7139 108.57C93.7872 108.29 94.7906 108.057 95.7239 107.87C96.6572 107.637 97.5672 107.38 98.4539 107.1C99.5272 106.773 100.437 106.26 101.184 105.56C101.931 104.86 102.607 104.067 103.214 103.18C103.307 103.04 103.377 102.9 103.424 102.76C103.517 102.62 103.587 102.457 103.634 102.27C103.774 101.337 103.401 100.917 102.514 101.01C102.141 101.057 101.767 101.15 101.394 101.29C101.067 101.43 100.741 101.57 100.414 101.71C99.2006 102.363 98.1039 103.133 97.1239 104.02C96.1439 104.907 95.1872 105.817 94.2539 106.75C94.0206 107.03 93.7872 107.31 93.5539 107.59C93.3206 107.87 93.0406 108.197 92.7139 108.57ZM121.822 109.55C121.262 109.503 120.819 109.363 120.492 109.13C120.165 108.897 119.885 108.593 119.652 108.22C119.465 107.847 119.302 107.45 119.162 107.03C119.069 106.61 118.975 106.19 118.882 105.77C118.602 105.117 118.205 104.79 117.692 104.79C117.179 104.79 116.642 104.953 116.082 105.28C115.569 105.56 115.079 105.933 114.612 106.4C114.145 106.867 113.772 107.217 113.492 107.45C111.859 108.803 110.599 110.32 109.712 112C109.572 112.373 109.362 112.677 109.082 112.91C108.755 113.143 108.452 113.307 108.172 113.4C107.892 113.447 107.659 113.4 107.472 113.26C107.239 113.12 107.122 112.84 107.122 112.42C107.122 112.187 107.169 112 107.262 111.86C107.355 111.72 107.449 111.557 107.542 111.37C108.429 109.783 109.292 108.197 110.132 106.61C110.972 105.023 111.835 103.437 112.722 101.85C112.955 101.383 113.259 100.963 113.632 100.59C113.725 100.497 113.842 100.427 113.982 100.38C114.169 100.333 114.309 100.357 114.402 100.45C114.729 100.637 114.845 100.893 114.752 101.22C114.752 101.547 114.659 101.943 114.472 102.41C114.145 103.017 113.842 103.623 113.562 104.23C113.282 104.837 113.025 105.467 112.792 106.12C113.165 105.84 113.399 105.653 113.492 105.56C113.959 105.187 114.379 104.837 114.752 104.51C115.172 104.137 115.592 103.81 116.012 103.53C116.572 103.063 117.202 102.783 117.902 102.69C119.302 102.363 120.212 102.877 120.632 104.23C120.725 104.603 120.795 104.953 120.842 105.28C120.889 105.607 120.959 105.933 121.052 106.26C121.145 106.773 121.309 107.123 121.542 107.31C121.775 107.45 122.172 107.497 122.732 107.45C122.965 107.45 123.199 107.45 123.432 107.45C123.712 107.403 123.969 107.38 124.202 107.38C124.855 107.333 125.299 107.427 125.532 107.66C125.765 107.893 125.789 108.173 125.602 108.5C125.415 108.78 124.995 109.037 124.342 109.27C123.735 109.503 122.895 109.597 121.822 109.55ZM133.221 107.31C133.781 107.217 134.318 107.147 134.831 107.1C135.344 107.007 135.858 106.913 136.371 106.82C136.744 106.727 137.211 106.657 137.771 106.61C138.331 106.563 138.821 106.493 139.241 106.4C139.474 106.4 139.638 106.4 139.731 106.4C139.871 106.4 140.058 106.447 140.291 106.54C140.431 106.633 140.548 106.773 140.641 106.96C140.781 107.1 140.828 107.263 140.781 107.45C140.781 107.543 140.688 107.66 140.501 107.8C140.314 107.94 140.174 108.01 140.081 108.01C139.614 108.103 139.171 108.197 138.751 108.29C138.378 108.337 137.958 108.383 137.491 108.43C136.604 108.617 135.718 108.78 134.831 108.92C133.991 109.013 133.151 109.153 132.311 109.34C131.798 109.433 131.378 109.667 131.051 110.04C130.071 110.973 129.254 111.743 128.601 112.35C127.994 112.957 127.248 113.4 126.361 113.68C125.708 113.867 125.101 113.913 124.541 113.82C123.981 113.68 123.561 113.353 123.281 112.84C123.001 112.327 122.954 111.627 123.141 110.74C123.328 109.807 123.841 108.663 124.681 107.31C125.288 106.377 125.988 105.537 126.781 104.79C127.621 103.997 128.508 103.227 129.441 102.48C129.814 102.2 130.211 101.967 130.631 101.78C131.051 101.547 131.541 101.407 132.101 101.36C132.894 101.267 133.501 101.407 133.921 101.78C134.341 102.107 134.528 102.667 134.481 103.46C134.481 103.833 134.411 104.23 134.271 104.65C134.131 105.023 134.014 105.42 133.921 105.84C133.828 106.073 133.711 106.307 133.571 106.54C133.478 106.727 133.361 106.983 133.221 107.31ZM126.501 107.66C125.708 108.64 125.311 109.48 125.311 110.18C125.311 110.833 125.521 111.277 125.941 111.51C126.408 111.697 126.944 111.65 127.551 111.37C128.204 111.043 128.764 110.39 129.231 109.41C128.484 109.41 127.878 109.293 127.411 109.06C126.944 108.78 126.641 108.313 126.501 107.66ZM132.451 103.04C130.818 103.553 129.604 104.51 128.811 105.91C128.718 106.097 128.671 106.283 128.671 106.47C128.671 106.657 128.788 106.843 129.021 107.03C129.301 107.31 129.674 107.427 130.141 107.38C130.654 107.333 131.004 107.123 131.191 106.75C131.471 106.377 131.704 105.957 131.891 105.49C132.124 105.023 132.311 104.58 132.451 104.16C132.544 104.067 132.568 103.927 132.521 103.74C132.474 103.553 132.451 103.32 132.451 103.04ZM154.501 108.85C154.315 108.99 153.988 109.153 153.521 109.34C151.981 109.993 150.418 110.577 148.831 111.09C147.291 111.603 145.681 111.907 144.001 112C143.628 112.093 143.208 112.14 142.741 112.14C142.321 112.093 141.901 112.023 141.481 111.93C140.408 111.65 139.661 111.113 139.241 110.32C138.775 109.48 138.798 108.5 139.311 107.38C139.405 107.24 139.475 107.1 139.521 106.96C139.568 106.773 139.638 106.61 139.731 106.47C140.618 105.303 141.598 104.347 142.671 103.6C143.745 102.807 145.005 102.247 146.451 101.92C146.871 101.78 147.315 101.733 147.781 101.78C148.248 101.78 148.691 101.85 149.111 101.99C149.811 102.223 150.255 102.713 150.441 103.46C150.675 104.16 150.535 104.79 150.021 105.35C149.928 105.443 149.811 105.537 149.671 105.63C149.531 105.677 149.368 105.7 149.181 105.7C149.088 105.7 149.018 105.63 148.971 105.49C148.925 105.303 148.855 105.163 148.761 105.07C148.668 104.323 148.505 103.857 148.271 103.67C148.038 103.483 147.571 103.483 146.871 103.67C145.751 103.997 144.748 104.487 143.861 105.14C142.975 105.793 142.205 106.54 141.551 107.38C141.365 107.613 141.201 107.917 141.061 108.29C140.781 109.223 141.085 109.783 141.971 109.97C142.625 110.157 143.348 110.18 144.141 110.04C145.401 109.947 146.615 109.737 147.781 109.41C148.948 109.083 150.068 108.663 151.141 108.15C151.608 107.963 152.051 107.777 152.471 107.59C152.891 107.403 153.335 107.263 153.801 107.17C154.968 106.89 155.621 106.96 155.761 107.38C155.901 107.753 155.481 108.243 154.501 108.85ZM169.106 107.31C169.339 107.217 169.549 107.147 169.736 107.1C169.922 107.007 170.132 106.913 170.366 106.82C170.926 106.727 171.322 106.89 171.556 107.31C171.789 107.87 171.649 108.267 171.136 108.5C169.409 109.387 167.612 110.063 165.746 110.53C163.879 110.997 162.012 111.277 160.146 111.37C159.492 111.417 158.792 111.417 158.046 111.37C157.346 111.323 156.692 111.16 156.086 110.88C155.526 110.6 155.106 110.203 154.826 109.69C154.546 109.13 154.522 108.383 154.756 107.45C155.082 106.517 155.386 105.863 155.666 105.49C155.946 105.117 156.482 104.72 157.276 104.3C158.116 103.927 158.979 103.67 159.866 103.53C160.799 103.343 161.686 103.25 162.526 103.25C163.319 103.343 163.786 103.74 163.926 104.44C164.066 105.187 163.809 105.747 163.156 106.12C162.689 106.4 162.199 106.657 161.686 106.89C161.172 107.077 160.636 107.263 160.076 107.45C159.656 107.543 159.212 107.613 158.746 107.66C158.279 107.707 157.812 107.73 157.346 107.73C156.646 107.73 156.249 107.893 156.156 108.22C156.109 108.5 156.249 108.803 156.576 109.13C157.042 109.597 157.859 109.853 159.026 109.9C160.192 109.9 161.429 109.807 162.736 109.62C164.089 109.387 165.349 109.06 166.516 108.64C167.729 108.22 168.592 107.777 169.106 107.31ZM162.036 105.28C162.362 104.86 162.362 104.65 162.036 104.65C161.756 104.603 161.312 104.673 160.706 104.86C160.146 105.047 159.492 105.327 158.746 105.7C157.999 106.073 157.346 106.447 156.786 106.82C157.486 106.913 158.396 106.82 159.516 106.54C160.636 106.213 161.476 105.793 162.036 105.28ZM176.026 107.03C176.446 106.61 176.75 106.12 176.936 105.56C177.17 104.953 177.24 104.44 177.146 104.02C177.053 103.553 176.796 103.25 176.376 103.11C175.956 102.923 175.35 103.063 174.556 103.53C174.183 103.763 173.786 104.067 173.366 104.44C172.946 104.813 172.596 105.233 172.316 105.7C172.036 106.12 171.873 106.563 171.826 107.03C171.826 107.497 172.036 107.893 172.456 108.22C172.923 108.687 173.413 109.177 173.926 109.69C174.44 110.157 174.953 110.6 175.466 111.02C176.82 110.413 178.15 109.877 179.456 109.41C180.763 108.943 182.093 108.313 183.446 107.52C184.006 107.193 184.52 107.007 184.986 106.96C185.22 106.96 185.453 107.007 185.686 107.1C185.92 107.147 186.083 107.333 186.176 107.66C186.036 108.08 185.803 108.383 185.476 108.57C185.15 108.71 184.823 108.827 184.496 108.92C183.843 109.2 183.073 109.503 182.186 109.83C181.3 110.11 180.413 110.437 179.526 110.81C178.64 111.137 177.823 111.51 177.076 111.93C176.33 112.35 175.793 112.793 175.466 113.26C175.093 114.007 174.463 114.683 173.576 115.29C172.596 115.943 171.57 116.503 170.496 116.97C169.47 117.39 168.35 117.67 167.136 117.81C166.53 117.857 165.876 117.81 165.176 117.67C164.99 117.623 164.85 117.507 164.756 117.32C164.616 117.133 164.523 116.923 164.476 116.69C164.383 116.457 164.43 116.293 164.616 116.2C164.803 116.107 164.99 115.99 165.176 115.85C166.296 114.917 167.51 114.1 168.816 113.4C170.076 112.653 171.523 112.023 173.156 111.51C173.016 111.37 172.853 111.253 172.666 111.16C172.526 111.02 172.386 110.857 172.246 110.67C171.92 110.39 171.593 110.11 171.266 109.83C170.986 109.55 170.73 109.247 170.496 108.92C169.983 108.267 169.726 107.59 169.726 106.89C169.726 106.143 170.006 105.443 170.566 104.79C171.36 103.95 172.223 103.25 173.156 102.69C174.136 102.13 175.21 101.78 176.376 101.64C177.823 101.407 178.756 101.803 179.176 102.83C179.456 103.343 179.526 103.857 179.386 104.37C179.246 104.883 178.99 105.35 178.616 105.77C178.243 106.237 177.893 106.587 177.566 106.82C177.24 107.007 176.82 107.217 176.306 107.45C176.26 107.357 176.213 107.287 176.166 107.24C176.12 107.193 176.073 107.123 176.026 107.03ZM167.696 115.64C167.37 116.2 167.37 116.503 167.696 116.55C168.023 116.597 168.513 116.48 169.166 116.2C169.773 115.92 170.473 115.523 171.266 115.01C172.06 114.45 172.783 113.867 173.436 113.26C172.55 113.26 171.523 113.47 170.356 113.89C169.19 114.263 168.303 114.847 167.696 115.64ZM191.339 107.03C191.759 106.61 192.062 106.12 192.249 105.56C192.482 104.953 192.552 104.44 192.459 104.02C192.366 103.553 192.109 103.25 191.689 103.11C191.269 102.923 190.662 103.063 189.869 103.53C189.496 103.763 189.099 104.067 188.679 104.44C188.259 104.813 187.909 105.233 187.629 105.7C187.349 106.12 187.186 106.563 187.139 107.03C187.139 107.497 187.349 107.893 187.769 108.22C188.236 108.687 188.726 109.177 189.239 109.69C189.752 110.157 190.266 110.6 190.779 111.02C192.132 110.413 193.462 109.877 194.769 109.41C196.076 108.943 197.406 108.313 198.759 107.52C199.319 107.193 199.832 107.007 200.299 106.96C200.532 106.96 200.766 107.007 200.999 107.1C201.232 107.147 201.396 107.333 201.489 107.66C201.349 108.08 201.116 108.383 200.789 108.57C200.462 108.71 200.136 108.827 199.809 108.92C199.156 109.2 198.386 109.503 197.499 109.83C196.612 110.11 195.726 110.437 194.839 110.81C193.952 111.137 193.136 111.51 192.389 111.93C191.642 112.35 191.106 112.793 190.779 113.26C190.406 114.007 189.776 114.683 188.889 115.29C187.909 115.943 186.882 116.503 185.809 116.97C184.782 117.39 183.662 117.67 182.449 117.81C181.842 117.857 181.189 117.81 180.489 117.67C180.302 117.623 180.162 117.507 180.069 117.32C179.929 117.133 179.836 116.923 179.789 116.69C179.696 116.457 179.742 116.293 179.929 116.2C180.116 116.107 180.302 115.99 180.489 115.85C181.609 114.917 182.822 114.1 184.129 113.4C185.389 112.653 186.836 112.023 188.469 111.51C188.329 111.37 188.166 111.253 187.979 111.16C187.839 111.02 187.699 110.857 187.559 110.67C187.232 110.39 186.906 110.11 186.579 109.83C186.299 109.55 186.042 109.247 185.809 108.92C185.296 108.267 185.039 107.59 185.039 106.89C185.039 106.143 185.319 105.443 185.879 104.79C186.672 103.95 187.536 103.25 188.469 102.69C189.449 102.13 190.522 101.78 191.689 101.64C193.136 101.407 194.069 101.803 194.489 102.83C194.769 103.343 194.839 103.857 194.699 104.37C194.559 104.883 194.302 105.35 193.929 105.77C193.556 106.237 193.206 106.587 192.879 106.82C192.552 107.007 192.132 107.217 191.619 107.45C191.572 107.357 191.526 107.287 191.479 107.24C191.432 107.193 191.386 107.123 191.339 107.03ZM183.009 115.64C182.682 116.2 182.682 116.503 183.009 116.55C183.336 116.597 183.826 116.48 184.479 116.2C185.086 115.92 185.786 115.523 186.579 115.01C187.372 114.45 188.096 113.867 188.749 113.26C187.862 113.26 186.836 113.47 185.669 113.89C184.502 114.263 183.616 114.847 183.009 115.64ZM209.031 107.31C209.591 107.217 210.128 107.147 210.641 107.1C211.155 107.007 211.668 106.913 212.181 106.82C212.555 106.727 213.021 106.657 213.581 106.61C214.141 106.563 214.631 106.493 215.051 106.4C215.285 106.4 215.448 106.4 215.541 106.4C215.681 106.4 215.868 106.447 216.101 106.54C216.241 106.633 216.358 106.773 216.451 106.96C216.591 107.1 216.638 107.263 216.591 107.45C216.591 107.543 216.498 107.66 216.311 107.8C216.125 107.94 215.985 108.01 215.891 108.01C215.425 108.103 214.981 108.197 214.561 108.29C214.188 108.337 213.768 108.383 213.301 108.43C212.415 108.617 211.528 108.78 210.641 108.92C209.801 109.013 208.961 109.153 208.121 109.34C207.608 109.433 207.188 109.667 206.861 110.04C205.881 110.973 205.065 111.743 204.411 112.35C203.805 112.957 203.058 113.4 202.171 113.68C201.518 113.867 200.911 113.913 200.351 113.82C199.791 113.68 199.371 113.353 199.091 112.84C198.811 112.327 198.765 111.627 198.951 110.74C199.138 109.807 199.651 108.663 200.491 107.31C201.098 106.377 201.798 105.537 202.591 104.79C203.431 103.997 204.318 103.227 205.251 102.48C205.625 102.2 206.021 101.967 206.441 101.78C206.861 101.547 207.351 101.407 207.911 101.36C208.705 101.267 209.311 101.407 209.731 101.78C210.151 102.107 210.338 102.667 210.291 103.46C210.291 103.833 210.221 104.23 210.081 104.65C209.941 105.023 209.825 105.42 209.731 105.84C209.638 106.073 209.521 106.307 209.381 106.54C209.288 106.727 209.171 106.983 209.031 107.31ZM202.311 107.66C201.518 108.64 201.121 109.48 201.121 110.18C201.121 110.833 201.331 111.277 201.751 111.51C202.218 111.697 202.755 111.65 203.361 111.37C204.015 111.043 204.575 110.39 205.041 109.41C204.295 109.41 203.688 109.293 203.221 109.06C202.755 108.78 202.451 108.313 202.311 107.66ZM208.261 103.04C206.628 103.553 205.415 104.51 204.621 105.91C204.528 106.097 204.481 106.283 204.481 106.47C204.481 106.657 204.598 106.843 204.831 107.03C205.111 107.31 205.485 107.427 205.951 107.38C206.465 107.333 206.815 107.123 207.001 106.75C207.281 106.377 207.515 105.957 207.701 105.49C207.935 105.023 208.121 104.58 208.261 104.16C208.355 104.067 208.378 103.927 208.331 103.74C208.285 103.553 208.261 103.32 208.261 103.04ZM227.232 109.55C226.672 109.503 226.229 109.363 225.902 109.13C225.575 108.897 225.295 108.593 225.062 108.22C224.875 107.847 224.712 107.45 224.572 107.03C224.479 106.61 224.385 106.19 224.292 105.77C224.012 105.117 223.615 104.79 223.102 104.79C222.589 104.79 222.052 104.953 221.492 105.28C220.979 105.56 220.489 105.933 220.022 106.4C219.555 106.867 219.182 107.217 218.902 107.45C217.269 108.803 216.009 110.32 215.122 112C214.982 112.373 214.772 112.677 214.492 112.91C214.165 113.143 213.862 113.307 213.582 113.4C213.302 113.447 213.069 113.4 212.882 113.26C212.649 113.12 212.532 112.84 212.532 112.42C212.532 112.187 212.579 112 212.672 111.86C212.765 111.72 212.859 111.557 212.952 111.37C213.839 109.783 214.702 108.197 215.542 106.61C216.382 105.023 217.245 103.437 218.132 101.85C218.365 101.383 218.669 100.963 219.042 100.59C219.135 100.497 219.252 100.427 219.392 100.38C219.579 100.333 219.719 100.357 219.812 100.45C220.139 100.637 220.255 100.893 220.162 101.22C220.162 101.547 220.069 101.943 219.882 102.41C219.555 103.017 219.252 103.623 218.972 104.23C218.692 104.837 218.435 105.467 218.202 106.12C218.575 105.84 218.809 105.653 218.902 105.56C219.369 105.187 219.789 104.837 220.162 104.51C220.582 104.137 221.002 103.81 221.422 103.53C221.982 103.063 222.612 102.783 223.312 102.69C224.712 102.363 225.622 102.877 226.042 104.23C226.135 104.603 226.205 104.953 226.252 105.28C226.299 105.607 226.369 105.933 226.462 106.26C226.555 106.773 226.719 107.123 226.952 107.31C227.185 107.45 227.582 107.497 228.142 107.45C228.375 107.45 228.609 107.45 228.842 107.45C229.122 107.403 229.379 107.38 229.612 107.38C230.265 107.333 230.709 107.427 230.942 107.66C231.175 107.893 231.199 108.173 231.012 108.5C230.825 108.78 230.405 109.037 229.752 109.27C229.145 109.503 228.305 109.597 227.232 109.55Z" fill="#4B8FB6"/>
</svg>
