<svg width="389" height="74" viewBox="0 0 389 74" fill="none" xmlns="http://www.w3.org/2000/svg">
<path d="M63.4 8.79999C63.1333 8.53333 62.9 8.33333 62.7 8.2C62.5 8 62.3333 7.73333 62.2 7.39999C61.5333 6.13333 60.6333 5.23333 59.5 4.7C58.4333 4.1 57.2 3.76666 55.8 3.69999C53.2667 3.56666 50.8 3.83333 48.4 4.5C46 5.16666 43.6 5.96666 41.2 6.89999C36.4667 8.7 32.1667 11.0667 28.3 14C24.5 16.8667 20.9 20.0667 17.5 23.6C15.4333 25.7333 13.5 27.9 11.7 30.1C9.9 32.3 8.3 34.6667 6.9 37.2C5.83333 39.1333 4.93333 41.1667 4.2 43.3C3.53333 45.3667 3.26667 47.5333 3.4 49.8C3.46667 52.1333 4.2 54 5.6 55.4C7 56.8 8.83333 57.5667 11.1 57.7C12.6333 57.8333 14.1 57.8 15.5 57.6C16.9 57.3333 18.3 56.9333 19.7 56.4C20.2333 56.1333 20.5667 55.8333 20.7 55.5C20.9 55.1 20.9667 54.6333 20.9 54.1C20.8333 52.5667 20.9 51.0333 21.1 49.5C21.3667 47.9667 21.7 46.4333 22.1 44.9C23.5 40.0333 25.7667 35.6 28.9 31.6C30.6333 29.2667 32.5 27.1 34.5 25.1C36.5667 23.0333 38.8667 21.1333 41.4 19.4C41.7333 19.1333 42.1333 18.8667 42.6 18.6C43.0667 18.2667 43.5667 18 44.1 17.8C44.5667 17.5333 45.0333 17.3 45.5 17.1C45.9667 16.8333 46.4667 16.6333 47 16.5C49.4667 15.9667 51.3667 16.2333 52.7 17.3C54.0333 18.3667 54.5667 20.1667 54.3 22.7C54.1 24.3667 53.7 25.9333 53.1 27.4C52.5667 28.8 51.9333 30.2333 51.2 31.7C49.8 34.5 48.1 37.1333 46.1 39.6C44.1667 42 42.0667 44.3 39.8 46.5C37.6667 48.5 35.4333 50.3667 33.1 52.1C30.8333 53.8333 28.4333 55.3667 25.9 56.7C25.1667 57.0333 24.7667 57.3667 24.7 57.7C24.6333 58.0333 24.7 58.5667 24.9 59.3C25.7 61.9667 27.0333 64.0333 28.9 65.5C30.7667 66.9 32.9667 67.9333 35.5 68.6C37.7 69.2 39.9333 69.5333 42.2 69.6C44.4667 69.6 46.7333 69.5333 49 69.4C51.6 69.0667 54.2 68.7333 56.8 68.4C59.4 68 62.1333 67.6333 65 67.3C62.4667 68.7 59.9667 69.8333 57.5 70.7C53.8333 71.8333 50.1333 72.5 46.4 72.7C42.7333 72.9 39.0333 72.6 35.3 71.8C32.0333 71.0667 29.2333 69.7667 26.9 67.9C24.6333 66.0333 22.9333 63.4333 21.8 60.1C21.8 59.9667 21.7333 59.7667 21.6 59.5C21.5333 59.4333 21.5 59.4 21.5 59.4C21.5 59.3333 21.4333 59.2333 21.3 59.1C21.0333 59.1667 20.8 59.2 20.6 59.2C20.4 59.2 20.1667 59.2667 19.9 59.4C18.5667 59.8 17.2333 60.1333 15.9 60.4C14.5667 60.6667 13.1667 60.8 11.7 60.8C8.3 60.6667 5.6 59.6 3.6 57.6C1.6 55.5333 0.533333 52.8 0.4 49.4C0.333333 47.0667 0.633333 44.8333 1.3 42.7C2.03333 40.5 2.93333 38.4 4 36.4C5.6 33.3333 7.46667 30.5 9.6 27.9C11.8 25.3 14.1333 22.7667 16.6 20.3C19.1333 17.7667 21.8 15.4 24.6 13.2C27.4 10.9333 30.4 8.96666 33.6 7.3C36.7333 5.63333 39.9 4.23333 43.1 3.1C46.3667 1.96666 49.8 1.26666 53.4 0.999999C54.5333 0.866663 55.6667 0.866663 56.8 0.999999C57.9333 1.06666 59.0333 1.36666 60.1 1.9C61.9 2.63333 63.1 3.86666 63.7 5.6C63.9 6.13333 64.0333 6.66666 64.1 7.2C64.1667 7.73333 63.9333 8.26666 63.4 8.79999ZM24.1 54.2C25.1667 53.7333 25.8667 53.4 26.2 53.2C31.4 50.2 36.0333 46.4667 40.1 42C42.3 39.6667 44.3 37.2333 46.1 34.7C47.9 32.1667 49.3333 29.3333 50.4 26.2C50.9333 24.7333 51.2 23.3333 51.2 22C51.5333 19.5333 50.4667 18.6333 48 19.3C47.2667 19.5667 46.5333 19.8667 45.8 20.2C45.1333 20.5333 44.4667 20.8667 43.8 21.2C41.8667 22.4667 40.1 23.8667 38.5 25.4C36.9 26.9333 35.3333 28.5333 33.8 30.2C31.4667 32.8667 29.4667 35.7 27.8 38.7C26.1333 41.6333 25 44.9 24.4 48.5C24.2667 49.4333 24.1333 50.3333 24 51.2C23.9333 52.0667 23.9667 53.0667 24.1 54.2ZM78.4422 39.5C77.4422 40.3667 76.2089 41.0667 74.7422 41.6C73.3422 42.1333 71.9755 42.4333 70.6422 42.5C69.3755 42.5667 68.3089 42.3 67.4422 41.7C66.5755 41.1 66.1755 40.0667 66.2422 38.6C66.2422 38.4667 66.2089 38.3667 66.1422 38.3C66.1422 38.1667 66.1089 37.9667 66.0422 37.7C65.5089 38.0333 65.0422 38.3667 64.6422 38.7C64.2422 39.0333 63.7755 39.3667 63.2422 39.7C62.5089 40.1667 61.8089 40.6667 61.1422 41.2C60.4755 41.6667 59.7422 42.0667 58.9422 42.4C58.2755 42.7333 57.6089 42.9 56.9422 42.9C55.6089 42.9 54.9422 42.2333 54.9422 40.9C54.9422 40.3 55.0422 39.7333 55.2422 39.2C55.7089 38.0667 56.3089 37.0333 57.0422 36.1C57.7755 35.1667 58.5089 34.2333 59.2422 33.3C59.9755 32.7 60.6089 32.5667 61.1422 32.9C61.6755 33.4333 61.6755 34.1 61.1422 34.9C60.8089 35.4333 60.4422 35.9333 60.0422 36.4C59.7089 36.8667 59.3422 37.3667 58.9422 37.9C58.7422 38.2333 58.4089 38.8 57.9422 39.6C58.3422 39.4 58.6422 39.3 58.8422 39.3C59.1089 39.2333 59.3422 39.1333 59.5422 39C60.6755 38.0667 61.8089 37.1667 62.9422 36.3C64.1422 35.3667 65.3089 34.4333 66.4422 33.5C66.7089 33.3667 66.9422 33.1667 67.1422 32.9C67.4089 32.6333 67.7089 32.4333 68.0422 32.3C68.2422 32.1667 68.5089 32.1 68.8422 32.1C69.2422 32.1 69.5755 32.1667 69.8422 32.3C70.6422 32.6333 70.8089 33.2667 70.3422 34.2C70.2089 34.6667 70.0422 35.1333 69.8422 35.6C69.7089 36 69.5755 36.4 69.4422 36.8C69.1089 38.0667 69.0755 38.9333 69.3422 39.4C69.6755 39.8667 70.1755 40.1 70.8422 40.1C71.5089 40.1 72.2422 39.9667 73.0422 39.7C73.8422 39.4333 74.6089 39.2 75.3422 39C75.6755 38.9333 76.1089 38.8 76.6422 38.6C77.2422 38.3333 77.7422 38.1667 78.1422 38.1C78.6089 38.0333 78.9089 38.1 79.0422 38.3C79.1755 38.4333 78.9755 38.8333 78.4422 39.5ZM87.6148 40.7C86.1482 41.5 84.6482 42.2667 83.1148 43C81.6482 43.7333 80.0815 44.3 78.4148 44.7C77.8815 44.7667 77.3482 44.8333 76.8148 44.9C76.2815 44.9 75.7482 44.8333 75.2148 44.7C74.2815 44.5667 73.6148 44.1333 73.2148 43.4C72.7482 42.6667 72.5815 41.8667 72.7148 41C72.7148 40.4667 72.7815 39.9 72.9148 39.3C72.9815 38.7 73.1815 38.1667 73.5148 37.7C74.2482 36.5 74.9148 35.1667 75.5148 33.7C76.1815 32.2333 76.9482 30.9333 77.8148 29.8C78.1482 29.4 78.5482 29.2 79.0148 29.2C79.4815 29.1333 79.8815 29.2667 80.2148 29.6C80.6148 29.8667 80.8482 30.3 80.9148 30.9C80.9815 31.4333 80.7482 32.0333 80.2148 32.7C79.5482 33.7667 78.8815 34.8 78.2148 35.8C77.5482 36.8 76.8815 37.8667 76.2148 39C75.5482 40.4 75.2482 41.4333 75.3148 42.1C75.4482 42.7 75.7815 43.0667 76.3148 43.2C76.9148 43.3333 77.6482 43.2667 78.5148 43C79.3815 42.7333 80.2482 42.3667 81.1148 41.9C82.0482 41.4333 82.9148 40.9667 83.7148 40.5C84.5148 39.9667 85.0815 39.5 85.4148 39.1C86.0815 38.3667 86.6815 38 87.2148 38C87.7482 37.9333 88.1148 38.0667 88.3148 38.4C88.5815 38.6667 88.6815 39.0667 88.6148 39.6C88.5482 40.0667 88.2148 40.4333 87.6148 40.7ZM85.2148 21.8C85.7482 21.8 86.1482 21.9667 86.4148 22.3C86.7482 22.6333 86.8482 23.0333 86.7148 23.5C86.5815 24.0333 86.2148 24.6 85.6148 25.2C85.0148 25.8 84.3815 26.3 83.7148 26.7C82.7815 27.2333 82.1148 27.4333 81.7148 27.3C81.3815 27.1667 81.3482 26.4667 81.6148 25.2C81.7482 24.4 82.0815 23.6333 82.6148 22.9C83.2148 22.1667 84.0815 21.8 85.2148 21.8ZM105.894 28.6C104.227 28.8667 102.56 29.1 100.894 29.3C99.2938 29.4333 97.6604 29.6667 95.9938 30C93.3938 30.5333 91.1271 31.5667 89.1937 33.1C87.3271 34.5667 85.6604 36.4 84.1938 38.6C83.7271 39.4667 83.2604 40 82.7938 40.2C82.3271 40.3333 81.9604 40.3 81.6937 40.1C81.3604 39.9 81.1604 39.5667 81.0937 39.1C81.0271 38.6333 81.1271 38.2 81.3937 37.8C82.6604 35.2667 84.2938 33.1667 86.2938 31.5C88.3604 29.7667 90.8604 28.5333 93.7938 27.8C95.0604 27.4667 96.3271 27.2 97.5938 27C98.9271 26.7333 100.26 26.5333 101.594 26.4C102.927 26.1333 104.26 25.9333 105.594 25.8C106.994 25.6667 108.36 25.5333 109.694 25.4C110.027 25.3333 110.294 25.2667 110.494 25.2C110.76 25.1333 110.96 25.1667 111.094 25.3C111.427 25.4333 111.727 25.5667 111.994 25.7C112.327 25.8333 112.56 26.0333 112.694 26.3C112.96 26.5667 113.027 26.9 112.894 27.3C112.827 27.6333 112.66 27.9333 112.394 28.2C112.127 28.4 111.894 28.6333 111.694 28.9C111.494 29.1 111.227 29.2667 110.894 29.4C108.56 30.9333 106.227 32.5 103.894 34.1C101.56 35.6333 99.2271 37.1667 96.8938 38.7C95.5604 39.6333 94.1938 40.5333 92.7938 41.4C91.4604 42.2667 90.1271 43.1333 88.7938 44C88.5938 44.0667 88.4604 44.3667 88.3938 44.9C89.3271 44.7667 90.2604 44.6667 91.1938 44.6C92.1271 44.5333 93.0604 44.4 93.9938 44.2C94.7938 44.1333 96.1271 44.0333 97.9938 43.9C99.8604 43.7 101.96 43.5333 104.294 43.4C106.694 43.2 109.194 43 111.794 42.8C114.394 42.6 116.86 42.4 119.194 42.2C121.594 42 123.727 41.8333 125.594 41.7C127.46 41.5667 128.794 41.4333 129.594 41.3C130.594 41.2333 131.56 41.2667 132.494 41.4C133.494 41.4667 134.427 41.9667 135.294 42.9C134.894 43.3667 134.46 43.6667 133.994 43.8C133.527 43.8667 133.027 43.9667 132.494 44.1C131.56 44.2333 130.094 44.4 128.094 44.6C126.094 44.7333 123.86 44.9 121.394 45.1C118.927 45.2333 116.294 45.4 113.494 45.6C110.76 45.8 108.127 46 105.594 46.2C103.127 46.4 100.894 46.6 98.8938 46.8C96.8938 46.9333 95.4271 47.0333 94.4938 47.1C92.6938 47.3667 90.9271 47.6333 89.1937 47.9C87.5271 48.1667 85.7938 48.4 83.9938 48.6C82.3271 48.8667 81.3271 48.6 80.9937 47.8C80.5271 46.8 80.9604 45.8333 82.2937 44.9C83.4271 44.1 84.5604 43.3333 85.6938 42.6C86.8271 41.8 87.9938 41.0333 89.1937 40.3C91.7938 38.5667 94.3938 36.8667 96.9938 35.2C99.5938 33.4667 102.227 31.7667 104.894 30.1C105.027 29.9667 105.194 29.8 105.394 29.6C105.594 29.4 105.827 29.2333 106.094 29.1C106.027 29.0333 105.994 28.9667 105.994 28.9C105.994 28.7667 105.96 28.6667 105.894 28.6ZM167.046 70.6C167.779 70.9333 168.446 71.1 169.046 71.1C169.713 71.0333 170.379 70.9333 171.046 70.8C172.779 70.6 174.546 70.3667 176.346 70.1C178.146 69.7667 179.946 69.4333 181.746 69.1C186.279 68.4333 190.746 67.7667 195.146 67.1C199.546 66.3667 204.013 65.6667 208.546 65C211.879 64.4667 215.213 63.9333 218.546 63.4C221.879 62.8667 225.213 62.3333 228.546 61.8C231.079 61.4667 233.613 61.2 236.146 61C238.746 60.8 241.313 60.8667 243.846 61.2C243.313 61.4667 242.913 61.6 242.646 61.6C238.979 62.8667 235.279 63.8 231.546 64.4C227.813 65 224.046 65.5667 220.246 66.1C216.046 66.8333 211.879 67.5 207.746 68.1C203.613 68.7 199.446 69.3333 195.246 70C191.379 70.6667 187.546 71.3 183.746 71.9C179.946 72.5 176.146 73.0667 172.346 73.6C170.679 73.8667 168.913 73.9 167.046 73.7C165.779 73.6333 164.913 73.2333 164.446 72.5C163.979 71.7667 163.946 70.8333 164.346 69.7C165.079 67.8333 165.946 66.1 166.946 64.5C168.879 61.1 170.813 57.7333 172.746 54.4C174.746 51.0667 176.746 47.7 178.746 44.3C178.946 43.9 179.146 43.5 179.346 43.1C179.613 42.7 179.879 42.1667 180.146 41.5C179.679 41.6333 179.313 41.7 179.046 41.7C178.779 41.6333 178.479 41.6667 178.146 41.8C175.079 42.3333 172.046 42.8667 169.046 43.4C166.046 43.8667 163.013 44.3667 159.946 44.9C159.413 44.9667 158.879 45.1 158.346 45.3C157.813 45.4333 157.279 45.5667 156.746 45.7C156.213 45.8333 155.846 45.9 155.646 45.9C155.446 45.8333 155.246 45.7667 155.046 45.7C154.846 45.5667 154.679 45.4 154.546 45.2C154.479 45.0667 154.513 44.9 154.646 44.7C154.713 44.4333 154.813 44.2667 154.946 44.2C155.679 43.6 156.446 43.2 157.246 43C158.646 42.6 160.046 42.2333 161.446 41.9C162.846 41.5 164.279 41.1667 165.746 40.9C168.279 40.5 170.746 40.1333 173.146 39.8C175.613 39.4 178.113 39.0333 180.646 38.7C181.179 38.6333 181.579 38.5 181.846 38.3C182.113 38.1 182.413 37.8 182.746 37.4C184.479 34.3333 186.246 31.3333 188.046 28.4C189.846 25.4 191.646 22.4 193.446 19.4C194.513 17.5333 195.579 15.7333 196.646 14C197.713 12.2667 198.813 10.5333 199.946 8.79999C200.213 8.33333 200.479 7.86666 200.746 7.39999C201.079 6.93333 201.446 6.36666 201.846 5.7C200.513 5.83333 199.313 5.93333 198.246 5.99999C197.179 6.06666 196.113 6.16666 195.046 6.3C192.713 6.63333 190.379 7 188.046 7.39999C185.779 7.73333 183.479 8.06667 181.146 8.4C180.479 8.46666 179.879 8.46666 179.346 8.4C179.146 8.33333 178.946 8.2 178.746 8C178.613 7.73333 178.479 7.5 178.346 7.3C178.346 7.16666 178.446 7 178.646 6.8C178.846 6.53333 179.013 6.33333 179.146 6.2C179.413 6.13333 179.646 6.06666 179.846 5.99999C180.113 5.86666 180.379 5.76666 180.646 5.7C183.846 5.03333 187.013 4.46666 190.146 4C193.279 3.53333 196.446 3.16667 199.646 2.9C200.179 2.83333 200.713 2.79999 201.246 2.79999C201.779 2.79999 202.313 2.73333 202.846 2.6C203.313 2.46666 203.713 2.3 204.046 2.1C204.446 1.83333 204.879 1.56666 205.346 1.3C205.679 1.96666 206.113 2.33333 206.646 2.4C207.246 2.46666 207.846 2.46666 208.446 2.4C210.446 2.26666 212.446 2.16666 214.446 2.1C216.513 2.03333 218.579 1.96667 220.646 1.9C225.646 1.9 230.646 1.86666 235.646 1.79999C240.646 1.73333 245.646 1.73333 250.646 1.79999C253.313 1.86666 255.979 1.93333 258.646 2C261.379 2.06666 264.046 2.4 266.646 3C267.913 3.26666 269.146 3.63333 270.346 4.09999C271.546 4.56666 272.713 5 273.846 5.4C273.979 5.4 274.113 5.63333 274.246 6.1H270.446C261.713 5.3 253.046 4.9 244.446 4.9C235.913 4.9 227.279 4.9 218.546 4.9C216.546 5.03333 214.513 5.13333 212.446 5.2C210.379 5.26666 208.346 5.33333 206.346 5.4C205.746 5.4 205.279 5.5 204.946 5.7C204.613 5.9 204.279 6.23333 203.946 6.7C201.146 11.5667 198.346 16.3667 195.546 21.1C192.746 25.8333 189.946 30.6333 187.146 35.5C186.879 35.8333 186.646 36.2 186.446 36.6C186.313 36.9333 186.079 37.3667 185.746 37.9H187.246C190.646 37.7 194.013 37.5 197.346 37.3C200.746 37.0333 204.146 36.7667 207.546 36.5C212.346 36.1 217.279 36.3667 222.346 37.3C222.746 37.4333 223.046 37.6333 223.246 37.9C221.446 38.1 219.613 38.3333 217.746 38.6C215.879 38.8 214.046 39 212.246 39.2C209.246 39.4 206.246 39.6 203.246 39.8C200.313 40 197.379 40.1667 194.446 40.3C192.913 40.4333 191.379 40.5667 189.846 40.7C188.379 40.8333 186.879 40.9333 185.346 41C184.346 41.0667 183.579 41.5333 183.046 42.4C180.579 46.8 178.079 51.1333 175.546 55.4C173.079 59.6 170.613 63.8667 168.146 68.2C167.946 68.5333 167.746 68.9 167.546 69.3C167.413 69.7 167.246 70.1333 167.046 70.6ZM257.893 35.1C260.026 33.1 262.093 31 264.093 28.8C266.093 26.5333 267.826 23.9 269.293 20.9C268.626 21.1667 267.626 21.9333 266.293 23.2C265.026 24.4667 263.693 25.9667 262.293 27.7C260.893 29.3667 259.526 31.1 258.193 32.9C256.926 34.7 255.993 36.2 255.393 37.4C256.993 37.6667 258.726 37.8333 260.593 37.9C262.526 37.9667 264.426 37.9667 266.293 37.9C268.16 37.8333 269.96 37.7 271.693 37.5C273.426 37.3 274.993 37.1 276.393 36.9C276.793 36.8333 277.126 36.9 277.393 37.1C277.726 37.3 277.926 37.8 277.993 38.6C278.06 39.0667 277.926 39.3667 277.593 39.5C277.26 39.6333 276.926 39.7 276.593 39.7C274.46 39.5667 272.46 39.5333 270.593 39.6C268.726 39.6667 266.926 39.9 265.193 40.3C265.393 42.4333 265.126 44.4 264.393 46.2C263.66 48 262.826 49.5667 261.893 50.9C259.76 53.9667 257.393 56.7667 254.793 59.3C252.26 61.7667 249.493 63.9333 246.493 65.8C245.96 66.0667 245.426 66.3 244.893 66.5C244.293 66.7 243.66 66.9 242.993 67.1C241.793 67.3 240.826 66.9667 240.093 66.1C239.36 65.1667 239.093 63.9667 239.293 62.5C239.426 61.9667 239.593 61.4333 239.793 60.9C239.926 60.3667 240.126 59.8333 240.393 59.3C241.926 56.1 243.493 52.9 245.093 49.7C246.626 46.4333 247.993 43.5333 249.193 41C248.593 41 248.093 40.8 247.693 40.4C247.293 40 247.06 39.5667 246.993 39.1C246.926 38.5667 247.093 38.1 247.493 37.7C247.826 37.3 248.393 37.0667 249.193 37C249.793 36.9333 250.26 36.9333 250.593 37C250.926 37 251.226 37 251.493 37C251.76 36.9333 251.993 36.8 252.193 36.6C252.393 36.4 252.66 36.0333 252.993 35.5C254.926 32.3 256.926 29.4333 258.993 26.9C261.126 24.3667 263.46 21.8333 265.993 19.3C266.326 18.9667 266.66 18.6333 266.993 18.3C267.393 17.9667 267.793 17.6667 268.193 17.4C268.46 17.2 268.693 17.0333 268.893 16.9C269.093 16.7667 269.326 16.6333 269.593 16.5C270.393 16.2333 271.093 16.4333 271.693 17.1C272.36 17.7 272.626 18.5333 272.493 19.6C272.36 20.2667 272.226 20.9 272.093 21.5C271.96 22.1 271.726 22.6667 271.393 23.2C269.926 25.6667 268.326 27.9667 266.593 30.1C264.926 32.1667 263.026 33.9667 260.893 35.5C260.493 35.8333 260.06 36.0667 259.593 36.2C259.126 36.2667 258.56 35.9 257.893 35.1ZM262.593 40.4C261.726 40.6 260.76 40.7 259.693 40.7C258.626 40.6333 257.593 40.6 256.593 40.6C255.593 40.5333 254.693 40.5667 253.893 40.7C253.093 40.7667 252.526 41.0333 252.193 41.5C251.926 41.8333 251.593 42.3667 251.193 43.1C250.793 43.8333 250.393 44.6333 249.993 45.5C249.593 46.3 249.226 47.0667 248.893 47.8C248.56 48.5333 248.293 49.1 248.093 49.5C247.16 51.5667 246.226 53.6333 245.293 55.7C244.36 57.7667 243.393 59.8333 242.393 61.9C242.26 62.1 242.193 62.3667 242.193 62.7C242.193 62.9667 242.16 63.2 242.093 63.4C242.093 63.5333 242.193 63.7 242.393 63.9C242.86 63.7 243.36 63.5333 243.893 63.4C244.36 63.2667 244.826 63.1 245.293 62.9C248.493 60.9 251.393 58.5 253.993 55.7C256.66 52.9 259.093 49.7667 261.293 46.3C261.56 45.7667 261.826 44.9 262.093 43.7C262.426 42.5 262.593 41.4 262.593 40.4ZM282.006 35.1C284.14 33.1 286.206 31 288.206 28.8C290.206 26.5333 291.94 23.9 293.406 20.9C292.74 21.1667 291.74 21.9333 290.406 23.2C289.14 24.4667 287.806 25.9667 286.406 27.7C285.006 29.3667 283.64 31.1 282.306 32.9C281.04 34.7 280.106 36.2 279.506 37.4C281.106 37.6667 282.84 37.8333 284.706 37.9C286.64 37.9667 288.54 37.9667 290.406 37.9C292.273 37.8333 294.073 37.7 295.806 37.5C297.54 37.3 299.106 37.1 300.506 36.9C300.906 36.8333 301.24 36.9 301.506 37.1C301.84 37.3 302.04 37.8 302.106 38.6C302.173 39.0667 302.04 39.3667 301.706 39.5C301.373 39.6333 301.04 39.7 300.706 39.7C298.573 39.5667 296.573 39.5333 294.706 39.6C292.84 39.6667 291.04 39.9 289.306 40.3C289.506 42.4333 289.24 44.4 288.506 46.2C287.773 48 286.94 49.5667 286.006 50.9C283.873 53.9667 281.506 56.7667 278.906 59.3C276.373 61.7667 273.606 63.9333 270.606 65.8C270.073 66.0667 269.54 66.3 269.006 66.5C268.406 66.7 267.773 66.9 267.106 67.1C265.906 67.3 264.94 66.9667 264.206 66.1C263.473 65.1667 263.206 63.9667 263.406 62.5C263.54 61.9667 263.706 61.4333 263.906 60.9C264.04 60.3667 264.24 59.8333 264.506 59.3C266.04 56.1 267.606 52.9 269.206 49.7C270.74 46.4333 272.106 43.5333 273.306 41C272.706 41 272.206 40.8 271.806 40.4C271.406 40 271.173 39.5667 271.106 39.1C271.04 38.5667 271.206 38.1 271.606 37.7C271.94 37.3 272.506 37.0667 273.306 37C273.906 36.9333 274.373 36.9333 274.706 37C275.04 37 275.34 37 275.606 37C275.873 36.9333 276.106 36.8 276.306 36.6C276.506 36.4 276.773 36.0333 277.106 35.5C279.04 32.3 281.04 29.4333 283.106 26.9C285.24 24.3667 287.573 21.8333 290.106 19.3C290.44 18.9667 290.773 18.6333 291.106 18.3C291.506 17.9667 291.906 17.6667 292.306 17.4C292.573 17.2 292.806 17.0333 293.006 16.9C293.206 16.7667 293.44 16.6333 293.706 16.5C294.506 16.2333 295.206 16.4333 295.806 17.1C296.473 17.7 296.74 18.5333 296.606 19.6C296.473 20.2667 296.34 20.9 296.206 21.5C296.073 22.1 295.84 22.6667 295.506 23.2C294.04 25.6667 292.44 27.9667 290.706 30.1C289.04 32.1667 287.14 33.9667 285.006 35.5C284.606 35.8333 284.173 36.0667 283.706 36.2C283.24 36.2667 282.673 35.9 282.006 35.1ZM286.706 40.4C285.84 40.6 284.873 40.7 283.806 40.7C282.74 40.6333 281.706 40.6 280.706 40.6C279.706 40.5333 278.806 40.5667 278.006 40.7C277.206 40.7667 276.64 41.0333 276.306 41.5C276.04 41.8333 275.706 42.3667 275.306 43.1C274.906 43.8333 274.506 44.6333 274.106 45.5C273.706 46.3 273.34 47.0667 273.006 47.8C272.673 48.5333 272.406 49.1 272.206 49.5C271.273 51.5667 270.34 53.6333 269.406 55.7C268.473 57.7667 267.506 59.8333 266.506 61.9C266.373 62.1 266.306 62.3667 266.306 62.7C266.306 62.9667 266.273 63.2 266.206 63.4C266.206 63.5333 266.306 63.7 266.506 63.9C266.973 63.7 267.473 63.5333 268.006 63.4C268.473 63.2667 268.94 63.1 269.406 62.9C272.606 60.9 275.506 58.5 278.106 55.7C280.773 52.9 283.206 49.7667 285.406 46.3C285.673 45.7667 285.94 44.9 286.206 43.7C286.54 42.5 286.706 41.4 286.706 40.4ZM316.42 38.3C316.753 38.1667 317.053 38.0667 317.32 38C317.586 37.8667 317.886 37.7333 318.22 37.6C319.02 37.4667 319.586 37.7 319.92 38.3C320.253 39.1 320.053 39.6667 319.32 40C316.853 41.2667 314.286 42.2333 311.62 42.9C308.953 43.5667 306.286 43.9667 303.62 44.1C302.686 44.1667 301.686 44.1667 300.62 44.1C299.62 44.0333 298.686 43.8 297.82 43.4C297.02 43 296.42 42.4333 296.02 41.7C295.62 40.9 295.586 39.8333 295.92 38.5C296.386 37.1667 296.82 36.2333 297.22 35.7C297.62 35.1667 298.386 34.6 299.52 34C300.72 33.4667 301.953 33.1 303.22 32.9C304.553 32.6333 305.82 32.5 307.02 32.5C308.153 32.6333 308.82 33.2 309.02 34.2C309.22 35.2667 308.853 36.0667 307.92 36.6C307.253 37 306.553 37.3667 305.82 37.7C305.086 37.9667 304.32 38.2333 303.52 38.5C302.92 38.6333 302.286 38.7333 301.62 38.8C300.953 38.8667 300.286 38.9 299.62 38.9C298.62 38.9 298.053 39.1333 297.92 39.6C297.853 40 298.053 40.4333 298.52 40.9C299.186 41.5667 300.353 41.9333 302.02 42C303.686 42 305.453 41.8667 307.32 41.6C309.253 41.2667 311.053 40.8 312.72 40.2C314.453 39.6 315.686 38.9667 316.42 38.3ZM306.32 35.4C306.786 34.8 306.786 34.5 306.32 34.5C305.92 34.4333 305.286 34.5333 304.42 34.8C303.62 35.0667 302.686 35.4667 301.62 36C300.553 36.5333 299.62 37.0667 298.82 37.6C299.82 37.7333 301.12 37.6 302.72 37.2C304.32 36.7333 305.52 36.1333 306.32 35.4ZM334.806 40.5C334.54 40.7 334.073 40.9333 333.406 41.2C331.206 42.1333 328.973 42.9667 326.706 43.7C324.506 44.4333 322.206 44.8667 319.806 45C319.273 45.1333 318.673 45.2 318.006 45.2C317.406 45.1333 316.806 45.0333 316.206 44.9C314.673 44.5 313.606 43.7333 313.006 42.6C312.34 41.4 312.373 40 313.106 38.4C313.24 38.2 313.34 38 313.406 37.8C313.473 37.5333 313.573 37.3 313.706 37.1C314.973 35.4333 316.373 34.0667 317.906 33C319.44 31.8667 321.24 31.0667 323.306 30.6C323.906 30.4 324.54 30.3333 325.206 30.4C325.873 30.4 326.506 30.5 327.106 30.7C328.106 31.0333 328.74 31.7333 329.006 32.8C329.34 33.8 329.14 34.7 328.406 35.5C328.273 35.6333 328.106 35.7667 327.906 35.9C327.706 35.9667 327.473 36 327.206 36C327.073 36 326.973 35.9 326.906 35.7C326.84 35.4333 326.74 35.2333 326.606 35.1C326.473 34.0333 326.24 33.3667 325.906 33.1C325.573 32.8333 324.906 32.8333 323.906 33.1C322.306 33.5667 320.873 34.2667 319.606 35.2C318.34 36.1333 317.24 37.2 316.306 38.4C316.04 38.7333 315.806 39.1667 315.606 39.7C315.206 41.0333 315.64 41.8333 316.906 42.1C317.84 42.3667 318.873 42.4 320.006 42.2C321.806 42.0667 323.54 41.7667 325.206 41.3C326.873 40.8333 328.473 40.2333 330.006 39.5C330.673 39.2333 331.306 38.9667 331.906 38.7C332.506 38.4333 333.14 38.2333 333.806 38.1C335.473 37.7 336.406 37.8 336.606 38.4C336.806 38.9333 336.206 39.6333 334.806 40.5ZM331.17 16.5C329.636 16.7 328.703 16.5667 328.37 16.1C327.97 15.6333 327.836 15.3 327.97 15.1C328.17 14.7667 328.536 14.4667 329.07 14.2C329.536 13.8667 330.47 13.7667 331.87 13.9C334.07 14.1 336.336 14.2 338.67 14.2C341.07 14.2 343.436 14.0333 345.77 13.7C345.97 13.5667 346.136 13.4 346.27 13.2C347.203 11.9333 347.903 10.9333 348.37 10.2C348.836 9.46666 349.27 8.8 349.67 8.2C350.07 7.6 350.503 6.96666 350.97 6.3C351.503 5.56666 352.236 4.56667 353.17 3.3C353.37 2.9 353.67 2.56666 354.07 2.29999C354.536 1.96666 354.97 1.96666 355.37 2.29999C355.503 2.43333 355.603 2.66666 355.67 3C355.736 3.33333 355.77 3.63333 355.77 3.9C355.703 4.16666 355.57 4.43333 355.37 4.7C355.17 4.96666 355.003 5.19999 354.87 5.4C354.136 6.4 353.603 7.13333 353.27 7.6C353.003 8.06666 352.736 8.53333 352.47 9C352.203 9.46666 351.87 10.0333 351.47 10.7C351.07 11.3667 350.37 12.4 349.37 13.8C350.77 14.0667 352.57 14.2667 354.77 14.4C357.036 14.4667 359.47 14.5 362.07 14.5C364.67 14.4333 367.336 14.3333 370.07 14.2C372.87 14 375.536 13.7667 378.07 13.5C379.67 13.3667 381.17 13.2333 382.57 13.1C383.97 12.9667 385.136 12.9333 386.07 13C387.736 13.1333 388.503 13.4667 388.37 14C388.236 14.5333 387.47 14.9667 386.07 15.3C384.87 15.5 383.203 15.6667 381.07 15.8C379.003 15.9333 376.736 16.0667 374.27 16.2C371.803 16.2667 369.203 16.3333 366.47 16.4C363.803 16.4 361.236 16.4 358.77 16.4C356.37 16.3333 354.17 16.3 352.17 16.3C350.236 16.3 348.736 16.2667 347.67 16.2C346.536 17.6667 345.336 19.2667 344.07 21C342.87 22.7333 341.67 24.5 340.47 26.3C339.336 28.1 338.27 29.8667 337.27 31.6C336.27 33.2667 335.403 34.8 334.67 36.2C334.07 37.4 333.47 38.7333 332.87 40.2C332.27 41.6 331.87 42.8667 331.67 44C331.536 45.0667 331.736 45.8667 332.27 46.4C332.803 46.8667 333.87 46.7667 335.47 46.1C336.203 45.8333 337.036 45.4333 337.97 44.9C338.903 44.3667 339.87 43.8 340.87 43.2C341.87 42.5333 342.836 41.8667 343.77 41.2C344.703 40.4667 345.57 39.7667 346.37 39.1C346.703 38.9 346.97 38.7 347.17 38.5C347.37 38.2333 347.636 38.0333 347.97 37.9C348.37 37.6333 348.703 37.4667 348.97 37.4C349.303 37.2667 349.636 37.4 349.97 37.8C350.236 38.2 350.27 38.6 350.07 39C349.936 39.3333 349.703 39.6667 349.37 40C348.97 40.4 348.27 40.9667 347.27 41.7C346.27 42.4333 345.103 43.2 343.77 44C342.503 44.8 341.136 45.6 339.67 46.4C338.27 47.1333 336.936 47.7333 335.67 48.2C333.403 49 331.836 49.1 330.97 48.5C330.036 47.8333 329.536 46.8667 329.47 45.6C329.336 44.3333 329.503 42.9333 329.97 41.4C330.436 39.8667 330.903 38.5333 331.37 37.4C332.17 35.5333 333.103 33.6667 334.17 31.8C335.236 29.9333 336.336 28.1 337.47 26.3C338.67 24.5 339.836 22.7667 340.97 21.1C342.17 19.3667 343.236 17.7667 344.17 16.3C341.97 16.3667 339.703 16.4333 337.37 16.5C335.103 16.5 333.036 16.5 331.17 16.5Z" fill="black"/>
</svg>
