<svg width="206" height="96" viewBox="0 0 206 96" fill="none" xmlns="http://www.w3.org/2000/svg">
<path d="M37.9 15C36.5667 15.2 35.5333 15.4333 34.8 15.7C31.9333 16.4333 29.0667 17.2667 26.2 18.2C23.4 19.0667 20.6 20.1 17.8 21.3C16.4667 21.9 15.1667 22.5667 13.9 23.3C12.6333 23.9667 11.3333 24.6667 10 25.4C9.73333 25.6 9.43333 25.8 9.1 26C8.76667 26.1333 8.43333 26.0667 8.1 25.8C7.5 25.3333 7.7 24.6 8.7 23.6C9.7 22.8 10.7667 22.0667 11.9 21.4C14.4333 20 17 18.8 19.6 17.8C22.2667 16.7333 24.9667 15.8 27.7 15C29.5667 14.4 31.4333 13.8667 33.3 13.4C35.1667 12.8667 37.0667 12.3333 39 11.8C39.5333 11.6667 39.9667 11.4667 40.3 11.2C40.7 10.9333 41.0333 10.5333 41.3 10C42.1667 8.66666 43 7.36666 43.8 6.09999C44.6 4.83333 45.4333 3.53333 46.3 2.2C46.3667 1.93333 46.4333 1.73333 46.5 1.6C46.6333 1.46666 46.7333 1.33333 46.8 1.2C47.0667 0.866665 47.3 0.599998 47.5 0.399997C47.7667 0.13333 48.1 0.166662 48.5 0.499995C48.7 0.633331 48.8333 0.866665 48.9 1.2C48.9667 1.53333 48.9667 1.83333 48.9 2.1C48.6333 2.7 48.3333 3.3 48 3.9C47.7333 4.43333 47.4333 5.03333 47.1 5.69999C46.3 7.1 45.4 8.7 44.4 10.5C44.8667 10.3667 45.2333 10.3 45.5 10.3C45.7667 10.3 46.0667 10.2667 46.4 10.2C49.7333 9.53333 53.0333 9 56.3 8.6C59.5667 8.13333 62.9 7.93333 66.3 7.99999C67.5667 7.99999 68.8667 8.09999 70.2 8.3C71.5333 8.43333 72.8667 8.59999 74.2 8.8C75.6 9.06666 76.9667 9.63333 78.3 10.5C79.7 11.3 80.6667 12.4 81.2 13.8C81.8 15.1333 81.9333 16.5667 81.6 18.1C81.4 19.3 81 20.4333 80.4 21.5C79.8667 22.5 79.2333 23.4667 78.5 24.4C77.1 26.0667 75.6 27.5667 74 28.9C72.4 30.2333 70.7333 31.4667 69 32.6C65 35.4 60.8 37.7667 56.4 39.7C52.0667 41.5667 47.6 43.2 43 44.6C40.4667 45.3333 37.9333 46 35.4 46.6C32.8667 47.2 30.3 47.6667 27.7 48C26.7 48.1333 25.7333 48.2 24.8 48.2C23.8667 48.2 22.8667 48.2667 21.8 48.4C21.9333 48.7333 22.0333 49 22.1 49.2C22.1667 49.4 22.2333 49.6333 22.3 49.9C23.4333 52.3 24.7667 54.5667 26.3 56.7C27.8333 58.8333 29.4667 60.9 31.2 62.9C36 68.5667 41.2333 73.5333 46.9 77.8C52.6333 82.0667 58.9333 85.6667 65.8 88.6C68.4667 89.8 71.1667 90.7 73.9 91.3C76.7 91.9667 79.5333 92.4667 82.4 92.8C83.9333 93 85.4333 93.1 86.9 93.1C88.4333 93.1667 89.9333 93.2667 91.4 93.4C91.9333 93.4 92.3333 93.4667 92.6 93.6C91.8 94.0667 90.9333 94.3667 90 94.5C89.0667 94.7 88.1667 94.8667 87.3 95C83.8333 95.6 80.4333 95.6333 77.1 95.1C73.8333 94.6333 70.6 93.7667 67.4 92.5C56.9333 88.6333 47.5667 83 39.3 75.6C36.3 72.9333 33.4667 70.1667 30.8 67.3C28.1333 64.3667 25.7 61.2333 23.5 57.9C22.7667 56.7 22.0667 55.4667 21.4 54.2C20.7333 52.9333 20.0333 51.7 19.3 50.5C19.1667 50.2333 19.0333 49.9667 18.9 49.7C18.8333 49.4333 18.7333 49.1667 18.6 48.9C15.7333 52.7 12.9 56.4 10.1 60C7.3 63.6 4.1 66.9333 0.5 70C2.7 65.8667 5.16667 61.9667 7.9 58.3C10.6333 54.6333 13.3333 50.9 16 47.1C15.7333 46.8333 15.5 46.6333 15.3 46.5C15.1 46.3667 14.9 46.2 14.7 46C14.5 45.7333 14.2667 45.5 14 45.3C13.7333 45.1 13.5333 44.8333 13.4 44.5C13.0667 43.9667 12.9667 43.4667 13.1 43C13.2333 42.5333 13.4667 42.1667 13.8 41.9C14.4667 41.5 15.2333 41.7333 16.1 42.6C16.5 43.1333 16.8667 43.5667 17.2 43.9C17.4667 43.4333 17.7333 43.0333 18 42.7C18.2667 42.3 18.6667 42.1667 19.2 42.3C19.4 42.3 19.5667 42.2 19.7 42C19.8333 41.7333 19.9333 41.5333 20 41.4C22.8667 37.2 25.7333 33.0333 28.6 28.9C31.4667 24.7667 34.3333 20.5667 37.2 16.3C37.3333 16.1667 37.4333 16 37.5 15.8C37.5667 15.6 37.7 15.3333 37.9 15ZM21.5 45.1C22.8333 45.3 24.0667 45.3667 25.2 45.3C26.4 45.1667 27.6 45 28.8 44.8C32.9333 44.1333 36.9333 43.2333 40.8 42.1C44.7333 40.9 48.6333 39.5333 52.5 38C56.3 36.4667 59.9 34.7 63.3 32.7C66.7 30.6333 69.9333 28.2333 73 25.5C74.1333 24.5667 75.1333 23.5667 76 22.5C76.9333 21.4333 77.7 20.1667 78.3 18.7C78.8333 17.2333 78.8667 15.9667 78.4 14.9C77.9333 13.7667 77 12.9333 75.6 12.4C73.6667 11.8 71.7667 11.4 69.9 11.2C65.5 10.8667 61.2 10.9667 57 11.5C52.8 11.9667 48.5667 12.6 44.3 13.4C43.0333 13.6 42 14.2333 41.2 15.3C38 20.1 34.8333 24.8667 31.7 29.6C28.5667 34.2667 25.4 38.9667 22.2 43.7L21.5 45.1ZM98.4391 40.3C98.7724 40.1667 99.0724 40.0667 99.3391 40C99.6057 39.8667 99.9057 39.7333 100.239 39.6C101.039 39.4667 101.606 39.7 101.939 40.3C102.272 41.1 102.072 41.6667 101.339 42C98.8724 43.2667 96.3057 44.2333 93.6391 44.9C90.9724 45.5667 88.3057 45.9667 85.6391 46.1C84.7057 46.1667 83.7057 46.1667 82.6391 46.1C81.6391 46.0333 80.7057 45.8 79.8391 45.4C79.0391 45 78.4391 44.4333 78.0391 43.7C77.6391 42.9 77.6057 41.8333 77.9391 40.5C78.4057 39.1667 78.8391 38.2333 79.2391 37.7C79.6391 37.1667 80.4057 36.6 81.5391 36C82.7391 35.4667 83.9724 35.1 85.2391 34.9C86.5724 34.6333 87.8391 34.5 89.0391 34.5C90.1724 34.6333 90.8391 35.2 91.0391 36.2C91.2391 37.2667 90.8724 38.0667 89.9391 38.6C89.2724 39 88.5724 39.3667 87.8391 39.7C87.1057 39.9667 86.3391 40.2333 85.5391 40.5C84.9391 40.6333 84.3057 40.7333 83.6391 40.8C82.9724 40.8667 82.3057 40.9 81.6391 40.9C80.6391 40.9 80.0724 41.1333 79.9391 41.6C79.8724 42 80.0724 42.4333 80.5391 42.9C81.2057 43.5667 82.3724 43.9333 84.0391 44C85.7057 44 87.4724 43.8667 89.3391 43.6C91.2724 43.2667 93.0724 42.8 94.7391 42.2C96.4724 41.6 97.7057 40.9667 98.4391 40.3ZM88.3391 37.4C88.8057 36.8 88.8057 36.5 88.3391 36.5C87.9391 36.4333 87.3057 36.5333 86.4391 36.8C85.6391 37.0667 84.7057 37.4667 83.6391 38C82.5724 38.5333 81.6391 39.0667 80.8391 39.6C81.8391 39.7333 83.1391 39.6 84.7391 39.2C86.3391 38.7333 87.5391 38.1333 88.3391 37.4ZM127.226 41.6C126.492 42.3333 125.359 43.1 123.826 43.9C122.359 44.7 120.859 45.2667 119.326 45.6C117.859 45.9333 116.559 45.9 115.426 45.5C114.292 45.1 113.726 44.0333 113.726 42.3C113.726 41.7667 113.759 41.2333 113.826 40.7C113.892 40.1 113.992 39.4667 114.126 38.8C112.392 39.8667 110.692 40.9333 109.026 42C107.426 43 105.759 43.9667 104.026 44.9C103.626 45.2333 103.159 45.4333 102.626 45.5C102.159 45.5667 101.692 45.6333 101.226 45.7C99.7591 45.9 98.7258 45.4667 98.1258 44.4C97.5258 43.3333 97.6258 42.2333 98.4258 41.1C98.7591 40.7 99.0591 40.3333 99.3258 40C99.5924 39.6667 99.9258 39.3333 100.326 39C102.059 37.4667 103.959 36.3333 106.026 35.6C108.092 34.8667 110.326 34.6 112.726 34.8C113.592 34.9333 114.292 34.6667 114.826 34C115.292 33.5333 115.726 33.0667 116.126 32.6C116.592 32.1333 117.059 31.6667 117.526 31.2C117.659 31 117.826 30.8 118.026 30.6C118.226 30.4 118.426 30.2667 118.626 30.2C118.826 30.1333 119.059 30.1 119.326 30.1C119.659 30.1 119.926 30.1667 120.126 30.3C120.459 30.7667 120.592 31.2667 120.526 31.8C120.459 32.3333 120.192 33 119.726 33.8C119.526 34.2 119.126 35.0333 118.526 36.3C117.926 37.5 117.459 38.7 117.126 39.9C116.859 41.1 116.859 42.1 117.126 42.9C117.392 43.6333 118.292 43.7667 119.826 43.3C120.626 43.1 121.492 42.7667 122.426 42.3C123.359 41.7667 124.292 41.2667 125.226 40.8C125.492 40.6667 125.759 40.5333 126.026 40.4C126.292 40.2 126.592 40.1333 126.926 40.2C127.259 40.3333 127.492 40.5667 127.626 40.9C127.826 41.1667 127.692 41.4 127.226 41.6ZM100.926 42.8C102.859 42.4667 104.892 41.7333 107.026 40.6C109.159 39.4 110.892 38.1333 112.226 36.8C110.226 36.9333 108.126 37.5333 105.926 38.6C103.726 39.6667 102.059 41.0667 100.926 42.8ZM147.693 42.5C147.426 42.7 146.96 42.9333 146.293 43.2C144.093 44.1333 141.86 44.9667 139.593 45.7C137.393 46.4333 135.093 46.8667 132.693 47C132.16 47.1333 131.56 47.2 130.893 47.2C130.293 47.1333 129.693 47.0333 129.093 46.9C127.56 46.5 126.493 45.7333 125.893 44.6C125.226 43.4 125.26 42 125.993 40.4C126.126 40.2 126.226 40 126.293 39.8C126.36 39.5333 126.46 39.3 126.593 39.1C127.86 37.4333 129.26 36.0667 130.793 35C132.326 33.8667 134.126 33.0667 136.193 32.6C136.793 32.4 137.426 32.3333 138.093 32.4C138.76 32.4 139.393 32.5 139.993 32.7C140.993 33.0333 141.626 33.7333 141.893 34.8C142.226 35.8 142.026 36.7 141.293 37.5C141.16 37.6333 140.993 37.7667 140.793 37.9C140.593 37.9667 140.36 38 140.093 38C139.96 38 139.86 37.9 139.793 37.7C139.726 37.4333 139.626 37.2333 139.493 37.1C139.36 36.0333 139.126 35.3667 138.793 35.1C138.46 34.8333 137.793 34.8333 136.793 35.1C135.193 35.5667 133.76 36.2667 132.493 37.2C131.226 38.1333 130.126 39.2 129.193 40.4C128.926 40.7333 128.693 41.1667 128.493 41.7C128.093 43.0333 128.526 43.8333 129.793 44.1C130.726 44.3667 131.76 44.4 132.893 44.2C134.693 44.0667 136.426 43.7667 138.093 43.3C139.76 42.8333 141.36 42.2333 142.893 41.5C143.56 41.2333 144.193 40.9667 144.793 40.7C145.393 40.4333 146.026 40.2333 146.693 40.1C148.36 39.7 149.293 39.8 149.493 40.4C149.693 40.9333 149.093 41.6333 147.693 42.5ZM148.556 18.5C147.023 18.7 146.09 18.5667 145.756 18.1C145.356 17.6333 145.223 17.3 145.356 17.1C145.556 16.7667 145.923 16.4667 146.456 16.2C146.923 15.8667 147.856 15.7667 149.256 15.9C151.456 16.1 153.723 16.2 156.056 16.2C158.456 16.2 160.823 16.0333 163.156 15.7C163.356 15.5667 163.523 15.4 163.656 15.2C164.59 13.9333 165.29 12.9333 165.756 12.2C166.223 11.4667 166.656 10.8 167.056 10.2C167.456 9.6 167.89 8.96666 168.356 8.3C168.89 7.56666 169.623 6.56667 170.556 5.3C170.756 4.9 171.056 4.56666 171.456 4.29999C171.923 3.96666 172.356 3.96666 172.756 4.29999C172.89 4.43333 172.99 4.66666 173.056 5C173.123 5.33333 173.156 5.63333 173.156 5.9C173.09 6.16666 172.956 6.43333 172.756 6.7C172.556 6.96666 172.39 7.19999 172.256 7.4C171.523 8.4 170.99 9.13333 170.656 9.6C170.39 10.0667 170.123 10.5333 169.856 11C169.59 11.4667 169.256 12.0333 168.856 12.7C168.456 13.3667 167.756 14.4 166.756 15.8C168.156 16.0667 169.956 16.2667 172.156 16.4C174.423 16.4667 176.856 16.5 179.456 16.5C182.056 16.4333 184.723 16.3333 187.456 16.2C190.256 16 192.923 15.7667 195.456 15.5C197.056 15.3667 198.556 15.2333 199.956 15.1C201.356 14.9667 202.523 14.9333 203.456 15C205.123 15.1333 205.89 15.4667 205.756 16C205.623 16.5333 204.856 16.9667 203.456 17.3C202.256 17.5 200.59 17.6667 198.456 17.8C196.39 17.9333 194.123 18.0667 191.656 18.2C189.19 18.2667 186.59 18.3333 183.856 18.4C181.19 18.4 178.623 18.4 176.156 18.4C173.756 18.3333 171.556 18.3 169.556 18.3C167.623 18.3 166.123 18.2667 165.056 18.2C163.923 19.6667 162.723 21.2667 161.456 23C160.256 24.7333 159.056 26.5 157.856 28.3C156.723 30.1 155.656 31.8667 154.656 33.6C153.656 35.2667 152.79 36.8 152.056 38.2C151.456 39.4 150.856 40.7333 150.256 42.2C149.656 43.6 149.256 44.8667 149.056 46C148.923 47.0667 149.123 47.8667 149.656 48.4C150.19 48.8667 151.256 48.7667 152.856 48.1C153.59 47.8333 154.423 47.4333 155.356 46.9C156.29 46.3667 157.256 45.8 158.256 45.2C159.256 44.5333 160.223 43.8667 161.156 43.2C162.09 42.4667 162.956 41.7667 163.756 41.1C164.09 40.9 164.356 40.7 164.556 40.5C164.756 40.2333 165.023 40.0333 165.356 39.9C165.756 39.6333 166.09 39.4667 166.356 39.4C166.69 39.2667 167.023 39.4 167.356 39.8C167.623 40.2 167.656 40.6 167.456 41C167.323 41.3333 167.09 41.6667 166.756 42C166.356 42.4 165.656 42.9667 164.656 43.7C163.656 44.4333 162.49 45.2 161.156 46C159.89 46.8 158.523 47.6 157.056 48.4C155.656 49.1333 154.323 49.7333 153.056 50.2C150.79 51 149.223 51.1 148.356 50.5C147.423 49.8333 146.923 48.8667 146.856 47.6C146.723 46.3333 146.89 44.9333 147.356 43.4C147.823 41.8667 148.29 40.5333 148.756 39.4C149.556 37.5333 150.49 35.6667 151.556 33.8C152.623 31.9333 153.723 30.1 154.856 28.3C156.056 26.5 157.223 24.7667 158.356 23.1C159.556 21.3667 160.623 19.7667 161.556 18.3C159.356 18.3667 157.09 18.4333 154.756 18.5C152.49 18.5 150.423 18.5 148.556 18.5Z" fill="#4B8FB6"/>
</svg>
