<svg width="165" height="78" viewBox="0 0 165 78" fill="none" xmlns="http://www.w3.org/2000/svg">
<path d="M30.52 12.4C29.4533 12.56 28.6267 12.7467 28.04 12.96C25.7467 13.5467 23.4533 14.2133 21.16 14.96C18.92 15.6533 16.68 16.48 14.44 17.44C13.3733 17.92 12.3333 18.4533 11.32 19.04C10.3067 19.5733 9.26667 20.1333 8.2 20.72C7.98667 20.88 7.74667 21.04 7.48 21.2C7.21333 21.3067 6.94667 21.2533 6.68 21.04C6.2 20.6667 6.36 20.08 7.16 19.28C7.96 18.64 8.81333 18.0533 9.72 17.52C11.7467 16.4 13.8 15.44 15.88 14.64C18.0133 13.7867 20.1733 13.04 22.36 12.4C23.8533 11.92 25.3467 11.4933 26.84 11.12C28.3333 10.6933 29.8533 10.2667 31.4 9.84C31.8267 9.73333 32.1733 9.57333 32.44 9.36C32.76 9.14666 33.0267 8.82666 33.24 8.4C33.9333 7.33333 34.6 6.29333 35.24 5.28C35.88 4.26666 36.5467 3.22666 37.24 2.16C37.2933 1.94666 37.3467 1.78666 37.4 1.68C37.5067 1.57333 37.5867 1.46666 37.64 1.36C37.8533 1.09333 38.04 0.879999 38.2 0.719997C38.4133 0.506664 38.68 0.53333 39 0.799996C39.16 0.906665 39.2667 1.09333 39.32 1.36C39.3733 1.62667 39.3733 1.86667 39.32 2.08C39.1067 2.56 38.8667 3.04 38.6 3.52C38.3867 3.94666 38.1467 4.42666 37.88 4.96C37.24 6.08 36.52 7.36 35.72 8.8C36.0933 8.69333 36.3867 8.64 36.6 8.64C36.8133 8.64 37.0533 8.61333 37.32 8.56C39.9867 8.02666 42.6267 7.6 45.24 7.28C47.8533 6.90666 50.52 6.74666 53.24 6.8C54.2533 6.8 55.2933 6.88 56.36 7.04C57.4267 7.14666 58.4933 7.28 59.56 7.44C60.68 7.65333 61.7733 8.10666 62.84 8.8C63.96 9.44 64.7333 10.32 65.16 11.44C65.64 12.5067 65.7467 13.6533 65.48 14.88C65.32 15.84 65 16.7467 64.52 17.6C64.0933 18.4 63.5867 19.1733 63 19.92C61.88 21.2533 60.68 22.4533 59.4 23.52C58.12 24.5867 56.7867 25.5733 55.4 26.48C52.2 28.72 48.84 30.6133 45.32 32.16C41.8533 33.6533 38.28 34.96 34.6 36.08C32.5733 36.6667 30.5467 37.2 28.52 37.68C26.4933 38.16 24.44 38.5333 22.36 38.8C21.56 38.9067 20.7867 38.96 20.04 38.96C19.2933 38.96 18.4933 39.0133 17.64 39.12C17.7467 39.3867 17.8267 39.6 17.88 39.76C17.9333 39.92 17.9867 40.1067 18.04 40.32C18.9467 42.24 20.0133 44.0533 21.24 45.76C22.4667 47.4667 23.7733 49.12 25.16 50.72C29 55.2533 33.1867 59.2267 37.72 62.64C42.3067 66.0533 47.3467 68.9333 52.84 71.28C54.9733 72.24 57.1333 72.96 59.32 73.44C61.56 73.9733 63.8267 74.3733 66.12 74.64C67.3467 74.8 68.5467 74.88 69.72 74.88C70.9467 74.9333 72.1467 75.0133 73.32 75.12C73.7467 75.12 74.0667 75.1733 74.28 75.28C73.64 75.6533 72.9467 75.8933 72.2 76C71.4533 76.16 70.7333 76.2933 70.04 76.4C67.2667 76.88 64.5467 76.9067 61.88 76.48C59.2667 76.1067 56.68 75.4133 54.12 74.4C45.7467 71.3067 38.2533 66.8 31.64 60.88C29.24 58.7467 26.9733 56.5333 24.84 54.24C22.7067 51.8933 20.76 49.3867 19 46.72C18.4133 45.76 17.8533 44.7733 17.32 43.76C16.7867 42.7467 16.2267 41.76 15.64 40.8C15.5333 40.5867 15.4267 40.3733 15.32 40.16C15.2667 39.9467 15.1867 39.7333 15.08 39.52C12.7867 42.56 10.52 45.52 8.28 48.4C6.04 51.28 3.48 53.9467 0.6 56.4C2.36 53.0933 4.33333 49.9733 6.52 47.04C8.70667 44.1067 10.8667 41.12 13 38.08C12.7867 37.8667 12.6 37.7067 12.44 37.6C12.28 37.4933 12.12 37.36 11.96 37.2C11.8 36.9867 11.6133 36.8 11.4 36.64C11.1867 36.48 11.0267 36.2667 10.92 36C10.6533 35.5733 10.5733 35.1733 10.68 34.8C10.7867 34.4267 10.9733 34.1333 11.24 33.92C11.7733 33.6 12.3867 33.7867 13.08 34.48C13.4 34.9067 13.6933 35.2533 13.96 35.52C14.1733 35.1467 14.3867 34.8267 14.6 34.56C14.8133 34.24 15.1333 34.1333 15.56 34.24C15.72 34.24 15.8533 34.16 15.96 34C16.0667 33.7867 16.1467 33.6267 16.2 33.52C18.4933 30.16 20.7867 26.8267 23.08 23.52C25.3733 20.2133 27.6667 16.8533 29.96 13.44C30.0667 13.3333 30.1467 13.2 30.2 13.04C30.2533 12.88 30.36 12.6667 30.52 12.4ZM17.4 36.48C18.4667 36.64 19.4533 36.6933 20.36 36.64C21.32 36.5333 22.28 36.4 23.24 36.24C26.5467 35.7067 29.7467 34.9867 32.84 34.08C35.9867 33.12 39.1067 32.0267 42.2 30.8C45.24 29.5733 48.12 28.16 50.84 26.56C53.56 24.9067 56.1467 22.9867 58.6 20.8C59.5067 20.0533 60.3067 19.2533 61 18.4C61.7467 17.5467 62.36 16.5333 62.84 15.36C63.2667 14.1867 63.2933 13.1733 62.92 12.32C62.5467 11.4133 61.8 10.7467 60.68 10.32C59.1333 9.84 57.6133 9.52 56.12 9.36C52.6 9.09333 49.16 9.17333 45.8 9.6C42.44 9.97333 39.0533 10.48 35.64 11.12C34.6267 11.28 33.8 11.7867 33.16 12.64C30.6 16.48 28.0667 20.2933 25.56 24.08C23.0533 27.8133 20.52 31.5733 17.96 35.36L17.4 36.48ZM78.9513 32.64C79.2179 32.5333 79.4579 32.4533 79.6713 32.4C79.8846 32.2933 80.1246 32.1867 80.3913 32.08C81.0313 31.9733 81.4846 32.16 81.7513 32.64C82.0179 33.28 81.8579 33.7333 81.2713 34C79.2979 35.0133 77.2446 35.7867 75.1113 36.32C72.9779 36.8533 70.8446 37.1733 68.7113 37.28C67.9646 37.3333 67.1646 37.3333 66.3113 37.28C65.5113 37.2267 64.7646 37.04 64.0713 36.72C63.4313 36.4 62.9512 35.9467 62.6312 35.36C62.3112 34.72 62.2846 33.8667 62.5512 32.8C62.9246 31.7333 63.2713 30.9867 63.5913 30.56C63.9113 30.1333 64.5246 29.68 65.4313 29.2C66.3913 28.7733 67.3779 28.48 68.3913 28.32C69.4579 28.1067 70.4713 28 71.4313 28C72.3379 28.1067 72.8713 28.56 73.0312 29.36C73.1913 30.2133 72.8979 30.8533 72.1513 31.28C71.6179 31.6 71.0579 31.8933 70.4713 32.16C69.8846 32.3733 69.2713 32.5867 68.6313 32.8C68.1513 32.9067 67.6446 32.9867 67.1113 33.04C66.5779 33.0933 66.0446 33.12 65.5113 33.12C64.7113 33.12 64.2579 33.3067 64.1513 33.68C64.0979 34 64.2579 34.3467 64.6313 34.72C65.1646 35.2533 66.0979 35.5467 67.4313 35.6C68.7646 35.6 70.1779 35.4933 71.6713 35.28C73.2179 35.0133 74.6579 34.64 75.9913 34.16C77.3779 33.68 78.3646 33.1733 78.9513 32.64ZM70.8713 30.32C71.2446 29.84 71.2446 29.6 70.8713 29.6C70.5513 29.5467 70.0446 29.6267 69.3513 29.84C68.7113 30.0533 67.9646 30.3733 67.1113 30.8C66.2579 31.2267 65.5113 31.6533 64.8713 32.08C65.6713 32.1867 66.7113 32.08 67.9913 31.76C69.2713 31.3867 70.2313 30.9067 70.8713 30.32ZM101.981 33.68C101.394 34.2667 100.487 34.88 99.2606 35.52C98.0873 36.16 96.8873 36.6133 95.6606 36.88C94.4873 37.1467 93.4473 37.12 92.5406 36.8C91.634 36.48 91.1806 35.6267 91.1806 34.24C91.1806 33.8133 91.2073 33.3867 91.2606 32.96C91.314 32.48 91.394 31.9733 91.5006 31.44C90.114 32.2933 88.754 33.1467 87.4206 34C86.1406 34.8 84.8073 35.5733 83.4206 36.32C83.1006 36.5867 82.7273 36.7467 82.3006 36.8C81.9273 36.8533 81.554 36.9067 81.1806 36.96C80.0073 37.12 79.1806 36.7733 78.7006 35.92C78.2206 35.0667 78.3006 34.1867 78.9406 33.28C79.2073 32.96 79.4473 32.6667 79.6606 32.4C79.874 32.1333 80.1406 31.8667 80.4606 31.6C81.8473 30.3733 83.3673 29.4667 85.0206 28.88C86.674 28.2933 88.4606 28.08 90.3806 28.24C91.074 28.3467 91.634 28.1333 92.0606 27.6C92.434 27.2267 92.7806 26.8533 93.1006 26.48C93.474 26.1067 93.8473 25.7333 94.2206 25.36C94.3273 25.2 94.4606 25.04 94.6206 24.88C94.7806 24.72 94.9406 24.6133 95.1006 24.56C95.2606 24.5067 95.4473 24.48 95.6606 24.48C95.9273 24.48 96.1406 24.5333 96.3006 24.64C96.5673 25.0133 96.674 25.4133 96.6206 25.84C96.5673 26.2667 96.354 26.8 95.9806 27.44C95.8206 27.76 95.5006 28.4267 95.0206 29.44C94.5406 30.4 94.1673 31.36 93.9006 32.32C93.6873 33.28 93.6873 34.08 93.9006 34.72C94.114 35.3067 94.834 35.4133 96.0606 35.04C96.7006 34.88 97.394 34.6133 98.1406 34.24C98.8873 33.8133 99.634 33.4133 100.381 33.04C100.594 32.9333 100.807 32.8267 101.021 32.72C101.234 32.56 101.474 32.5067 101.741 32.56C102.007 32.6667 102.194 32.8533 102.301 33.12C102.461 33.3333 102.354 33.52 101.981 33.68ZM80.9406 34.64C82.4873 34.3733 84.114 33.7867 85.8206 32.88C87.5273 31.92 88.914 30.9067 89.9806 29.84C88.3806 29.9467 86.7006 30.4267 84.9406 31.28C83.1806 32.1333 81.8473 33.2533 80.9406 34.64ZM118.354 34.4C118.141 34.56 117.768 34.7467 117.234 34.96C115.474 35.7067 113.688 36.3733 111.874 36.96C110.114 37.5467 108.274 37.8933 106.354 38C105.928 38.1067 105.448 38.16 104.914 38.16C104.434 38.1067 103.954 38.0267 103.474 37.92C102.248 37.6 101.394 36.9867 100.914 36.08C100.381 35.12 100.408 34 100.994 32.72C101.101 32.56 101.181 32.4 101.234 32.24C101.288 32.0267 101.368 31.84 101.474 31.68C102.488 30.3467 103.608 29.2533 104.834 28.4C106.061 27.4933 107.501 26.8533 109.154 26.48C109.634 26.32 110.141 26.2667 110.674 26.32C111.208 26.32 111.714 26.4 112.194 26.56C112.994 26.8267 113.501 27.3867 113.714 28.24C113.981 29.04 113.821 29.76 113.234 30.4C113.128 30.5067 112.994 30.6133 112.834 30.72C112.674 30.7733 112.488 30.8 112.274 30.8C112.168 30.8 112.088 30.72 112.034 30.56C111.981 30.3467 111.901 30.1867 111.794 30.08C111.688 29.2267 111.501 28.6933 111.234 28.48C110.968 28.2667 110.434 28.2667 109.634 28.48C108.354 28.8533 107.208 29.4133 106.194 30.16C105.181 30.9067 104.301 31.76 103.554 32.72C103.341 32.9867 103.154 33.3333 102.994 33.76C102.674 34.8267 103.021 35.4667 104.034 35.68C104.781 35.8933 105.608 35.92 106.514 35.76C107.954 35.6533 109.341 35.4133 110.674 35.04C112.008 34.6667 113.288 34.1867 114.514 33.6C115.048 33.3867 115.554 33.1733 116.034 32.96C116.514 32.7467 117.021 32.5867 117.554 32.48C118.888 32.16 119.634 32.24 119.794 32.72C119.954 33.1467 119.474 33.7067 118.354 34.4ZM119.045 15.2C117.818 15.36 117.072 15.2533 116.805 14.88C116.485 14.5067 116.378 14.24 116.485 14.08C116.645 13.8133 116.938 13.5733 117.365 13.36C117.738 13.0933 118.485 13.0133 119.605 13.12C121.365 13.28 123.178 13.36 125.045 13.36C126.965 13.36 128.858 13.2267 130.725 12.96C130.885 12.8533 131.018 12.72 131.125 12.56C131.872 11.5467 132.432 10.7467 132.805 10.16C133.178 9.57333 133.525 9.04 133.845 8.56C134.165 8.08 134.512 7.57333 134.885 7.04C135.312 6.45333 135.898 5.65333 136.645 4.64C136.805 4.32 137.045 4.05333 137.365 3.84C137.738 3.57333 138.085 3.57333 138.405 3.84C138.512 3.94666 138.592 4.13333 138.645 4.4C138.698 4.66666 138.725 4.90666 138.725 5.12C138.672 5.33333 138.565 5.54667 138.405 5.76C138.245 5.97333 138.112 6.16 138.005 6.32C137.418 7.12 136.992 7.70666 136.725 8.08C136.512 8.45333 136.298 8.82666 136.085 9.2C135.872 9.57333 135.605 10.0267 135.285 10.56C134.965 11.0933 134.405 11.92 133.605 13.04C134.725 13.2533 136.165 13.4133 137.925 13.52C139.738 13.5733 141.685 13.6 143.765 13.6C145.845 13.5467 147.978 13.4667 150.165 13.36C152.405 13.2 154.538 13.0133 156.565 12.8C157.845 12.6933 159.045 12.5867 160.165 12.48C161.285 12.3733 162.218 12.3467 162.965 12.4C164.298 12.5067 164.912 12.7733 164.805 13.2C164.698 13.6267 164.085 13.9733 162.965 14.24C162.005 14.4 160.672 14.5333 158.965 14.64C157.312 14.7467 155.498 14.8533 153.525 14.96C151.552 15.0133 149.472 15.0667 147.285 15.12C145.152 15.12 143.098 15.12 141.125 15.12C139.205 15.0667 137.445 15.04 135.845 15.04C134.298 15.04 133.098 15.0133 132.245 14.96C131.338 16.1333 130.378 17.4133 129.365 18.8C128.405 20.1867 127.445 21.6 126.485 23.04C125.578 24.48 124.725 25.8933 123.925 27.28C123.125 28.6133 122.432 29.84 121.845 30.96C121.365 31.92 120.885 32.9867 120.405 34.16C119.925 35.28 119.605 36.2933 119.445 37.2C119.338 38.0533 119.498 38.6933 119.925 39.12C120.352 39.4933 121.205 39.4133 122.485 38.88C123.072 38.6667 123.738 38.3467 124.485 37.92C125.232 37.4933 126.005 37.04 126.805 36.56C127.605 36.0267 128.378 35.4933 129.125 34.96C129.872 34.3733 130.565 33.8133 131.205 33.28C131.472 33.12 131.685 32.96 131.845 32.8C132.005 32.5867 132.218 32.4267 132.485 32.32C132.805 32.1067 133.072 31.9733 133.285 31.92C133.552 31.8133 133.818 31.92 134.085 32.24C134.298 32.56 134.325 32.88 134.165 33.2C134.058 33.4667 133.872 33.7333 133.605 34C133.285 34.32 132.725 34.7733 131.925 35.36C131.125 35.9467 130.192 36.56 129.125 37.2C128.112 37.84 127.018 38.48 125.845 39.12C124.725 39.7067 123.658 40.1867 122.645 40.56C120.832 41.2 119.578 41.28 118.885 40.8C118.138 40.2667 117.738 39.4933 117.685 38.48C117.578 37.4667 117.712 36.3467 118.085 35.12C118.458 33.8933 118.832 32.8267 119.205 31.92C119.845 30.4267 120.592 28.9333 121.445 27.44C122.298 25.9467 123.178 24.48 124.085 23.04C125.045 21.6 125.978 20.2133 126.885 18.88C127.845 17.4933 128.698 16.2133 129.445 15.04C127.685 15.0933 125.872 15.1467 124.005 15.2C122.192 15.2 120.538 15.2 119.045 15.2Z" fill="black"/>
</svg>
