<svg width="401" height="73" viewBox="0 0 401 73" fill="none" xmlns="http://www.w3.org/2000/svg">
<path d="M26.8 43.1C25.6667 42.9667 24.5667 42.9 23.5 42.9C22.4333 42.8333 21.3333 42.7333 20.2 42.6C18.8667 42.4667 17.4667 42.3667 16 42.3C14.6 42.2333 13.2 42.2667 11.8 42.4C9.86667 42.6 8.06667 43.2667 6.4 44.4C4.4 45.7333 3.8 47.5333 4.6 49.8C4.86667 50.6667 5.23333 51.4333 5.7 52.1C6.23333 52.7667 6.83333 53.4667 7.5 54.2C9.23333 56 11.1333 57.5667 13.2 58.9C15.3333 60.2333 17.5667 61.4333 19.9 62.5C26.1667 65.2333 32.6333 66.4 39.3 66C40.6333 65.9333 41.9 65.7667 43.1 65.5C44.3667 65.2333 45.6333 64.8333 46.9 64.3C47.1 64.3 47.2333 64.2667 47.3 64.2C49.8333 63 51.4 61.5667 52 59.9C52.6667 58.2333 52.8333 56.3 52.5 54.1C52.1 51.5 51.2 49.0333 49.8 46.7C48.7333 44.9667 47.6667 43.2667 46.6 41.6C45.5333 39.9333 44.4667 38.2333 43.4 36.5C42.1333 34.5667 40.9333 32.6 39.8 30.6C38.6667 28.5333 37.8333 26.3333 37.3 24C36.3 19.7333 37.3 16.0667 40.3 13C41.2333 12.0667 42.2333 11.2333 43.3 10.5C44.3667 9.76666 45.4667 9.13333 46.6 8.6C49.7333 7.2 52.9 6.13333 56.1 5.4C59.3 4.66666 62.6333 4.4 66.1 4.6C66.7 4.6 67.3333 4.63333 68 4.7C68.6667 4.76666 69.3 4.93333 69.9 5.2C73.0333 6.2 74.7 8.33333 74.9 11.6C75.1 14.0667 74.5333 16.3667 73.2 18.5C72.6667 19.3667 72.0667 20.2667 71.4 21.2C70.7333 22.0667 70.0333 22.8667 69.3 23.6C67.9667 25.0667 66.5667 26.5 65.1 27.9C63.6333 29.3 62.1667 30.6667 60.7 32C60.3 32.4 59.8667 32.7667 59.4 33.1C59 33.4333 58.4667 33.6 57.8 33.6C57.6667 33.2667 57.6667 33 57.8 32.8C58 32.6 58.1667 32.4333 58.3 32.3C59.7 30.9 61.1 29.5 62.5 28.1C63.9 26.7 65.2667 25.2667 66.6 23.8C67.5333 22.7333 68.3667 21.6667 69.1 20.6C69.8333 19.4667 70.5667 18.3333 71.3 17.2C72.3 15.6 72.7 13.8667 72.5 12C72.4333 10.8 72.1 9.8 71.5 9C70.9 8.13333 69.9667 7.6 68.7 7.4C67.1667 7 65.6667 6.79999 64.2 6.79999C57.5333 7 51.4 8.66666 45.8 11.8C44.7333 12.4 43.7 13.1333 42.7 14C39.7667 16.5333 38.7667 19.7 39.7 23.5C40.0333 24.9 40.4667 26.2333 41 27.5C41.5333 28.7 42.1667 29.9 42.9 31.1C43.9667 32.8333 45.0333 34.5333 46.1 36.2C47.1667 37.8667 48.2667 39.5667 49.4 41.3C50.4667 42.9 51.4333 44.5667 52.3 46.3C53.1667 48.0333 53.8667 49.8333 54.4 51.7C54.6667 52.4333 54.8333 53.1 54.9 53.7C55.0333 54.3 55.1333 54.9333 55.2 55.6C55.4 58 55 60.0667 54 61.8C53 63.5333 51.4667 64.9667 49.4 66.1C47.7333 67.0333 46 67.6667 44.2 68C42.4 68.3333 40.5667 68.5333 38.7 68.6C28.1 69 18.4667 66.0333 9.8 59.7C8.6 58.7667 7.46667 57.8 6.4 56.8C5.33333 55.8 4.36667 54.6333 3.5 53.3C1.76667 50.7667 1.26667 48.3667 2 46.1C2.66667 43.8333 4.43333 42.1333 7.3 41C8.96667 40.2667 10.6667 39.8667 12.4 39.8C14.2 39.6667 15.9667 39.6667 17.7 39.8C20.6333 40 23.4 40.8 26 42.2C26.2 42.3333 26.3667 42.4333 26.5 42.5C26.6333 42.5667 26.7667 42.6667 26.9 42.8V42.9C26.9 42.9667 26.8667 43.0333 26.8 43.1ZM70.3891 52.1C72.5224 49.9 74.6557 47.5667 76.7891 45.1C78.9891 42.6333 80.9557 40.5333 82.6891 38.8C84.4224 37 85.5557 36.3 86.0891 36.7C86.6224 37.1 86.0224 38.4333 84.2891 40.7C82.6224 42.9 80.7891 44.9333 78.7891 46.8C76.8557 48.6 74.9224 50.4333 72.9891 52.3C72.4557 52.8333 71.8891 53.3 71.2891 53.7C70.6891 54.1 70.1224 54.5 69.5891 54.9C69.3224 55.0333 69.0224 55.2 68.6891 55.4C68.3557 55.5333 68.0224 55.6667 67.6891 55.8C66.4224 56.1333 65.4224 56 64.6891 55.4C63.9557 54.8 63.5224 53.8667 63.3891 52.6C63.2557 51.5333 63.3557 50.5 63.6891 49.5C64.2224 46.9 65.0224 44.4333 66.0891 42.1C67.0891 39.7667 68.1891 37.4333 69.3891 35.1C69.7891 34.1667 70.2557 33.3333 70.7891 32.6C71.1224 32 71.3891 31.4333 71.5891 30.9C71.7891 30.3 71.6224 29.7333 71.0891 29.2C71.2891 28.8 71.4557 28.5333 71.5891 28.4C72.8557 27.8667 73.8224 27.0667 74.4891 26C75.2224 24.9333 75.9557 23.9 76.6891 22.9C78.6224 20.1667 80.5557 17.4667 82.4891 14.8C84.4224 12.0667 86.5557 9.53333 88.8891 7.2C89.6891 6.4 90.5557 5.63333 91.4891 4.9C91.8224 4.43333 92.4224 4.03333 93.2891 3.7C93.7557 3.5 94.2224 3.36666 94.6891 3.3C95.1557 3.23333 95.6224 3.36667 96.0891 3.7C96.5557 4.1 96.7891 4.56666 96.7891 5.1C96.8557 5.56666 96.7557 6.03333 96.4891 6.5C96.1557 7.23333 95.7891 7.96666 95.3891 8.69999C95.0557 9.36666 94.6557 10.0333 94.1891 10.7C92.0557 13.5 89.7557 16.1333 87.2891 18.6C84.8224 21 82.2557 23.3667 79.5891 25.7C78.7891 26.4333 78.0224 27.2 77.2891 28C76.5557 28.8 75.8557 29.6667 75.1891 30.6C73.8557 33 72.5557 35.4 71.2891 37.8C70.0224 40.1333 68.8891 42.5667 67.8891 45.1C67.6224 45.9667 67.3891 46.8333 67.1891 47.7C66.9224 48.5667 66.6891 49.4333 66.4891 50.3C66.1557 51.4333 66.1224 52.2333 66.3891 52.7C66.5891 53.1667 66.9224 53.4 67.3891 53.4C67.8557 53.4 68.3557 53.2667 68.8891 53C69.4891 52.7333 69.9891 52.4333 70.3891 52.1ZM91.5891 8.8C90.9891 9.4 90.0224 10.4 88.6891 11.8C87.4224 13.1333 86.1224 14.6 84.7891 16.2C83.4557 17.8 82.2557 19.3333 81.1891 20.8C80.1224 22.2667 79.5224 23.3667 79.3891 24.1C79.9224 23.5667 80.7557 22.7 81.8891 21.5C83.0891 20.3 84.3224 19 85.5891 17.6C86.9224 16.2 88.1891 14.8 89.3891 13.4C90.6557 12 91.6557 10.8333 92.3891 9.9C93.1224 8.9 93.4557 8.26666 93.3891 8C93.3891 7.66666 92.7891 7.93333 91.5891 8.8ZM94.3023 39.7C92.8357 40.5 91.3357 41.2667 89.8023 42C88.3357 42.7333 86.769 43.3 85.1023 43.7C84.569 43.7667 84.0357 43.8333 83.5023 43.9C82.969 43.9 82.4357 43.8333 81.9023 43.7C80.969 43.5667 80.3023 43.1333 79.9023 42.4C79.4357 41.6667 79.269 40.8667 79.4023 40C79.4023 39.4667 79.469 38.9 79.6023 38.3C79.669 37.7 79.869 37.1667 80.2023 36.7C80.9357 35.5 81.6023 34.1667 82.2023 32.7C82.869 31.2333 83.6357 29.9333 84.5023 28.8C84.8357 28.4 85.2357 28.2 85.7023 28.2C86.169 28.1333 86.569 28.2667 86.9023 28.6C87.3023 28.8667 87.5357 29.3 87.6023 29.9C87.669 30.4333 87.4357 31.0333 86.9023 31.7C86.2357 32.7667 85.569 33.8 84.9023 34.8C84.2357 35.8 83.569 36.8667 82.9023 38C82.2357 39.4 81.9357 40.4333 82.0023 41.1C82.1357 41.7 82.469 42.0667 83.0023 42.2C83.6023 42.3333 84.3357 42.2667 85.2023 42C86.069 41.7333 86.9357 41.3667 87.8023 40.9C88.7357 40.4333 89.6023 39.9667 90.4023 39.5C91.2023 38.9667 91.769 38.5 92.1023 38.1C92.769 37.3667 93.369 37 93.9023 37C94.4357 36.9333 94.8023 37.0667 95.0023 37.4C95.269 37.6667 95.369 38.0667 95.3023 38.6C95.2357 39.0667 94.9023 39.4333 94.3023 39.7ZM91.9023 20.8C92.4357 20.8 92.8357 20.9667 93.1023 21.3C93.4357 21.6333 93.5357 22.0333 93.4023 22.5C93.269 23.0333 92.9023 23.6 92.3023 24.2C91.7023 24.8 91.069 25.3 90.4023 25.7C89.469 26.2333 88.8023 26.4333 88.4023 26.3C88.069 26.1667 88.0357 25.4667 88.3023 24.2C88.4357 23.4 88.769 22.6333 89.3023 21.9C89.9023 21.1667 90.769 20.8 91.9023 20.8ZM95.7813 54.9C96.4479 54.5667 96.9813 54.3333 97.3813 54.2C97.8479 54.0667 98.2146 53.8333 98.4813 53.5C99.8146 52.5 101.148 51.4667 102.481 50.4C103.815 49.3333 105.115 48.2333 106.381 47.1C107.848 45.7667 109.415 44.4 111.081 43C112.748 41.5333 114.281 40.1 115.681 38.7C116.415 38.0333 117.048 37.6 117.581 37.4C118.181 37.1333 118.581 37.1 118.781 37.3C119.048 37.5 119.048 37.8667 118.781 38.4C118.581 38.9333 118.081 39.6 117.281 40.4C114.548 43.2 111.781 45.9333 108.981 48.6C106.248 51.2 103.281 53.6 100.081 55.8C99.6146 56.1333 99.1146 56.4333 98.5813 56.7C98.1146 56.9667 97.6146 57.1667 97.0813 57.3C95.9479 57.7 94.9479 57.6 94.0813 57C93.2813 56.4 92.9813 55.5 93.1813 54.3C93.3146 53.5 93.4813 52.7333 93.6813 52C93.8813 51.2 94.1479 50.4333 94.4813 49.7C95.4146 47.7 96.3812 45.6667 97.3813 43.6C98.3813 41.5333 99.3813 39.5 100.381 37.5C100.515 37.2333 100.615 37 100.681 36.8C100.748 36.6 100.781 36.3333 100.781 36C100.448 36.2667 100.148 36.5 99.8813 36.7C99.6813 36.9 99.4479 37.1 99.1813 37.3C96.9813 39.1 94.8146 40.7667 92.6813 42.3C92.3479 42.4333 91.9813 42.6 91.5813 42.8C91.1813 42.9333 90.7813 43.0333 90.3813 43.1C89.5146 43.2333 88.8146 43.0667 88.2812 42.6C87.7479 42.1333 87.5146 41.5 87.5812 40.7C87.6479 40.2333 87.7812 39.7667 87.9812 39.3C88.1812 38.8333 88.3812 38.3667 88.5812 37.9C89.5146 36.7 90.5813 35.7 91.7813 34.9C93.0479 34.0333 94.4146 33.3333 95.8812 32.8C96.9479 32.3333 97.9479 32.1 98.8813 32.1C99.6813 31.9667 100.381 31.7333 100.981 31.4C101.648 31 102.248 30.5333 102.781 30C104.848 27.6667 106.715 25.2667 108.381 22.8C110.115 20.2667 111.848 17.7 113.581 15.1C113.715 14.9 113.848 14.6667 113.981 14.4C114.115 14.1333 114.281 13.9 114.481 13.7C115.481 12.4333 116.348 12 117.081 12.4C117.948 12.8667 117.948 13.9 117.081 15.5C116.615 16.1 116.148 16.7333 115.681 17.4C115.281 18.0667 114.915 18.7 114.581 19.3C111.581 23.9 108.715 28.5 105.981 33.1C103.315 37.6333 100.815 42.3 98.4813 47.1C97.8813 48.2333 97.3479 49.4 96.8813 50.6C96.4146 51.8 96.0479 53.2333 95.7813 54.9ZM90.8813 39.9C93.5479 38.8333 95.3813 37.4333 96.3813 35.7C95.2479 36.0333 94.1813 36.5667 93.1813 37.3C92.1813 37.9667 91.4146 38.8333 90.8813 39.9ZM133.002 37.3C133.335 37.1667 133.635 37.0667 133.902 37C134.168 36.8667 134.468 36.7333 134.802 36.6C135.602 36.4667 136.168 36.7 136.502 37.3C136.835 38.1 136.635 38.6667 135.902 39C133.435 40.2667 130.868 41.2333 128.202 41.9C125.535 42.5667 122.868 42.9667 120.202 43.1C119.268 43.1667 118.268 43.1667 117.202 43.1C116.202 43.0333 115.268 42.8 114.402 42.4C113.602 42 113.002 41.4333 112.602 40.7C112.202 39.9 112.168 38.8333 112.502 37.5C112.968 36.1667 113.402 35.2333 113.802 34.7C114.202 34.1667 114.968 33.6 116.102 33C117.302 32.4667 118.535 32.1 119.802 31.9C121.135 31.6333 122.402 31.5 123.602 31.5C124.735 31.6333 125.402 32.2 125.602 33.2C125.802 34.2667 125.435 35.0667 124.502 35.6C123.835 36 123.135 36.3667 122.402 36.7C121.668 36.9667 120.902 37.2333 120.102 37.5C119.502 37.6333 118.868 37.7333 118.202 37.8C117.535 37.8667 116.868 37.9 116.202 37.9C115.202 37.9 114.635 38.1333 114.502 38.6C114.435 39 114.635 39.4333 115.102 39.9C115.768 40.5667 116.935 40.9333 118.602 41C120.268 41 122.035 40.8667 123.902 40.6C125.835 40.2667 127.635 39.8 129.302 39.2C131.035 38.6 132.268 37.9667 133.002 37.3ZM122.902 34.4C123.368 33.8 123.368 33.5 122.902 33.5C122.502 33.4333 121.868 33.5333 121.002 33.8C120.202 34.0667 119.268 34.4667 118.202 35C117.135 35.5333 116.202 36.0667 115.402 36.6C116.402 36.7333 117.702 36.6 119.302 36.2C120.902 35.7333 122.102 35.1333 122.902 34.4ZM146.988 40.5C146.188 40.4333 145.555 40.2333 145.088 39.9C144.622 39.5667 144.222 39.1333 143.888 38.6C143.622 38.0667 143.388 37.5 143.188 36.9C143.055 36.3 142.922 35.7 142.788 35.1C142.388 34.1667 141.822 33.7 141.088 33.7C140.355 33.7 139.588 33.9333 138.788 34.4C138.055 34.8 137.355 35.3333 136.688 36C136.022 36.6667 135.488 37.1667 135.088 37.5C132.755 39.4333 130.955 41.6 129.688 44C129.488 44.5333 129.188 44.9667 128.788 45.3C128.322 45.6333 127.888 45.8667 127.488 46C127.088 46.0667 126.755 46 126.488 45.8C126.155 45.6 125.988 45.2 125.988 44.6C125.988 44.2667 126.055 44 126.188 43.8C126.322 43.6 126.455 43.3667 126.588 43.1C127.855 40.8333 129.088 38.5667 130.288 36.3C131.488 34.0333 132.722 31.7667 133.988 29.5C134.322 28.8333 134.755 28.2333 135.288 27.7C135.422 27.5667 135.588 27.4667 135.788 27.4C136.055 27.3333 136.255 27.3667 136.388 27.5C136.855 27.7667 137.022 28.1333 136.888 28.6C136.888 29.0667 136.755 29.6333 136.488 30.3C136.022 31.1667 135.588 32.0333 135.188 32.9C134.788 33.7667 134.422 34.6667 134.088 35.6C134.622 35.2 134.955 34.9333 135.088 34.8C135.755 34.2667 136.355 33.7667 136.888 33.3C137.488 32.7667 138.088 32.3 138.688 31.9C139.488 31.2333 140.388 30.8333 141.388 30.7C143.388 30.2333 144.688 30.9667 145.288 32.9C145.422 33.4333 145.522 33.9333 145.588 34.4C145.655 34.8667 145.755 35.3333 145.888 35.8C146.022 36.5333 146.255 37.0333 146.588 37.3C146.922 37.5 147.488 37.5667 148.288 37.5C148.622 37.5 148.955 37.5 149.288 37.5C149.688 37.4333 150.055 37.4 150.388 37.4C151.322 37.3333 151.955 37.4667 152.288 37.8C152.622 38.1333 152.655 38.5333 152.388 39C152.122 39.4 151.522 39.7667 150.588 40.1C149.722 40.4333 148.522 40.5667 146.988 40.5ZM178.796 69.6C179.529 69.9333 180.196 70.1 180.796 70.1C181.463 70.0333 182.129 69.9333 182.796 69.8C184.529 69.6 186.296 69.3667 188.096 69.1C189.896 68.7667 191.696 68.4333 193.496 68.1C198.029 67.4333 202.496 66.7667 206.896 66.1C211.296 65.3667 215.763 64.6667 220.296 64C223.629 63.4667 226.963 62.9333 230.296 62.4C233.629 61.8667 236.963 61.3333 240.296 60.8C242.829 60.4667 245.363 60.2 247.896 60C250.496 59.8 253.063 59.8667 255.596 60.2C255.063 60.4667 254.663 60.6 254.396 60.6C250.729 61.8667 247.029 62.8 243.296 63.4C239.563 64 235.796 64.5667 231.996 65.1C227.796 65.8333 223.629 66.5 219.496 67.1C215.363 67.7 211.196 68.3333 206.996 69C203.129 69.6667 199.296 70.3 195.496 70.9C191.696 71.5 187.896 72.0667 184.096 72.6C182.429 72.8667 180.663 72.9 178.796 72.7C177.529 72.6333 176.663 72.2333 176.196 71.5C175.729 70.7667 175.696 69.8333 176.096 68.7C176.829 66.8333 177.696 65.1 178.696 63.5C180.629 60.1 182.563 56.7333 184.496 53.4C186.496 50.0667 188.496 46.7 190.496 43.3C190.696 42.9 190.896 42.5 191.096 42.1C191.363 41.7 191.629 41.1667 191.896 40.5C191.429 40.6333 191.063 40.7 190.796 40.7C190.529 40.6333 190.229 40.6667 189.896 40.8C186.829 41.3333 183.796 41.8667 180.796 42.4C177.796 42.8667 174.763 43.3667 171.696 43.9C171.163 43.9667 170.629 44.1 170.096 44.3C169.563 44.4333 169.029 44.5667 168.496 44.7C167.963 44.8333 167.596 44.9 167.396 44.9C167.196 44.8333 166.996 44.7667 166.796 44.7C166.596 44.5667 166.429 44.4 166.296 44.2C166.229 44.0667 166.263 43.9 166.396 43.7C166.463 43.4333 166.563 43.2667 166.696 43.2C167.429 42.6 168.196 42.2 168.996 42C170.396 41.6 171.796 41.2333 173.196 40.9C174.596 40.5 176.029 40.1667 177.496 39.9C180.029 39.5 182.496 39.1333 184.896 38.8C187.363 38.4 189.863 38.0333 192.396 37.7C192.929 37.6333 193.329 37.5 193.596 37.3C193.863 37.1 194.163 36.8 194.496 36.4C196.229 33.3333 197.996 30.3333 199.796 27.4C201.596 24.4 203.396 21.4 205.196 18.4C206.263 16.5333 207.329 14.7333 208.396 13C209.463 11.2667 210.563 9.53333 211.696 7.79999C211.963 7.33333 212.229 6.86666 212.496 6.39999C212.829 5.93333 213.196 5.36666 213.596 4.7C212.263 4.83333 211.063 4.93333 209.996 4.99999C208.929 5.06666 207.863 5.16666 206.796 5.3C204.463 5.63333 202.129 6 199.796 6.39999C197.529 6.73333 195.229 7.06667 192.896 7.4C192.229 7.46666 191.629 7.46666 191.096 7.4C190.896 7.33333 190.696 7.2 190.496 7C190.363 6.73333 190.229 6.5 190.096 6.3C190.096 6.16666 190.196 6 190.396 5.8C190.596 5.53333 190.763 5.33333 190.896 5.2C191.163 5.13333 191.396 5.06666 191.596 4.99999C191.863 4.86666 192.129 4.76666 192.396 4.7C195.596 4.03333 198.763 3.46666 201.896 3C205.029 2.53333 208.196 2.16667 211.396 1.9C211.929 1.83333 212.463 1.79999 212.996 1.79999C213.529 1.79999 214.063 1.73333 214.596 1.6C215.063 1.46666 215.463 1.3 215.796 1.1C216.196 0.83333 216.629 0.566662 217.096 0.299995C217.429 0.966661 217.863 1.33333 218.396 1.4C218.996 1.46666 219.596 1.46666 220.196 1.4C222.196 1.26666 224.196 1.16666 226.196 1.1C228.263 1.03333 230.329 0.966665 232.396 0.899999C237.396 0.899999 242.396 0.866664 247.396 0.799995C252.396 0.733329 257.396 0.733329 262.396 0.799995C265.063 0.866664 267.729 0.933332 270.396 0.999998C273.129 1.06666 275.796 1.4 278.396 2C279.663 2.26666 280.896 2.63333 282.096 3.09999C283.296 3.56666 284.463 4 285.596 4.4C285.729 4.4 285.863 4.63333 285.996 5.1H282.196C273.463 4.3 264.796 3.9 256.196 3.9C247.663 3.9 239.029 3.9 230.296 3.9C228.296 4.03333 226.263 4.13333 224.196 4.2C222.129 4.26666 220.096 4.33333 218.096 4.4C217.496 4.4 217.029 4.5 216.696 4.7C216.363 4.9 216.029 5.23333 215.696 5.7C212.896 10.5667 210.096 15.3667 207.296 20.1C204.496 24.8333 201.696 29.6333 198.896 34.5C198.629 34.8333 198.396 35.2 198.196 35.6C198.063 35.9333 197.829 36.3667 197.496 36.9H198.996C202.396 36.7 205.763 36.5 209.096 36.3C212.496 36.0333 215.896 35.7667 219.296 35.5C224.096 35.1 229.029 35.3667 234.096 36.3C234.496 36.4333 234.796 36.6333 234.996 36.9C233.196 37.1 231.363 37.3333 229.496 37.6C227.629 37.8 225.796 38 223.996 38.2C220.996 38.4 217.996 38.6 214.996 38.8C212.063 39 209.129 39.1667 206.196 39.3C204.663 39.4333 203.129 39.5667 201.596 39.7C200.129 39.8333 198.629 39.9333 197.096 40C196.096 40.0667 195.329 40.5333 194.796 41.4C192.329 45.8 189.829 50.1333 187.296 54.4C184.829 58.6 182.363 62.8667 179.896 67.2C179.696 67.5333 179.496 67.9 179.296 68.3C179.163 68.7 178.996 69.1333 178.796 69.6ZM269.643 34.1C271.776 32.1 273.843 30 275.843 27.8C277.843 25.5333 279.576 22.9 281.043 19.9C280.376 20.1667 279.376 20.9333 278.043 22.2C276.776 23.4667 275.443 24.9667 274.043 26.7C272.643 28.3667 271.276 30.1 269.943 31.9C268.676 33.7 267.743 35.2 267.143 36.4C268.743 36.6667 270.476 36.8333 272.343 36.9C274.276 36.9667 276.176 36.9667 278.043 36.9C279.91 36.8333 281.71 36.7 283.443 36.5C285.176 36.3 286.743 36.1 288.143 35.9C288.543 35.8333 288.876 35.9 289.143 36.1C289.476 36.3 289.676 36.8 289.743 37.6C289.81 38.0667 289.676 38.3667 289.343 38.5C289.01 38.6333 288.676 38.7 288.343 38.7C286.21 38.5667 284.21 38.5333 282.343 38.6C280.476 38.6667 278.676 38.9 276.943 39.3C277.143 41.4333 276.876 43.4 276.143 45.2C275.41 47 274.576 48.5667 273.643 49.9C271.51 52.9667 269.143 55.7667 266.543 58.3C264.01 60.7667 261.243 62.9333 258.243 64.8C257.71 65.0667 257.176 65.3 256.643 65.5C256.043 65.7 255.41 65.9 254.743 66.1C253.543 66.3 252.576 65.9667 251.843 65.1C251.11 64.1667 250.843 62.9667 251.043 61.5C251.176 60.9667 251.343 60.4333 251.543 59.9C251.676 59.3667 251.876 58.8333 252.143 58.3C253.676 55.1 255.243 51.9 256.843 48.7C258.376 45.4333 259.743 42.5333 260.943 40C260.343 40 259.843 39.8 259.443 39.4C259.043 39 258.81 38.5667 258.743 38.1C258.676 37.5667 258.843 37.1 259.243 36.7C259.576 36.3 260.143 36.0667 260.943 36C261.543 35.9333 262.01 35.9333 262.343 36C262.676 36 262.976 36 263.243 36C263.51 35.9333 263.743 35.8 263.943 35.6C264.143 35.4 264.41 35.0333 264.743 34.5C266.676 31.3 268.676 28.4333 270.743 25.9C272.876 23.3667 275.21 20.8333 277.743 18.3C278.076 17.9667 278.41 17.6333 278.743 17.3C279.143 16.9667 279.543 16.6667 279.943 16.4C280.21 16.2 280.443 16.0333 280.643 15.9C280.843 15.7667 281.076 15.6333 281.343 15.5C282.143 15.2333 282.843 15.4333 283.443 16.1C284.11 16.7 284.376 17.5333 284.243 18.6C284.11 19.2667 283.976 19.9 283.843 20.5C283.71 21.1 283.476 21.6667 283.143 22.2C281.676 24.6667 280.076 26.9667 278.343 29.1C276.676 31.1667 274.776 32.9667 272.643 34.5C272.243 34.8333 271.81 35.0667 271.343 35.2C270.876 35.2667 270.31 34.9 269.643 34.1ZM274.343 39.4C273.476 39.6 272.51 39.7 271.443 39.7C270.376 39.6333 269.343 39.6 268.343 39.6C267.343 39.5333 266.443 39.5667 265.643 39.7C264.843 39.7667 264.276 40.0333 263.943 40.5C263.676 40.8333 263.343 41.3667 262.943 42.1C262.543 42.8333 262.143 43.6333 261.743 44.5C261.343 45.3 260.976 46.0667 260.643 46.8C260.31 47.5333 260.043 48.1 259.843 48.5C258.91 50.5667 257.976 52.6333 257.043 54.7C256.11 56.7667 255.143 58.8333 254.143 60.9C254.01 61.1 253.943 61.3667 253.943 61.7C253.943 61.9667 253.91 62.2 253.843 62.4C253.843 62.5333 253.943 62.7 254.143 62.9C254.61 62.7 255.11 62.5333 255.643 62.4C256.11 62.2667 256.576 62.1 257.043 61.9C260.243 59.9 263.143 57.5 265.743 54.7C268.41 51.9 270.843 48.7667 273.043 45.3C273.31 44.7667 273.576 43.9 273.843 42.7C274.176 41.5 274.343 40.4 274.343 39.4ZM293.756 34.1C295.89 32.1 297.956 30 299.956 27.8C301.956 25.5333 303.69 22.9 305.156 19.9C304.49 20.1667 303.49 20.9333 302.156 22.2C300.89 23.4667 299.556 24.9667 298.156 26.7C296.756 28.3667 295.39 30.1 294.056 31.9C292.79 33.7 291.856 35.2 291.256 36.4C292.856 36.6667 294.59 36.8333 296.456 36.9C298.39 36.9667 300.29 36.9667 302.156 36.9C304.023 36.8333 305.823 36.7 307.556 36.5C309.29 36.3 310.856 36.1 312.256 35.9C312.656 35.8333 312.99 35.9 313.256 36.1C313.59 36.3 313.79 36.8 313.856 37.6C313.923 38.0667 313.79 38.3667 313.456 38.5C313.123 38.6333 312.79 38.7 312.456 38.7C310.323 38.5667 308.323 38.5333 306.456 38.6C304.59 38.6667 302.79 38.9 301.056 39.3C301.256 41.4333 300.99 43.4 300.256 45.2C299.523 47 298.69 48.5667 297.756 49.9C295.623 52.9667 293.256 55.7667 290.656 58.3C288.123 60.7667 285.356 62.9333 282.356 64.8C281.823 65.0667 281.29 65.3 280.756 65.5C280.156 65.7 279.523 65.9 278.856 66.1C277.656 66.3 276.69 65.9667 275.956 65.1C275.223 64.1667 274.956 62.9667 275.156 61.5C275.29 60.9667 275.456 60.4333 275.656 59.9C275.79 59.3667 275.99 58.8333 276.256 58.3C277.79 55.1 279.356 51.9 280.956 48.7C282.49 45.4333 283.856 42.5333 285.056 40C284.456 40 283.956 39.8 283.556 39.4C283.156 39 282.923 38.5667 282.856 38.1C282.79 37.5667 282.956 37.1 283.356 36.7C283.69 36.3 284.256 36.0667 285.056 36C285.656 35.9333 286.123 35.9333 286.456 36C286.79 36 287.09 36 287.356 36C287.623 35.9333 287.856 35.8 288.056 35.6C288.256 35.4 288.523 35.0333 288.856 34.5C290.79 31.3 292.79 28.4333 294.856 25.9C296.99 23.3667 299.323 20.8333 301.856 18.3C302.19 17.9667 302.523 17.6333 302.856 17.3C303.256 16.9667 303.656 16.6667 304.056 16.4C304.323 16.2 304.556 16.0333 304.756 15.9C304.956 15.7667 305.19 15.6333 305.456 15.5C306.256 15.2333 306.956 15.4333 307.556 16.1C308.223 16.7 308.49 17.5333 308.356 18.6C308.223 19.2667 308.09 19.9 307.956 20.5C307.823 21.1 307.59 21.6667 307.256 22.2C305.79 24.6667 304.19 26.9667 302.456 29.1C300.79 31.1667 298.89 32.9667 296.756 34.5C296.356 34.8333 295.923 35.0667 295.456 35.2C294.99 35.2667 294.423 34.9 293.756 34.1ZM298.456 39.4C297.59 39.6 296.623 39.7 295.556 39.7C294.49 39.6333 293.456 39.6 292.456 39.6C291.456 39.5333 290.556 39.5667 289.756 39.7C288.956 39.7667 288.39 40.0333 288.056 40.5C287.79 40.8333 287.456 41.3667 287.056 42.1C286.656 42.8333 286.256 43.6333 285.856 44.5C285.456 45.3 285.09 46.0667 284.756 46.8C284.423 47.5333 284.156 48.1 283.956 48.5C283.023 50.5667 282.09 52.6333 281.156 54.7C280.223 56.7667 279.256 58.8333 278.256 60.9C278.123 61.1 278.056 61.3667 278.056 61.7C278.056 61.9667 278.023 62.2 277.956 62.4C277.956 62.5333 278.056 62.7 278.256 62.9C278.723 62.7 279.223 62.5333 279.756 62.4C280.223 62.2667 280.69 62.1 281.156 61.9C284.356 59.9 287.256 57.5 289.856 54.7C292.523 51.9 294.956 48.7667 297.156 45.3C297.423 44.7667 297.69 43.9 297.956 42.7C298.29 41.5 298.456 40.4 298.456 39.4ZM328.17 37.3C328.503 37.1667 328.803 37.0667 329.07 37C329.336 36.8667 329.636 36.7333 329.97 36.6C330.77 36.4667 331.336 36.7 331.67 37.3C332.003 38.1 331.803 38.6667 331.07 39C328.603 40.2667 326.036 41.2333 323.37 41.9C320.703 42.5667 318.036 42.9667 315.37 43.1C314.436 43.1667 313.436 43.1667 312.37 43.1C311.37 43.0333 310.436 42.8 309.57 42.4C308.77 42 308.17 41.4333 307.77 40.7C307.37 39.9 307.336 38.8333 307.67 37.5C308.136 36.1667 308.57 35.2333 308.97 34.7C309.37 34.1667 310.136 33.6 311.27 33C312.47 32.4667 313.703 32.1 314.97 31.9C316.303 31.6333 317.57 31.5 318.77 31.5C319.903 31.6333 320.57 32.2 320.77 33.2C320.97 34.2667 320.603 35.0667 319.67 35.6C319.003 36 318.303 36.3667 317.57 36.7C316.836 36.9667 316.07 37.2333 315.27 37.5C314.67 37.6333 314.036 37.7333 313.37 37.8C312.703 37.8667 312.036 37.9 311.37 37.9C310.37 37.9 309.803 38.1333 309.67 38.6C309.603 39 309.803 39.4333 310.27 39.9C310.936 40.5667 312.103 40.9333 313.77 41C315.436 41 317.203 40.8667 319.07 40.6C321.003 40.2667 322.803 39.8 324.47 39.2C326.203 38.6 327.436 37.9667 328.17 37.3ZM318.07 34.4C318.536 33.8 318.536 33.5 318.07 33.5C317.67 33.4333 317.036 33.5333 316.17 33.8C315.37 34.0667 314.436 34.4667 313.37 35C312.303 35.5333 311.37 36.0667 310.57 36.6C311.57 36.7333 312.87 36.6 314.47 36.2C316.07 35.7333 317.27 35.1333 318.07 34.4ZM346.556 39.5C346.29 39.7 345.823 39.9333 345.156 40.2C342.956 41.1333 340.723 41.9667 338.456 42.7C336.256 43.4333 333.956 43.8667 331.556 44C331.023 44.1333 330.423 44.2 329.756 44.2C329.156 44.1333 328.556 44.0333 327.956 43.9C326.423 43.5 325.356 42.7333 324.756 41.6C324.09 40.4 324.123 39 324.856 37.4C324.99 37.2 325.09 37 325.156 36.8C325.223 36.5333 325.323 36.3 325.456 36.1C326.723 34.4333 328.123 33.0667 329.656 32C331.19 30.8667 332.99 30.0667 335.056 29.6C335.656 29.4 336.29 29.3333 336.956 29.4C337.623 29.4 338.256 29.5 338.856 29.7C339.856 30.0333 340.49 30.7333 340.756 31.8C341.09 32.8 340.89 33.7 340.156 34.5C340.023 34.6333 339.856 34.7667 339.656 34.9C339.456 34.9667 339.223 35 338.956 35C338.823 35 338.723 34.9 338.656 34.7C338.59 34.4333 338.49 34.2333 338.356 34.1C338.223 33.0333 337.99 32.3667 337.656 32.1C337.323 31.8333 336.656 31.8333 335.656 32.1C334.056 32.5667 332.623 33.2667 331.356 34.2C330.09 35.1333 328.99 36.2 328.056 37.4C327.79 37.7333 327.556 38.1667 327.356 38.7C326.956 40.0333 327.39 40.8333 328.656 41.1C329.59 41.3667 330.623 41.4 331.756 41.2C333.556 41.0667 335.29 40.7667 336.956 40.3C338.623 39.8333 340.223 39.2333 341.756 38.5C342.423 38.2333 343.056 37.9667 343.656 37.7C344.256 37.4333 344.89 37.2333 345.556 37.1C347.223 36.7 348.156 36.8 348.356 37.4C348.556 37.9333 347.956 38.6333 346.556 39.5ZM342.92 15.5C341.386 15.7 340.453 15.5667 340.12 15.1C339.72 14.6333 339.586 14.3 339.72 14.1C339.92 13.7667 340.286 13.4667 340.82 13.2C341.286 12.8667 342.22 12.7667 343.62 12.9C345.82 13.1 348.086 13.2 350.42 13.2C352.82 13.2 355.186 13.0333 357.52 12.7C357.72 12.5667 357.886 12.4 358.02 12.2C358.953 10.9333 359.653 9.93333 360.12 9.2C360.586 8.46666 361.02 7.8 361.42 7.2C361.82 6.6 362.253 5.96666 362.72 5.3C363.253 4.56666 363.986 3.56667 364.92 2.3C365.12 1.9 365.42 1.56666 365.82 1.29999C366.286 0.966661 366.72 0.966661 367.12 1.29999C367.253 1.43333 367.353 1.66666 367.42 2C367.486 2.33333 367.52 2.63333 367.52 2.9C367.453 3.16666 367.32 3.43333 367.12 3.7C366.92 3.96666 366.753 4.19999 366.62 4.4C365.886 5.4 365.353 6.13333 365.02 6.6C364.753 7.06666 364.486 7.53333 364.22 8C363.953 8.46666 363.62 9.03333 363.22 9.7C362.82 10.3667 362.12 11.4 361.12 12.8C362.52 13.0667 364.32 13.2667 366.52 13.4C368.786 13.4667 371.22 13.5 373.82 13.5C376.42 13.4333 379.086 13.3333 381.82 13.2C384.62 13 387.286 12.7667 389.82 12.5C391.42 12.3667 392.92 12.2333 394.32 12.1C395.72 11.9667 396.886 11.9333 397.82 12C399.486 12.1333 400.253 12.4667 400.12 13C399.986 13.5333 399.22 13.9667 397.82 14.3C396.62 14.5 394.953 14.6667 392.82 14.8C390.753 14.9333 388.486 15.0667 386.02 15.2C383.553 15.2667 380.953 15.3333 378.22 15.4C375.553 15.4 372.986 15.4 370.52 15.4C368.12 15.3333 365.92 15.3 363.92 15.3C361.986 15.3 360.486 15.2667 359.42 15.2C358.286 16.6667 357.086 18.2667 355.82 20C354.62 21.7333 353.42 23.5 352.22 25.3C351.086 27.1 350.02 28.8667 349.02 30.6C348.02 32.2667 347.153 33.8 346.42 35.2C345.82 36.4 345.22 37.7333 344.62 39.2C344.02 40.6 343.62 41.8667 343.42 43C343.286 44.0667 343.486 44.8667 344.02 45.4C344.553 45.8667 345.62 45.7667 347.22 45.1C347.953 44.8333 348.786 44.4333 349.72 43.9C350.653 43.3667 351.62 42.8 352.62 42.2C353.62 41.5333 354.586 40.8667 355.52 40.2C356.453 39.4667 357.32 38.7667 358.12 38.1C358.453 37.9 358.72 37.7 358.92 37.5C359.12 37.2333 359.386 37.0333 359.72 36.9C360.12 36.6333 360.453 36.4667 360.72 36.4C361.053 36.2667 361.386 36.4 361.72 36.8C361.986 37.2 362.02 37.6 361.82 38C361.686 38.3333 361.453 38.6667 361.12 39C360.72 39.4 360.02 39.9667 359.02 40.7C358.02 41.4333 356.853 42.2 355.52 43C354.253 43.8 352.886 44.6 351.42 45.4C350.02 46.1333 348.686 46.7333 347.42 47.2C345.153 48 343.586 48.1 342.72 47.5C341.786 46.8333 341.286 45.8667 341.22 44.6C341.086 43.3333 341.253 41.9333 341.72 40.4C342.186 38.8667 342.653 37.5333 343.12 36.4C343.92 34.5333 344.853 32.6667 345.92 30.8C346.986 28.9333 348.086 27.1 349.22 25.3C350.42 23.5 351.586 21.7667 352.72 20.1C353.92 18.3667 354.986 16.7667 355.92 15.3C353.72 15.3667 351.453 15.4333 349.12 15.5C346.853 15.5 344.786 15.5 342.92 15.5Z" fill="black"/>
</svg>
