<svg width="500" height="82" viewBox="0 0 500 82" fill="none" xmlns="http://www.w3.org/2000/svg">
<path d="M79.9 15.3C78.1667 16.0333 76.4333 16.8 74.7 17.6C72.9667 18.3333 71.2 19 69.4 19.6C65.6 21 61.7333 22.3667 57.8 23.7C53.9333 24.9667 50.0667 26.2 46.2 27.4C42.6667 28.5333 39.1667 29.6333 35.7 30.7C32.2333 31.7667 28.7 32.8 25.1 33.8C22.1 34.4667 19.1333 35.1333 16.2 35.8C13.2667 36.4667 10.3 37.1333 7.3 37.8C6.63333 38 5.96667 38.1333 5.3 38.2C4.7 38.2 4.03333 38.2 3.3 38.2C2.76667 38.3333 2.26667 38.2667 1.8 38C1.33333 37.7333 0.933333 37.1667 0.6 36.3C0.933333 36.1667 1.23333 36 1.5 35.8C1.7 35.5333 1.96667 35.4 2.3 35.4C9.1 34.4667 15.7667 33.0667 22.3 31.2C28.8333 29.2667 35.3667 27.2333 41.9 25.1C46.5 23.7667 51.0667 22.3333 55.6 20.8C60.2 19.2667 64.8 17.7 69.4 16.1C71.1333 15.4333 72.9 14.7 74.7 13.9C76.5 13.1 78.2667 12.3 80 11.5C80.3333 11.3 80.7 11.1667 81.1 11.1C81.5 10.9667 81.9 10.8667 82.3 10.8C83.2333 10.6667 83.8667 10.9333 84.2 11.6C84.6 12.2 84.6 13 84.2 14C84.0667 14.7333 83.8667 15.4 83.6 16C83.3333 16.5333 83.0667 17.1333 82.8 17.8C81.0667 21 79.3333 24.2333 77.6 27.5C75.8667 30.7 74.1333 33.9333 72.4 37.2C70.3333 41.4 68.2667 45.6333 66.2 49.9C64.1333 54.1 62.1 58.3 60.1 62.5C59.2333 64.3 58.4333 66.1333 57.7 68C56.9667 69.8667 56.1667 71.7 55.3 73.5C55.1667 73.9667 55.0667 74.4 55 74.8C54.9333 75.1333 54.8333 75.4667 54.7 75.8C54.7667 75.9333 54.8333 76 54.9 76C55.0333 76 55.1 76.0667 55.1 76.2C55.4333 75.9333 55.8 75.6667 56.2 75.4C56.6 75.0667 56.9667 74.7333 57.3 74.4C59.2333 72.2667 61.1333 70.1667 63 68.1C64.9333 65.9667 66.7667 63.8333 68.5 61.7C72.4333 56.7667 76.3 51.8333 80.1 46.9C83.9 41.9667 87.7333 37 91.6 32C93.5333 29.6 95.4667 27.2333 97.4 24.9C99.4 22.5 101.367 20.1 103.3 17.7C104.1 16.8333 104.8 16.1667 105.4 15.7C106.467 14.8333 107.333 14.6333 108 15.1C108.733 15.5667 109.167 16.5667 109.3 18.1C109.3 18.7667 109.233 19.4333 109.1 20.1C109.033 20.7667 108.933 21.4333 108.8 22.1C108.267 25.7667 107.7 29.3667 107.1 32.9C106.5 36.4333 105.867 40 105.2 43.6C104.267 49.3333 103.467 55.0333 102.8 60.7C102.533 61.3667 102.567 62.0333 102.9 62.7C103.1 62.3 103.333 61.8667 103.6 61.4C103.867 60.9333 104.133 60.4667 104.4 60C106.6 56 108.767 52.0333 110.9 48.1C113.1 44.1667 115.333 40.2333 117.6 36.3C120.4 31.5 123.267 26.9 126.2 22.5C129.2 18.0333 132.433 13.7333 135.9 9.6C136.967 8.33333 138.033 7.1 139.1 5.9C140.167 4.63333 141.267 3.43333 142.4 2.3C143 1.5 143.8 0.999996 144.8 0.799999C145 0.799999 145.233 0.833331 145.5 0.899997C145.767 0.966663 145.967 1.1 146.1 1.3C146.233 1.96666 146.233 2.56666 146.1 3.1C145.833 3.43333 145.567 3.8 145.3 4.2C145.1 4.53333 144.833 4.9 144.5 5.29999C143.233 6.63333 141.933 8 140.6 9.4C139.333 10.7333 138.1 12.1667 136.9 13.7C133.7 17.5667 130.667 21.6667 127.8 26C125 30.3333 122.3 34.8 119.7 39.4C117.233 43.6 114.8 47.9 112.4 52.3C110 56.6333 107.567 61 105.1 65.4C104.7 66.1333 104.267 66.9 103.8 67.7C103.333 68.4333 102.833 69.1667 102.3 69.9C101.567 71.1 100.7 71.5 99.7 71.1C99.1667 70.7667 98.8333 70.3 98.7 69.7C98.5667 69.1 98.5333 68.5 98.6 67.9C98.8 66.3 99 64.7333 99.2 63.2C99.4 61.6667 99.6333 60.0667 99.9 58.4C100.9 52.3333 101.867 46.3333 102.8 40.4C103.8 34.4 104.767 28.4 105.7 22.4C105.767 22.0667 105.8 21.7333 105.8 21.4C105.8 21.0667 105.833 20.6 105.9 20C105.433 20.4 105.033 20.7667 104.7 21.1C104.367 21.4333 104.067 21.7667 103.8 22.1C101.933 24.4333 100.033 26.8 98.1 29.2C96.2333 31.6 94.3333 34 92.4 36.4C87.8 42.4 83.2 48.3667 78.6 54.3C74.0667 60.2333 69.3667 65.9667 64.5 71.5C62.2333 74.1667 59.9 76.6 57.5 78.8C57.0333 79.2667 56.5333 79.6333 56 79.9C55.4667 80.1667 54.9 80.4667 54.3 80.8C53.3667 81.0667 52.5667 80.8667 51.9 80.2C51.3 79.6 51.0667 78.7 51.2 77.5C51.2667 76.8333 51.3667 76.1667 51.5 75.5C51.7 74.8333 51.9 74.1667 52.1 73.5C53.1667 71.1 54.2 68.6667 55.2 66.2C56.2 63.6667 57.2667 61.1667 58.4 58.7C61.6 51.8333 64.9 45.1 68.3 38.5C71.7 31.8333 75.1667 25.1667 78.7 18.5C79.0333 18.1 79.3 17.6667 79.5 17.2C79.7 16.7333 79.9333 16.2333 80.2 15.7C80.0667 15.5667 79.9667 15.4333 79.9 15.3ZM143.4 41.3C143.733 41.1667 144.033 41.0667 144.3 41C144.567 40.8667 144.867 40.7333 145.2 40.6C146 40.4667 146.567 40.7 146.9 41.3C147.233 42.1 147.033 42.6667 146.3 43C143.833 44.2667 141.267 45.2333 138.6 45.9C135.933 46.5667 133.267 46.9667 130.6 47.1C129.667 47.1667 128.667 47.1667 127.6 47.1C126.6 47.0333 125.667 46.8 124.8 46.4C124 46 123.4 45.4333 123 44.7C122.6 43.9 122.567 42.8333 122.9 41.5C123.367 40.1667 123.8 39.2333 124.2 38.7C124.6 38.1667 125.367 37.6 126.5 37C127.7 36.4667 128.933 36.1 130.2 35.9C131.533 35.6333 132.8 35.5 134 35.5C135.133 35.6333 135.8 36.2 136 37.2C136.2 38.2667 135.833 39.0667 134.9 39.6C134.233 40 133.533 40.3667 132.8 40.7C132.067 40.9667 131.3 41.2333 130.5 41.5C129.9 41.6333 129.267 41.7333 128.6 41.8C127.933 41.8667 127.267 41.9 126.6 41.9C125.6 41.9 125.033 42.1333 124.9 42.6C124.833 43 125.033 43.4333 125.5 43.9C126.167 44.5667 127.333 44.9333 129 45C130.667 45 132.433 44.8667 134.3 44.6C136.233 44.2667 138.033 43.8 139.7 43.2C141.433 42.6 142.667 41.9667 143.4 41.3ZM133.3 38.4C133.767 37.8 133.767 37.5 133.3 37.5C132.9 37.4333 132.267 37.5333 131.4 37.8C130.6 38.0667 129.667 38.4667 128.6 39C127.533 39.5333 126.6 40.0667 125.8 40.6C126.8 40.7333 128.1 40.6 129.7 40.2C131.3 39.7333 132.5 39.1333 133.3 38.4ZM140.587 46.4C141.32 45.6667 142.053 44.9667 142.787 44.3C143.52 43.6333 144.287 42.9333 145.087 42.2C146.487 40.8 147.953 39.5333 149.487 38.4C151.02 37.2 152.653 36.0333 154.387 34.9C155.12 34.5 155.82 34.1667 156.487 33.9C157.087 33.7 157.653 33.6 158.187 33.6C158.72 33.6 159.253 33.8333 159.787 34.3C160.32 34.7667 160.587 35.2667 160.587 35.8C160.653 36.3333 160.62 36.9 160.487 37.5C160.353 37.9667 160.187 38.4 159.987 38.8C159.853 39.2 159.72 39.6667 159.587 40.2C160.253 40.3333 160.753 40.4667 161.087 40.6H164.587C164.92 40.6 165.187 40.6 165.387 40.6C165.587 40.6 165.853 40.6333 166.187 40.7C167.12 40.9 167.52 41.4667 167.387 42.4C167.187 43.0667 166.653 43.4 165.787 43.4C164.853 43.3333 163.887 43.3 162.887 43.3C161.887 43.3 160.92 43.2333 159.987 43.1C159.12 43.0333 158.353 43.1333 157.687 43.4C157.02 43.6 156.353 44.0667 155.687 44.8C154.953 45.8 154.053 46.7 152.987 47.5C151.92 48.3 150.753 48.9 149.487 49.3C146.953 50.1 145.42 49.2 144.887 46.6C144.887 46.4667 144.853 46.3333 144.787 46.2C144.72 46.0667 144.653 45.8333 144.587 45.5C143.853 46.1667 143.153 46.8333 142.487 47.5C141.887 48.1 141.287 48.7 140.687 49.3C139.953 50.0333 139.22 50.7667 138.487 51.5C137.753 52.2333 137.02 52.9667 136.287 53.7C136.02 53.9 135.753 54.0667 135.487 54.2C135.153 54.2667 134.787 54.2 134.387 54C134.053 53.8 133.853 53.5333 133.787 53.2C133.72 52.8667 133.787 52.5333 133.987 52.2C134.32 51.3333 134.653 50.5333 134.987 49.8C135.32 49.0667 135.72 48.3 136.187 47.5C137.053 45.9667 137.92 44.4667 138.787 43C139.653 41.4667 140.487 39.9333 141.287 38.4C141.487 38 141.687 37.6667 141.887 37.4C142.153 37.0667 142.153 36.6333 141.887 36.1C141.887 35.6333 142.02 35.3333 142.287 35.2C143.62 34.2667 144.653 33.2 145.387 32C146.187 30.7333 147.02 29.4667 147.887 28.2C149.82 25.3333 151.787 22.5333 153.787 19.8C155.787 17.0667 157.953 14.4 160.287 11.8C160.953 11.0667 161.62 10.3667 162.287 9.7C163.02 9.03333 163.787 8.33333 164.587 7.59999C164.92 7.33333 165.22 7.1 165.487 6.9C165.753 6.7 166.087 6.53333 166.487 6.4C166.82 6.33333 167.153 6.33333 167.487 6.4C167.82 6.46666 168.12 6.6 168.387 6.8C168.787 6.93333 169.02 7.2 169.087 7.59999C169.153 8 169.12 8.36667 168.987 8.7C168.587 9.56667 168.187 10.4 167.787 11.2C167.453 12 167.02 12.7667 166.487 13.5C165.153 15.1667 163.82 16.8 162.487 18.4C161.153 19.9333 159.787 21.4667 158.387 23C156.92 24.6667 155.387 26.2667 153.787 27.8C152.253 29.3333 150.687 30.9 149.087 32.5C147.887 33.8333 146.787 35.2333 145.787 36.7C144.92 38.0333 144.087 39.4 143.287 40.8C142.487 42.2 141.653 43.6 140.787 45C140.653 45.2 140.587 45.4 140.587 45.6C140.587 45.8 140.52 46 140.387 46.2C140.387 46.2667 140.42 46.3 140.487 46.3L140.587 46.4ZM150.587 40.8C151.187 40.7333 151.787 40.7 152.387 40.7C153.053 40.6333 153.72 40.6 154.387 40.6C155.453 40.4667 156.287 40 156.887 39.2C157.553 38.3333 157.82 37.3333 157.687 36.2C156.22 36.6 154.92 37.2333 153.787 38.1C152.653 38.9 151.587 39.8 150.587 40.8ZM152.787 43.6C151.32 43.5333 150.153 43.7667 149.287 44.3C148.42 44.8333 147.987 45.6 147.987 46.6C148.92 46.5333 149.82 46.2333 150.687 45.7C151.553 45.1667 152.253 44.4667 152.787 43.6ZM160.687 15.8C160.62 15.8667 160.32 16.2 159.787 16.8C159.253 17.4 158.62 18.1333 157.887 19C157.22 19.8 156.487 20.6667 155.687 21.6C154.887 22.5333 154.153 23.4333 153.487 24.3C152.887 25.1 152.42 25.7667 152.087 26.3C151.753 26.8333 151.653 27.1333 151.787 27.2C152.653 26.2667 153.853 24.9667 155.387 23.3C156.92 21.5667 158.487 19.8 160.087 18C161.687 16.2 163.12 14.5667 164.387 13.1C165.72 11.6333 166.553 10.6333 166.887 10.1C167.287 9.56666 167.053 9.7 166.187 10.5C165.32 11.2333 163.487 13 160.687 15.8ZM205.894 47.1C204.76 46.9667 203.66 46.9 202.594 46.9C201.527 46.8333 200.427 46.7333 199.294 46.6C197.96 46.4667 196.56 46.3667 195.094 46.3C193.694 46.2333 192.294 46.2667 190.894 46.4C188.96 46.6 187.16 47.2667 185.494 48.4C183.494 49.7333 182.894 51.5333 183.694 53.8C183.96 54.6667 184.327 55.4333 184.794 56.1C185.327 56.7667 185.927 57.4667 186.594 58.2C188.327 60 190.227 61.5667 192.294 62.9C194.427 64.2333 196.66 65.4333 198.994 66.5C205.26 69.2333 211.727 70.4 218.394 70C219.727 69.9333 220.994 69.7667 222.194 69.5C223.46 69.2333 224.727 68.8333 225.994 68.3C226.194 68.3 226.327 68.2667 226.394 68.2C228.927 67 230.494 65.5667 231.094 63.9C231.76 62.2333 231.927 60.3 231.594 58.1C231.194 55.5 230.294 53.0333 228.894 50.7C227.827 48.9667 226.76 47.2667 225.694 45.6C224.627 43.9333 223.56 42.2333 222.494 40.5C221.227 38.5667 220.027 36.6 218.894 34.6C217.76 32.5333 216.927 30.3333 216.394 28C215.394 23.7333 216.394 20.0667 219.394 17C220.327 16.0667 221.327 15.2333 222.394 14.5C223.46 13.7667 224.56 13.1333 225.694 12.6C228.827 11.2 231.994 10.1333 235.194 9.4C238.394 8.66666 241.727 8.4 245.194 8.6C245.794 8.6 246.427 8.63333 247.094 8.7C247.76 8.76666 248.394 8.93333 248.994 9.2C252.127 10.2 253.794 12.3333 253.994 15.6C254.194 18.0667 253.627 20.3667 252.294 22.5C251.76 23.3667 251.16 24.2667 250.494 25.2C249.827 26.0667 249.127 26.8667 248.394 27.6C247.06 29.0667 245.66 30.5 244.194 31.9C242.727 33.3 241.26 34.6667 239.794 36C239.394 36.4 238.96 36.7667 238.494 37.1C238.094 37.4333 237.56 37.6 236.894 37.6C236.76 37.2667 236.76 37 236.894 36.8C237.094 36.6 237.26 36.4333 237.394 36.3C238.794 34.9 240.194 33.5 241.594 32.1C242.994 30.7 244.36 29.2667 245.694 27.8C246.627 26.7333 247.46 25.6667 248.194 24.6C248.927 23.4667 249.66 22.3333 250.394 21.2C251.394 19.6 251.794 17.8667 251.594 16C251.527 14.8 251.194 13.8 250.594 13C249.994 12.1333 249.06 11.6 247.794 11.4C246.26 11 244.76 10.8 243.294 10.8C236.627 11 230.494 12.6667 224.894 15.8C223.827 16.4 222.794 17.1333 221.794 18C218.86 20.5333 217.86 23.7 218.794 27.5C219.127 28.9 219.56 30.2333 220.094 31.5C220.627 32.7 221.26 33.9 221.994 35.1C223.06 36.8333 224.127 38.5333 225.194 40.2C226.26 41.8667 227.36 43.5667 228.494 45.3C229.56 46.9 230.527 48.5667 231.394 50.3C232.26 52.0333 232.96 53.8333 233.494 55.7C233.76 56.4333 233.927 57.1 233.994 57.7C234.127 58.3 234.227 58.9333 234.294 59.6C234.494 62 234.094 64.0667 233.094 65.8C232.094 67.5333 230.56 68.9667 228.494 70.1C226.827 71.0333 225.094 71.6667 223.294 72C221.494 72.3333 219.66 72.5333 217.794 72.6C207.194 73 197.56 70.0333 188.894 63.7C187.694 62.7667 186.56 61.8 185.494 60.8C184.427 59.8 183.46 58.6333 182.594 57.3C180.86 54.7667 180.36 52.3667 181.094 50.1C181.76 47.8333 183.527 46.1333 186.394 45C188.06 44.2667 189.76 43.8667 191.494 43.8C193.294 43.6667 195.06 43.6667 196.794 43.8C199.727 44 202.494 44.8 205.094 46.2C205.294 46.3333 205.46 46.4333 205.594 46.5C205.727 46.5667 205.86 46.6667 205.994 46.8V46.9C205.994 46.9667 205.96 47.0333 205.894 47.1ZM247.783 19.5C246.249 19.7 245.316 19.5667 244.983 19.1C244.583 18.6333 244.449 18.3 244.583 18.1C244.783 17.7667 245.149 17.4667 245.683 17.2C246.149 16.8667 247.083 16.7667 248.483 16.9C250.683 17.1 252.949 17.2 255.283 17.2C257.683 17.2 260.049 17.0333 262.383 16.7C262.583 16.5667 262.749 16.4 262.883 16.2C263.816 14.9333 264.516 13.9333 264.983 13.2C265.449 12.4667 265.883 11.8 266.283 11.2C266.683 10.6 267.116 9.96666 267.583 9.3C268.116 8.56666 268.849 7.56667 269.783 6.3C269.983 5.9 270.283 5.56666 270.683 5.29999C271.149 4.96666 271.583 4.96666 271.983 5.29999C272.116 5.43333 272.216 5.66666 272.283 6C272.349 6.33333 272.383 6.63333 272.383 6.9C272.316 7.16666 272.183 7.43333 271.983 7.7C271.783 7.96666 271.616 8.19999 271.483 8.4C270.749 9.4 270.216 10.1333 269.883 10.6C269.616 11.0667 269.349 11.5333 269.083 12C268.816 12.4667 268.483 13.0333 268.083 13.7C267.683 14.3667 266.983 15.4 265.983 16.8C267.383 17.0667 269.183 17.2667 271.383 17.4C273.649 17.4667 276.083 17.5 278.683 17.5C281.283 17.4333 283.949 17.3333 286.683 17.2C289.483 17 292.149 16.7667 294.683 16.5C296.283 16.3667 297.783 16.2333 299.183 16.1C300.583 15.9667 301.749 15.9333 302.683 16C304.349 16.1333 305.116 16.4667 304.983 17C304.849 17.5333 304.083 17.9667 302.683 18.3C301.483 18.5 299.816 18.6667 297.683 18.8C295.616 18.9333 293.349 19.0667 290.883 19.2C288.416 19.2667 285.816 19.3333 283.083 19.4C280.416 19.4 277.849 19.4 275.383 19.4C272.983 19.3333 270.783 19.3 268.783 19.3C266.849 19.3 265.349 19.2667 264.283 19.2C263.149 20.6667 261.949 22.2667 260.683 24C259.483 25.7333 258.283 27.5 257.083 29.3C255.949 31.1 254.883 32.8667 253.883 34.6C252.883 36.2667 252.016 37.8 251.283 39.2C250.683 40.4 250.083 41.7333 249.483 43.2C248.883 44.6 248.483 45.8667 248.283 47C248.149 48.0667 248.349 48.8667 248.883 49.4C249.416 49.8667 250.483 49.7667 252.083 49.1C252.816 48.8333 253.649 48.4333 254.583 47.9C255.516 47.3667 256.483 46.8 257.483 46.2C258.483 45.5333 259.449 44.8667 260.383 44.2C261.316 43.4667 262.183 42.7667 262.983 42.1C263.316 41.9 263.583 41.7 263.783 41.5C263.983 41.2333 264.249 41.0333 264.583 40.9C264.983 40.6333 265.316 40.4667 265.583 40.4C265.916 40.2667 266.249 40.4 266.583 40.8C266.849 41.2 266.883 41.6 266.683 42C266.549 42.3333 266.316 42.6667 265.983 43C265.583 43.4 264.883 43.9667 263.883 44.7C262.883 45.4333 261.716 46.2 260.383 47C259.116 47.8 257.749 48.6 256.283 49.4C254.883 50.1333 253.549 50.7333 252.283 51.2C250.016 52 248.449 52.1 247.583 51.5C246.649 50.8333 246.149 49.8667 246.083 48.6C245.949 47.3333 246.116 45.9333 246.583 44.4C247.049 42.8667 247.516 41.5333 247.983 40.4C248.783 38.5333 249.716 36.6667 250.783 34.8C251.849 32.9333 252.949 31.1 254.083 29.3C255.283 27.5 256.449 25.7667 257.583 24.1C258.783 22.3667 259.849 20.7667 260.783 19.3C258.583 19.3667 256.316 19.4333 253.983 19.5C251.716 19.5 249.649 19.5 247.783 19.5ZM288.261 42.6C287.528 43.3333 286.394 44.1 284.861 44.9C283.394 45.7 281.894 46.2667 280.361 46.6C278.894 46.9333 277.594 46.9 276.461 46.5C275.328 46.1 274.761 45.0333 274.761 43.3C274.761 42.7667 274.794 42.2333 274.861 41.7C274.928 41.1 275.028 40.4667 275.161 39.8C273.428 40.8667 271.728 41.9333 270.061 43C268.461 44 266.794 44.9667 265.061 45.9C264.661 46.2333 264.194 46.4333 263.661 46.5C263.194 46.5667 262.728 46.6333 262.261 46.7C260.794 46.9 259.761 46.4667 259.161 45.4C258.561 44.3333 258.661 43.2333 259.461 42.1C259.794 41.7 260.094 41.3333 260.361 41C260.628 40.6667 260.961 40.3333 261.361 40C263.094 38.4667 264.994 37.3333 267.061 36.6C269.128 35.8667 271.361 35.6 273.761 35.8C274.628 35.9333 275.328 35.6667 275.861 35C276.328 34.5333 276.761 34.0667 277.161 33.6C277.628 33.1333 278.094 32.6667 278.561 32.2C278.694 32 278.861 31.8 279.061 31.6C279.261 31.4 279.461 31.2667 279.661 31.2C279.861 31.1333 280.094 31.1 280.361 31.1C280.694 31.1 280.961 31.1667 281.161 31.3C281.494 31.7667 281.628 32.2667 281.561 32.8C281.494 33.3333 281.228 34 280.761 34.8C280.561 35.2 280.161 36.0333 279.561 37.3C278.961 38.5 278.494 39.7 278.161 40.9C277.894 42.1 277.894 43.1 278.161 43.9C278.428 44.6333 279.328 44.7667 280.861 44.3C281.661 44.1 282.528 43.7667 283.461 43.3C284.394 42.7667 285.328 42.2667 286.261 41.8C286.528 41.6667 286.794 41.5333 287.061 41.4C287.328 41.2 287.628 41.1333 287.961 41.2C288.294 41.3333 288.528 41.5667 288.661 41.9C288.861 42.1667 288.728 42.4 288.261 42.6ZM261.961 43.8C263.894 43.4667 265.928 42.7333 268.061 41.6C270.194 40.4 271.928 39.1333 273.261 37.8C271.261 37.9333 269.161 38.5333 266.961 39.6C264.761 40.6667 263.094 42.0667 261.961 43.8ZM300.428 48.1C302.161 47.4333 304.161 46.5333 306.428 45.4C308.695 44.2 310.695 43.1333 312.428 42.2C313.495 41.7333 314.328 41.5333 314.928 41.6C315.595 41.6 315.995 41.7667 316.128 42.1C316.261 42.3667 316.128 42.7667 315.728 43.3C315.395 43.7667 314.728 44.2333 313.728 44.7C311.661 45.6333 309.561 46.5667 307.428 47.5C305.361 48.3667 303.261 49.2333 301.128 50.1C299.661 50.7 298.295 50.7667 297.028 50.3C295.828 49.7 295.361 48.5667 295.628 46.9C295.761 46.2333 295.961 45.6667 296.228 45.2C296.495 44.6667 296.695 44.1 296.828 43.5C297.095 42.7667 297.328 42.1 297.528 41.5C297.795 40.9 297.895 40.4333 297.828 40.1C297.828 39.7 297.595 39.4667 297.128 39.4C296.728 39.3333 295.995 39.4667 294.928 39.8C293.795 40.4 292.661 41.0333 291.528 41.7C290.461 42.3 289.395 42.9333 288.328 43.6C287.328 44.3333 286.328 45.0667 285.328 45.8C284.395 46.5333 283.395 47.2667 282.328 48C282.195 48.1333 282.061 48.3 281.928 48.5C281.728 48.6333 281.495 48.7667 281.228 48.9C280.895 49.0333 280.561 49.1667 280.228 49.3C279.828 49.4333 279.428 49.3 279.028 48.9C278.695 48.5667 278.561 48.2333 278.628 47.9C278.628 47.5 278.761 47.1333 279.028 46.8C279.561 46 280.095 45.2 280.628 44.4C281.095 43.6 281.595 42.8 282.128 42C282.795 41.1333 283.428 40.2667 284.028 39.4C284.628 38.5333 285.228 37.6333 285.828 36.7C286.161 36.3 286.395 35.9 286.528 35.5C287.661 34.1 288.495 33.6667 289.028 34.2C289.628 34.6 289.428 35.5667 288.428 37.1C287.961 37.8333 287.528 38.5667 287.128 39.3C286.728 39.9667 286.261 40.6333 285.728 41.3C285.528 41.5667 285.161 42 284.628 42.6C284.095 43.2 283.628 43.7667 283.228 44.3C282.828 44.7667 282.628 45.0667 282.628 45.2C282.561 45.3333 282.928 45.0333 283.728 44.3C285.195 43.1 286.728 41.9667 288.328 40.9C289.995 39.7667 291.661 38.8 293.328 38C293.995 37.6667 294.728 37.3667 295.528 37.1C296.395 36.7667 297.161 36.6333 297.828 36.7C298.561 36.7 299.161 36.9333 299.628 37.4C300.161 37.8667 300.495 38.6333 300.628 39.7C300.761 40.7667 300.561 41.7667 300.028 42.7C299.495 43.5667 298.995 44.5 298.528 45.5C298.061 46.7667 297.928 47.6667 298.128 48.2C298.328 48.6667 299.095 48.6333 300.428 48.1ZM316.371 58.9C317.038 58.5667 317.571 58.3333 317.971 58.2C318.438 58.0667 318.804 57.8333 319.071 57.5C320.404 56.5 321.738 55.4667 323.071 54.4C324.404 53.3333 325.704 52.2333 326.971 51.1C328.438 49.7667 330.004 48.4 331.671 47C333.338 45.5333 334.871 44.1 336.271 42.7C337.004 42.0333 337.638 41.6 338.171 41.4C338.771 41.1333 339.171 41.1 339.371 41.3C339.638 41.5 339.638 41.8667 339.371 42.4C339.171 42.9333 338.671 43.6 337.871 44.4C335.138 47.2 332.371 49.9333 329.571 52.6C326.838 55.2 323.871 57.6 320.671 59.8C320.204 60.1333 319.704 60.4333 319.171 60.7C318.704 60.9667 318.204 61.1667 317.671 61.3C316.538 61.7 315.538 61.6 314.671 61C313.871 60.4 313.571 59.5 313.771 58.3C313.904 57.5 314.071 56.7333 314.271 56C314.471 55.2 314.738 54.4333 315.071 53.7C316.004 51.7 316.971 49.6667 317.971 47.6C318.971 45.5333 319.971 43.5 320.971 41.5C321.104 41.2333 321.204 41 321.271 40.8C321.338 40.6 321.371 40.3333 321.371 40C321.038 40.2667 320.738 40.5 320.471 40.7C320.271 40.9 320.038 41.1 319.771 41.3C317.571 43.1 315.404 44.7667 313.271 46.3C312.938 46.4333 312.571 46.6 312.171 46.8C311.771 46.9333 311.371 47.0333 310.971 47.1C310.104 47.2333 309.404 47.0667 308.871 46.6C308.338 46.1333 308.104 45.5 308.171 44.7C308.238 44.2333 308.371 43.7667 308.571 43.3C308.771 42.8333 308.971 42.3667 309.171 41.9C310.104 40.7 311.171 39.7 312.371 38.9C313.638 38.0333 315.004 37.3333 316.471 36.8C317.538 36.3333 318.538 36.1 319.471 36.1C320.271 35.9667 320.971 35.7333 321.571 35.4C322.238 35 322.838 34.5333 323.371 34C325.438 31.6667 327.304 29.2667 328.971 26.8C330.704 24.2667 332.438 21.7 334.171 19.1C334.304 18.9 334.438 18.6667 334.571 18.4C334.704 18.1333 334.871 17.9 335.071 17.7C336.071 16.4333 336.938 16 337.671 16.4C338.538 16.8667 338.538 17.9 337.671 19.5C337.204 20.1 336.738 20.7333 336.271 21.4C335.871 22.0667 335.504 22.7 335.171 23.3C332.171 27.9 329.304 32.5 326.571 37.1C323.904 41.6333 321.404 46.3 319.071 51.1C318.471 52.2333 317.938 53.4 317.471 54.6C317.004 55.8 316.638 57.2333 316.371 58.9ZM311.471 43.9C314.138 42.8333 315.971 41.4333 316.971 39.7C315.838 40.0333 314.771 40.5667 313.771 41.3C312.771 41.9667 312.004 42.8333 311.471 43.9ZM360.991 42.6C360.258 43.3333 359.125 44.1 357.591 44.9C356.125 45.7 354.625 46.2667 353.091 46.6C351.625 46.9333 350.325 46.9 349.191 46.5C348.058 46.1 347.491 45.0333 347.491 43.3C347.491 42.7667 347.525 42.2333 347.591 41.7C347.658 41.1 347.758 40.4667 347.891 39.8C346.158 40.8667 344.458 41.9333 342.791 43C341.191 44 339.525 44.9667 337.791 45.9C337.391 46.2333 336.925 46.4333 336.391 46.5C335.925 46.5667 335.458 46.6333 334.991 46.7C333.525 46.9 332.491 46.4667 331.891 45.4C331.291 44.3333 331.391 43.2333 332.191 42.1C332.525 41.7 332.825 41.3333 333.091 41C333.358 40.6667 333.691 40.3333 334.091 40C335.825 38.4667 337.725 37.3333 339.791 36.6C341.858 35.8667 344.091 35.6 346.491 35.8C347.358 35.9333 348.058 35.6667 348.591 35C349.058 34.5333 349.491 34.0667 349.891 33.6C350.358 33.1333 350.825 32.6667 351.291 32.2C351.425 32 351.591 31.8 351.791 31.6C351.991 31.4 352.191 31.2667 352.391 31.2C352.591 31.1333 352.825 31.1 353.091 31.1C353.425 31.1 353.691 31.1667 353.891 31.3C354.225 31.7667 354.358 32.2667 354.291 32.8C354.225 33.3333 353.958 34 353.491 34.8C353.291 35.2 352.891 36.0333 352.291 37.3C351.691 38.5 351.225 39.7 350.891 40.9C350.625 42.1 350.625 43.1 350.891 43.9C351.158 44.6333 352.058 44.7667 353.591 44.3C354.391 44.1 355.258 43.7667 356.191 43.3C357.125 42.7667 358.058 42.2667 358.991 41.8C359.258 41.6667 359.525 41.5333 359.791 41.4C360.058 41.2 360.358 41.1333 360.691 41.2C361.025 41.3333 361.258 41.5667 361.391 41.9C361.591 42.1667 361.458 42.4 360.991 42.6ZM334.691 43.8C336.625 43.4667 338.658 42.7333 340.791 41.6C342.925 40.4 344.658 39.1333 345.991 37.8C343.991 37.9333 341.891 38.5333 339.691 39.6C337.491 40.6667 335.825 42.0667 334.691 43.8ZM372.559 44.5C371.759 44.4333 371.125 44.2333 370.659 43.9C370.192 43.5667 369.792 43.1333 369.459 42.6C369.192 42.0667 368.959 41.5 368.759 40.9C368.625 40.3 368.492 39.7 368.359 39.1C367.959 38.1667 367.392 37.7 366.659 37.7C365.925 37.7 365.159 37.9333 364.359 38.4C363.625 38.8 362.925 39.3333 362.259 40C361.592 40.6667 361.059 41.1667 360.659 41.5C358.325 43.4333 356.525 45.6 355.259 48C355.059 48.5333 354.759 48.9667 354.359 49.3C353.892 49.6333 353.459 49.8667 353.059 50C352.659 50.0667 352.325 50 352.059 49.8C351.725 49.6 351.559 49.2 351.559 48.6C351.559 48.2667 351.625 48 351.759 47.8C351.892 47.6 352.025 47.3667 352.159 47.1C353.425 44.8333 354.659 42.5667 355.859 40.3C357.059 38.0333 358.292 35.7667 359.559 33.5C359.892 32.8333 360.325 32.2333 360.859 31.7C360.992 31.5667 361.159 31.4667 361.359 31.4C361.625 31.3333 361.825 31.3667 361.959 31.5C362.425 31.7667 362.592 32.1333 362.459 32.6C362.459 33.0667 362.325 33.6333 362.059 34.3C361.592 35.1667 361.159 36.0333 360.759 36.9C360.359 37.7667 359.992 38.6667 359.659 39.6C360.192 39.2 360.525 38.9333 360.659 38.8C361.325 38.2667 361.925 37.7667 362.459 37.3C363.059 36.7667 363.659 36.3 364.259 35.9C365.059 35.2333 365.959 34.8333 366.959 34.7C368.959 34.2333 370.259 34.9667 370.859 36.9C370.992 37.4333 371.092 37.9333 371.159 38.4C371.225 38.8667 371.325 39.3333 371.459 39.8C371.592 40.5333 371.825 41.0333 372.159 41.3C372.492 41.5 373.059 41.5667 373.859 41.5C374.192 41.5 374.525 41.5 374.859 41.5C375.259 41.4333 375.625 41.4 375.959 41.4C376.892 41.3333 377.525 41.4667 377.859 41.8C378.192 42.1333 378.225 42.5333 377.959 43C377.692 43.4 377.092 43.7667 376.159 44.1C375.292 44.4333 374.092 44.5667 372.559 44.5ZM379.043 58.9C379.71 58.5667 380.243 58.3333 380.643 58.2C381.11 58.0667 381.476 57.8333 381.743 57.5C383.076 56.5 384.41 55.4667 385.743 54.4C387.076 53.3333 388.376 52.2333 389.643 51.1C391.11 49.7667 392.676 48.4 394.343 47C396.01 45.5333 397.543 44.1 398.943 42.7C399.676 42.0333 400.31 41.6 400.843 41.4C401.443 41.1333 401.843 41.1 402.043 41.3C402.31 41.5 402.31 41.8667 402.043 42.4C401.843 42.9333 401.343 43.6 400.543 44.4C397.81 47.2 395.043 49.9333 392.243 52.6C389.51 55.2 386.543 57.6 383.343 59.8C382.876 60.1333 382.376 60.4333 381.843 60.7C381.376 60.9667 380.876 61.1667 380.343 61.3C379.21 61.7 378.21 61.6 377.343 61C376.543 60.4 376.243 59.5 376.443 58.3C376.576 57.5 376.743 56.7333 376.943 56C377.143 55.2 377.41 54.4333 377.743 53.7C378.676 51.7 379.643 49.6667 380.643 47.6C381.643 45.5333 382.643 43.5 383.643 41.5C383.776 41.2333 383.876 41 383.943 40.8C384.01 40.6 384.043 40.3333 384.043 40C383.71 40.2667 383.41 40.5 383.143 40.7C382.943 40.9 382.71 41.1 382.443 41.3C380.243 43.1 378.076 44.7667 375.943 46.3C375.61 46.4333 375.243 46.6 374.843 46.8C374.443 46.9333 374.043 47.0333 373.643 47.1C372.776 47.2333 372.076 47.0667 371.543 46.6C371.01 46.1333 370.776 45.5 370.843 44.7C370.91 44.2333 371.043 43.7667 371.243 43.3C371.443 42.8333 371.643 42.3667 371.843 41.9C372.776 40.7 373.843 39.7 375.043 38.9C376.31 38.0333 377.676 37.3333 379.143 36.8C380.21 36.3333 381.21 36.1 382.143 36.1C382.943 35.9667 383.643 35.7333 384.243 35.4C384.91 35 385.51 34.5333 386.043 34C388.11 31.6667 389.976 29.2667 391.643 26.8C393.376 24.2667 395.11 21.7 396.843 19.1C396.976 18.9 397.11 18.6667 397.243 18.4C397.376 18.1333 397.543 17.9 397.743 17.7C398.743 16.4333 399.61 16 400.343 16.4C401.21 16.8667 401.21 17.9 400.343 19.5C399.876 20.1 399.41 20.7333 398.943 21.4C398.543 22.0667 398.176 22.7 397.843 23.3C394.843 27.9 391.976 32.5 389.243 37.1C386.576 41.6333 384.076 46.3 381.743 51.1C381.143 52.2333 380.61 53.4 380.143 54.6C379.676 55.8 379.31 57.2333 379.043 58.9ZM374.143 43.9C376.81 42.8333 378.643 41.4333 379.643 39.7C378.51 40.0333 377.443 40.5667 376.443 41.3C375.443 41.9667 374.676 42.8333 374.143 43.9ZM424.287 40.9C424.887 40.3 425.32 39.6 425.587 38.8C425.92 37.9333 426.02 37.2 425.887 36.6C425.753 35.9333 425.387 35.5 424.787 35.3C424.187 35.0333 423.32 35.2333 422.187 35.9C421.653 36.2333 421.087 36.6667 420.487 37.2C419.887 37.7333 419.387 38.3333 418.987 39C418.587 39.6 418.353 40.2333 418.287 40.9C418.287 41.5667 418.587 42.1333 419.187 42.6C419.853 43.2667 420.553 43.9667 421.287 44.7C422.02 45.3667 422.753 46 423.487 46.6C425.42 45.7333 427.32 44.9667 429.187 44.3C431.053 43.6333 432.953 42.7333 434.887 41.6C435.687 41.1333 436.42 40.8667 437.087 40.8C437.42 40.8 437.753 40.8667 438.087 41C438.42 41.0667 438.653 41.3333 438.787 41.8C438.587 42.4 438.253 42.8333 437.787 43.1C437.32 43.3 436.853 43.4667 436.387 43.6C435.453 44 434.353 44.4333 433.087 44.9C431.82 45.3 430.553 45.7667 429.287 46.3C428.02 46.7667 426.853 47.3 425.787 47.9C424.72 48.5 423.953 49.1333 423.487 49.8C422.953 50.8667 422.053 51.8333 420.787 52.7C419.387 53.6333 417.92 54.4333 416.387 55.1C414.92 55.7 413.32 56.1 411.587 56.3C410.72 56.3667 409.787 56.3 408.787 56.1C408.52 56.0333 408.32 55.8667 408.187 55.6C407.987 55.3333 407.853 55.0333 407.787 54.7C407.653 54.3667 407.72 54.1333 407.987 54C408.253 53.8667 408.52 53.7 408.787 53.5C410.387 52.1667 412.12 51 413.987 50C415.787 48.9333 417.853 48.0333 420.187 47.3C419.987 47.1 419.753 46.9333 419.487 46.8C419.287 46.6 419.087 46.3667 418.887 46.1C418.42 45.7 417.953 45.3 417.487 44.9C417.087 44.5 416.72 44.0667 416.387 43.6C415.653 42.6667 415.287 41.7 415.287 40.7C415.287 39.6333 415.687 38.6333 416.487 37.7C417.62 36.5 418.853 35.5 420.187 34.7C421.587 33.9 423.12 33.4 424.787 33.2C426.853 32.8667 428.187 33.4333 428.787 34.9C429.187 35.6333 429.287 36.3667 429.087 37.1C428.887 37.8333 428.52 38.5 427.987 39.1C427.453 39.7667 426.953 40.2667 426.487 40.6C426.02 40.8667 425.42 41.1667 424.687 41.5C424.62 41.3667 424.553 41.2667 424.487 41.2C424.42 41.1333 424.353 41.0333 424.287 40.9ZM412.387 53.2C411.92 54 411.92 54.4333 412.387 54.5C412.853 54.5667 413.553 54.4 414.487 54C415.353 53.6 416.353 53.0333 417.487 52.3C418.62 51.5 419.653 50.6667 420.587 49.8C419.32 49.8 417.853 50.1 416.187 50.7C414.52 51.2333 413.253 52.0667 412.387 53.2ZM447.162 43.7C445.695 44.5 444.195 45.2667 442.662 46C441.195 46.7333 439.628 47.3 437.962 47.7C437.428 47.7667 436.895 47.8333 436.362 47.9C435.828 47.9 435.295 47.8333 434.762 47.7C433.828 47.5667 433.162 47.1333 432.762 46.4C432.295 45.6667 432.128 44.8667 432.262 44C432.262 43.4667 432.328 42.9 432.462 42.3C432.528 41.7 432.728 41.1667 433.062 40.7C433.795 39.5 434.462 38.1667 435.062 36.7C435.728 35.2333 436.495 33.9333 437.362 32.8C437.695 32.4 438.095 32.2 438.562 32.2C439.028 32.1333 439.428 32.2667 439.762 32.6C440.162 32.8667 440.395 33.3 440.462 33.9C440.528 34.4333 440.295 35.0333 439.762 35.7C439.095 36.7667 438.428 37.8 437.762 38.8C437.095 39.8 436.428 40.8667 435.762 42C435.095 43.4 434.795 44.4333 434.862 45.1C434.995 45.7 435.328 46.0667 435.862 46.2C436.462 46.3333 437.195 46.2667 438.062 46C438.928 45.7333 439.795 45.3667 440.662 44.9C441.595 44.4333 442.462 43.9667 443.262 43.5C444.062 42.9667 444.628 42.5 444.962 42.1C445.628 41.3667 446.228 41 446.762 41C447.295 40.9333 447.662 41.0667 447.862 41.4C448.128 41.6667 448.228 42.0667 448.162 42.6C448.095 43.0667 447.762 43.4333 447.162 43.7ZM444.762 24.8C445.295 24.8 445.695 24.9667 445.962 25.3C446.295 25.6333 446.395 26.0333 446.262 26.5C446.128 27.0333 445.762 27.6 445.162 28.2C444.562 28.8 443.928 29.3 443.262 29.7C442.328 30.2333 441.662 30.4333 441.262 30.3C440.928 30.1667 440.895 29.4667 441.162 28.2C441.295 27.4 441.628 26.6333 442.162 25.9C442.762 25.1667 443.628 24.8 444.762 24.8ZM442.041 19.5C440.507 19.7 439.574 19.5667 439.241 19.1C438.841 18.6333 438.707 18.3 438.841 18.1C439.041 17.7667 439.407 17.4667 439.941 17.2C440.407 16.8667 441.341 16.7667 442.741 16.9C444.941 17.1 447.207 17.2 449.541 17.2C451.941 17.2 454.307 17.0333 456.641 16.7C456.841 16.5667 457.007 16.4 457.141 16.2C458.074 14.9333 458.774 13.9333 459.241 13.2C459.707 12.4667 460.141 11.8 460.541 11.2C460.941 10.6 461.374 9.96666 461.841 9.3C462.374 8.56666 463.107 7.56667 464.041 6.3C464.241 5.9 464.541 5.56666 464.941 5.29999C465.407 4.96666 465.841 4.96666 466.241 5.29999C466.374 5.43333 466.474 5.66666 466.541 6C466.607 6.33333 466.641 6.63333 466.641 6.9C466.574 7.16666 466.441 7.43333 466.241 7.7C466.041 7.96666 465.874 8.19999 465.741 8.4C465.007 9.4 464.474 10.1333 464.141 10.6C463.874 11.0667 463.607 11.5333 463.341 12C463.074 12.4667 462.741 13.0333 462.341 13.7C461.941 14.3667 461.241 15.4 460.241 16.8C461.641 17.0667 463.441 17.2667 465.641 17.4C467.907 17.4667 470.341 17.5 472.941 17.5C475.541 17.4333 478.207 17.3333 480.941 17.2C483.741 17 486.407 16.7667 488.941 16.5C490.541 16.3667 492.041 16.2333 493.441 16.1C494.841 15.9667 496.007 15.9333 496.941 16C498.607 16.1333 499.374 16.4667 499.241 17C499.107 17.5333 498.341 17.9667 496.941 18.3C495.741 18.5 494.074 18.6667 491.941 18.8C489.874 18.9333 487.607 19.0667 485.141 19.2C482.674 19.2667 480.074 19.3333 477.341 19.4C474.674 19.4 472.107 19.4 469.641 19.4C467.241 19.3333 465.041 19.3 463.041 19.3C461.107 19.3 459.607 19.2667 458.541 19.2C457.407 20.6667 456.207 22.2667 454.941 24C453.741 25.7333 452.541 27.5 451.341 29.3C450.207 31.1 449.141 32.8667 448.141 34.6C447.141 36.2667 446.274 37.8 445.541 39.2C444.941 40.4 444.341 41.7333 443.741 43.2C443.141 44.6 442.741 45.8667 442.541 47C442.407 48.0667 442.607 48.8667 443.141 49.4C443.674 49.8667 444.741 49.7667 446.341 49.1C447.074 48.8333 447.907 48.4333 448.841 47.9C449.774 47.3667 450.741 46.8 451.741 46.2C452.741 45.5333 453.707 44.8667 454.641 44.2C455.574 43.4667 456.441 42.7667 457.241 42.1C457.574 41.9 457.841 41.7 458.041 41.5C458.241 41.2333 458.507 41.0333 458.841 40.9C459.241 40.6333 459.574 40.4667 459.841 40.4C460.174 40.2667 460.507 40.4 460.841 40.8C461.107 41.2 461.141 41.6 460.941 42C460.807 42.3333 460.574 42.6667 460.241 43C459.841 43.4 459.141 43.9667 458.141 44.7C457.141 45.4333 455.974 46.2 454.641 47C453.374 47.8 452.007 48.6 450.541 49.4C449.141 50.1333 447.807 50.7333 446.541 51.2C444.274 52 442.707 52.1 441.841 51.5C440.907 50.8333 440.407 49.8667 440.341 48.6C440.207 47.3333 440.374 45.9333 440.841 44.4C441.307 42.8667 441.774 41.5333 442.241 40.4C443.041 38.5333 443.974 36.6667 445.041 34.8C446.107 32.9333 447.207 31.1 448.341 29.3C449.541 27.5 450.707 25.7667 451.841 24.1C453.041 22.3667 454.107 20.7667 455.041 19.3C452.841 19.3667 450.574 19.4333 448.241 19.5C445.974 19.5 443.907 19.5 442.041 19.5ZM475.119 41.3C475.452 41.1667 475.752 41.0667 476.019 41C476.285 40.8667 476.585 40.7333 476.919 40.6C477.719 40.4667 478.285 40.7 478.619 41.3C478.952 42.1 478.752 42.6667 478.019 43C475.552 44.2667 472.985 45.2333 470.319 45.9C467.652 46.5667 464.985 46.9667 462.319 47.1C461.385 47.1667 460.385 47.1667 459.319 47.1C458.319 47.0333 457.385 46.8 456.519 46.4C455.719 46 455.119 45.4333 454.719 44.7C454.319 43.9 454.285 42.8333 454.619 41.5C455.085 40.1667 455.519 39.2333 455.919 38.7C456.319 38.1667 457.085 37.6 458.219 37C459.419 36.4667 460.652 36.1 461.919 35.9C463.252 35.6333 464.519 35.5 465.719 35.5C466.852 35.6333 467.519 36.2 467.719 37.2C467.919 38.2667 467.552 39.0667 466.619 39.6C465.952 40 465.252 40.3667 464.519 40.7C463.785 40.9667 463.019 41.2333 462.219 41.5C461.619 41.6333 460.985 41.7333 460.319 41.8C459.652 41.8667 458.985 41.9 458.319 41.9C457.319 41.9 456.752 42.1333 456.619 42.6C456.552 43 456.752 43.4333 457.219 43.9C457.885 44.5667 459.052 44.9333 460.719 45C462.385 45 464.152 44.8667 466.019 44.6C467.952 44.2667 469.752 43.8 471.419 43.2C473.152 42.6 474.385 41.9667 475.119 41.3ZM465.019 38.4C465.485 37.8 465.485 37.5 465.019 37.5C464.619 37.4333 463.985 37.5333 463.119 37.8C462.319 38.0667 461.385 38.4667 460.319 39C459.252 39.5333 458.319 40.0667 457.519 40.6C458.519 40.7333 459.819 40.6 461.419 40.2C463.019 39.7333 464.219 39.1333 465.019 38.4Z" fill="black"/>
</svg>
